M48
; DRILL file KiCad 10.0.3 date 2026-07-21T15:16:52
; FORMAT={-:-/ absolute / metric / decimal}
; #@! TF.CreationDate,2026-07-21T15:16:52+03:00
; #@! TF.GenerationSoftware,Kicad,Pcbnew,10.0.3
; #@! TF.FileFunction,MixedPlating,1,4
FMAT,2
METRIC
; #@! TA.AperFunction,Plated,PTH,ViaDrill
T1C0.300
; #@! TA.AperFunction,Plated,PTH,ComponentDrill
T2C0.950
; #@! TA.AperFunction,Plated,PTH,ComponentDrill
T3C1.000
; #@! TA.AperFunction,Plated,PTH,ComponentDrill
T4C2.700
; #@! TA.AperFunction,NonPlated,NPTH,ComponentDrill
T5C1.100
; #@! TA.AperFunction,NonPlated,NPTH,ComponentDrill
T6C1.200
%
G90
G05
T1
X101.0Y-101.0
X101.0Y-102.8
X101.0Y-109.4
X101.0Y-115.8
X101.0Y-122.0
X101.0Y-124.0
X103.6Y-112.6
X104.0Y-101.0
X104.0Y-103.8
X104.0Y-122.0
X104.0Y-124.0
X106.0Y-106.0
X106.0Y-124.0
X107.0Y-101.0
X107.2Y-108.35
X107.25Y-118.25
X107.25Y-121.25
X107.3Y-114.4
X107.625Y-111.175
X107.8Y-109.8
X108.0Y-106.0
X108.0Y-124.0
X108.3Y-111.775
X108.3Y-113.5
X108.49Y-109.8
X108.9Y-111.1
X109.19Y-109.8
X109.2Y-108.35
X109.4Y-113.0
X110.0Y-124.0
X110.25Y-121.25
X110.3Y-112.3
X110.3Y-118.9
X110.3Y-119.5
X111.0Y-119.2
X111.198Y-112.3
X111.5Y-121.25
X111.6Y-113.1
X111.6Y-119.0
X111.85Y-114.475
X112.0Y-124.0
X112.002Y-112.3
X112.4Y-113.1
X112.75Y-115.375
X112.987Y-112.31
X113.0Y-119.0
X113.3Y-113.1
X113.5Y-120.8
X113.6Y-108.5
X113.642Y-111.768
X113.8Y-105.0
X114.0Y-124.0
X114.5Y-111.4
X114.8Y-105.0
X115.5Y-114.975
X116.0Y-124.0
X116.6Y-111.2
X116.9Y-118.9
X117.175Y-120.75
X118.0Y-124.0
X118.225Y-120.15
X118.875Y-111.8
X118.875Y-113.4
X119.0Y-116.1
X119.283Y-107.5
X119.4Y-122.8
X119.65Y-116.1
X120.0Y-111.25
X120.0Y-113.75
X120.2Y-122.8
X120.25Y-107.6
X120.625Y-118.8
X121.0Y-122.8
X121.75Y-111.25
X121.75Y-114.0
X122.0Y-107.2
X122.275Y-110.725
X122.4Y-119.6
X123.1Y-120.325
X123.4Y-107.2
X124.25Y-117.65
X124.25Y-121.65
X124.4Y-111.8
X124.4Y-113.4
X124.4Y-114.8
X124.6Y-110.2
X124.975Y-116.8
X125.34Y-110.14
X125.4Y-109.4
X125.6Y-111.8
X125.6Y-113.4
X125.6Y-114.8
X126.5Y-118.6
X126.6Y-108.2
X126.7Y-111.0
X126.7Y-117.7
X127.4Y-114.5
X128.0Y-102.0
X128.0Y-104.0
X128.25Y-120.25
X128.5Y-114.5
X128.6Y-108.0
X129.2Y-119.8
X129.5Y-113.7
X129.7Y-116.6
X129.75Y-106.75
X129.8Y-112.0
X129.95Y-114.2
X130.0Y-102.0
X130.0Y-104.0
X130.0Y-121.2
X130.75Y-106.75
X130.8Y-114.0
X131.1Y-109.8
X131.1Y-112.0
X131.75Y-114.25
X132.0Y-102.0
X132.0Y-104.0
X132.25Y-116.0
X132.404Y-116.896
X132.5Y-107.8
X133.25Y-116.767
X134.1Y-120.6
X134.2Y-118.3
X134.5Y-116.5
X134.95Y-111.6
X134.95Y-112.35
X134.95Y-113.1
X135.7Y-110.85
X135.7Y-111.6
X135.7Y-112.35
X135.7Y-113.1
X136.0Y-106.0
X136.45Y-110.85
X136.45Y-111.6
X136.45Y-112.35
X136.45Y-113.1
X136.6Y-120.2
X137.0Y-107.25
X137.2Y-110.85
X137.2Y-111.6
X137.2Y-112.35
X137.25Y-117.1
X137.25Y-118.1
X137.4Y-120.2
X138.2Y-120.2
X138.35Y-101.525
X138.4Y-119.35
X138.5Y-107.4
X139.0Y-105.0
X139.175Y-102.75
X139.25Y-106.766
X139.4Y-119.35
X139.5Y-116.75
X139.5Y-117.75
X139.6Y-121.4
X140.3Y-106.75
X140.8Y-111.475
X140.8Y-121.6
X141.15Y-106.55
X141.25Y-115.0
X141.6Y-121.6
X141.7Y-101.1
X141.7Y-109.017
X141.75Y-111.5
X142.0Y-113.7
X142.0Y-115.75
X142.0Y-116.75
X142.0Y-117.55
X142.2Y-106.75
X143.4Y-101.1
X143.425Y-117.2
X144.55Y-107.8
X144.7Y-112.9
X145.9Y-116.8
X146.0Y-109.15
X146.0Y-119.0
X146.525Y-104.425
X146.6Y-124.0
X146.8Y-107.4
X147.25Y-114.0
X147.275Y-108.975
X147.5Y-116.7
X147.5Y-117.4
X147.775Y-109.975
X148.0Y-124.0
X148.9Y-110.2
X149.0Y-103.6
X149.0Y-115.0
X149.2Y-116.0
X149.6Y-120.2
X149.6Y-124.0
X149.8Y-118.4
X150.2Y-101.3
X150.525Y-109.2
X150.6Y-105.1
X151.2Y-116.0
X151.3Y-119.4
X151.75Y-106.75
X151.75Y-107.5
X152.0Y-101.25
X152.3Y-107.1
X152.4Y-119.4
X153.0Y-119.4
X153.9Y-117.2
X154.0Y-101.25
X154.0Y-119.4
X154.25Y-110.6
X154.5Y-104.575
X154.8Y-107.8
X155.1Y-106.8
X155.25Y-117.5
X155.3Y-114.7
X155.5Y-104.7
X155.75Y-115.55
X155.75Y-118.25
X155.85Y-110.5
X156.0Y-101.25
X156.25Y-108.75
X156.4Y-106.6
X156.46Y-118.9
X156.75Y-103.5
X157.4Y-123.2
X157.55Y-117.5
X157.575Y-116.85
X158.0Y-101.25
X158.0Y-103.5
X158.0Y-104.75
X158.2Y-120.55
X158.4Y-106.6
X158.55Y-117.55
X158.6Y-113.8
X158.75Y-123.25
X159.75Y-105.25
X160.0Y-103.5
X160.75Y-103.5
X160.75Y-122.2
X160.9Y-102.4
X160.9Y-114.2
X160.9Y-115.6
X161.0Y-107.6
X161.0Y-109.25
X161.1Y-105.4
X161.1Y-111.0
X161.8Y-119.6
X161.8Y-124.1
X162.6Y-117.6
X162.8Y-105.4
X162.8Y-107.2
X162.8Y-120.4
X163.0Y-103.25
X163.6Y-111.2
X163.75Y-109.5
X163.8Y-114.4
X164.25Y-101.25
X164.25Y-119.75
X164.25Y-124.0
X166.5Y-102.3
X166.5Y-104.0
X166.5Y-110.0
X166.5Y-112.5
X166.5Y-115.0
X166.5Y-121.0
X166.6Y-122.8
X167.6Y-103.2
X167.6Y-121.8
X169.0Y-102.5
X169.0Y-105.0
X169.0Y-107.5
X169.0Y-110.0
X169.0Y-112.5
X169.0Y-115.0
X169.0Y-117.5
X169.0Y-120.0
X169.0Y-122.5
T2
X111.75Y-102.975
X114.25Y-102.975
X116.75Y-102.975
T3
X122.0Y-102.46
X122.0Y-105.0
T4
X102.7Y-106.8
X102.7Y-118.5
T5
X102.7Y-110.4
X102.7Y-114.9
T6
X110.15Y-104.975
M30
