%TF.GenerationSoftware,KiCad,Pcbnew,10.0.3*%
%TF.CreationDate,2026-07-21T15:16:09+03:00*%
%TF.ProjectId,FailDeadly,4661696c-4465-4616-946c-792e6b696361,001*%
%TF.SameCoordinates,Original*%
%TF.FileFunction,Copper,L4,Bot*%
%TF.FilePolarity,Positive*%
%FSLAX46Y46*%
G04 Gerber Fmt 4.6, Leading zero omitted, Abs format (unit mm)*
G04 Created by KiCad (PCBNEW 10.0.3) date 2026-07-21 15:16:09*
%MOMM*%
%LPD*%
G01*
G04 APERTURE LIST*
G04 Aperture macros list*
%AMRoundRect*
0 Rectangle with rounded corners*
0 $1 Rounding radius*
0 $2 $3 $4 $5 $6 $7 $8 $9 X,Y pos of 4 corners*
0 Add a 4 corners polygon primitive as box body*
4,1,4,$2,$3,$4,$5,$6,$7,$8,$9,$2,$3,0*
0 Add four circle primitives for the rounded corners*
1,1,$1+$1,$2,$3*
1,1,$1+$1,$4,$5*
1,1,$1+$1,$6,$7*
1,1,$1+$1,$8,$9*
0 Add four rect primitives between the rounded corners*
20,1,$1+$1,$2,$3,$4,$5,0*
20,1,$1+$1,$4,$5,$6,$7,0*
20,1,$1+$1,$6,$7,$8,$9,0*
20,1,$1+$1,$8,$9,$2,$3,0*%
G04 Aperture macros list end*
%ADD10C,0.150000*%
%ADD11C,0.300000*%
%ADD12C,0.400000*%
%TA.AperFunction,ComponentPad*%
%ADD13R,1.700000X1.700000*%
%TD*%
%TA.AperFunction,ComponentPad*%
%ADD14C,1.700000*%
%TD*%
%TA.AperFunction,ComponentPad*%
%ADD15C,4.000000*%
%TD*%
%TA.AperFunction,ComponentPad*%
%ADD16RoundRect,0.250000X-0.600000X-0.725000X0.600000X-0.725000X0.600000X0.725000X-0.600000X0.725000X0*%
%TD*%
%TA.AperFunction,ComponentPad*%
%ADD17O,1.700000X1.950000*%
%TD*%
%TA.AperFunction,SMDPad,CuDef*%
%ADD18R,1.000000X3.150000*%
%TD*%
%TA.AperFunction,ViaPad*%
%ADD19C,0.600000*%
%TD*%
%TA.AperFunction,Conductor*%
%ADD20C,0.150000*%
%TD*%
%TA.AperFunction,Conductor*%
%ADD21C,0.250000*%
%TD*%
%TA.AperFunction,Conductor*%
%ADD22C,0.500000*%
%TD*%
G04 APERTURE END LIST*
D10*
X177002200Y-166007200D02*
X285002200Y-166007200D01*
X285002200Y-198007200D01*
X177002200Y-198007200D01*
X177002200Y-166007200D01*
X10000000Y-10000000D02*
X287002200Y-10000000D01*
X287002200Y-200007200D01*
X10000000Y-200007200D01*
X10000000Y-10000000D01*
X12000000Y-12000000D02*
X285002200Y-12000000D01*
X285002200Y-198007200D01*
X12000000Y-198007200D01*
X12000000Y-12000000D01*
X60000000Y-12000000D02*
X60000000Y-10000000D01*
X110000000Y-12000000D02*
X110000000Y-10000000D01*
X160000000Y-12000000D02*
X160000000Y-10000000D01*
X210000000Y-12000000D02*
X210000000Y-10000000D01*
X260000000Y-12000000D02*
X260000000Y-10000000D01*
X36089160Y-11593604D02*
X35346303Y-11593604D01*
X35717731Y-11593604D02*
X35717731Y-10293604D01*
X35717731Y-10293604D02*
X35593922Y-10479319D01*
X35593922Y-10479319D02*
X35470112Y-10603128D01*
X35470112Y-10603128D02*
X35346303Y-10665033D01*
X85346303Y-10417414D02*
X85408207Y-10355509D01*
X85408207Y-10355509D02*
X85532017Y-10293604D01*
X85532017Y-10293604D02*
X85841541Y-10293604D01*
X85841541Y-10293604D02*
X85965350Y-10355509D01*
X85965350Y-10355509D02*
X86027255Y-10417414D01*
X86027255Y-10417414D02*
X86089160Y-10541223D01*
X86089160Y-10541223D02*
X86089160Y-10665033D01*
X86089160Y-10665033D02*
X86027255Y-10850747D01*
X86027255Y-10850747D02*
X85284398Y-11593604D01*
X85284398Y-11593604D02*
X86089160Y-11593604D01*
X135284398Y-10293604D02*
X136089160Y-10293604D01*
X136089160Y-10293604D02*
X135655826Y-10788842D01*
X135655826Y-10788842D02*
X135841541Y-10788842D01*
X135841541Y-10788842D02*
X135965350Y-10850747D01*
X135965350Y-10850747D02*
X136027255Y-10912652D01*
X136027255Y-10912652D02*
X136089160Y-11036461D01*
X136089160Y-11036461D02*
X136089160Y-11345985D01*
X136089160Y-11345985D02*
X136027255Y-11469795D01*
X136027255Y-11469795D02*
X135965350Y-11531700D01*
X135965350Y-11531700D02*
X135841541Y-11593604D01*
X135841541Y-11593604D02*
X135470112Y-11593604D01*
X135470112Y-11593604D02*
X135346303Y-11531700D01*
X135346303Y-11531700D02*
X135284398Y-11469795D01*
X185965350Y-10726938D02*
X185965350Y-11593604D01*
X185655826Y-10231700D02*
X185346303Y-11160271D01*
X185346303Y-11160271D02*
X186151064Y-11160271D01*
X236027255Y-10293604D02*
X235408207Y-10293604D01*
X235408207Y-10293604D02*
X235346303Y-10912652D01*
X235346303Y-10912652D02*
X235408207Y-10850747D01*
X235408207Y-10850747D02*
X235532017Y-10788842D01*
X235532017Y-10788842D02*
X235841541Y-10788842D01*
X235841541Y-10788842D02*
X235965350Y-10850747D01*
X235965350Y-10850747D02*
X236027255Y-10912652D01*
X236027255Y-10912652D02*
X236089160Y-11036461D01*
X236089160Y-11036461D02*
X236089160Y-11345985D01*
X236089160Y-11345985D02*
X236027255Y-11469795D01*
X236027255Y-11469795D02*
X235965350Y-11531700D01*
X235965350Y-11531700D02*
X235841541Y-11593604D01*
X235841541Y-11593604D02*
X235532017Y-11593604D01*
X235532017Y-11593604D02*
X235408207Y-11531700D01*
X235408207Y-11531700D02*
X235346303Y-11469795D01*
X285965350Y-10293604D02*
X285717731Y-10293604D01*
X285717731Y-10293604D02*
X285593922Y-10355509D01*
X285593922Y-10355509D02*
X285532017Y-10417414D01*
X285532017Y-10417414D02*
X285408207Y-10603128D01*
X285408207Y-10603128D02*
X285346303Y-10850747D01*
X285346303Y-10850747D02*
X285346303Y-11345985D01*
X285346303Y-11345985D02*
X285408207Y-11469795D01*
X285408207Y-11469795D02*
X285470112Y-11531700D01*
X285470112Y-11531700D02*
X285593922Y-11593604D01*
X285593922Y-11593604D02*
X285841541Y-11593604D01*
X285841541Y-11593604D02*
X285965350Y-11531700D01*
X285965350Y-11531700D02*
X286027255Y-11469795D01*
X286027255Y-11469795D02*
X286089160Y-11345985D01*
X286089160Y-11345985D02*
X286089160Y-11036461D01*
X286089160Y-11036461D02*
X286027255Y-10912652D01*
X286027255Y-10912652D02*
X285965350Y-10850747D01*
X285965350Y-10850747D02*
X285841541Y-10788842D01*
X285841541Y-10788842D02*
X285593922Y-10788842D01*
X285593922Y-10788842D02*
X285470112Y-10850747D01*
X285470112Y-10850747D02*
X285408207Y-10912652D01*
X285408207Y-10912652D02*
X285346303Y-11036461D01*
X60000000Y-198007200D02*
X60000000Y-200007200D01*
X110000000Y-198007200D02*
X110000000Y-200007200D01*
X160000000Y-198007200D02*
X160000000Y-200007200D01*
X210000000Y-198007200D02*
X210000000Y-200007200D01*
X260000000Y-198007200D02*
X260000000Y-200007200D01*
X36089160Y-199600804D02*
X35346303Y-199600804D01*
X35717731Y-199600804D02*
X35717731Y-198300804D01*
X35717731Y-198300804D02*
X35593922Y-198486519D01*
X35593922Y-198486519D02*
X35470112Y-198610328D01*
X35470112Y-198610328D02*
X35346303Y-198672233D01*
X85346303Y-198424614D02*
X85408207Y-198362709D01*
X85408207Y-198362709D02*
X85532017Y-198300804D01*
X85532017Y-198300804D02*
X85841541Y-198300804D01*
X85841541Y-198300804D02*
X85965350Y-198362709D01*
X85965350Y-198362709D02*
X86027255Y-198424614D01*
X86027255Y-198424614D02*
X86089160Y-198548423D01*
X86089160Y-198548423D02*
X86089160Y-198672233D01*
X86089160Y-198672233D02*
X86027255Y-198857947D01*
X86027255Y-198857947D02*
X85284398Y-199600804D01*
X85284398Y-199600804D02*
X86089160Y-199600804D01*
X135284398Y-198300804D02*
X136089160Y-198300804D01*
X136089160Y-198300804D02*
X135655826Y-198796042D01*
X135655826Y-198796042D02*
X135841541Y-198796042D01*
X135841541Y-198796042D02*
X135965350Y-198857947D01*
X135965350Y-198857947D02*
X136027255Y-198919852D01*
X136027255Y-198919852D02*
X136089160Y-199043661D01*
X136089160Y-199043661D02*
X136089160Y-199353185D01*
X136089160Y-199353185D02*
X136027255Y-199476995D01*
X136027255Y-199476995D02*
X135965350Y-199538900D01*
X135965350Y-199538900D02*
X135841541Y-199600804D01*
X135841541Y-199600804D02*
X135470112Y-199600804D01*
X135470112Y-199600804D02*
X135346303Y-199538900D01*
X135346303Y-199538900D02*
X135284398Y-199476995D01*
X185965350Y-198734138D02*
X185965350Y-199600804D01*
X185655826Y-198238900D02*
X185346303Y-199167471D01*
X185346303Y-199167471D02*
X186151064Y-199167471D01*
X236027255Y-198300804D02*
X235408207Y-198300804D01*
X235408207Y-198300804D02*
X235346303Y-198919852D01*
X235346303Y-198919852D02*
X235408207Y-198857947D01*
X235408207Y-198857947D02*
X235532017Y-198796042D01*
X235532017Y-198796042D02*
X235841541Y-198796042D01*
X235841541Y-198796042D02*
X235965350Y-198857947D01*
X235965350Y-198857947D02*
X236027255Y-198919852D01*
X236027255Y-198919852D02*
X236089160Y-199043661D01*
X236089160Y-199043661D02*
X236089160Y-199353185D01*
X236089160Y-199353185D02*
X236027255Y-199476995D01*
X236027255Y-199476995D02*
X235965350Y-199538900D01*
X235965350Y-199538900D02*
X235841541Y-199600804D01*
X235841541Y-199600804D02*
X235532017Y-199600804D01*
X235532017Y-199600804D02*
X235408207Y-199538900D01*
X235408207Y-199538900D02*
X235346303Y-199476995D01*
X285965350Y-198300804D02*
X285717731Y-198300804D01*
X285717731Y-198300804D02*
X285593922Y-198362709D01*
X285593922Y-198362709D02*
X285532017Y-198424614D01*
X285532017Y-198424614D02*
X285408207Y-198610328D01*
X285408207Y-198610328D02*
X285346303Y-198857947D01*
X285346303Y-198857947D02*
X285346303Y-199353185D01*
X285346303Y-199353185D02*
X285408207Y-199476995D01*
X285408207Y-199476995D02*
X285470112Y-199538900D01*
X285470112Y-199538900D02*
X285593922Y-199600804D01*
X285593922Y-199600804D02*
X285841541Y-199600804D01*
X285841541Y-199600804D02*
X285965350Y-199538900D01*
X285965350Y-199538900D02*
X286027255Y-199476995D01*
X286027255Y-199476995D02*
X286089160Y-199353185D01*
X286089160Y-199353185D02*
X286089160Y-199043661D01*
X286089160Y-199043661D02*
X286027255Y-198919852D01*
X286027255Y-198919852D02*
X285965350Y-198857947D01*
X285965350Y-198857947D02*
X285841541Y-198796042D01*
X285841541Y-198796042D02*
X285593922Y-198796042D01*
X285593922Y-198796042D02*
X285470112Y-198857947D01*
X285470112Y-198857947D02*
X285408207Y-198919852D01*
X285408207Y-198919852D02*
X285346303Y-199043661D01*
X10000000Y-60000000D02*
X12000000Y-60000000D01*
X10000000Y-110000000D02*
X12000000Y-110000000D01*
X10000000Y-160000000D02*
X12000000Y-160000000D01*
X10690476Y-35222176D02*
X11309523Y-35222176D01*
X10566666Y-35593604D02*
X10999999Y-34293604D01*
X10999999Y-34293604D02*
X11433333Y-35593604D01*
X11092857Y-84912652D02*
X11278571Y-84974557D01*
X11278571Y-84974557D02*
X11340476Y-85036461D01*
X11340476Y-85036461D02*
X11402380Y-85160271D01*
X11402380Y-85160271D02*
X11402380Y-85345985D01*
X11402380Y-85345985D02*
X11340476Y-85469795D01*
X11340476Y-85469795D02*
X11278571Y-85531700D01*
X11278571Y-85531700D02*
X11154761Y-85593604D01*
X11154761Y-85593604D02*
X10659523Y-85593604D01*
X10659523Y-85593604D02*
X10659523Y-84293604D01*
X10659523Y-84293604D02*
X11092857Y-84293604D01*
X11092857Y-84293604D02*
X11216666Y-84355509D01*
X11216666Y-84355509D02*
X11278571Y-84417414D01*
X11278571Y-84417414D02*
X11340476Y-84541223D01*
X11340476Y-84541223D02*
X11340476Y-84665033D01*
X11340476Y-84665033D02*
X11278571Y-84788842D01*
X11278571Y-84788842D02*
X11216666Y-84850747D01*
X11216666Y-84850747D02*
X11092857Y-84912652D01*
X11092857Y-84912652D02*
X10659523Y-84912652D01*
X11402380Y-135469795D02*
X11340476Y-135531700D01*
X11340476Y-135531700D02*
X11154761Y-135593604D01*
X11154761Y-135593604D02*
X11030952Y-135593604D01*
X11030952Y-135593604D02*
X10845238Y-135531700D01*
X10845238Y-135531700D02*
X10721428Y-135407890D01*
X10721428Y-135407890D02*
X10659523Y-135284080D01*
X10659523Y-135284080D02*
X10597619Y-135036461D01*
X10597619Y-135036461D02*
X10597619Y-134850747D01*
X10597619Y-134850747D02*
X10659523Y-134603128D01*
X10659523Y-134603128D02*
X10721428Y-134479319D01*
X10721428Y-134479319D02*
X10845238Y-134355509D01*
X10845238Y-134355509D02*
X11030952Y-134293604D01*
X11030952Y-134293604D02*
X11154761Y-134293604D01*
X11154761Y-134293604D02*
X11340476Y-134355509D01*
X11340476Y-134355509D02*
X11402380Y-134417414D01*
X10659523Y-185593604D02*
X10659523Y-184293604D01*
X10659523Y-184293604D02*
X10969047Y-184293604D01*
X10969047Y-184293604D02*
X11154761Y-184355509D01*
X11154761Y-184355509D02*
X11278571Y-184479319D01*
X11278571Y-184479319D02*
X11340476Y-184603128D01*
X11340476Y-184603128D02*
X11402380Y-184850747D01*
X11402380Y-184850747D02*
X11402380Y-185036461D01*
X11402380Y-185036461D02*
X11340476Y-185284080D01*
X11340476Y-185284080D02*
X11278571Y-185407890D01*
X11278571Y-185407890D02*
X11154761Y-185531700D01*
X11154761Y-185531700D02*
X10969047Y-185593604D01*
X10969047Y-185593604D02*
X10659523Y-185593604D01*
X287002200Y-60000000D02*
X285002200Y-60000000D01*
X287002200Y-110000000D02*
X285002200Y-110000000D01*
X287002200Y-160000000D02*
X285002200Y-160000000D01*
X285692676Y-35222176D02*
X286311723Y-35222176D01*
X285568866Y-35593604D02*
X286002199Y-34293604D01*
X286002199Y-34293604D02*
X286435533Y-35593604D01*
X286095057Y-84912652D02*
X286280771Y-84974557D01*
X286280771Y-84974557D02*
X286342676Y-85036461D01*
X286342676Y-85036461D02*
X286404580Y-85160271D01*
X286404580Y-85160271D02*
X286404580Y-85345985D01*
X286404580Y-85345985D02*
X286342676Y-85469795D01*
X286342676Y-85469795D02*
X286280771Y-85531700D01*
X286280771Y-85531700D02*
X286156961Y-85593604D01*
X286156961Y-85593604D02*
X285661723Y-85593604D01*
X285661723Y-85593604D02*
X285661723Y-84293604D01*
X285661723Y-84293604D02*
X286095057Y-84293604D01*
X286095057Y-84293604D02*
X286218866Y-84355509D01*
X286218866Y-84355509D02*
X286280771Y-84417414D01*
X286280771Y-84417414D02*
X286342676Y-84541223D01*
X286342676Y-84541223D02*
X286342676Y-84665033D01*
X286342676Y-84665033D02*
X286280771Y-84788842D01*
X286280771Y-84788842D02*
X286218866Y-84850747D01*
X286218866Y-84850747D02*
X286095057Y-84912652D01*
X286095057Y-84912652D02*
X285661723Y-84912652D01*
X286404580Y-135469795D02*
X286342676Y-135531700D01*
X286342676Y-135531700D02*
X286156961Y-135593604D01*
X286156961Y-135593604D02*
X286033152Y-135593604D01*
X286033152Y-135593604D02*
X285847438Y-135531700D01*
X285847438Y-135531700D02*
X285723628Y-135407890D01*
X285723628Y-135407890D02*
X285661723Y-135284080D01*
X285661723Y-135284080D02*
X285599819Y-135036461D01*
X285599819Y-135036461D02*
X285599819Y-134850747D01*
X285599819Y-134850747D02*
X285661723Y-134603128D01*
X285661723Y-134603128D02*
X285723628Y-134479319D01*
X285723628Y-134479319D02*
X285847438Y-134355509D01*
X285847438Y-134355509D02*
X286033152Y-134293604D01*
X286033152Y-134293604D02*
X286156961Y-134293604D01*
X286156961Y-134293604D02*
X286342676Y-134355509D01*
X286342676Y-134355509D02*
X286404580Y-134417414D01*
X285661723Y-185593604D02*
X285661723Y-184293604D01*
X285661723Y-184293604D02*
X285971247Y-184293604D01*
X285971247Y-184293604D02*
X286156961Y-184355509D01*
X286156961Y-184355509D02*
X286280771Y-184479319D01*
X286280771Y-184479319D02*
X286342676Y-184603128D01*
X286342676Y-184603128D02*
X286404580Y-184850747D01*
X286404580Y-184850747D02*
X286404580Y-185036461D01*
X286404580Y-185036461D02*
X286342676Y-185284080D01*
X286342676Y-185284080D02*
X286280771Y-185407890D01*
X286280771Y-185407890D02*
X286156961Y-185531700D01*
X286156961Y-185531700D02*
X285971247Y-185593604D01*
X285971247Y-185593604D02*
X285661723Y-185593604D01*
X200458026Y-193793328D02*
X200458026Y-192293328D01*
X200458026Y-192293328D02*
X200815169Y-192293328D01*
X200815169Y-192293328D02*
X201029455Y-192364757D01*
X201029455Y-192364757D02*
X201172312Y-192507614D01*
X201172312Y-192507614D02*
X201243741Y-192650471D01*
X201243741Y-192650471D02*
X201315169Y-192936185D01*
X201315169Y-192936185D02*
X201315169Y-193150471D01*
X201315169Y-193150471D02*
X201243741Y-193436185D01*
X201243741Y-193436185D02*
X201172312Y-193579042D01*
X201172312Y-193579042D02*
X201029455Y-193721900D01*
X201029455Y-193721900D02*
X200815169Y-193793328D01*
X200815169Y-193793328D02*
X200458026Y-193793328D01*
X202600884Y-193793328D02*
X202600884Y-193007614D01*
X202600884Y-193007614D02*
X202529455Y-192864757D01*
X202529455Y-192864757D02*
X202386598Y-192793328D01*
X202386598Y-192793328D02*
X202100884Y-192793328D01*
X202100884Y-192793328D02*
X201958026Y-192864757D01*
X202600884Y-193721900D02*
X202458026Y-193793328D01*
X202458026Y-193793328D02*
X202100884Y-193793328D01*
X202100884Y-193793328D02*
X201958026Y-193721900D01*
X201958026Y-193721900D02*
X201886598Y-193579042D01*
X201886598Y-193579042D02*
X201886598Y-193436185D01*
X201886598Y-193436185D02*
X201958026Y-193293328D01*
X201958026Y-193293328D02*
X202100884Y-193221900D01*
X202100884Y-193221900D02*
X202458026Y-193221900D01*
X202458026Y-193221900D02*
X202600884Y-193150471D01*
X203100884Y-192793328D02*
X203672312Y-192793328D01*
X203315169Y-192293328D02*
X203315169Y-193579042D01*
X203315169Y-193579042D02*
X203386598Y-193721900D01*
X203386598Y-193721900D02*
X203529455Y-193793328D01*
X203529455Y-193793328D02*
X203672312Y-193793328D01*
X204743741Y-193721900D02*
X204600884Y-193793328D01*
X204600884Y-193793328D02*
X204315170Y-193793328D01*
X204315170Y-193793328D02*
X204172312Y-193721900D01*
X204172312Y-193721900D02*
X204100884Y-193579042D01*
X204100884Y-193579042D02*
X204100884Y-193007614D01*
X204100884Y-193007614D02*
X204172312Y-192864757D01*
X204172312Y-192864757D02*
X204315170Y-192793328D01*
X204315170Y-192793328D02*
X204600884Y-192793328D01*
X204600884Y-192793328D02*
X204743741Y-192864757D01*
X204743741Y-192864757D02*
X204815170Y-193007614D01*
X204815170Y-193007614D02*
X204815170Y-193150471D01*
X204815170Y-193150471D02*
X204100884Y-193293328D01*
X205458026Y-193650471D02*
X205529455Y-193721900D01*
X205529455Y-193721900D02*
X205458026Y-193793328D01*
X205458026Y-193793328D02*
X205386598Y-193721900D01*
X205386598Y-193721900D02*
X205458026Y-193650471D01*
X205458026Y-193650471D02*
X205458026Y-193793328D01*
X205458026Y-192864757D02*
X205529455Y-192936185D01*
X205529455Y-192936185D02*
X205458026Y-193007614D01*
X205458026Y-193007614D02*
X205386598Y-192936185D01*
X205386598Y-192936185D02*
X205458026Y-192864757D01*
X205458026Y-192864757D02*
X205458026Y-193007614D01*
X207243741Y-192436185D02*
X207315169Y-192364757D01*
X207315169Y-192364757D02*
X207458027Y-192293328D01*
X207458027Y-192293328D02*
X207815169Y-192293328D01*
X207815169Y-192293328D02*
X207958027Y-192364757D01*
X207958027Y-192364757D02*
X208029455Y-192436185D01*
X208029455Y-192436185D02*
X208100884Y-192579042D01*
X208100884Y-192579042D02*
X208100884Y-192721900D01*
X208100884Y-192721900D02*
X208029455Y-192936185D01*
X208029455Y-192936185D02*
X207172312Y-193793328D01*
X207172312Y-193793328D02*
X208100884Y-193793328D01*
X209029455Y-192293328D02*
X209172312Y-192293328D01*
X209172312Y-192293328D02*
X209315169Y-192364757D01*
X209315169Y-192364757D02*
X209386598Y-192436185D01*
X209386598Y-192436185D02*
X209458026Y-192579042D01*
X209458026Y-192579042D02*
X209529455Y-192864757D01*
X209529455Y-192864757D02*
X209529455Y-193221900D01*
X209529455Y-193221900D02*
X209458026Y-193507614D01*
X209458026Y-193507614D02*
X209386598Y-193650471D01*
X209386598Y-193650471D02*
X209315169Y-193721900D01*
X209315169Y-193721900D02*
X209172312Y-193793328D01*
X209172312Y-193793328D02*
X209029455Y-193793328D01*
X209029455Y-193793328D02*
X208886598Y-193721900D01*
X208886598Y-193721900D02*
X208815169Y-193650471D01*
X208815169Y-193650471D02*
X208743740Y-193507614D01*
X208743740Y-193507614D02*
X208672312Y-193221900D01*
X208672312Y-193221900D02*
X208672312Y-192864757D01*
X208672312Y-192864757D02*
X208743740Y-192579042D01*
X208743740Y-192579042D02*
X208815169Y-192436185D01*
X208815169Y-192436185D02*
X208886598Y-192364757D01*
X208886598Y-192364757D02*
X209029455Y-192293328D01*
X210100883Y-192436185D02*
X210172311Y-192364757D01*
X210172311Y-192364757D02*
X210315169Y-192293328D01*
X210315169Y-192293328D02*
X210672311Y-192293328D01*
X210672311Y-192293328D02*
X210815169Y-192364757D01*
X210815169Y-192364757D02*
X210886597Y-192436185D01*
X210886597Y-192436185D02*
X210958026Y-192579042D01*
X210958026Y-192579042D02*
X210958026Y-192721900D01*
X210958026Y-192721900D02*
X210886597Y-192936185D01*
X210886597Y-192936185D02*
X210029454Y-193793328D01*
X210029454Y-193793328D02*
X210958026Y-193793328D01*
X212243740Y-192293328D02*
X211958025Y-192293328D01*
X211958025Y-192293328D02*
X211815168Y-192364757D01*
X211815168Y-192364757D02*
X211743740Y-192436185D01*
X211743740Y-192436185D02*
X211600882Y-192650471D01*
X211600882Y-192650471D02*
X211529454Y-192936185D01*
X211529454Y-192936185D02*
X211529454Y-193507614D01*
X211529454Y-193507614D02*
X211600882Y-193650471D01*
X211600882Y-193650471D02*
X211672311Y-193721900D01*
X211672311Y-193721900D02*
X211815168Y-193793328D01*
X211815168Y-193793328D02*
X212100882Y-193793328D01*
X212100882Y-193793328D02*
X212243740Y-193721900D01*
X212243740Y-193721900D02*
X212315168Y-193650471D01*
X212315168Y-193650471D02*
X212386597Y-193507614D01*
X212386597Y-193507614D02*
X212386597Y-193150471D01*
X212386597Y-193150471D02*
X212315168Y-193007614D01*
X212315168Y-193007614D02*
X212243740Y-192936185D01*
X212243740Y-192936185D02*
X212100882Y-192864757D01*
X212100882Y-192864757D02*
X211815168Y-192864757D01*
X211815168Y-192864757D02*
X211672311Y-192936185D01*
X211672311Y-192936185D02*
X211600882Y-193007614D01*
X211600882Y-193007614D02*
X211529454Y-193150471D01*
X213029453Y-193221900D02*
X214172311Y-193221900D01*
X215172311Y-192293328D02*
X215315168Y-192293328D01*
X215315168Y-192293328D02*
X215458025Y-192364757D01*
X215458025Y-192364757D02*
X215529454Y-192436185D01*
X215529454Y-192436185D02*
X215600882Y-192579042D01*
X215600882Y-192579042D02*
X215672311Y-192864757D01*
X215672311Y-192864757D02*
X215672311Y-193221900D01*
X215672311Y-193221900D02*
X215600882Y-193507614D01*
X215600882Y-193507614D02*
X215529454Y-193650471D01*
X215529454Y-193650471D02*
X215458025Y-193721900D01*
X215458025Y-193721900D02*
X215315168Y-193793328D01*
X215315168Y-193793328D02*
X215172311Y-193793328D01*
X215172311Y-193793328D02*
X215029454Y-193721900D01*
X215029454Y-193721900D02*
X214958025Y-193650471D01*
X214958025Y-193650471D02*
X214886596Y-193507614D01*
X214886596Y-193507614D02*
X214815168Y-193221900D01*
X214815168Y-193221900D02*
X214815168Y-192864757D01*
X214815168Y-192864757D02*
X214886596Y-192579042D01*
X214886596Y-192579042D02*
X214958025Y-192436185D01*
X214958025Y-192436185D02*
X215029454Y-192364757D01*
X215029454Y-192364757D02*
X215172311Y-192293328D01*
X216172310Y-192293328D02*
X217172310Y-192293328D01*
X217172310Y-192293328D02*
X216529453Y-193793328D01*
X217743738Y-193221900D02*
X218886596Y-193221900D01*
X219529453Y-192436185D02*
X219600881Y-192364757D01*
X219600881Y-192364757D02*
X219743739Y-192293328D01*
X219743739Y-192293328D02*
X220100881Y-192293328D01*
X220100881Y-192293328D02*
X220243739Y-192364757D01*
X220243739Y-192364757D02*
X220315167Y-192436185D01*
X220315167Y-192436185D02*
X220386596Y-192579042D01*
X220386596Y-192579042D02*
X220386596Y-192721900D01*
X220386596Y-192721900D02*
X220315167Y-192936185D01*
X220315167Y-192936185D02*
X219458024Y-193793328D01*
X219458024Y-193793328D02*
X220386596Y-193793328D01*
X221315167Y-192293328D02*
X221458024Y-192293328D01*
X221458024Y-192293328D02*
X221600881Y-192364757D01*
X221600881Y-192364757D02*
X221672310Y-192436185D01*
X221672310Y-192436185D02*
X221743738Y-192579042D01*
X221743738Y-192579042D02*
X221815167Y-192864757D01*
X221815167Y-192864757D02*
X221815167Y-193221900D01*
X221815167Y-193221900D02*
X221743738Y-193507614D01*
X221743738Y-193507614D02*
X221672310Y-193650471D01*
X221672310Y-193650471D02*
X221600881Y-193721900D01*
X221600881Y-193721900D02*
X221458024Y-193793328D01*
X221458024Y-193793328D02*
X221315167Y-193793328D01*
X221315167Y-193793328D02*
X221172310Y-193721900D01*
X221172310Y-193721900D02*
X221100881Y-193650471D01*
X221100881Y-193650471D02*
X221029452Y-193507614D01*
X221029452Y-193507614D02*
X220958024Y-193221900D01*
X220958024Y-193221900D02*
X220958024Y-192864757D01*
X220958024Y-192864757D02*
X221029452Y-192579042D01*
X221029452Y-192579042D02*
X221100881Y-192436185D01*
X221100881Y-192436185D02*
X221172310Y-192364757D01*
X221172310Y-192364757D02*
X221315167Y-192293328D01*
X177002200Y-194507200D02*
X285002200Y-194507200D01*
X178458026Y-196593328D02*
X178458026Y-195093328D01*
X179315169Y-196593328D02*
X178672312Y-195736185D01*
X179315169Y-195093328D02*
X178458026Y-195950471D01*
X179958026Y-196593328D02*
X179958026Y-195593328D01*
X179958026Y-195093328D02*
X179886598Y-195164757D01*
X179886598Y-195164757D02*
X179958026Y-195236185D01*
X179958026Y-195236185D02*
X180029455Y-195164757D01*
X180029455Y-195164757D02*
X179958026Y-195093328D01*
X179958026Y-195093328D02*
X179958026Y-195236185D01*
X181529455Y-196450471D02*
X181458027Y-196521900D01*
X181458027Y-196521900D02*
X181243741Y-196593328D01*
X181243741Y-196593328D02*
X181100884Y-196593328D01*
X181100884Y-196593328D02*
X180886598Y-196521900D01*
X180886598Y-196521900D02*
X180743741Y-196379042D01*
X180743741Y-196379042D02*
X180672312Y-196236185D01*
X180672312Y-196236185D02*
X180600884Y-195950471D01*
X180600884Y-195950471D02*
X180600884Y-195736185D01*
X180600884Y-195736185D02*
X180672312Y-195450471D01*
X180672312Y-195450471D02*
X180743741Y-195307614D01*
X180743741Y-195307614D02*
X180886598Y-195164757D01*
X180886598Y-195164757D02*
X181100884Y-195093328D01*
X181100884Y-195093328D02*
X181243741Y-195093328D01*
X181243741Y-195093328D02*
X181458027Y-195164757D01*
X181458027Y-195164757D02*
X181529455Y-195236185D01*
X182815170Y-196593328D02*
X182815170Y-195807614D01*
X182815170Y-195807614D02*
X182743741Y-195664757D01*
X182743741Y-195664757D02*
X182600884Y-195593328D01*
X182600884Y-195593328D02*
X182315170Y-195593328D01*
X182315170Y-195593328D02*
X182172312Y-195664757D01*
X182815170Y-196521900D02*
X182672312Y-196593328D01*
X182672312Y-196593328D02*
X182315170Y-196593328D01*
X182315170Y-196593328D02*
X182172312Y-196521900D01*
X182172312Y-196521900D02*
X182100884Y-196379042D01*
X182100884Y-196379042D02*
X182100884Y-196236185D01*
X182100884Y-196236185D02*
X182172312Y-196093328D01*
X182172312Y-196093328D02*
X182315170Y-196021900D01*
X182315170Y-196021900D02*
X182672312Y-196021900D01*
X182672312Y-196021900D02*
X182815170Y-195950471D01*
X184172313Y-196593328D02*
X184172313Y-195093328D01*
X184172313Y-196521900D02*
X184029455Y-196593328D01*
X184029455Y-196593328D02*
X183743741Y-196593328D01*
X183743741Y-196593328D02*
X183600884Y-196521900D01*
X183600884Y-196521900D02*
X183529455Y-196450471D01*
X183529455Y-196450471D02*
X183458027Y-196307614D01*
X183458027Y-196307614D02*
X183458027Y-195879042D01*
X183458027Y-195879042D02*
X183529455Y-195736185D01*
X183529455Y-195736185D02*
X183600884Y-195664757D01*
X183600884Y-195664757D02*
X183743741Y-195593328D01*
X183743741Y-195593328D02*
X184029455Y-195593328D01*
X184029455Y-195593328D02*
X184172313Y-195664757D01*
X186029455Y-195807614D02*
X186529455Y-195807614D01*
X186743741Y-196593328D02*
X186029455Y-196593328D01*
X186029455Y-196593328D02*
X186029455Y-195093328D01*
X186029455Y-195093328D02*
X186743741Y-195093328D01*
X187386598Y-196450471D02*
X187458027Y-196521900D01*
X187458027Y-196521900D02*
X187386598Y-196593328D01*
X187386598Y-196593328D02*
X187315170Y-196521900D01*
X187315170Y-196521900D02*
X187386598Y-196450471D01*
X187386598Y-196450471D02*
X187386598Y-196593328D01*
X188100884Y-196593328D02*
X188100884Y-195093328D01*
X188100884Y-195093328D02*
X188458027Y-195093328D01*
X188458027Y-195093328D02*
X188672313Y-195164757D01*
X188672313Y-195164757D02*
X188815170Y-195307614D01*
X188815170Y-195307614D02*
X188886599Y-195450471D01*
X188886599Y-195450471D02*
X188958027Y-195736185D01*
X188958027Y-195736185D02*
X188958027Y-195950471D01*
X188958027Y-195950471D02*
X188886599Y-196236185D01*
X188886599Y-196236185D02*
X188815170Y-196379042D01*
X188815170Y-196379042D02*
X188672313Y-196521900D01*
X188672313Y-196521900D02*
X188458027Y-196593328D01*
X188458027Y-196593328D02*
X188100884Y-196593328D01*
X189600884Y-196450471D02*
X189672313Y-196521900D01*
X189672313Y-196521900D02*
X189600884Y-196593328D01*
X189600884Y-196593328D02*
X189529456Y-196521900D01*
X189529456Y-196521900D02*
X189600884Y-196450471D01*
X189600884Y-196450471D02*
X189600884Y-196593328D01*
X190243742Y-196164757D02*
X190958028Y-196164757D01*
X190100885Y-196593328D02*
X190600885Y-195093328D01*
X190600885Y-195093328D02*
X191100885Y-196593328D01*
X191600884Y-196450471D02*
X191672313Y-196521900D01*
X191672313Y-196521900D02*
X191600884Y-196593328D01*
X191600884Y-196593328D02*
X191529456Y-196521900D01*
X191529456Y-196521900D02*
X191600884Y-196450471D01*
X191600884Y-196450471D02*
X191600884Y-196593328D01*
X194243742Y-196593328D02*
X193386599Y-196593328D01*
X193815170Y-196593328D02*
X193815170Y-195093328D01*
X193815170Y-195093328D02*
X193672313Y-195307614D01*
X193672313Y-195307614D02*
X193529456Y-195450471D01*
X193529456Y-195450471D02*
X193386599Y-195521900D01*
X195172313Y-195093328D02*
X195315170Y-195093328D01*
X195315170Y-195093328D02*
X195458027Y-195164757D01*
X195458027Y-195164757D02*
X195529456Y-195236185D01*
X195529456Y-195236185D02*
X195600884Y-195379042D01*
X195600884Y-195379042D02*
X195672313Y-195664757D01*
X195672313Y-195664757D02*
X195672313Y-196021900D01*
X195672313Y-196021900D02*
X195600884Y-196307614D01*
X195600884Y-196307614D02*
X195529456Y-196450471D01*
X195529456Y-196450471D02*
X195458027Y-196521900D01*
X195458027Y-196521900D02*
X195315170Y-196593328D01*
X195315170Y-196593328D02*
X195172313Y-196593328D01*
X195172313Y-196593328D02*
X195029456Y-196521900D01*
X195029456Y-196521900D02*
X194958027Y-196450471D01*
X194958027Y-196450471D02*
X194886598Y-196307614D01*
X194886598Y-196307614D02*
X194815170Y-196021900D01*
X194815170Y-196021900D02*
X194815170Y-195664757D01*
X194815170Y-195664757D02*
X194886598Y-195379042D01*
X194886598Y-195379042D02*
X194958027Y-195236185D01*
X194958027Y-195236185D02*
X195029456Y-195164757D01*
X195029456Y-195164757D02*
X195172313Y-195093328D01*
X196315169Y-196450471D02*
X196386598Y-196521900D01*
X196386598Y-196521900D02*
X196315169Y-196593328D01*
X196315169Y-196593328D02*
X196243741Y-196521900D01*
X196243741Y-196521900D02*
X196315169Y-196450471D01*
X196315169Y-196450471D02*
X196315169Y-196593328D01*
X197315170Y-195093328D02*
X197458027Y-195093328D01*
X197458027Y-195093328D02*
X197600884Y-195164757D01*
X197600884Y-195164757D02*
X197672313Y-195236185D01*
X197672313Y-195236185D02*
X197743741Y-195379042D01*
X197743741Y-195379042D02*
X197815170Y-195664757D01*
X197815170Y-195664757D02*
X197815170Y-196021900D01*
X197815170Y-196021900D02*
X197743741Y-196307614D01*
X197743741Y-196307614D02*
X197672313Y-196450471D01*
X197672313Y-196450471D02*
X197600884Y-196521900D01*
X197600884Y-196521900D02*
X197458027Y-196593328D01*
X197458027Y-196593328D02*
X197315170Y-196593328D01*
X197315170Y-196593328D02*
X197172313Y-196521900D01*
X197172313Y-196521900D02*
X197100884Y-196450471D01*
X197100884Y-196450471D02*
X197029455Y-196307614D01*
X197029455Y-196307614D02*
X196958027Y-196021900D01*
X196958027Y-196021900D02*
X196958027Y-195664757D01*
X196958027Y-195664757D02*
X197029455Y-195379042D01*
X197029455Y-195379042D02*
X197100884Y-195236185D01*
X197100884Y-195236185D02*
X197172313Y-195164757D01*
X197172313Y-195164757D02*
X197315170Y-195093328D01*
X198458026Y-196450471D02*
X198529455Y-196521900D01*
X198529455Y-196521900D02*
X198458026Y-196593328D01*
X198458026Y-196593328D02*
X198386598Y-196521900D01*
X198386598Y-196521900D02*
X198458026Y-196450471D01*
X198458026Y-196450471D02*
X198458026Y-196593328D01*
X199029455Y-195093328D02*
X199958027Y-195093328D01*
X199958027Y-195093328D02*
X199458027Y-195664757D01*
X199458027Y-195664757D02*
X199672312Y-195664757D01*
X199672312Y-195664757D02*
X199815170Y-195736185D01*
X199815170Y-195736185D02*
X199886598Y-195807614D01*
X199886598Y-195807614D02*
X199958027Y-195950471D01*
X199958027Y-195950471D02*
X199958027Y-196307614D01*
X199958027Y-196307614D02*
X199886598Y-196450471D01*
X199886598Y-196450471D02*
X199815170Y-196521900D01*
X199815170Y-196521900D02*
X199672312Y-196593328D01*
X199672312Y-196593328D02*
X199243741Y-196593328D01*
X199243741Y-196593328D02*
X199100884Y-196521900D01*
X199100884Y-196521900D02*
X199029455Y-196450471D01*
X177002200Y-191507200D02*
X285002200Y-191507200D01*
D11*
X264413853Y-193785528D02*
X263913853Y-193071242D01*
X263556710Y-193785528D02*
X263556710Y-192285528D01*
X263556710Y-192285528D02*
X264128139Y-192285528D01*
X264128139Y-192285528D02*
X264270996Y-192356957D01*
X264270996Y-192356957D02*
X264342425Y-192428385D01*
X264342425Y-192428385D02*
X264413853Y-192571242D01*
X264413853Y-192571242D02*
X264413853Y-192785528D01*
X264413853Y-192785528D02*
X264342425Y-192928385D01*
X264342425Y-192928385D02*
X264270996Y-192999814D01*
X264270996Y-192999814D02*
X264128139Y-193071242D01*
X264128139Y-193071242D02*
X263556710Y-193071242D01*
X265628139Y-193714100D02*
X265485282Y-193785528D01*
X265485282Y-193785528D02*
X265199568Y-193785528D01*
X265199568Y-193785528D02*
X265056710Y-193714100D01*
X265056710Y-193714100D02*
X264985282Y-193571242D01*
X264985282Y-193571242D02*
X264985282Y-192999814D01*
X264985282Y-192999814D02*
X265056710Y-192856957D01*
X265056710Y-192856957D02*
X265199568Y-192785528D01*
X265199568Y-192785528D02*
X265485282Y-192785528D01*
X265485282Y-192785528D02*
X265628139Y-192856957D01*
X265628139Y-192856957D02*
X265699568Y-192999814D01*
X265699568Y-192999814D02*
X265699568Y-193142671D01*
X265699568Y-193142671D02*
X264985282Y-193285528D01*
X266199567Y-192785528D02*
X266556710Y-193785528D01*
X266556710Y-193785528D02*
X266913853Y-192785528D01*
X267485281Y-193642671D02*
X267556710Y-193714100D01*
X267556710Y-193714100D02*
X267485281Y-193785528D01*
X267485281Y-193785528D02*
X267413853Y-193714100D01*
X267413853Y-193714100D02*
X267485281Y-193642671D01*
X267485281Y-193642671D02*
X267485281Y-193785528D01*
X267485281Y-192856957D02*
X267556710Y-192928385D01*
X267556710Y-192928385D02*
X267485281Y-192999814D01*
X267485281Y-192999814D02*
X267413853Y-192928385D01*
X267413853Y-192928385D02*
X267485281Y-192856957D01*
X267485281Y-192856957D02*
X267485281Y-192999814D01*
X269628139Y-192285528D02*
X269770996Y-192285528D01*
X269770996Y-192285528D02*
X269913853Y-192356957D01*
X269913853Y-192356957D02*
X269985282Y-192428385D01*
X269985282Y-192428385D02*
X270056710Y-192571242D01*
X270056710Y-192571242D02*
X270128139Y-192856957D01*
X270128139Y-192856957D02*
X270128139Y-193214100D01*
X270128139Y-193214100D02*
X270056710Y-193499814D01*
X270056710Y-193499814D02*
X269985282Y-193642671D01*
X269985282Y-193642671D02*
X269913853Y-193714100D01*
X269913853Y-193714100D02*
X269770996Y-193785528D01*
X269770996Y-193785528D02*
X269628139Y-193785528D01*
X269628139Y-193785528D02*
X269485282Y-193714100D01*
X269485282Y-193714100D02*
X269413853Y-193642671D01*
X269413853Y-193642671D02*
X269342424Y-193499814D01*
X269342424Y-193499814D02*
X269270996Y-193214100D01*
X269270996Y-193214100D02*
X269270996Y-192856957D01*
X269270996Y-192856957D02*
X269342424Y-192571242D01*
X269342424Y-192571242D02*
X269413853Y-192428385D01*
X269413853Y-192428385D02*
X269485282Y-192356957D01*
X269485282Y-192356957D02*
X269628139Y-192285528D01*
X271056710Y-192285528D02*
X271199567Y-192285528D01*
X271199567Y-192285528D02*
X271342424Y-192356957D01*
X271342424Y-192356957D02*
X271413853Y-192428385D01*
X271413853Y-192428385D02*
X271485281Y-192571242D01*
X271485281Y-192571242D02*
X271556710Y-192856957D01*
X271556710Y-192856957D02*
X271556710Y-193214100D01*
X271556710Y-193214100D02*
X271485281Y-193499814D01*
X271485281Y-193499814D02*
X271413853Y-193642671D01*
X271413853Y-193642671D02*
X271342424Y-193714100D01*
X271342424Y-193714100D02*
X271199567Y-193785528D01*
X271199567Y-193785528D02*
X271056710Y-193785528D01*
X271056710Y-193785528D02*
X270913853Y-193714100D01*
X270913853Y-193714100D02*
X270842424Y-193642671D01*
X270842424Y-193642671D02*
X270770995Y-193499814D01*
X270770995Y-193499814D02*
X270699567Y-193214100D01*
X270699567Y-193214100D02*
X270699567Y-192856957D01*
X270699567Y-192856957D02*
X270770995Y-192571242D01*
X270770995Y-192571242D02*
X270842424Y-192428385D01*
X270842424Y-192428385D02*
X270913853Y-192356957D01*
X270913853Y-192356957D02*
X271056710Y-192285528D01*
X272985281Y-193785528D02*
X272128138Y-193785528D01*
X272556709Y-193785528D02*
X272556709Y-192285528D01*
X272556709Y-192285528D02*
X272413852Y-192499814D01*
X272413852Y-192499814D02*
X272270995Y-192642671D01*
X272270995Y-192642671D02*
X272128138Y-192714100D01*
D10*
X178386598Y-193721900D02*
X178600884Y-193793328D01*
X178600884Y-193793328D02*
X178958026Y-193793328D01*
X178958026Y-193793328D02*
X179100884Y-193721900D01*
X179100884Y-193721900D02*
X179172312Y-193650471D01*
X179172312Y-193650471D02*
X179243741Y-193507614D01*
X179243741Y-193507614D02*
X179243741Y-193364757D01*
X179243741Y-193364757D02*
X179172312Y-193221900D01*
X179172312Y-193221900D02*
X179100884Y-193150471D01*
X179100884Y-193150471D02*
X178958026Y-193079042D01*
X178958026Y-193079042D02*
X178672312Y-193007614D01*
X178672312Y-193007614D02*
X178529455Y-192936185D01*
X178529455Y-192936185D02*
X178458026Y-192864757D01*
X178458026Y-192864757D02*
X178386598Y-192721900D01*
X178386598Y-192721900D02*
X178386598Y-192579042D01*
X178386598Y-192579042D02*
X178458026Y-192436185D01*
X178458026Y-192436185D02*
X178529455Y-192364757D01*
X178529455Y-192364757D02*
X178672312Y-192293328D01*
X178672312Y-192293328D02*
X179029455Y-192293328D01*
X179029455Y-192293328D02*
X179243741Y-192364757D01*
X179886597Y-193793328D02*
X179886597Y-192793328D01*
X179886597Y-192293328D02*
X179815169Y-192364757D01*
X179815169Y-192364757D02*
X179886597Y-192436185D01*
X179886597Y-192436185D02*
X179958026Y-192364757D01*
X179958026Y-192364757D02*
X179886597Y-192293328D01*
X179886597Y-192293328D02*
X179886597Y-192436185D01*
X180458026Y-192793328D02*
X181243741Y-192793328D01*
X181243741Y-192793328D02*
X180458026Y-193793328D01*
X180458026Y-193793328D02*
X181243741Y-193793328D01*
X182386598Y-193721900D02*
X182243741Y-193793328D01*
X182243741Y-193793328D02*
X181958027Y-193793328D01*
X181958027Y-193793328D02*
X181815169Y-193721900D01*
X181815169Y-193721900D02*
X181743741Y-193579042D01*
X181743741Y-193579042D02*
X181743741Y-193007614D01*
X181743741Y-193007614D02*
X181815169Y-192864757D01*
X181815169Y-192864757D02*
X181958027Y-192793328D01*
X181958027Y-192793328D02*
X182243741Y-192793328D01*
X182243741Y-192793328D02*
X182386598Y-192864757D01*
X182386598Y-192864757D02*
X182458027Y-193007614D01*
X182458027Y-193007614D02*
X182458027Y-193150471D01*
X182458027Y-193150471D02*
X181743741Y-193293328D01*
X183100883Y-193650471D02*
X183172312Y-193721900D01*
X183172312Y-193721900D02*
X183100883Y-193793328D01*
X183100883Y-193793328D02*
X183029455Y-193721900D01*
X183029455Y-193721900D02*
X183100883Y-193650471D01*
X183100883Y-193650471D02*
X183100883Y-193793328D01*
X183100883Y-192864757D02*
X183172312Y-192936185D01*
X183172312Y-192936185D02*
X183100883Y-193007614D01*
X183100883Y-193007614D02*
X183029455Y-192936185D01*
X183029455Y-192936185D02*
X183100883Y-192864757D01*
X183100883Y-192864757D02*
X183100883Y-193007614D01*
X184886598Y-193364757D02*
X185600884Y-193364757D01*
X184743741Y-193793328D02*
X185243741Y-192293328D01*
X185243741Y-192293328D02*
X185743741Y-193793328D01*
X186886598Y-192793328D02*
X186886598Y-193793328D01*
X186529455Y-192221900D02*
X186172312Y-193293328D01*
X186172312Y-193293328D02*
X187100883Y-193293328D01*
X263458026Y-196593328D02*
X263458026Y-195093328D01*
X264815170Y-196593328D02*
X264815170Y-195093328D01*
X264815170Y-196521900D02*
X264672312Y-196593328D01*
X264672312Y-196593328D02*
X264386598Y-196593328D01*
X264386598Y-196593328D02*
X264243741Y-196521900D01*
X264243741Y-196521900D02*
X264172312Y-196450471D01*
X264172312Y-196450471D02*
X264100884Y-196307614D01*
X264100884Y-196307614D02*
X264100884Y-195879042D01*
X264100884Y-195879042D02*
X264172312Y-195736185D01*
X264172312Y-195736185D02*
X264243741Y-195664757D01*
X264243741Y-195664757D02*
X264386598Y-195593328D01*
X264386598Y-195593328D02*
X264672312Y-195593328D01*
X264672312Y-195593328D02*
X264815170Y-195664757D01*
X265529455Y-196450471D02*
X265600884Y-196521900D01*
X265600884Y-196521900D02*
X265529455Y-196593328D01*
X265529455Y-196593328D02*
X265458027Y-196521900D01*
X265458027Y-196521900D02*
X265529455Y-196450471D01*
X265529455Y-196450471D02*
X265529455Y-196593328D01*
X265529455Y-195664757D02*
X265600884Y-195736185D01*
X265600884Y-195736185D02*
X265529455Y-195807614D01*
X265529455Y-195807614D02*
X265458027Y-195736185D01*
X265458027Y-195736185D02*
X265529455Y-195664757D01*
X265529455Y-195664757D02*
X265529455Y-195807614D01*
X268029456Y-195593328D02*
X268029456Y-196593328D01*
X267672313Y-195021900D02*
X267315170Y-196093328D01*
X267315170Y-196093328D02*
X268243741Y-196093328D01*
X269886598Y-195021900D02*
X268600884Y-196950471D01*
X271172313Y-196593328D02*
X270315170Y-196593328D01*
X270743741Y-196593328D02*
X270743741Y-195093328D01*
X270743741Y-195093328D02*
X270600884Y-195307614D01*
X270600884Y-195307614D02*
X270458027Y-195450471D01*
X270458027Y-195450471D02*
X270315170Y-195521900D01*
X272600884Y-196593328D02*
X271743741Y-196593328D01*
X272172312Y-196593328D02*
X272172312Y-195093328D01*
X272172312Y-195093328D02*
X272029455Y-195307614D01*
X272029455Y-195307614D02*
X271886598Y-195450471D01*
X271886598Y-195450471D02*
X271743741Y-195521900D01*
X177002200Y-187507200D02*
X285002200Y-187507200D01*
D12*
X178693928Y-188211638D02*
X179836785Y-188211638D01*
X179015357Y-190211638D02*
X179265357Y-188211638D01*
X180253452Y-190211638D02*
X180420119Y-188878304D01*
X180503452Y-188211638D02*
X180396309Y-188306876D01*
X180396309Y-188306876D02*
X180479643Y-188402114D01*
X180479643Y-188402114D02*
X180586786Y-188306876D01*
X180586786Y-188306876D02*
X180503452Y-188211638D01*
X180503452Y-188211638D02*
X180479643Y-188402114D01*
X181086786Y-188878304D02*
X181848690Y-188878304D01*
X181455833Y-188211638D02*
X181241548Y-189925923D01*
X181241548Y-189925923D02*
X181312976Y-190116400D01*
X181312976Y-190116400D02*
X181491548Y-190211638D01*
X181491548Y-190211638D02*
X181682024Y-190211638D01*
X182634405Y-190211638D02*
X182455833Y-190116400D01*
X182455833Y-190116400D02*
X182384405Y-189925923D01*
X182384405Y-189925923D02*
X182598690Y-188211638D01*
X184170119Y-190116400D02*
X183967738Y-190211638D01*
X183967738Y-190211638D02*
X183586785Y-190211638D01*
X183586785Y-190211638D02*
X183408214Y-190116400D01*
X183408214Y-190116400D02*
X183336785Y-189925923D01*
X183336785Y-189925923D02*
X183432024Y-189164019D01*
X183432024Y-189164019D02*
X183551071Y-188973542D01*
X183551071Y-188973542D02*
X183753452Y-188878304D01*
X183753452Y-188878304D02*
X184134404Y-188878304D01*
X184134404Y-188878304D02*
X184312976Y-188973542D01*
X184312976Y-188973542D02*
X184384404Y-189164019D01*
X184384404Y-189164019D02*
X184360595Y-189354495D01*
X184360595Y-189354495D02*
X183384404Y-189544971D01*
X185134405Y-190021161D02*
X185217738Y-190116400D01*
X185217738Y-190116400D02*
X185110595Y-190211638D01*
X185110595Y-190211638D02*
X185027262Y-190116400D01*
X185027262Y-190116400D02*
X185134405Y-190021161D01*
X185134405Y-190021161D02*
X185110595Y-190211638D01*
X185265357Y-188973542D02*
X185348690Y-189068780D01*
X185348690Y-189068780D02*
X185241548Y-189164019D01*
X185241548Y-189164019D02*
X185158214Y-189068780D01*
X185158214Y-189068780D02*
X185265357Y-188973542D01*
X185265357Y-188973542D02*
X185241548Y-189164019D01*
X188384405Y-189164019D02*
X187717739Y-189164019D01*
X187586786Y-190211638D02*
X187836786Y-188211638D01*
X187836786Y-188211638D02*
X188789167Y-188211638D01*
X190158215Y-190211638D02*
X190289167Y-189164019D01*
X190289167Y-189164019D02*
X190217739Y-188973542D01*
X190217739Y-188973542D02*
X190039167Y-188878304D01*
X190039167Y-188878304D02*
X189658215Y-188878304D01*
X189658215Y-188878304D02*
X189455834Y-188973542D01*
X190170120Y-190116400D02*
X189967739Y-190211638D01*
X189967739Y-190211638D02*
X189491548Y-190211638D01*
X189491548Y-190211638D02*
X189312977Y-190116400D01*
X189312977Y-190116400D02*
X189241548Y-189925923D01*
X189241548Y-189925923D02*
X189265358Y-189735447D01*
X189265358Y-189735447D02*
X189384406Y-189544971D01*
X189384406Y-189544971D02*
X189586787Y-189449733D01*
X189586787Y-189449733D02*
X190062977Y-189449733D01*
X190062977Y-189449733D02*
X190265358Y-189354495D01*
X191110596Y-190211638D02*
X191277263Y-188878304D01*
X191360596Y-188211638D02*
X191253453Y-188306876D01*
X191253453Y-188306876D02*
X191336787Y-188402114D01*
X191336787Y-188402114D02*
X191443930Y-188306876D01*
X191443930Y-188306876D02*
X191360596Y-188211638D01*
X191360596Y-188211638D02*
X191336787Y-188402114D01*
X192348692Y-190211638D02*
X192170120Y-190116400D01*
X192170120Y-190116400D02*
X192098692Y-189925923D01*
X192098692Y-189925923D02*
X192312977Y-188211638D01*
X193110596Y-190211638D02*
X193360596Y-188211638D01*
X193360596Y-188211638D02*
X193836787Y-188211638D01*
X193836787Y-188211638D02*
X194110596Y-188306876D01*
X194110596Y-188306876D02*
X194277263Y-188497352D01*
X194277263Y-188497352D02*
X194348691Y-188687828D01*
X194348691Y-188687828D02*
X194396311Y-189068780D01*
X194396311Y-189068780D02*
X194360596Y-189354495D01*
X194360596Y-189354495D02*
X194217739Y-189735447D01*
X194217739Y-189735447D02*
X194098691Y-189925923D01*
X194098691Y-189925923D02*
X193884406Y-190116400D01*
X193884406Y-190116400D02*
X193586787Y-190211638D01*
X193586787Y-190211638D02*
X193110596Y-190211638D01*
X195884406Y-190116400D02*
X195682025Y-190211638D01*
X195682025Y-190211638D02*
X195301072Y-190211638D01*
X195301072Y-190211638D02*
X195122501Y-190116400D01*
X195122501Y-190116400D02*
X195051072Y-189925923D01*
X195051072Y-189925923D02*
X195146311Y-189164019D01*
X195146311Y-189164019D02*
X195265358Y-188973542D01*
X195265358Y-188973542D02*
X195467739Y-188878304D01*
X195467739Y-188878304D02*
X195848691Y-188878304D01*
X195848691Y-188878304D02*
X196027263Y-188973542D01*
X196027263Y-188973542D02*
X196098691Y-189164019D01*
X196098691Y-189164019D02*
X196074882Y-189354495D01*
X196074882Y-189354495D02*
X195098691Y-189544971D01*
X197682025Y-190211638D02*
X197812977Y-189164019D01*
X197812977Y-189164019D02*
X197741549Y-188973542D01*
X197741549Y-188973542D02*
X197562977Y-188878304D01*
X197562977Y-188878304D02*
X197182025Y-188878304D01*
X197182025Y-188878304D02*
X196979644Y-188973542D01*
X197693930Y-190116400D02*
X197491549Y-190211638D01*
X197491549Y-190211638D02*
X197015358Y-190211638D01*
X197015358Y-190211638D02*
X196836787Y-190116400D01*
X196836787Y-190116400D02*
X196765358Y-189925923D01*
X196765358Y-189925923D02*
X196789168Y-189735447D01*
X196789168Y-189735447D02*
X196908216Y-189544971D01*
X196908216Y-189544971D02*
X197110597Y-189449733D01*
X197110597Y-189449733D02*
X197586787Y-189449733D01*
X197586787Y-189449733D02*
X197789168Y-189354495D01*
X199491549Y-190211638D02*
X199741549Y-188211638D01*
X199503454Y-190116400D02*
X199301073Y-190211638D01*
X199301073Y-190211638D02*
X198920121Y-190211638D01*
X198920121Y-190211638D02*
X198741549Y-190116400D01*
X198741549Y-190116400D02*
X198658216Y-190021161D01*
X198658216Y-190021161D02*
X198586787Y-189830685D01*
X198586787Y-189830685D02*
X198658216Y-189259257D01*
X198658216Y-189259257D02*
X198777263Y-189068780D01*
X198777263Y-189068780D02*
X198884406Y-188973542D01*
X198884406Y-188973542D02*
X199086787Y-188878304D01*
X199086787Y-188878304D02*
X199467740Y-188878304D01*
X199467740Y-188878304D02*
X199646311Y-188973542D01*
X200729645Y-190211638D02*
X200551073Y-190116400D01*
X200551073Y-190116400D02*
X200479645Y-189925923D01*
X200479645Y-189925923D02*
X200693930Y-188211638D01*
X201467740Y-188878304D02*
X201777264Y-190211638D01*
X202420121Y-188878304D02*
X201777264Y-190211638D01*
X201777264Y-190211638D02*
X201527264Y-190687828D01*
X201527264Y-190687828D02*
X201420121Y-190783066D01*
X201420121Y-190783066D02*
X201217740Y-190878304D01*
X204539169Y-190211638D02*
X204789169Y-188211638D01*
X204789169Y-188211638D02*
X205551074Y-188211638D01*
X205551074Y-188211638D02*
X205729645Y-188306876D01*
X205729645Y-188306876D02*
X205812979Y-188402114D01*
X205812979Y-188402114D02*
X205884407Y-188592590D01*
X205884407Y-188592590D02*
X205848693Y-188878304D01*
X205848693Y-188878304D02*
X205729645Y-189068780D01*
X205729645Y-189068780D02*
X205622503Y-189164019D01*
X205622503Y-189164019D02*
X205420122Y-189259257D01*
X205420122Y-189259257D02*
X204658217Y-189259257D01*
X207705836Y-190021161D02*
X207598693Y-190116400D01*
X207598693Y-190116400D02*
X207301074Y-190211638D01*
X207301074Y-190211638D02*
X207110598Y-190211638D01*
X207110598Y-190211638D02*
X206836788Y-190116400D01*
X206836788Y-190116400D02*
X206670122Y-189925923D01*
X206670122Y-189925923D02*
X206598693Y-189735447D01*
X206598693Y-189735447D02*
X206551074Y-189354495D01*
X206551074Y-189354495D02*
X206586788Y-189068780D01*
X206586788Y-189068780D02*
X206729645Y-188687828D01*
X206729645Y-188687828D02*
X206848693Y-188497352D01*
X206848693Y-188497352D02*
X207062979Y-188306876D01*
X207062979Y-188306876D02*
X207360598Y-188211638D01*
X207360598Y-188211638D02*
X207551074Y-188211638D01*
X207551074Y-188211638D02*
X207824884Y-188306876D01*
X207824884Y-188306876D02*
X207908217Y-188402114D01*
X209336788Y-189164019D02*
X209610598Y-189259257D01*
X209610598Y-189259257D02*
X209693931Y-189354495D01*
X209693931Y-189354495D02*
X209765360Y-189544971D01*
X209765360Y-189544971D02*
X209729645Y-189830685D01*
X209729645Y-189830685D02*
X209610598Y-190021161D01*
X209610598Y-190021161D02*
X209503455Y-190116400D01*
X209503455Y-190116400D02*
X209301074Y-190211638D01*
X209301074Y-190211638D02*
X208539169Y-190211638D01*
X208539169Y-190211638D02*
X208789169Y-188211638D01*
X208789169Y-188211638D02*
X209455836Y-188211638D01*
X209455836Y-188211638D02*
X209634407Y-188306876D01*
X209634407Y-188306876D02*
X209717741Y-188402114D01*
X209717741Y-188402114D02*
X209789169Y-188592590D01*
X209789169Y-188592590D02*
X209765360Y-188783066D01*
X209765360Y-188783066D02*
X209646312Y-188973542D01*
X209646312Y-188973542D02*
X209539169Y-189068780D01*
X209539169Y-189068780D02*
X209336788Y-189164019D01*
X209336788Y-189164019D02*
X208670122Y-189164019D01*
D10*
X178958026Y-185607614D02*
X178458026Y-185607614D01*
X178458026Y-186393328D02*
X178458026Y-184893328D01*
X178458026Y-184893328D02*
X179172312Y-184893328D01*
X179743740Y-186393328D02*
X179743740Y-185393328D01*
X179743740Y-184893328D02*
X179672312Y-184964757D01*
X179672312Y-184964757D02*
X179743740Y-185036185D01*
X179743740Y-185036185D02*
X179815169Y-184964757D01*
X179815169Y-184964757D02*
X179743740Y-184893328D01*
X179743740Y-184893328D02*
X179743740Y-185036185D01*
X180672312Y-186393328D02*
X180529455Y-186321900D01*
X180529455Y-186321900D02*
X180458026Y-186179042D01*
X180458026Y-186179042D02*
X180458026Y-184893328D01*
X181815169Y-186321900D02*
X181672312Y-186393328D01*
X181672312Y-186393328D02*
X181386598Y-186393328D01*
X181386598Y-186393328D02*
X181243740Y-186321900D01*
X181243740Y-186321900D02*
X181172312Y-186179042D01*
X181172312Y-186179042D02*
X181172312Y-185607614D01*
X181172312Y-185607614D02*
X181243740Y-185464757D01*
X181243740Y-185464757D02*
X181386598Y-185393328D01*
X181386598Y-185393328D02*
X181672312Y-185393328D01*
X181672312Y-185393328D02*
X181815169Y-185464757D01*
X181815169Y-185464757D02*
X181886598Y-185607614D01*
X181886598Y-185607614D02*
X181886598Y-185750471D01*
X181886598Y-185750471D02*
X181172312Y-185893328D01*
X182529454Y-186250471D02*
X182600883Y-186321900D01*
X182600883Y-186321900D02*
X182529454Y-186393328D01*
X182529454Y-186393328D02*
X182458026Y-186321900D01*
X182458026Y-186321900D02*
X182529454Y-186250471D01*
X182529454Y-186250471D02*
X182529454Y-186393328D01*
X182529454Y-185464757D02*
X182600883Y-185536185D01*
X182600883Y-185536185D02*
X182529454Y-185607614D01*
X182529454Y-185607614D02*
X182458026Y-185536185D01*
X182458026Y-185536185D02*
X182529454Y-185464757D01*
X182529454Y-185464757D02*
X182529454Y-185607614D01*
X184886597Y-185607614D02*
X184386597Y-185607614D01*
X184386597Y-186393328D02*
X184386597Y-184893328D01*
X184386597Y-184893328D02*
X185100883Y-184893328D01*
X186315169Y-186393328D02*
X186315169Y-185607614D01*
X186315169Y-185607614D02*
X186243740Y-185464757D01*
X186243740Y-185464757D02*
X186100883Y-185393328D01*
X186100883Y-185393328D02*
X185815169Y-185393328D01*
X185815169Y-185393328D02*
X185672311Y-185464757D01*
X186315169Y-186321900D02*
X186172311Y-186393328D01*
X186172311Y-186393328D02*
X185815169Y-186393328D01*
X185815169Y-186393328D02*
X185672311Y-186321900D01*
X185672311Y-186321900D02*
X185600883Y-186179042D01*
X185600883Y-186179042D02*
X185600883Y-186036185D01*
X185600883Y-186036185D02*
X185672311Y-185893328D01*
X185672311Y-185893328D02*
X185815169Y-185821900D01*
X185815169Y-185821900D02*
X186172311Y-185821900D01*
X186172311Y-185821900D02*
X186315169Y-185750471D01*
X187029454Y-186393328D02*
X187029454Y-185393328D01*
X187029454Y-184893328D02*
X186958026Y-184964757D01*
X186958026Y-184964757D02*
X187029454Y-185036185D01*
X187029454Y-185036185D02*
X187100883Y-184964757D01*
X187100883Y-184964757D02*
X187029454Y-184893328D01*
X187029454Y-184893328D02*
X187029454Y-185036185D01*
X187958026Y-186393328D02*
X187815169Y-186321900D01*
X187815169Y-186321900D02*
X187743740Y-186179042D01*
X187743740Y-186179042D02*
X187743740Y-184893328D01*
X188529454Y-186393328D02*
X188529454Y-184893328D01*
X188529454Y-184893328D02*
X188886597Y-184893328D01*
X188886597Y-184893328D02*
X189100883Y-184964757D01*
X189100883Y-184964757D02*
X189243740Y-185107614D01*
X189243740Y-185107614D02*
X189315169Y-185250471D01*
X189315169Y-185250471D02*
X189386597Y-185536185D01*
X189386597Y-185536185D02*
X189386597Y-185750471D01*
X189386597Y-185750471D02*
X189315169Y-186036185D01*
X189315169Y-186036185D02*
X189243740Y-186179042D01*
X189243740Y-186179042D02*
X189100883Y-186321900D01*
X189100883Y-186321900D02*
X188886597Y-186393328D01*
X188886597Y-186393328D02*
X188529454Y-186393328D01*
X190600883Y-186321900D02*
X190458026Y-186393328D01*
X190458026Y-186393328D02*
X190172312Y-186393328D01*
X190172312Y-186393328D02*
X190029454Y-186321900D01*
X190029454Y-186321900D02*
X189958026Y-186179042D01*
X189958026Y-186179042D02*
X189958026Y-185607614D01*
X189958026Y-185607614D02*
X190029454Y-185464757D01*
X190029454Y-185464757D02*
X190172312Y-185393328D01*
X190172312Y-185393328D02*
X190458026Y-185393328D01*
X190458026Y-185393328D02*
X190600883Y-185464757D01*
X190600883Y-185464757D02*
X190672312Y-185607614D01*
X190672312Y-185607614D02*
X190672312Y-185750471D01*
X190672312Y-185750471D02*
X189958026Y-185893328D01*
X191958026Y-186393328D02*
X191958026Y-185607614D01*
X191958026Y-185607614D02*
X191886597Y-185464757D01*
X191886597Y-185464757D02*
X191743740Y-185393328D01*
X191743740Y-185393328D02*
X191458026Y-185393328D01*
X191458026Y-185393328D02*
X191315168Y-185464757D01*
X191958026Y-186321900D02*
X191815168Y-186393328D01*
X191815168Y-186393328D02*
X191458026Y-186393328D01*
X191458026Y-186393328D02*
X191315168Y-186321900D01*
X191315168Y-186321900D02*
X191243740Y-186179042D01*
X191243740Y-186179042D02*
X191243740Y-186036185D01*
X191243740Y-186036185D02*
X191315168Y-185893328D01*
X191315168Y-185893328D02*
X191458026Y-185821900D01*
X191458026Y-185821900D02*
X191815168Y-185821900D01*
X191815168Y-185821900D02*
X191958026Y-185750471D01*
X193315169Y-186393328D02*
X193315169Y-184893328D01*
X193315169Y-186321900D02*
X193172311Y-186393328D01*
X193172311Y-186393328D02*
X192886597Y-186393328D01*
X192886597Y-186393328D02*
X192743740Y-186321900D01*
X192743740Y-186321900D02*
X192672311Y-186250471D01*
X192672311Y-186250471D02*
X192600883Y-186107614D01*
X192600883Y-186107614D02*
X192600883Y-185679042D01*
X192600883Y-185679042D02*
X192672311Y-185536185D01*
X192672311Y-185536185D02*
X192743740Y-185464757D01*
X192743740Y-185464757D02*
X192886597Y-185393328D01*
X192886597Y-185393328D02*
X193172311Y-185393328D01*
X193172311Y-185393328D02*
X193315169Y-185464757D01*
X194243740Y-186393328D02*
X194100883Y-186321900D01*
X194100883Y-186321900D02*
X194029454Y-186179042D01*
X194029454Y-186179042D02*
X194029454Y-184893328D01*
X194672311Y-185393328D02*
X195029454Y-186393328D01*
X195386597Y-185393328D02*
X195029454Y-186393328D01*
X195029454Y-186393328D02*
X194886597Y-186750471D01*
X194886597Y-186750471D02*
X194815168Y-186821900D01*
X194815168Y-186821900D02*
X194672311Y-186893328D01*
X195958025Y-186250471D02*
X196029454Y-186321900D01*
X196029454Y-186321900D02*
X195958025Y-186393328D01*
X195958025Y-186393328D02*
X195886597Y-186321900D01*
X195886597Y-186321900D02*
X195958025Y-186250471D01*
X195958025Y-186250471D02*
X195958025Y-186393328D01*
X196672311Y-186393328D02*
X196672311Y-184893328D01*
X196815169Y-185821900D02*
X197243740Y-186393328D01*
X197243740Y-185393328D02*
X196672311Y-185964757D01*
X197886597Y-186393328D02*
X197886597Y-185393328D01*
X197886597Y-184893328D02*
X197815169Y-184964757D01*
X197815169Y-184964757D02*
X197886597Y-185036185D01*
X197886597Y-185036185D02*
X197958026Y-184964757D01*
X197958026Y-184964757D02*
X197886597Y-184893328D01*
X197886597Y-184893328D02*
X197886597Y-185036185D01*
X199243741Y-186321900D02*
X199100883Y-186393328D01*
X199100883Y-186393328D02*
X198815169Y-186393328D01*
X198815169Y-186393328D02*
X198672312Y-186321900D01*
X198672312Y-186321900D02*
X198600883Y-186250471D01*
X198600883Y-186250471D02*
X198529455Y-186107614D01*
X198529455Y-186107614D02*
X198529455Y-185679042D01*
X198529455Y-185679042D02*
X198600883Y-185536185D01*
X198600883Y-185536185D02*
X198672312Y-185464757D01*
X198672312Y-185464757D02*
X198815169Y-185393328D01*
X198815169Y-185393328D02*
X199100883Y-185393328D01*
X199100883Y-185393328D02*
X199243741Y-185464757D01*
X200529455Y-186393328D02*
X200529455Y-185607614D01*
X200529455Y-185607614D02*
X200458026Y-185464757D01*
X200458026Y-185464757D02*
X200315169Y-185393328D01*
X200315169Y-185393328D02*
X200029455Y-185393328D01*
X200029455Y-185393328D02*
X199886597Y-185464757D01*
X200529455Y-186321900D02*
X200386597Y-186393328D01*
X200386597Y-186393328D02*
X200029455Y-186393328D01*
X200029455Y-186393328D02*
X199886597Y-186321900D01*
X199886597Y-186321900D02*
X199815169Y-186179042D01*
X199815169Y-186179042D02*
X199815169Y-186036185D01*
X199815169Y-186036185D02*
X199886597Y-185893328D01*
X199886597Y-185893328D02*
X200029455Y-185821900D01*
X200029455Y-185821900D02*
X200386597Y-185821900D01*
X200386597Y-185821900D02*
X200529455Y-185750471D01*
X201886598Y-186393328D02*
X201886598Y-184893328D01*
X201886598Y-186321900D02*
X201743740Y-186393328D01*
X201743740Y-186393328D02*
X201458026Y-186393328D01*
X201458026Y-186393328D02*
X201315169Y-186321900D01*
X201315169Y-186321900D02*
X201243740Y-186250471D01*
X201243740Y-186250471D02*
X201172312Y-186107614D01*
X201172312Y-186107614D02*
X201172312Y-185679042D01*
X201172312Y-185679042D02*
X201243740Y-185536185D01*
X201243740Y-185536185D02*
X201315169Y-185464757D01*
X201315169Y-185464757D02*
X201458026Y-185393328D01*
X201458026Y-185393328D02*
X201743740Y-185393328D01*
X201743740Y-185393328D02*
X201886598Y-185464757D01*
X202243741Y-186536185D02*
X203386598Y-186536185D01*
X203743740Y-185393328D02*
X203743740Y-186893328D01*
X203743740Y-185464757D02*
X203886598Y-185393328D01*
X203886598Y-185393328D02*
X204172312Y-185393328D01*
X204172312Y-185393328D02*
X204315169Y-185464757D01*
X204315169Y-185464757D02*
X204386598Y-185536185D01*
X204386598Y-185536185D02*
X204458026Y-185679042D01*
X204458026Y-185679042D02*
X204458026Y-186107614D01*
X204458026Y-186107614D02*
X204386598Y-186250471D01*
X204386598Y-186250471D02*
X204315169Y-186321900D01*
X204315169Y-186321900D02*
X204172312Y-186393328D01*
X204172312Y-186393328D02*
X203886598Y-186393328D01*
X203886598Y-186393328D02*
X203743740Y-186321900D01*
X205743741Y-186321900D02*
X205600883Y-186393328D01*
X205600883Y-186393328D02*
X205315169Y-186393328D01*
X205315169Y-186393328D02*
X205172312Y-186321900D01*
X205172312Y-186321900D02*
X205100883Y-186250471D01*
X205100883Y-186250471D02*
X205029455Y-186107614D01*
X205029455Y-186107614D02*
X205029455Y-185679042D01*
X205029455Y-185679042D02*
X205100883Y-185536185D01*
X205100883Y-185536185D02*
X205172312Y-185464757D01*
X205172312Y-185464757D02*
X205315169Y-185393328D01*
X205315169Y-185393328D02*
X205600883Y-185393328D01*
X205600883Y-185393328D02*
X205743741Y-185464757D01*
X206386597Y-186393328D02*
X206386597Y-184893328D01*
X206386597Y-185464757D02*
X206529455Y-185393328D01*
X206529455Y-185393328D02*
X206815169Y-185393328D01*
X206815169Y-185393328D02*
X206958026Y-185464757D01*
X206958026Y-185464757D02*
X207029455Y-185536185D01*
X207029455Y-185536185D02*
X207100883Y-185679042D01*
X207100883Y-185679042D02*
X207100883Y-186107614D01*
X207100883Y-186107614D02*
X207029455Y-186250471D01*
X207029455Y-186250471D02*
X206958026Y-186321900D01*
X206958026Y-186321900D02*
X206815169Y-186393328D01*
X206815169Y-186393328D02*
X206529455Y-186393328D01*
X206529455Y-186393328D02*
X206386597Y-186321900D01*
X177002200Y-181507200D02*
X285002200Y-181507200D01*
X178386598Y-183621900D02*
X178600884Y-183693328D01*
X178600884Y-183693328D02*
X178958026Y-183693328D01*
X178958026Y-183693328D02*
X179100884Y-183621900D01*
X179100884Y-183621900D02*
X179172312Y-183550471D01*
X179172312Y-183550471D02*
X179243741Y-183407614D01*
X179243741Y-183407614D02*
X179243741Y-183264757D01*
X179243741Y-183264757D02*
X179172312Y-183121900D01*
X179172312Y-183121900D02*
X179100884Y-183050471D01*
X179100884Y-183050471D02*
X178958026Y-182979042D01*
X178958026Y-182979042D02*
X178672312Y-182907614D01*
X178672312Y-182907614D02*
X178529455Y-182836185D01*
X178529455Y-182836185D02*
X178458026Y-182764757D01*
X178458026Y-182764757D02*
X178386598Y-182621900D01*
X178386598Y-182621900D02*
X178386598Y-182479042D01*
X178386598Y-182479042D02*
X178458026Y-182336185D01*
X178458026Y-182336185D02*
X178529455Y-182264757D01*
X178529455Y-182264757D02*
X178672312Y-182193328D01*
X178672312Y-182193328D02*
X179029455Y-182193328D01*
X179029455Y-182193328D02*
X179243741Y-182264757D01*
X179886597Y-183693328D02*
X179886597Y-182193328D01*
X180529455Y-183693328D02*
X180529455Y-182907614D01*
X180529455Y-182907614D02*
X180458026Y-182764757D01*
X180458026Y-182764757D02*
X180315169Y-182693328D01*
X180315169Y-182693328D02*
X180100883Y-182693328D01*
X180100883Y-182693328D02*
X179958026Y-182764757D01*
X179958026Y-182764757D02*
X179886597Y-182836185D01*
X181815169Y-183621900D02*
X181672312Y-183693328D01*
X181672312Y-183693328D02*
X181386598Y-183693328D01*
X181386598Y-183693328D02*
X181243740Y-183621900D01*
X181243740Y-183621900D02*
X181172312Y-183479042D01*
X181172312Y-183479042D02*
X181172312Y-182907614D01*
X181172312Y-182907614D02*
X181243740Y-182764757D01*
X181243740Y-182764757D02*
X181386598Y-182693328D01*
X181386598Y-182693328D02*
X181672312Y-182693328D01*
X181672312Y-182693328D02*
X181815169Y-182764757D01*
X181815169Y-182764757D02*
X181886598Y-182907614D01*
X181886598Y-182907614D02*
X181886598Y-183050471D01*
X181886598Y-183050471D02*
X181172312Y-183193328D01*
X183100883Y-183621900D02*
X182958026Y-183693328D01*
X182958026Y-183693328D02*
X182672312Y-183693328D01*
X182672312Y-183693328D02*
X182529454Y-183621900D01*
X182529454Y-183621900D02*
X182458026Y-183479042D01*
X182458026Y-183479042D02*
X182458026Y-182907614D01*
X182458026Y-182907614D02*
X182529454Y-182764757D01*
X182529454Y-182764757D02*
X182672312Y-182693328D01*
X182672312Y-182693328D02*
X182958026Y-182693328D01*
X182958026Y-182693328D02*
X183100883Y-182764757D01*
X183100883Y-182764757D02*
X183172312Y-182907614D01*
X183172312Y-182907614D02*
X183172312Y-183050471D01*
X183172312Y-183050471D02*
X182458026Y-183193328D01*
X183600883Y-182693328D02*
X184172311Y-182693328D01*
X183815168Y-182193328D02*
X183815168Y-183479042D01*
X183815168Y-183479042D02*
X183886597Y-183621900D01*
X183886597Y-183621900D02*
X184029454Y-183693328D01*
X184029454Y-183693328D02*
X184172311Y-183693328D01*
X184672311Y-183550471D02*
X184743740Y-183621900D01*
X184743740Y-183621900D02*
X184672311Y-183693328D01*
X184672311Y-183693328D02*
X184600883Y-183621900D01*
X184600883Y-183621900D02*
X184672311Y-183550471D01*
X184672311Y-183550471D02*
X184672311Y-183693328D01*
X184672311Y-182764757D02*
X184743740Y-182836185D01*
X184743740Y-182836185D02*
X184672311Y-182907614D01*
X184672311Y-182907614D02*
X184600883Y-182836185D01*
X184600883Y-182836185D02*
X184672311Y-182764757D01*
X184672311Y-182764757D02*
X184672311Y-182907614D01*
X197002200Y-191507200D02*
X197002200Y-194507200D01*
X261002200Y-191507200D02*
X261002200Y-198007200D01*
D13*
%TO.P,J3,1,Pin_1_1*%
%TO.N,Net-(J3-Pin_1)*%
X122000000Y-105000000D03*
D14*
%TO.P,J3,2,Pin_2_2*%
%TO.N,Net-(J3-Pin_2)*%
X122000000Y-102460000D03*
%TD*%
D15*
%TO.P,J1,MH3,MH3_MH3*%
%TO.N,GND*%
X102700000Y-118500000D03*
%TO.P,J1,MH4,MH4_MH4*%
X102700000Y-106800000D03*
%TD*%
D16*
%TO.P,J2,1,Pin_1_1*%
%TO.N,/Power/RAW_3.3V+*%
X111750000Y-102975000D03*
D17*
%TO.P,J2,2,Pin_2_2*%
%TO.N,GND*%
X114250000Y-102975000D03*
%TO.P,J2,3,Pin_3_3*%
%TO.N,unconnected-(J2-Pin_3-Pad3)*%
X116750000Y-102975000D03*
%TD*%
D18*
%TO.P,J4,1,Pin_1_1*%
%TO.N,MCU_RST*%
X157390000Y-109875000D03*
%TO.P,J4,2,Pin_2_2*%
%TO.N,+3.3V_LDO*%
X157390000Y-114925000D03*
%TO.P,J4,3,Pin_3_3*%
%TO.N,SWCLK*%
X159930000Y-109875000D03*
%TO.P,J4,4,Pin_4_4*%
%TO.N,SWDIO*%
X159930000Y-114925000D03*
%TO.P,J4,5,Pin_5_5*%
%TO.N,GND*%
X162470000Y-109875000D03*
%TO.P,J4,6,Pin_6_6*%
%TO.N,SWO*%
X162470000Y-114925000D03*
%TO.P,J4,7,Pin_7_7*%
%TO.N,UART1_RX*%
X165010000Y-109875000D03*
%TO.P,J4,8,Pin_8_8*%
%TO.N,UART1_TX*%
X165010000Y-114925000D03*
%TD*%
D19*
%TO.N,GND*%
X113500000Y-120800000D03*
%TO.N,+3.3V*%
X107800000Y-109800000D03*
X153000000Y-119400000D03*
X120200000Y-122800000D03*
X119400000Y-122800000D03*
X160900000Y-102400000D03*
X148900000Y-110200000D03*
X141150000Y-106550000D03*
X152400000Y-119400000D03*
X149000000Y-115000000D03*
X108489997Y-109800000D03*
X109190000Y-109800000D03*
X149000000Y-103600000D03*
X121000000Y-122800000D03*
%TO.N,GND*%
X124975000Y-116800000D03*
X169000000Y-120000000D03*
X141600000Y-121600000D03*
X158200000Y-120550000D03*
X118875000Y-111800000D03*
X109400000Y-113000000D03*
X121750000Y-114000000D03*
X124250000Y-121650000D03*
X169000000Y-110000000D03*
X149800000Y-118400000D03*
X129200000Y-119800000D03*
X111600000Y-119000000D03*
X114500000Y-111400000D03*
X151750000Y-106750000D03*
X167600000Y-103200000D03*
X134950000Y-112350000D03*
X107000000Y-101000000D03*
X128000000Y-104000000D03*
X156400000Y-106600000D03*
X132000000Y-104000000D03*
X152000000Y-101250000D03*
X149600000Y-124000000D03*
X115500000Y-114975000D03*
X124400000Y-111800000D03*
X104000000Y-103800000D03*
X153900000Y-117200000D03*
X159750000Y-105250000D03*
X160900000Y-115600000D03*
X164250000Y-101250000D03*
X169000000Y-102500000D03*
X147500000Y-116700000D03*
X136000000Y-106000000D03*
X135700000Y-111600000D03*
X110300000Y-119500000D03*
X134950000Y-111600000D03*
X101000000Y-122000000D03*
X101000000Y-102800000D03*
X141250000Y-115000000D03*
X156250000Y-108750000D03*
X110300000Y-118900000D03*
X161100000Y-111000000D03*
X143425000Y-117200000D03*
X108300000Y-111775000D03*
X128250000Y-120250000D03*
X166500000Y-104000000D03*
X107625000Y-111175000D03*
X134200000Y-118300000D03*
X134950000Y-113100000D03*
X107300000Y-114400000D03*
X113300000Y-113100000D03*
X154250000Y-110600000D03*
X160900000Y-114200000D03*
X129700000Y-116600000D03*
X120625000Y-118800000D03*
X104000000Y-124000000D03*
X161000000Y-109250000D03*
X169000000Y-112500000D03*
X161800000Y-119600000D03*
X160750000Y-103500000D03*
X107200000Y-108350000D03*
X108000000Y-106000000D03*
X130000000Y-104000000D03*
X137200000Y-112350000D03*
X118225000Y-120150000D03*
X136450000Y-112350000D03*
X137200000Y-111600000D03*
X118875000Y-113400000D03*
X137250000Y-118100000D03*
X132500000Y-107800000D03*
X162800000Y-107200000D03*
X131750000Y-114250000D03*
X158000000Y-103500000D03*
X169000000Y-105000000D03*
X166600000Y-122800000D03*
X125600000Y-114800000D03*
X111600000Y-113100000D03*
X128000000Y-102000000D03*
X129950000Y-114200000D03*
X127400000Y-114500000D03*
X155250000Y-117500000D03*
X107250000Y-121250000D03*
X112750000Y-115375000D03*
X150525000Y-109200000D03*
X113600000Y-108500000D03*
X113800000Y-105000000D03*
X161100000Y-105400000D03*
X120000000Y-113750000D03*
X166500000Y-121000000D03*
X132000000Y-102000000D03*
X163000000Y-103250000D03*
X124600000Y-110200000D03*
X136450000Y-111600000D03*
X142000000Y-116750000D03*
X110000000Y-124000000D03*
X113000000Y-119000000D03*
X141700000Y-109017200D03*
X110250000Y-121250000D03*
X169000000Y-107500000D03*
X104000000Y-101000000D03*
X154000000Y-119400000D03*
X167600000Y-121800000D03*
X101000000Y-101000000D03*
X112000000Y-124000000D03*
X106000000Y-124000000D03*
X169000000Y-122500000D03*
X158000000Y-104750000D03*
X104000000Y-122000000D03*
X130750000Y-106750000D03*
X101000000Y-124000000D03*
X151750000Y-107500000D03*
X126500000Y-118600000D03*
X162800000Y-120400000D03*
X154000000Y-101250000D03*
X138350000Y-101525000D03*
X137250000Y-117100000D03*
X129750000Y-106750000D03*
X110300000Y-112300000D03*
X155100000Y-106800000D03*
X123100000Y-120325000D03*
X116600000Y-111200000D03*
X166500000Y-115000000D03*
X111850000Y-114475000D03*
X142200000Y-106750000D03*
X144550000Y-107800000D03*
X111000000Y-119200000D03*
X164250000Y-119750000D03*
X162600000Y-117600000D03*
X129500000Y-113700000D03*
X135700000Y-113100000D03*
X108900000Y-111100000D03*
X150600000Y-105100000D03*
X147775000Y-109975000D03*
X157400000Y-123200000D03*
X162800000Y-105400000D03*
X146600000Y-124000000D03*
X146525000Y-104425000D03*
X142000000Y-113700000D03*
X160000000Y-103500000D03*
X135700000Y-112350000D03*
X158750000Y-123250000D03*
X150200000Y-101300000D03*
X156750000Y-103500000D03*
X163600000Y-111200000D03*
X158000000Y-101250000D03*
X125400000Y-109400000D03*
X117175000Y-120750000D03*
X111500000Y-121250000D03*
X118000000Y-124000000D03*
X144700000Y-112900000D03*
X107250000Y-118250000D03*
X154500000Y-104575000D03*
X137200000Y-110850000D03*
X114800000Y-105000000D03*
X145900000Y-116800000D03*
X152300000Y-107100000D03*
X139000000Y-105000000D03*
X114000000Y-124000000D03*
X140300000Y-106750000D03*
X169000000Y-117500000D03*
X166500000Y-110000000D03*
X164250000Y-124000000D03*
X122000000Y-107200000D03*
X155300000Y-114700000D03*
X140800000Y-121600000D03*
X136450000Y-110850000D03*
X108300000Y-113500000D03*
X143400000Y-101100000D03*
X158400000Y-106600000D03*
X122400000Y-119600000D03*
X166500000Y-112500000D03*
X139600000Y-121400000D03*
X169000000Y-115000000D03*
X134100000Y-120600000D03*
X124250000Y-117650000D03*
X146000000Y-109150000D03*
X101000000Y-115800000D03*
X108000000Y-124000000D03*
X125600000Y-111800000D03*
X146800000Y-107400000D03*
X161800000Y-124100000D03*
X142000000Y-117550000D03*
X142000000Y-115750000D03*
X131100000Y-109800000D03*
X124400000Y-114800000D03*
X103600000Y-112600000D03*
X116000000Y-124000000D03*
X158550000Y-117550000D03*
X126600000Y-108200000D03*
X125600000Y-113400000D03*
X121750000Y-111250000D03*
X149200000Y-116000000D03*
X130000000Y-102000000D03*
X141700000Y-101100000D03*
X131100000Y-112000000D03*
X124400000Y-113400000D03*
X156460000Y-118900000D03*
X156000000Y-101250000D03*
X120250000Y-107600000D03*
X163800000Y-114400000D03*
X106000000Y-106000000D03*
X160750000Y-122200000D03*
X147250000Y-114000000D03*
X101000000Y-109400000D03*
X130000000Y-121200000D03*
X135700000Y-110850000D03*
X148000000Y-124000000D03*
X151300000Y-119400000D03*
X158600000Y-113800000D03*
X139175000Y-102750000D03*
X120000000Y-111250000D03*
X109200000Y-108350000D03*
X136450000Y-113100000D03*
X112400000Y-113100000D03*
X151200000Y-116000000D03*
X166500000Y-102300000D03*
X163750000Y-109500000D03*
X129800000Y-112000000D03*
X116900000Y-118900000D03*
X147500000Y-117400000D03*
%TO.N,VDD*%
X138200000Y-120200000D03*
X138400000Y-119350000D03*
X149600000Y-120200000D03*
X139500000Y-117750000D03*
X128600000Y-108000000D03*
X128500000Y-114500000D03*
X139500000Y-116750000D03*
X141750000Y-111500000D03*
X136600000Y-120200000D03*
X139400000Y-119350000D03*
X137400000Y-120200000D03*
%TO.N,PWR_DOWN*%
X126700000Y-111000000D03*
X126700000Y-117700000D03*
X119283183Y-107500000D03*
X122274817Y-110725183D03*
X137000000Y-107250000D03*
%TO.N,+3.3V_LDO*%
X157575000Y-116850000D03*
X119000000Y-116100000D03*
X157550000Y-117500000D03*
X119650000Y-116100000D03*
X125339753Y-110139753D03*
%TO.N,MCU_RST*%
X155750000Y-118250000D03*
X155850000Y-110500000D03*
X155750000Y-115550000D03*
X146000000Y-119000000D03*
X140800000Y-111475000D03*
%TO.N,HALL_DIRECT*%
X147275000Y-108975000D03*
X138500000Y-107400000D03*
X155500000Y-104700000D03*
%TO.N,/MCU/ION_TO_ADC*%
X123400000Y-107200000D03*
X139250000Y-106765600D03*
%TO.N,SWDIO*%
X130800000Y-114000000D03*
%TO.N,SWCLK*%
X132250000Y-116000000D03*
%TO.N,SWO*%
X132403899Y-116896101D03*
%TO.N,UART1_TX*%
X134500000Y-116500000D03*
%TO.N,UART1_RX*%
X133250000Y-116767200D03*
%TO.N,HALL_INV*%
X161000000Y-107600000D03*
X154800000Y-107800000D03*
%TO.N,/Power/USB_D-*%
X113641745Y-111768264D03*
X111198400Y-112300000D03*
%TO.N,/Power/USB_D+*%
X112001600Y-112300000D03*
X112986636Y-112309869D03*
%TD*%
%TO.N,/MCU/ION_TO_ADC*%
D20*
X126000000Y-104600000D02*
X123400000Y-107200000D01*
X137200000Y-104600000D02*
X126000000Y-104600000D01*
X139250000Y-106765600D02*
X139100000Y-106615600D01*
X139100000Y-106615600D02*
X139100000Y-106500000D01*
X139100000Y-106500000D02*
X137200000Y-104600000D01*
%TO.N,PWR_DOWN*%
D21*
X119283183Y-107683183D02*
X119283183Y-107500000D01*
X137000000Y-105600000D02*
X136800000Y-105400000D01*
X122274817Y-110725183D02*
X122274817Y-110674817D01*
X122274817Y-109525183D02*
X122274817Y-110725183D01*
X126400000Y-105400000D02*
X122274817Y-109525183D01*
X137000000Y-107250000D02*
X137000000Y-105600000D01*
X136800000Y-105400000D02*
X126400000Y-105400000D01*
X126700000Y-117700000D02*
X126700000Y-111000000D01*
X122274817Y-110674817D02*
X119283183Y-107683183D01*
%TO.N,+3.3V_LDO*%
D20*
X123250000Y-113900000D02*
X123250000Y-111750000D01*
D22*
X157575000Y-116850000D02*
X157575000Y-116725000D01*
D20*
X119650000Y-116100000D02*
X121050000Y-116100000D01*
X124750000Y-111000000D02*
X125339753Y-110410247D01*
D22*
X157575000Y-116725000D02*
X157390000Y-116540000D01*
D20*
X125339753Y-110410247D02*
X125339753Y-110139753D01*
D22*
X157575000Y-117475000D02*
X157575000Y-116850000D01*
D20*
X124000000Y-111000000D02*
X124750000Y-111000000D01*
D22*
X157390000Y-116540000D02*
X157390000Y-114925000D01*
X157550000Y-117500000D02*
X157575000Y-117475000D01*
D20*
X121050000Y-116100000D02*
X123250000Y-113900000D01*
X123250000Y-111750000D02*
X124000000Y-111000000D01*
%TO.N,MCU_RST*%
X155767200Y-118232800D02*
X155750000Y-118250000D01*
X142500000Y-110800000D02*
X144050000Y-112350000D01*
X140800000Y-111300000D02*
X141300000Y-110800000D01*
X144050000Y-112350000D02*
X144050000Y-117050000D01*
X157390000Y-110010000D02*
X156900000Y-110500000D01*
X144050000Y-117050000D02*
X146000000Y-119000000D01*
X140800000Y-111475000D02*
X140800000Y-111300000D01*
X157390000Y-109875000D02*
X157390000Y-110010000D01*
X156900000Y-110500000D02*
X155850000Y-110500000D01*
X155767200Y-115567200D02*
X155767200Y-118232800D01*
X141300000Y-110800000D02*
X142500000Y-110800000D01*
X157380000Y-111225000D02*
X157380000Y-110150000D01*
X155750000Y-115550000D02*
X155767200Y-115567200D01*
%TO.N,HALL_DIRECT*%
X146900000Y-110200000D02*
X147700000Y-111000000D01*
X145582800Y-107282800D02*
X147275000Y-108975000D01*
X147150000Y-109100000D02*
X146900000Y-109350000D01*
X146900000Y-109350000D02*
X146900000Y-110200000D01*
X138617200Y-107282800D02*
X145582800Y-107282800D01*
X155500000Y-105500000D02*
X155500000Y-104700000D01*
X147700000Y-111000000D02*
X150000000Y-111000000D01*
X138500000Y-107400000D02*
X138617200Y-107282800D01*
X150000000Y-111000000D02*
X155500000Y-105500000D01*
%TO.N,SWDIO*%
X130800000Y-114000000D02*
X130800000Y-116400000D01*
X145900000Y-113100000D02*
X159300000Y-113100000D01*
X140900000Y-110200000D02*
X143000000Y-110200000D01*
X130800000Y-116400000D02*
X132000000Y-117600000D01*
X132000000Y-117600000D02*
X135500000Y-117600000D01*
X139500000Y-113600000D02*
X139500000Y-111600000D01*
X135500000Y-117600000D02*
X139500000Y-113600000D01*
X139500000Y-111600000D02*
X140900000Y-110200000D01*
X159300000Y-113100000D02*
X159930000Y-113730000D01*
X143000000Y-110200000D02*
X145900000Y-113100000D01*
X159930000Y-113730000D02*
X159930000Y-114925000D01*
%TO.N,SWCLK*%
X134700000Y-108400000D02*
X139600000Y-108400000D01*
X139600000Y-108400000D02*
X140275000Y-107725000D01*
X132250000Y-116000000D02*
X132600000Y-115650000D01*
X159920000Y-111280000D02*
X159920000Y-110150000D01*
X143675000Y-107725000D02*
X147350000Y-111400000D01*
X150800000Y-111400000D02*
X153700000Y-108500000D01*
X156000000Y-107800000D02*
X158900000Y-107800000D01*
X132600000Y-115650000D02*
X132600000Y-110500000D01*
X155300000Y-108500000D02*
X156000000Y-107800000D01*
X153700000Y-108500000D02*
X155300000Y-108500000D01*
X158900000Y-107800000D02*
X159930000Y-108830000D01*
X132600000Y-110500000D02*
X134700000Y-108400000D01*
X140275000Y-107725000D02*
X143675000Y-107725000D01*
X159930000Y-108830000D02*
X159930000Y-109875000D01*
X147350000Y-111400000D02*
X150800000Y-111400000D01*
%TO.N,SWO*%
X161300000Y-112600000D02*
X162470000Y-113770000D01*
X143200000Y-109700000D02*
X146100000Y-112600000D01*
X134715600Y-117284400D02*
X138300000Y-113700000D01*
X162460000Y-115200000D02*
X162460000Y-116340000D01*
X146100000Y-112600000D02*
X161300000Y-112600000D01*
X132403899Y-116896101D02*
X132792197Y-117284400D01*
X138300000Y-112000000D02*
X140600000Y-109700000D01*
X138300000Y-113700000D02*
X138300000Y-112000000D01*
X140600000Y-109700000D02*
X143200000Y-109700000D01*
X162470000Y-113770000D02*
X162470000Y-114925000D01*
X132792197Y-117284400D02*
X134715600Y-117284400D01*
%TO.N,UART1_TX*%
X139800000Y-109800000D02*
X141100000Y-108500000D01*
X141100000Y-108500000D02*
X142800000Y-108500000D01*
X163400000Y-112200000D02*
X165010000Y-113810000D01*
X165010000Y-113810000D02*
X165010000Y-114925000D01*
X142800000Y-108500000D02*
X146500000Y-112200000D01*
X134500000Y-116500000D02*
X134300000Y-116300000D01*
X134300000Y-116300000D02*
X134300000Y-110768568D01*
X135268568Y-109800000D02*
X139800000Y-109800000D01*
X146500000Y-112200000D02*
X163400000Y-112200000D01*
X134300000Y-110768568D02*
X135268568Y-109800000D01*
%TO.N,UART1_RX*%
X133500000Y-110600000D02*
X135000000Y-109100000D01*
X135000000Y-109100000D02*
X139700000Y-109100000D01*
X164100000Y-111800000D02*
X165010000Y-110890000D01*
X133500000Y-116000000D02*
X133500000Y-110600000D01*
X133250000Y-116250000D02*
X133500000Y-116000000D01*
X143200000Y-108100000D02*
X146900000Y-111800000D01*
X140700000Y-108100000D02*
X143200000Y-108100000D01*
X165010000Y-110890000D02*
X165010000Y-109875000D01*
X139700000Y-109100000D02*
X140700000Y-108100000D01*
X146900000Y-111800000D02*
X164100000Y-111800000D01*
X133250000Y-116767200D02*
X133250000Y-116250000D01*
%TO.N,HALL_INV*%
X160700000Y-107300000D02*
X155300000Y-107300000D01*
X155300000Y-107300000D02*
X154800000Y-107800000D01*
X161000000Y-107600000D02*
X160700000Y-107300000D01*
%TO.N,/Power/USB_D-*%
X111198400Y-112300000D02*
X111423399Y-112075001D01*
X113196881Y-111323400D02*
X113641745Y-111768264D01*
X111423399Y-111726851D02*
X111826850Y-111323400D01*
X111423399Y-112075001D02*
X111423399Y-111726851D01*
X111826850Y-111323400D02*
X113196881Y-111323400D01*
%TO.N,/Power/USB_D+*%
X112001600Y-112300000D02*
X111776601Y-112075001D01*
X111776601Y-111873149D02*
X111973150Y-111676600D01*
X111776601Y-112075001D02*
X111776601Y-111873149D01*
X111973150Y-111676600D02*
X112353367Y-111676600D01*
X112353367Y-111676600D02*
X112986636Y-112309869D01*
%TD*%
%TA.AperFunction,Conductor*%
%TO.N,GND*%
G36*
X139481850Y-110145185D02*
G01*
X139527605Y-110197989D01*
X139537549Y-110267147D01*
X139508524Y-110330703D01*
X139502492Y-110337181D01*
X138039537Y-111800135D01*
X138039533Y-111800141D01*
X137996681Y-111874362D01*
X137996680Y-111874363D01*
X137982980Y-111925498D01*
X137982980Y-111925499D01*
X137974500Y-111957146D01*
X137974500Y-113513811D01*
X137954815Y-113580850D01*
X137938181Y-113601492D01*
X135214260Y-116325412D01*
X135152937Y-116358897D01*
X135083245Y-116353913D01*
X135027312Y-116312041D01*
X135017278Y-116294419D01*
X135017048Y-116294553D01*
X134940511Y-116161988D01*
X134940506Y-116161982D01*
X134838017Y-116059493D01*
X134838011Y-116059488D01*
X134712488Y-115987017D01*
X134704981Y-115983908D01*
X134706021Y-115981396D01*
X134657741Y-115951965D01*
X134627216Y-115889116D01*
X134625500Y-115868560D01*
X134625500Y-110954757D01*
X134645185Y-110887718D01*
X134661819Y-110867076D01*
X135367076Y-110161819D01*
X135428399Y-110128334D01*
X135454757Y-110125500D01*
X139414811Y-110125500D01*
X139481850Y-110145185D01*
G37*
%TD.AperFunction*%
%TA.AperFunction,Conductor*%
G36*
X156538426Y-108131436D02*
G01*
X156559468Y-108132566D01*
X156571278Y-108141083D01*
X156585247Y-108145185D01*
X156599043Y-108161106D01*
X156616138Y-108173435D01*
X156621469Y-108186987D01*
X156631002Y-108197989D01*
X156634000Y-108218844D01*
X156641715Y-108238455D01*
X156640384Y-108263244D01*
X156640946Y-108267147D01*
X156639824Y-108273699D01*
X156639500Y-108275327D01*
X156639500Y-110050500D01*
X156619815Y-110117539D01*
X156567011Y-110163294D01*
X156515500Y-110174500D01*
X156354387Y-110174500D01*
X156287348Y-110154815D01*
X156266706Y-110138182D01*
X156230016Y-110101492D01*
X156188015Y-110059491D01*
X156188012Y-110059489D01*
X156188011Y-110059488D01*
X156062488Y-109987017D01*
X156062489Y-109987017D01*
X156027363Y-109977605D01*
X155922475Y-109949500D01*
X155777525Y-109949500D01*
X155672637Y-109977605D01*
X155637511Y-109987017D01*
X155511988Y-110059488D01*
X155511982Y-110059493D01*
X155409493Y-110161982D01*
X155409488Y-110161988D01*
X155337017Y-110287511D01*
X155337016Y-110287515D01*
X155299500Y-110427525D01*
X155299500Y-110572475D01*
X155328556Y-110680911D01*
X155337017Y-110712488D01*
X155409488Y-110838011D01*
X155409490Y-110838013D01*
X155409491Y-110838015D01*
X155511985Y-110940509D01*
X155511986Y-110940510D01*
X155511988Y-110940511D01*
X155637511Y-111012982D01*
X155637512Y-111012982D01*
X155637515Y-111012984D01*
X155777525Y-111050500D01*
X155777528Y-111050500D01*
X155922472Y-111050500D01*
X155922475Y-111050500D01*
X156062485Y-111012984D01*
X156188015Y-110940509D01*
X156266706Y-110861818D01*
X156293636Y-110847113D01*
X156319452Y-110830523D01*
X156325654Y-110829631D01*
X156328030Y-110828334D01*
X156354387Y-110825500D01*
X156515500Y-110825500D01*
X156582539Y-110845185D01*
X156628294Y-110897989D01*
X156639500Y-110949500D01*
X156639500Y-111350500D01*
X156619815Y-111417539D01*
X156567011Y-111463294D01*
X156515500Y-111474500D01*
X151485189Y-111474500D01*
X151418150Y-111454815D01*
X151372395Y-111402011D01*
X151362451Y-111332853D01*
X151391476Y-111269297D01*
X151397508Y-111262819D01*
X153798508Y-108861819D01*
X153859831Y-108828334D01*
X153886189Y-108825500D01*
X155342851Y-108825500D01*
X155342853Y-108825500D01*
X155425639Y-108803318D01*
X155499862Y-108760465D01*
X156098508Y-108161819D01*
X156159831Y-108128334D01*
X156186189Y-108125500D01*
X156518208Y-108125500D01*
X156538426Y-108131436D01*
G37*
%TD.AperFunction*%
%TA.AperFunction,Conductor*%
G36*
X145463650Y-107627985D02*
G01*
X145484292Y-107644619D01*
X146688181Y-108848508D01*
X146702884Y-108875435D01*
X146719477Y-108901254D01*
X146720368Y-108907454D01*
X146721666Y-108909831D01*
X146724500Y-108936189D01*
X146724500Y-109013809D01*
X146704815Y-109080848D01*
X146688183Y-109101489D01*
X146639535Y-109150138D01*
X146639533Y-109150141D01*
X146596681Y-109224361D01*
X146596682Y-109224362D01*
X146574500Y-109307147D01*
X146574500Y-109864811D01*
X146554815Y-109931850D01*
X146502011Y-109977605D01*
X146432853Y-109987549D01*
X146369297Y-109958524D01*
X146362819Y-109952492D01*
X144230308Y-107819981D01*
X144196823Y-107758658D01*
X144201807Y-107688966D01*
X144243679Y-107633033D01*
X144309143Y-107608616D01*
X144317989Y-107608300D01*
X145396611Y-107608300D01*
X145463650Y-107627985D01*
G37*
%TD.AperFunction*%
%TA.AperFunction,Conductor*%
G36*
X169442539Y-100520185D02*
G01*
X169488294Y-100572989D01*
X169499500Y-100624500D01*
X169499500Y-124375500D01*
X169479815Y-124442539D01*
X169427011Y-124488294D01*
X169375500Y-124499500D01*
X100624500Y-124499500D01*
X100557461Y-124479815D01*
X100511706Y-124427011D01*
X100500500Y-124375500D01*
X100500500Y-122727525D01*
X118849500Y-122727525D01*
X118849500Y-122872475D01*
X118887016Y-123012485D01*
X118887017Y-123012488D01*
X118959488Y-123138011D01*
X118959490Y-123138013D01*
X118959491Y-123138015D01*
X119061985Y-123240509D01*
X119061986Y-123240510D01*
X119061988Y-123240511D01*
X119187511Y-123312982D01*
X119187512Y-123312982D01*
X119187515Y-123312984D01*
X119327525Y-123350500D01*
X119327528Y-123350500D01*
X119472472Y-123350500D01*
X119472475Y-123350500D01*
X119612485Y-123312984D01*
X119738002Y-123240516D01*
X119805899Y-123224044D01*
X119861996Y-123240515D01*
X119987515Y-123312984D01*
X120127525Y-123350500D01*
X120127528Y-123350500D01*
X120272472Y-123350500D01*
X120272475Y-123350500D01*
X120412485Y-123312984D01*
X120538002Y-123240516D01*
X120605899Y-123224044D01*
X120661996Y-123240515D01*
X120787515Y-123312984D01*
X120927525Y-123350500D01*
X120927528Y-123350500D01*
X121072472Y-123350500D01*
X121072475Y-123350500D01*
X121212485Y-123312984D01*
X121338015Y-123240509D01*
X121440509Y-123138015D01*
X121512984Y-123012485D01*
X121550500Y-122872475D01*
X121550500Y-122727525D01*
X121512984Y-122587515D01*
X121440509Y-122461985D01*
X121338015Y-122359491D01*
X121338013Y-122359490D01*
X121338011Y-122359488D01*
X121212488Y-122287017D01*
X121212489Y-122287017D01*
X121201006Y-122283940D01*
X121072475Y-122249500D01*
X120927525Y-122249500D01*
X120798993Y-122283940D01*
X120787511Y-122287017D01*
X120662000Y-122359482D01*
X120594100Y-122375955D01*
X120538000Y-122359482D01*
X120412488Y-122287017D01*
X120412489Y-122287017D01*
X120401006Y-122283940D01*
X120272475Y-122249500D01*
X120127525Y-122249500D01*
X119998993Y-122283940D01*
X119987511Y-122287017D01*
X119862000Y-122359482D01*
X119794100Y-122375955D01*
X119738000Y-122359482D01*
X119612488Y-122287017D01*
X119612489Y-122287017D01*
X119601006Y-122283940D01*
X119472475Y-122249500D01*
X119327525Y-122249500D01*
X119198993Y-122283940D01*
X119187511Y-122287017D01*
X119061988Y-122359488D01*
X119061982Y-122359493D01*
X118959493Y-122461982D01*
X118959488Y-122461988D01*
X118887017Y-122587511D01*
X118887016Y-122587515D01*
X118849500Y-122727525D01*
X100500500Y-122727525D01*
X100500500Y-120105975D01*
X100520185Y-120038936D01*
X100572989Y-119993181D01*
X100642147Y-119983237D01*
X100705703Y-120012262D01*
X100721448Y-120028663D01*
X100732816Y-120042918D01*
X101554973Y-119220761D01*
X101670278Y-119379466D01*
X101820534Y-119529722D01*
X101979236Y-119645026D01*
X101157079Y-120467183D01*
X101251043Y-120542115D01*
X101488799Y-120691507D01*
X101741782Y-120813337D01*
X102006819Y-120906077D01*
X102006821Y-120906078D01*
X102280575Y-120968560D01*
X102280587Y-120968562D01*
X102559598Y-120999999D01*
X102559600Y-121000000D01*
X102840400Y-121000000D01*
X102840401Y-120999999D01*
X103119412Y-120968562D01*
X103119424Y-120968560D01*
X103393178Y-120906078D01*
X103393180Y-120906077D01*
X103658217Y-120813337D01*
X103911200Y-120691507D01*
X104148956Y-120542115D01*
X104242919Y-120467182D01*
X103903262Y-120127525D01*
X136049500Y-120127525D01*
X136049500Y-120272475D01*
X136087016Y-120412485D01*
X136087017Y-120412488D01*
X136159488Y-120538011D01*
X136159490Y-120538013D01*
X136159491Y-120538015D01*
X136261985Y-120640509D01*
X136261986Y-120640510D01*
X136261988Y-120640511D01*
X136387511Y-120712982D01*
X136387512Y-120712982D01*
X136387515Y-120712984D01*
X136527525Y-120750500D01*
X136527528Y-120750500D01*
X136672472Y-120750500D01*
X136672475Y-120750500D01*
X136812485Y-120712984D01*
X136938002Y-120640516D01*
X137005899Y-120624044D01*
X137061996Y-120640515D01*
X137187515Y-120712984D01*
X137327525Y-120750500D01*
X137327528Y-120750500D01*
X137472472Y-120750500D01*
X137472475Y-120750500D01*
X137612485Y-120712984D01*
X137738002Y-120640516D01*
X137805899Y-120624044D01*
X137861996Y-120640515D01*
X137987515Y-120712984D01*
X138127525Y-120750500D01*
X138127528Y-120750500D01*
X138272472Y-120750500D01*
X138272475Y-120750500D01*
X138412485Y-120712984D01*
X138538015Y-120640509D01*
X138640509Y-120538015D01*
X138712984Y-120412485D01*
X138750500Y-120272475D01*
X138750500Y-120127525D01*
X149049500Y-120127525D01*
X149049500Y-120272475D01*
X149087016Y-120412485D01*
X149087017Y-120412488D01*
X149159488Y-120538011D01*
X149159490Y-120538013D01*
X149159491Y-120538015D01*
X149261985Y-120640509D01*
X149261986Y-120640510D01*
X149261988Y-120640511D01*
X149387511Y-120712982D01*
X149387512Y-120712982D01*
X149387515Y-120712984D01*
X149527525Y-120750500D01*
X149527528Y-120750500D01*
X149672472Y-120750500D01*
X149672475Y-120750500D01*
X149812485Y-120712984D01*
X149938015Y-120640509D01*
X150040509Y-120538015D01*
X150112984Y-120412485D01*
X150150500Y-120272475D01*
X150150500Y-120127525D01*
X150112984Y-119987515D01*
X150091613Y-119950500D01*
X150040511Y-119861988D01*
X150040506Y-119861982D01*
X149938017Y-119759493D01*
X149938011Y-119759488D01*
X149812488Y-119687017D01*
X149812489Y-119687017D01*
X149796452Y-119682720D01*
X149672475Y-119649500D01*
X149527525Y-119649500D01*
X149403548Y-119682720D01*
X149387511Y-119687017D01*
X149261988Y-119759488D01*
X149261982Y-119759493D01*
X149159493Y-119861982D01*
X149159488Y-119861988D01*
X149087017Y-119987511D01*
X149087016Y-119987515D01*
X149049500Y-120127525D01*
X138750500Y-120127525D01*
X138712984Y-119987515D01*
X138689239Y-119946389D01*
X138685174Y-119933627D01*
X138684670Y-119911549D01*
X138679463Y-119890086D01*
X138683888Y-119877299D01*
X138683580Y-119863776D01*
X138695091Y-119844930D01*
X138702316Y-119824059D01*
X138714741Y-119812764D01*
X138720003Y-119804151D01*
X138729028Y-119799777D01*
X138732474Y-119796645D01*
X138731564Y-119795459D01*
X138738008Y-119790512D01*
X138738015Y-119790509D01*
X138812319Y-119716205D01*
X138873642Y-119682720D01*
X138943334Y-119687704D01*
X138987681Y-119716205D01*
X139061985Y-119790509D01*
X139061986Y-119790510D01*
X139061988Y-119790511D01*
X139187511Y-119862982D01*
X139187512Y-119862982D01*
X139187515Y-119862984D01*
X139327525Y-119900500D01*
X139327528Y-119900500D01*
X139472472Y-119900500D01*
X139472475Y-119900500D01*
X139612485Y-119862984D01*
X139738015Y-119790509D01*
X139840509Y-119688015D01*
X139912984Y-119562485D01*
X139950500Y-119422475D01*
X139950500Y-119277525D01*
X139912984Y-119137515D01*
X139875431Y-119072472D01*
X139840511Y-119011988D01*
X139840506Y-119011982D01*
X139738017Y-118909493D01*
X139738011Y-118909488D01*
X139612488Y-118837017D01*
X139612489Y-118837017D01*
X139601006Y-118833940D01*
X139472475Y-118799500D01*
X139327525Y-118799500D01*
X139198993Y-118833940D01*
X139187511Y-118837017D01*
X139061988Y-118909488D01*
X139061982Y-118909493D01*
X138987681Y-118983795D01*
X138926358Y-119017280D01*
X138856666Y-119012296D01*
X138812319Y-118983795D01*
X138738017Y-118909493D01*
X138738011Y-118909488D01*
X138612488Y-118837017D01*
X138612489Y-118837017D01*
X138601006Y-118833940D01*
X138472475Y-118799500D01*
X138327525Y-118799500D01*
X138198993Y-118833940D01*
X138187511Y-118837017D01*
X138061988Y-118909488D01*
X138061982Y-118909493D01*
X137959493Y-119011982D01*
X137959488Y-119011988D01*
X137887017Y-119137511D01*
X137887016Y-119137515D01*
X137849500Y-119277525D01*
X137849500Y-119422475D01*
X137887016Y-119562485D01*
X137900741Y-119586257D01*
X137917214Y-119654157D01*
X137894362Y-119720184D01*
X137839441Y-119763375D01*
X137769888Y-119770017D01*
X137731354Y-119755645D01*
X137612488Y-119687017D01*
X137612489Y-119687017D01*
X137596452Y-119682720D01*
X137472475Y-119649500D01*
X137327525Y-119649500D01*
X137203548Y-119682720D01*
X137187511Y-119687017D01*
X137062000Y-119759482D01*
X136994100Y-119775955D01*
X136938000Y-119759482D01*
X136812488Y-119687017D01*
X136812489Y-119687017D01*
X136796452Y-119682720D01*
X136672475Y-119649500D01*
X136527525Y-119649500D01*
X136403548Y-119682720D01*
X136387511Y-119687017D01*
X136261988Y-119759488D01*
X136261982Y-119759493D01*
X136159493Y-119861982D01*
X136159488Y-119861988D01*
X136087017Y-119987511D01*
X136087016Y-119987515D01*
X136049500Y-120127525D01*
X103903262Y-120127525D01*
X103420762Y-119645026D01*
X103579466Y-119529722D01*
X103729722Y-119379466D01*
X103845026Y-119220763D01*
X104667182Y-120042919D01*
X104667183Y-120042918D01*
X104667849Y-120042084D01*
X104742115Y-119948956D01*
X104891507Y-119711200D01*
X105013337Y-119458217D01*
X105106077Y-119193180D01*
X105106078Y-119193178D01*
X105168560Y-118919424D01*
X105168565Y-118919398D01*
X105199999Y-118640401D01*
X105200000Y-118640399D01*
X105200000Y-118359600D01*
X105199999Y-118359598D01*
X105168562Y-118080587D01*
X105168560Y-118080575D01*
X105106078Y-117806821D01*
X105106077Y-117806819D01*
X105013337Y-117541782D01*
X104891507Y-117288799D01*
X104742115Y-117051043D01*
X104667182Y-116957079D01*
X103845025Y-117779236D01*
X103729722Y-117620534D01*
X103579466Y-117470278D01*
X103420762Y-117354973D01*
X104242918Y-116532816D01*
X104148950Y-116457880D01*
X103911200Y-116308492D01*
X103658219Y-116186663D01*
X103514689Y-116136440D01*
X103514688Y-116136439D01*
X103393180Y-116093922D01*
X103393178Y-116093921D01*
X103119424Y-116031439D01*
X103119412Y-116031437D01*
X103084692Y-116027525D01*
X118449500Y-116027525D01*
X118449500Y-116172475D01*
X118485946Y-116308492D01*
X118487017Y-116312488D01*
X118559488Y-116438011D01*
X118559490Y-116438013D01*
X118559491Y-116438015D01*
X118661985Y-116540509D01*
X118661986Y-116540510D01*
X118661988Y-116540511D01*
X118787511Y-116612982D01*
X118787512Y-116612982D01*
X118787515Y-116612984D01*
X118927525Y-116650500D01*
X118927528Y-116650500D01*
X119072472Y-116650500D01*
X119072475Y-116650500D01*
X119212485Y-116612984D01*
X119263000Y-116583818D01*
X119330899Y-116567346D01*
X119386999Y-116583818D01*
X119437515Y-116612984D01*
X119577525Y-116650500D01*
X119577528Y-116650500D01*
X119722472Y-116650500D01*
X119722475Y-116650500D01*
X119862485Y-116612984D01*
X119988015Y-116540509D01*
X120066706Y-116461818D01*
X120128030Y-116428334D01*
X120154387Y-116425500D01*
X121092851Y-116425500D01*
X121092853Y-116425500D01*
X121175639Y-116403318D01*
X121249862Y-116360465D01*
X123449859Y-114160466D01*
X123449862Y-114160465D01*
X123510465Y-114099862D01*
X123548884Y-114033318D01*
X123553318Y-114025639D01*
X123575500Y-113942853D01*
X123575500Y-113857147D01*
X123575500Y-111936189D01*
X123595185Y-111869150D01*
X123611819Y-111848508D01*
X124098508Y-111361819D01*
X124159831Y-111328334D01*
X124186189Y-111325500D01*
X124792851Y-111325500D01*
X124792853Y-111325500D01*
X124875639Y-111303318D01*
X124949862Y-111260465D01*
X125282800Y-110927525D01*
X126149500Y-110927525D01*
X126149500Y-111072475D01*
X126183805Y-111200500D01*
X126187017Y-111212488D01*
X126259488Y-111338011D01*
X126259493Y-111338017D01*
X126288181Y-111366705D01*
X126321666Y-111428028D01*
X126324500Y-111454386D01*
X126324500Y-117245614D01*
X126304815Y-117312653D01*
X126288181Y-117333295D01*
X126259493Y-117361982D01*
X126259488Y-117361988D01*
X126187017Y-117487511D01*
X126187016Y-117487515D01*
X126149500Y-117627525D01*
X126149500Y-117772475D01*
X126184560Y-117903318D01*
X126187017Y-117912488D01*
X126259488Y-118038011D01*
X126259490Y-118038013D01*
X126259491Y-118038015D01*
X126361985Y-118140509D01*
X126361986Y-118140510D01*
X126361988Y-118140511D01*
X126487511Y-118212982D01*
X126487512Y-118212982D01*
X126487515Y-118212984D01*
X126627525Y-118250500D01*
X126627528Y-118250500D01*
X126772472Y-118250500D01*
X126772475Y-118250500D01*
X126912485Y-118212984D01*
X127038015Y-118140509D01*
X127140509Y-118038015D01*
X127212984Y-117912485D01*
X127250500Y-117772475D01*
X127250500Y-117627525D01*
X127212984Y-117487515D01*
X127169378Y-117411988D01*
X127140511Y-117361988D01*
X127140506Y-117361982D01*
X127111819Y-117333295D01*
X127078334Y-117271972D01*
X127075500Y-117245614D01*
X127075500Y-114427525D01*
X127949500Y-114427525D01*
X127949500Y-114572475D01*
X127974694Y-114666498D01*
X127987017Y-114712488D01*
X128059488Y-114838011D01*
X128059490Y-114838013D01*
X128059491Y-114838015D01*
X128161985Y-114940509D01*
X128161986Y-114940510D01*
X128161988Y-114940511D01*
X128287511Y-115012982D01*
X128287512Y-115012982D01*
X128287515Y-115012984D01*
X128427525Y-115050500D01*
X128427528Y-115050500D01*
X128572472Y-115050500D01*
X128572475Y-115050500D01*
X128712485Y-115012984D01*
X128838015Y-114940509D01*
X128940509Y-114838015D01*
X129012984Y-114712485D01*
X129050500Y-114572475D01*
X129050500Y-114427525D01*
X129012984Y-114287515D01*
X129007613Y-114278213D01*
X128940511Y-114161988D01*
X128940506Y-114161982D01*
X128838017Y-114059493D01*
X128838011Y-114059488D01*
X128712488Y-113987017D01*
X128712489Y-113987017D01*
X128701006Y-113983940D01*
X128572475Y-113949500D01*
X128427525Y-113949500D01*
X128298993Y-113983940D01*
X128287511Y-113987017D01*
X128161988Y-114059488D01*
X128161982Y-114059493D01*
X128059493Y-114161982D01*
X128059488Y-114161988D01*
X127987017Y-114287511D01*
X127987016Y-114287515D01*
X127949500Y-114427525D01*
X127075500Y-114427525D01*
X127075500Y-111454386D01*
X127095185Y-111387347D01*
X127111819Y-111366705D01*
X127116705Y-111361819D01*
X127140509Y-111338015D01*
X127212984Y-111212485D01*
X127250500Y-111072475D01*
X127250500Y-110927525D01*
X127212984Y-110787515D01*
X127208171Y-110779179D01*
X127140511Y-110661988D01*
X127140506Y-110661982D01*
X127038017Y-110559493D01*
X127038011Y-110559488D01*
X126912488Y-110487017D01*
X126912489Y-110487017D01*
X126897926Y-110483115D01*
X126772475Y-110449500D01*
X126627525Y-110449500D01*
X126502074Y-110483115D01*
X126487511Y-110487017D01*
X126361988Y-110559488D01*
X126361982Y-110559493D01*
X126259493Y-110661982D01*
X126259488Y-110661988D01*
X126187017Y-110787511D01*
X126187016Y-110787515D01*
X126149500Y-110927525D01*
X125282800Y-110927525D01*
X125529407Y-110680917D01*
X125529416Y-110680911D01*
X125553359Y-110656968D01*
X125579036Y-110637263D01*
X125677768Y-110580262D01*
X125780262Y-110477768D01*
X125852737Y-110352238D01*
X125890253Y-110212228D01*
X125890253Y-110067278D01*
X125852737Y-109927268D01*
X125831053Y-109889711D01*
X125780264Y-109801741D01*
X125780259Y-109801735D01*
X125677770Y-109699246D01*
X125677764Y-109699241D01*
X125552241Y-109626770D01*
X125552242Y-109626770D01*
X125540759Y-109623693D01*
X125412228Y-109589253D01*
X125267278Y-109589253D01*
X125138746Y-109623693D01*
X125127264Y-109626770D01*
X125001741Y-109699241D01*
X125001735Y-109699246D01*
X124899246Y-109801735D01*
X124899241Y-109801741D01*
X124826770Y-109927264D01*
X124826769Y-109927268D01*
X124789253Y-110067278D01*
X124789253Y-110212228D01*
X124812808Y-110300135D01*
X124826769Y-110352239D01*
X124827476Y-110353944D01*
X124827642Y-110355497D01*
X124828873Y-110360088D01*
X124828157Y-110360279D01*
X124829612Y-110373818D01*
X124836598Y-110392548D01*
X124833269Y-110407847D01*
X124834943Y-110423413D01*
X124825996Y-110441286D01*
X124821747Y-110460821D01*
X124805057Y-110483115D01*
X124803668Y-110485892D01*
X124800596Y-110489076D01*
X124651490Y-110638182D01*
X124590170Y-110671666D01*
X124563811Y-110674500D01*
X123957147Y-110674500D01*
X123874359Y-110696682D01*
X123800138Y-110739535D01*
X123800135Y-110739537D01*
X122989537Y-111550135D01*
X122989535Y-111550138D01*
X122946681Y-111624362D01*
X122945283Y-111629582D01*
X122945282Y-111629587D01*
X122924500Y-111707147D01*
X122924500Y-113713811D01*
X122904815Y-113780850D01*
X122888181Y-113801492D01*
X120951492Y-115738181D01*
X120890169Y-115771666D01*
X120863811Y-115774500D01*
X120154387Y-115774500D01*
X120087348Y-115754815D01*
X120066706Y-115738182D01*
X120029023Y-115700499D01*
X119988015Y-115659491D01*
X119988012Y-115659489D01*
X119988011Y-115659488D01*
X119862488Y-115587017D01*
X119862489Y-115587017D01*
X119851006Y-115583940D01*
X119722475Y-115549500D01*
X119577525Y-115549500D01*
X119472517Y-115577637D01*
X119437514Y-115587016D01*
X119386999Y-115616181D01*
X119319099Y-115632652D01*
X119263001Y-115616181D01*
X119212485Y-115587016D01*
X119212486Y-115587016D01*
X119177482Y-115577637D01*
X119072475Y-115549500D01*
X118927525Y-115549500D01*
X118798993Y-115583940D01*
X118787511Y-115587017D01*
X118661988Y-115659488D01*
X118661982Y-115659493D01*
X118559493Y-115761982D01*
X118559488Y-115761988D01*
X118487017Y-115887511D01*
X118487016Y-115887515D01*
X118449500Y-116027525D01*
X103084692Y-116027525D01*
X102840401Y-116000000D01*
X102559598Y-116000000D01*
X102280587Y-116031437D01*
X102280575Y-116031439D01*
X102006821Y-116093921D01*
X102006819Y-116093922D01*
X101741782Y-116186662D01*
X101488799Y-116308492D01*
X101251043Y-116457884D01*
X101157079Y-116532815D01*
X101979237Y-117354973D01*
X101820534Y-117470278D01*
X101670278Y-117620534D01*
X101554973Y-117779237D01*
X100732815Y-116957079D01*
X100732814Y-116957079D01*
X100721447Y-116971335D01*
X100664259Y-117011475D01*
X100594447Y-117014325D01*
X100534177Y-116978980D01*
X100502584Y-116916661D01*
X100500500Y-116894022D01*
X100500500Y-114821153D01*
X101899500Y-114821153D01*
X101899500Y-114978846D01*
X101930261Y-115133489D01*
X101930264Y-115133501D01*
X101990602Y-115279172D01*
X101990609Y-115279185D01*
X102078210Y-115410288D01*
X102078213Y-115410292D01*
X102189707Y-115521786D01*
X102189711Y-115521789D01*
X102320814Y-115609390D01*
X102320827Y-115609397D01*
X102447788Y-115661985D01*
X102466503Y-115669737D01*
X102621153Y-115700499D01*
X102621156Y-115700500D01*
X102621158Y-115700500D01*
X102778844Y-115700500D01*
X102778845Y-115700499D01*
X102933497Y-115669737D01*
X103079179Y-115609394D01*
X103210289Y-115521789D01*
X103321789Y-115410289D01*
X103409394Y-115279179D01*
X103469737Y-115133497D01*
X103500500Y-114978842D01*
X103500500Y-114821158D01*
X103500500Y-114821155D01*
X103500499Y-114821153D01*
X103469738Y-114666510D01*
X103469737Y-114666503D01*
X103430790Y-114572475D01*
X103409397Y-114520827D01*
X103409390Y-114520814D01*
X103321789Y-114389711D01*
X103321786Y-114389707D01*
X103210292Y-114278213D01*
X103210288Y-114278210D01*
X103079185Y-114190609D01*
X103079172Y-114190602D01*
X102933501Y-114130264D01*
X102933489Y-114130261D01*
X102778845Y-114099500D01*
X102778842Y-114099500D01*
X102621158Y-114099500D01*
X102621155Y-114099500D01*
X102466510Y-114130261D01*
X102466498Y-114130264D01*
X102320827Y-114190602D01*
X102320814Y-114190609D01*
X102189711Y-114278210D01*
X102189707Y-114278213D01*
X102078213Y-114389707D01*
X102078210Y-114389711D01*
X101990609Y-114520814D01*
X101990602Y-114520827D01*
X101930264Y-114666498D01*
X101930261Y-114666510D01*
X101899500Y-114821153D01*
X100500500Y-114821153D01*
X100500500Y-112227525D01*
X110647900Y-112227525D01*
X110647900Y-112372475D01*
X110678005Y-112484827D01*
X110685417Y-112512488D01*
X110757888Y-112638011D01*
X110757890Y-112638013D01*
X110757891Y-112638015D01*
X110860385Y-112740509D01*
X110860386Y-112740510D01*
X110860388Y-112740511D01*
X110985911Y-112812982D01*
X110985912Y-112812982D01*
X110985915Y-112812984D01*
X111125925Y-112850500D01*
X111125928Y-112850500D01*
X111270872Y-112850500D01*
X111270875Y-112850500D01*
X111410885Y-112812984D01*
X111536415Y-112740509D01*
X111536418Y-112740505D01*
X111537999Y-112739593D01*
X111605899Y-112723120D01*
X111662001Y-112739593D01*
X111663581Y-112740505D01*
X111663585Y-112740509D01*
X111789115Y-112812984D01*
X111929125Y-112850500D01*
X111929128Y-112850500D01*
X112074072Y-112850500D01*
X112074075Y-112850500D01*
X112214085Y-112812984D01*
X112339615Y-112740509D01*
X112401505Y-112678618D01*
X112462824Y-112645136D01*
X112532516Y-112650120D01*
X112576864Y-112678621D01*
X112648621Y-112750378D01*
X112648622Y-112750379D01*
X112648624Y-112750380D01*
X112774147Y-112822851D01*
X112774148Y-112822851D01*
X112774151Y-112822853D01*
X112914161Y-112860369D01*
X112914164Y-112860369D01*
X113059108Y-112860369D01*
X113059111Y-112860369D01*
X113199121Y-112822853D01*
X113324651Y-112750378D01*
X113427145Y-112647884D01*
X113499620Y-112522354D01*
X113529546Y-112410667D01*
X113565910Y-112351010D01*
X113628757Y-112320481D01*
X113649320Y-112318764D01*
X113714217Y-112318764D01*
X113714220Y-112318764D01*
X113854230Y-112281248D01*
X113979760Y-112208773D01*
X114082254Y-112106279D01*
X114154729Y-111980749D01*
X114192245Y-111840739D01*
X114192245Y-111695789D01*
X114154729Y-111555779D01*
X114151470Y-111550135D01*
X114082256Y-111430252D01*
X114082251Y-111430246D01*
X113979762Y-111327757D01*
X113979756Y-111327752D01*
X113854233Y-111255281D01*
X113854234Y-111255281D01*
X113819216Y-111245898D01*
X113714220Y-111217764D01*
X113602934Y-111217764D01*
X113535895Y-111198079D01*
X113515252Y-111181445D01*
X113462618Y-111128811D01*
X113396743Y-111062935D01*
X113365374Y-111044823D01*
X113322521Y-111020082D01*
X113281127Y-111008991D01*
X113239734Y-110997900D01*
X111869703Y-110997900D01*
X111783997Y-110997900D01*
X111701209Y-111020082D01*
X111626988Y-111062935D01*
X111626985Y-111062937D01*
X111162936Y-111526986D01*
X111162932Y-111526992D01*
X111120081Y-111601211D01*
X111120081Y-111601212D01*
X111104205Y-111660465D01*
X111097899Y-111683998D01*
X111097899Y-111684598D01*
X111095780Y-111692706D01*
X111081607Y-111716282D01*
X111070476Y-111741438D01*
X111063864Y-111745798D01*
X111059782Y-111752589D01*
X111035106Y-111764763D01*
X111012148Y-111779904D01*
X111007909Y-111781122D01*
X110985914Y-111787016D01*
X110985911Y-111787017D01*
X110860388Y-111859488D01*
X110860382Y-111859493D01*
X110757893Y-111961982D01*
X110757888Y-111961988D01*
X110685417Y-112087511D01*
X110685416Y-112087515D01*
X110647900Y-112227525D01*
X100500500Y-112227525D01*
X100500500Y-110321153D01*
X101899500Y-110321153D01*
X101899500Y-110478846D01*
X101930261Y-110633489D01*
X101930264Y-110633501D01*
X101990602Y-110779172D01*
X101990609Y-110779185D01*
X102078210Y-110910288D01*
X102078213Y-110910292D01*
X102189707Y-111021786D01*
X102189711Y-111021789D01*
X102320814Y-111109390D01*
X102320827Y-111109397D01*
X102447788Y-111161985D01*
X102466503Y-111169737D01*
X102597781Y-111195850D01*
X102621153Y-111200499D01*
X102621156Y-111200500D01*
X102621158Y-111200500D01*
X102778844Y-111200500D01*
X102778845Y-111200499D01*
X102933497Y-111169737D01*
X103079179Y-111109394D01*
X103210289Y-111021789D01*
X103321789Y-110910289D01*
X103409394Y-110779179D01*
X103469737Y-110633497D01*
X103500500Y-110478842D01*
X103500500Y-110321158D01*
X103500500Y-110321155D01*
X103500499Y-110321153D01*
X103490776Y-110272273D01*
X103469737Y-110166503D01*
X103427765Y-110065173D01*
X103409397Y-110020827D01*
X103409390Y-110020814D01*
X103321789Y-109889711D01*
X103321786Y-109889707D01*
X103210292Y-109778213D01*
X103210288Y-109778210D01*
X103134433Y-109727525D01*
X107249500Y-109727525D01*
X107249500Y-109872475D01*
X107287016Y-110012485D01*
X107287017Y-110012488D01*
X107359488Y-110138011D01*
X107359490Y-110138013D01*
X107359491Y-110138015D01*
X107461985Y-110240509D01*
X107461986Y-110240510D01*
X107461988Y-110240511D01*
X107587511Y-110312982D01*
X107587512Y-110312982D01*
X107587515Y-110312984D01*
X107727525Y-110350500D01*
X107727528Y-110350500D01*
X107872472Y-110350500D01*
X107872475Y-110350500D01*
X108012485Y-110312984D01*
X108082999Y-110272272D01*
X108150897Y-110255800D01*
X108206998Y-110272273D01*
X108277508Y-110312982D01*
X108277509Y-110312982D01*
X108277512Y-110312984D01*
X108417522Y-110350500D01*
X108417525Y-110350500D01*
X108562469Y-110350500D01*
X108562472Y-110350500D01*
X108702482Y-110312984D01*
X108702484Y-110312982D01*
X108702486Y-110312982D01*
X108702487Y-110312981D01*
X108724737Y-110300135D01*
X108777997Y-110269384D01*
X108845897Y-110252911D01*
X108901996Y-110269383D01*
X108977515Y-110312984D01*
X109117525Y-110350500D01*
X109117528Y-110350500D01*
X109262472Y-110350500D01*
X109262475Y-110350500D01*
X109402485Y-110312984D01*
X109528015Y-110240509D01*
X109630509Y-110138015D01*
X109702984Y-110012485D01*
X109740500Y-109872475D01*
X109740500Y-109727525D01*
X109702984Y-109587515D01*
X109673649Y-109536706D01*
X109630511Y-109461988D01*
X109630506Y-109461982D01*
X109528017Y-109359493D01*
X109528011Y-109359488D01*
X109402488Y-109287017D01*
X109402489Y-109287017D01*
X109391006Y-109283940D01*
X109262475Y-109249500D01*
X109117525Y-109249500D01*
X108988993Y-109283940D01*
X108977511Y-109287017D01*
X108901998Y-109330615D01*
X108834098Y-109347088D01*
X108777998Y-109330615D01*
X108702485Y-109287017D01*
X108702486Y-109287017D01*
X108691003Y-109283940D01*
X108562472Y-109249500D01*
X108417522Y-109249500D01*
X108277512Y-109287016D01*
X108277511Y-109287016D01*
X108277509Y-109287017D01*
X108206997Y-109327727D01*
X108139097Y-109344199D01*
X108082998Y-109327726D01*
X108012488Y-109287017D01*
X108012489Y-109287017D01*
X108001006Y-109283940D01*
X107872475Y-109249500D01*
X107727525Y-109249500D01*
X107598993Y-109283940D01*
X107587511Y-109287017D01*
X107461988Y-109359488D01*
X107461982Y-109359493D01*
X107359493Y-109461982D01*
X107359488Y-109461988D01*
X107287017Y-109587511D01*
X107287016Y-109587515D01*
X107249500Y-109727525D01*
X103134433Y-109727525D01*
X103079185Y-109690609D01*
X103079172Y-109690602D01*
X102933501Y-109630264D01*
X102933489Y-109630261D01*
X102778845Y-109599500D01*
X102778842Y-109599500D01*
X102621158Y-109599500D01*
X102621155Y-109599500D01*
X102466510Y-109630261D01*
X102466498Y-109630264D01*
X102320827Y-109690602D01*
X102320814Y-109690609D01*
X102189711Y-109778210D01*
X102189707Y-109778213D01*
X102078213Y-109889707D01*
X102078210Y-109889711D01*
X101990609Y-110020814D01*
X101990602Y-110020827D01*
X101930264Y-110166498D01*
X101930261Y-110166510D01*
X101899500Y-110321153D01*
X100500500Y-110321153D01*
X100500500Y-108405975D01*
X100520185Y-108338936D01*
X100572989Y-108293181D01*
X100642147Y-108283237D01*
X100705703Y-108312262D01*
X100721448Y-108328663D01*
X100732816Y-108342918D01*
X101554973Y-107520761D01*
X101670278Y-107679466D01*
X101820534Y-107829722D01*
X101979236Y-107945026D01*
X101157079Y-108767183D01*
X101251043Y-108842115D01*
X101488799Y-108991507D01*
X101741782Y-109113337D01*
X102006819Y-109206077D01*
X102006821Y-109206078D01*
X102280575Y-109268560D01*
X102280587Y-109268562D01*
X102559598Y-109299999D01*
X102559600Y-109300000D01*
X102840400Y-109300000D01*
X102840401Y-109299999D01*
X103119412Y-109268562D01*
X103119424Y-109268560D01*
X103393178Y-109206078D01*
X103393180Y-109206077D01*
X103658217Y-109113337D01*
X103911200Y-108991507D01*
X104148956Y-108842115D01*
X104242919Y-108767182D01*
X103420762Y-107945026D01*
X103579466Y-107829722D01*
X103729722Y-107679466D01*
X103845026Y-107520763D01*
X104667182Y-108342919D01*
X104742115Y-108248956D01*
X104891507Y-108011200D01*
X105013337Y-107758217D01*
X105106077Y-107493180D01*
X105106079Y-107493174D01*
X105121063Y-107427525D01*
X118732683Y-107427525D01*
X118732683Y-107572475D01*
X118764311Y-107690511D01*
X118770200Y-107712488D01*
X118842671Y-107838011D01*
X118842673Y-107838013D01*
X118842674Y-107838015D01*
X118945168Y-107940509D01*
X118989055Y-107965847D01*
X119077737Y-108017048D01*
X119077090Y-108018167D01*
X119107342Y-108038379D01*
X121687998Y-110619035D01*
X121721483Y-110680358D01*
X121724317Y-110706716D01*
X121724317Y-110797658D01*
X121754497Y-110910289D01*
X121761834Y-110937671D01*
X121834305Y-111063194D01*
X121834307Y-111063196D01*
X121834308Y-111063198D01*
X121936802Y-111165692D01*
X121936803Y-111165693D01*
X121936805Y-111165694D01*
X122062328Y-111238165D01*
X122062329Y-111238165D01*
X122062332Y-111238167D01*
X122202342Y-111275683D01*
X122202345Y-111275683D01*
X122347289Y-111275683D01*
X122347292Y-111275683D01*
X122487302Y-111238167D01*
X122612832Y-111165692D01*
X122715326Y-111063198D01*
X122787801Y-110937668D01*
X122825317Y-110797658D01*
X122825317Y-110652708D01*
X122787801Y-110512698D01*
X122773830Y-110488500D01*
X122715328Y-110387171D01*
X122715323Y-110387165D01*
X122686636Y-110358478D01*
X122653151Y-110297155D01*
X122650317Y-110270797D01*
X122650317Y-109732082D01*
X122670002Y-109665043D01*
X122686636Y-109644401D01*
X124403512Y-107927525D01*
X128049500Y-107927525D01*
X128049500Y-108072475D01*
X128084771Y-108204107D01*
X128087017Y-108212488D01*
X128159488Y-108338011D01*
X128159490Y-108338013D01*
X128159491Y-108338015D01*
X128261985Y-108440509D01*
X128261986Y-108440510D01*
X128261988Y-108440511D01*
X128387511Y-108512982D01*
X128387512Y-108512982D01*
X128387515Y-108512984D01*
X128527525Y-108550500D01*
X128527528Y-108550500D01*
X128672472Y-108550500D01*
X128672475Y-108550500D01*
X128812485Y-108512984D01*
X128938015Y-108440509D01*
X129040509Y-108338015D01*
X129112984Y-108212485D01*
X129150500Y-108072475D01*
X129150500Y-107927525D01*
X129112984Y-107787515D01*
X129103810Y-107771626D01*
X129040511Y-107661988D01*
X129040506Y-107661982D01*
X128938017Y-107559493D01*
X128938011Y-107559488D01*
X128812488Y-107487017D01*
X128812489Y-107487017D01*
X128801006Y-107483940D01*
X128672475Y-107449500D01*
X128527525Y-107449500D01*
X128398993Y-107483940D01*
X128387511Y-107487017D01*
X128261988Y-107559488D01*
X128261982Y-107559493D01*
X128159493Y-107661982D01*
X128159488Y-107661988D01*
X128087017Y-107787511D01*
X128087016Y-107787515D01*
X128049500Y-107927525D01*
X124403512Y-107927525D01*
X124499320Y-107831717D01*
X124603513Y-107727525D01*
X126519219Y-105811819D01*
X126580542Y-105778334D01*
X126606900Y-105775500D01*
X136500500Y-105775500D01*
X136567539Y-105795185D01*
X136613294Y-105847989D01*
X136624500Y-105899500D01*
X136624500Y-106795614D01*
X136604815Y-106862653D01*
X136588181Y-106883295D01*
X136559493Y-106911982D01*
X136559488Y-106911988D01*
X136487017Y-107037511D01*
X136487016Y-107037515D01*
X136449500Y-107177525D01*
X136449500Y-107322475D01*
X136477649Y-107427527D01*
X136487017Y-107462488D01*
X136559488Y-107588011D01*
X136559490Y-107588013D01*
X136559491Y-107588015D01*
X136661985Y-107690509D01*
X136661986Y-107690510D01*
X136661988Y-107690511D01*
X136787511Y-107762982D01*
X136787512Y-107762982D01*
X136787515Y-107762984D01*
X136927525Y-107800500D01*
X136927528Y-107800500D01*
X137072472Y-107800500D01*
X137072475Y-107800500D01*
X137212485Y-107762984D01*
X137338015Y-107690509D01*
X137440509Y-107588015D01*
X137512984Y-107462485D01*
X137550500Y-107322475D01*
X137550500Y-107177525D01*
X137512984Y-107037515D01*
X137501779Y-107018108D01*
X137440511Y-106911988D01*
X137440506Y-106911982D01*
X137411819Y-106883295D01*
X137378334Y-106821972D01*
X137375500Y-106795614D01*
X137375500Y-105550568D01*
X137375500Y-105550565D01*
X137375500Y-105550564D01*
X137375498Y-105550560D01*
X137375463Y-105550288D01*
X137375500Y-105550050D01*
X137375500Y-105542437D01*
X137376686Y-105542437D01*
X137386221Y-105481252D01*
X137432595Y-105428991D01*
X137499861Y-105410098D01*
X137566664Y-105430571D01*
X137586081Y-105446408D01*
X138677046Y-106537372D01*
X138679063Y-106541067D01*
X138682619Y-106543324D01*
X138695663Y-106571467D01*
X138710531Y-106598695D01*
X138710734Y-106603983D01*
X138712001Y-106606715D01*
X138711309Y-106618901D01*
X138712200Y-106642008D01*
X138711141Y-106649678D01*
X138699500Y-106693125D01*
X138699500Y-106734014D01*
X138698335Y-106742455D01*
X138687354Y-106766862D01*
X138679815Y-106792539D01*
X138673240Y-106798236D01*
X138669669Y-106806174D01*
X138647231Y-106820772D01*
X138627011Y-106838294D01*
X138616932Y-106840486D01*
X138611105Y-106844278D01*
X138599195Y-106844345D01*
X138575500Y-106849500D01*
X138572475Y-106849500D01*
X138427525Y-106849500D01*
X138301402Y-106883295D01*
X138287511Y-106887017D01*
X138161988Y-106959488D01*
X138161982Y-106959493D01*
X138059493Y-107061982D01*
X138059488Y-107061988D01*
X137987017Y-107187511D01*
X137987016Y-107187515D01*
X137949500Y-107327525D01*
X137949500Y-107472475D01*
X137987016Y-107612485D01*
X137987017Y-107612488D01*
X138059488Y-107738011D01*
X138059490Y-107738013D01*
X138059491Y-107738015D01*
X138161985Y-107840509D01*
X138161988Y-107840510D01*
X138161991Y-107840513D01*
X138166496Y-107843114D01*
X138214711Y-107893681D01*
X138227933Y-107962288D01*
X138201965Y-108027153D01*
X138145050Y-108067681D01*
X138104495Y-108074500D01*
X134657147Y-108074500D01*
X134574362Y-108096682D01*
X134574359Y-108096683D01*
X134524139Y-108125678D01*
X134502771Y-108138015D01*
X134501657Y-108138658D01*
X134500137Y-108139535D01*
X132339537Y-110300135D01*
X132339535Y-110300138D01*
X132296681Y-110374361D01*
X132296681Y-110374362D01*
X132289848Y-110399860D01*
X132289849Y-110399861D01*
X132274500Y-110457145D01*
X132274500Y-115328367D01*
X132254815Y-115395406D01*
X132202011Y-115441161D01*
X132182594Y-115448142D01*
X132177526Y-115449500D01*
X132177525Y-115449500D01*
X132072928Y-115477527D01*
X132037511Y-115487017D01*
X131911988Y-115559488D01*
X131911982Y-115559493D01*
X131809493Y-115661982D01*
X131809488Y-115661988D01*
X131737017Y-115787511D01*
X131737016Y-115787515D01*
X131699500Y-115927525D01*
X131699500Y-116072475D01*
X131730097Y-116186662D01*
X131737017Y-116212488D01*
X131809488Y-116338011D01*
X131809493Y-116338017D01*
X131917732Y-116446256D01*
X131915920Y-116448067D01*
X131925504Y-116461195D01*
X131944855Y-116482827D01*
X131945854Y-116489072D01*
X131949584Y-116494182D01*
X131951306Y-116523156D01*
X131955892Y-116551819D01*
X131953442Y-116559081D01*
X131953731Y-116563929D01*
X131946485Y-116585837D01*
X131943717Y-116592159D01*
X131890915Y-116683616D01*
X131870753Y-116758857D01*
X131866999Y-116767436D01*
X131850319Y-116787311D01*
X131836814Y-116809469D01*
X131828223Y-116813641D01*
X131822085Y-116820957D01*
X131797307Y-116828660D01*
X131773967Y-116839998D01*
X131764484Y-116838864D01*
X131755366Y-116841699D01*
X131730356Y-116834783D01*
X131704591Y-116831703D01*
X131694489Y-116824866D01*
X131688023Y-116823078D01*
X131682153Y-116816516D01*
X131665723Y-116805396D01*
X131161819Y-116301492D01*
X131128334Y-116240169D01*
X131125500Y-116213811D01*
X131125500Y-114504386D01*
X131145185Y-114437347D01*
X131161819Y-114416705D01*
X131188817Y-114389707D01*
X131240509Y-114338015D01*
X131312984Y-114212485D01*
X131350500Y-114072475D01*
X131350500Y-113927525D01*
X131312984Y-113787515D01*
X131287198Y-113742853D01*
X131240511Y-113661988D01*
X131240506Y-113661982D01*
X131138017Y-113559493D01*
X131138011Y-113559488D01*
X131012488Y-113487017D01*
X131012489Y-113487017D01*
X130989473Y-113480850D01*
X130872475Y-113449500D01*
X130727525Y-113449500D01*
X130610527Y-113480850D01*
X130587511Y-113487017D01*
X130461988Y-113559488D01*
X130461982Y-113559493D01*
X130359493Y-113661982D01*
X130359488Y-113661988D01*
X130287017Y-113787511D01*
X130287016Y-113787515D01*
X130249500Y-113927525D01*
X130249500Y-114072475D01*
X130287016Y-114212485D01*
X130287017Y-114212488D01*
X130359488Y-114338011D01*
X130359493Y-114338017D01*
X130438181Y-114416705D01*
X130471666Y-114478028D01*
X130474500Y-114504386D01*
X130474500Y-116357147D01*
X130474500Y-116442853D01*
X130479415Y-116461195D01*
X130496682Y-116525640D01*
X130511797Y-116551819D01*
X130539535Y-116599862D01*
X131800138Y-117860465D01*
X131874361Y-117903318D01*
X131957147Y-117925500D01*
X131957149Y-117925500D01*
X135542851Y-117925500D01*
X135542853Y-117925500D01*
X135625639Y-117903318D01*
X135699862Y-117860465D01*
X136882802Y-116677525D01*
X138949500Y-116677525D01*
X138949500Y-116822475D01*
X138987016Y-116962485D01*
X138987017Y-116962488D01*
X139059488Y-117088011D01*
X139059493Y-117088017D01*
X139133795Y-117162319D01*
X139167280Y-117223642D01*
X139162296Y-117293334D01*
X139133795Y-117337681D01*
X139059493Y-117411982D01*
X139059488Y-117411988D01*
X138987017Y-117537511D01*
X138987016Y-117537515D01*
X138949500Y-117677525D01*
X138949500Y-117822475D01*
X138981128Y-117940511D01*
X138987017Y-117962488D01*
X139059488Y-118088011D01*
X139059490Y-118088013D01*
X139059491Y-118088015D01*
X139161985Y-118190509D01*
X139161986Y-118190510D01*
X139161988Y-118190511D01*
X139287511Y-118262982D01*
X139287512Y-118262982D01*
X139287515Y-118262984D01*
X139427525Y-118300500D01*
X139427528Y-118300500D01*
X139572472Y-118300500D01*
X139572475Y-118300500D01*
X139712485Y-118262984D01*
X139838015Y-118190509D01*
X139940509Y-118088015D01*
X140012984Y-117962485D01*
X140050500Y-117822475D01*
X140050500Y-117677525D01*
X140012984Y-117537515D01*
X139984116Y-117487515D01*
X139940511Y-117411988D01*
X139940506Y-117411982D01*
X139866205Y-117337681D01*
X139832720Y-117276358D01*
X139837704Y-117206666D01*
X139866205Y-117162319D01*
X139878524Y-117150000D01*
X139940509Y-117088015D01*
X140012984Y-116962485D01*
X140050500Y-116822475D01*
X140050500Y-116677525D01*
X140012984Y-116537515D01*
X140010270Y-116532815D01*
X139940511Y-116411988D01*
X139940506Y-116411982D01*
X139838017Y-116309493D01*
X139838011Y-116309488D01*
X139712488Y-116237017D01*
X139712489Y-116237017D01*
X139701006Y-116233940D01*
X139572475Y-116199500D01*
X139427525Y-116199500D01*
X139298993Y-116233940D01*
X139287511Y-116237017D01*
X139161988Y-116309488D01*
X139161982Y-116309493D01*
X139059493Y-116411982D01*
X139059488Y-116411988D01*
X138987017Y-116537511D01*
X138986214Y-116540509D01*
X138949500Y-116677525D01*
X136882802Y-116677525D01*
X139760465Y-113799862D01*
X139803318Y-113725639D01*
X139825500Y-113642853D01*
X139825500Y-113557147D01*
X139825500Y-111786188D01*
X139845185Y-111719149D01*
X139861815Y-111698511D01*
X140047623Y-111512703D01*
X140108945Y-111479219D01*
X140178637Y-111484203D01*
X140234570Y-111526075D01*
X140255078Y-111568291D01*
X140287017Y-111687488D01*
X140359488Y-111813011D01*
X140359490Y-111813013D01*
X140359491Y-111813015D01*
X140461985Y-111915509D01*
X140461986Y-111915510D01*
X140461988Y-111915511D01*
X140587511Y-111987982D01*
X140587512Y-111987982D01*
X140587515Y-111987984D01*
X140727525Y-112025500D01*
X140727528Y-112025500D01*
X140872472Y-112025500D01*
X140872475Y-112025500D01*
X141012485Y-111987984D01*
X141138015Y-111915509D01*
X141174819Y-111878705D01*
X141236142Y-111845220D01*
X141305834Y-111850204D01*
X141350181Y-111878705D01*
X141411985Y-111940509D01*
X141411986Y-111940510D01*
X141411988Y-111940511D01*
X141537511Y-112012982D01*
X141537512Y-112012982D01*
X141537515Y-112012984D01*
X141677525Y-112050500D01*
X141677528Y-112050500D01*
X141822472Y-112050500D01*
X141822475Y-112050500D01*
X141962485Y-112012984D01*
X142088015Y-111940509D01*
X142190509Y-111838015D01*
X142262984Y-111712485D01*
X142300500Y-111572475D01*
X142300500Y-111427525D01*
X142286053Y-111373608D01*
X142287714Y-111303761D01*
X142326876Y-111245898D01*
X142391104Y-111218393D01*
X142460007Y-111229979D01*
X142493508Y-111253835D01*
X143688181Y-112448508D01*
X143721666Y-112509831D01*
X143724500Y-112536189D01*
X143724500Y-117092852D01*
X143746682Y-117175640D01*
X143768108Y-117212750D01*
X143789535Y-117249862D01*
X143789537Y-117249864D01*
X145413181Y-118873508D01*
X145446666Y-118934831D01*
X145449500Y-118961189D01*
X145449500Y-119072475D01*
X145481843Y-119193178D01*
X145487017Y-119212488D01*
X145559488Y-119338011D01*
X145559490Y-119338013D01*
X145559491Y-119338015D01*
X145661985Y-119440509D01*
X145661986Y-119440510D01*
X145661988Y-119440511D01*
X145787511Y-119512982D01*
X145787512Y-119512982D01*
X145787515Y-119512984D01*
X145927525Y-119550500D01*
X145927528Y-119550500D01*
X146072472Y-119550500D01*
X146072475Y-119550500D01*
X146212485Y-119512984D01*
X146338015Y-119440509D01*
X146440509Y-119338015D01*
X146446565Y-119327525D01*
X151849500Y-119327525D01*
X151849500Y-119472475D01*
X151879644Y-119584973D01*
X151887017Y-119612488D01*
X151959488Y-119738011D01*
X151959490Y-119738013D01*
X151959491Y-119738015D01*
X152061985Y-119840509D01*
X152061986Y-119840510D01*
X152061988Y-119840511D01*
X152187511Y-119912982D01*
X152187512Y-119912982D01*
X152187515Y-119912984D01*
X152327525Y-119950500D01*
X152327528Y-119950500D01*
X152472472Y-119950500D01*
X152472475Y-119950500D01*
X152612485Y-119912984D01*
X152612487Y-119912982D01*
X152612489Y-119912982D01*
X152612490Y-119912981D01*
X152637999Y-119898254D01*
X152705899Y-119881780D01*
X152762001Y-119898254D01*
X152787509Y-119912981D01*
X152787510Y-119912982D01*
X152787512Y-119912982D01*
X152787515Y-119912984D01*
X152927525Y-119950500D01*
X152927528Y-119950500D01*
X153072472Y-119950500D01*
X153072475Y-119950500D01*
X153212485Y-119912984D01*
X153338015Y-119840509D01*
X153440509Y-119738015D01*
X153512984Y-119612485D01*
X153550500Y-119472475D01*
X153550500Y-119327525D01*
X153512984Y-119187515D01*
X153484116Y-119137515D01*
X153440511Y-119061988D01*
X153440506Y-119061982D01*
X153338017Y-118959493D01*
X153338011Y-118959488D01*
X153212488Y-118887017D01*
X153212489Y-118887017D01*
X153201006Y-118883940D01*
X153072475Y-118849500D01*
X152927525Y-118849500D01*
X152843519Y-118872009D01*
X152787513Y-118887016D01*
X152787512Y-118887017D01*
X152761997Y-118901748D01*
X152694097Y-118918218D01*
X152638003Y-118901748D01*
X152612487Y-118887017D01*
X152612486Y-118887016D01*
X152562073Y-118873508D01*
X152472475Y-118849500D01*
X152327525Y-118849500D01*
X152198993Y-118883940D01*
X152187511Y-118887017D01*
X152061988Y-118959488D01*
X152061982Y-118959493D01*
X151959493Y-119061982D01*
X151959488Y-119061988D01*
X151887017Y-119187511D01*
X151887016Y-119187515D01*
X151849500Y-119327525D01*
X146446565Y-119327525D01*
X146512984Y-119212485D01*
X146550500Y-119072475D01*
X146550500Y-118927525D01*
X146512984Y-118787515D01*
X146456977Y-118690509D01*
X146440511Y-118661988D01*
X146440506Y-118661982D01*
X146338017Y-118559493D01*
X146338011Y-118559488D01*
X146212488Y-118487017D01*
X146212489Y-118487017D01*
X146201006Y-118483940D01*
X146072475Y-118449500D01*
X145961189Y-118449500D01*
X145894150Y-118429815D01*
X145873508Y-118413181D01*
X144411819Y-116951492D01*
X144378334Y-116890169D01*
X144375500Y-116863811D01*
X144375500Y-114927525D01*
X148449500Y-114927525D01*
X148449500Y-115072475D01*
X148486881Y-115211982D01*
X148487017Y-115212488D01*
X148559488Y-115338011D01*
X148559490Y-115338013D01*
X148559491Y-115338015D01*
X148661985Y-115440509D01*
X148661986Y-115440510D01*
X148661988Y-115440511D01*
X148787511Y-115512982D01*
X148787512Y-115512982D01*
X148787515Y-115512984D01*
X148927525Y-115550500D01*
X148927528Y-115550500D01*
X149072472Y-115550500D01*
X149072475Y-115550500D01*
X149212485Y-115512984D01*
X149273902Y-115477525D01*
X155199500Y-115477525D01*
X155199500Y-115622475D01*
X155218358Y-115692853D01*
X155237017Y-115762488D01*
X155309488Y-115888011D01*
X155309493Y-115888017D01*
X155405381Y-115983905D01*
X155438866Y-116045228D01*
X155441700Y-116071586D01*
X155441700Y-117728413D01*
X155422015Y-117795452D01*
X155405382Y-117816094D01*
X155309488Y-117911988D01*
X155237017Y-118037511D01*
X155237016Y-118037515D01*
X155199500Y-118177525D01*
X155199500Y-118322475D01*
X155223805Y-118413181D01*
X155237017Y-118462488D01*
X155309488Y-118588011D01*
X155309490Y-118588013D01*
X155309491Y-118588015D01*
X155411985Y-118690509D01*
X155411986Y-118690510D01*
X155411988Y-118690511D01*
X155537511Y-118762982D01*
X155537512Y-118762982D01*
X155537515Y-118762984D01*
X155677525Y-118800500D01*
X155677528Y-118800500D01*
X155822472Y-118800500D01*
X155822475Y-118800500D01*
X155962485Y-118762984D01*
X156088015Y-118690509D01*
X156190509Y-118588015D01*
X156262984Y-118462485D01*
X156300500Y-118322475D01*
X156300500Y-118177525D01*
X156262984Y-118037515D01*
X156230805Y-117981780D01*
X156190511Y-117911988D01*
X156190506Y-117911982D01*
X156129019Y-117850495D01*
X156095534Y-117789172D01*
X156092700Y-117762814D01*
X156092700Y-116037186D01*
X156112385Y-115970147D01*
X156129019Y-115949505D01*
X156150999Y-115927525D01*
X156190509Y-115888015D01*
X156262984Y-115762485D01*
X156300500Y-115622475D01*
X156300500Y-115477525D01*
X156262984Y-115337515D01*
X156257702Y-115328367D01*
X156190511Y-115211988D01*
X156190506Y-115211982D01*
X156088017Y-115109493D01*
X156088011Y-115109488D01*
X155962488Y-115037017D01*
X155962489Y-115037017D01*
X155951006Y-115033940D01*
X155822475Y-114999500D01*
X155677525Y-114999500D01*
X155548993Y-115033940D01*
X155537511Y-115037017D01*
X155411988Y-115109488D01*
X155411982Y-115109493D01*
X155309493Y-115211982D01*
X155309488Y-115211988D01*
X155237017Y-115337511D01*
X155237016Y-115337515D01*
X155199500Y-115477525D01*
X149273902Y-115477525D01*
X149338015Y-115440509D01*
X149440509Y-115338015D01*
X149512984Y-115212485D01*
X149550500Y-115072475D01*
X149550500Y-114927525D01*
X149512984Y-114787515D01*
X149469665Y-114712485D01*
X149440511Y-114661988D01*
X149440506Y-114661982D01*
X149338017Y-114559493D01*
X149338011Y-114559488D01*
X149212488Y-114487017D01*
X149212489Y-114487017D01*
X149201006Y-114483940D01*
X149072475Y-114449500D01*
X148927525Y-114449500D01*
X148798993Y-114483940D01*
X148787511Y-114487017D01*
X148661988Y-114559488D01*
X148661982Y-114559493D01*
X148559493Y-114661982D01*
X148559488Y-114661988D01*
X148487017Y-114787511D01*
X148487016Y-114787515D01*
X148449500Y-114927525D01*
X144375500Y-114927525D01*
X144375500Y-112335189D01*
X144395185Y-112268150D01*
X144447989Y-112222395D01*
X144517147Y-112212451D01*
X144580703Y-112241476D01*
X144587181Y-112247508D01*
X145639534Y-113299861D01*
X145639535Y-113299862D01*
X145700138Y-113360465D01*
X145700140Y-113360466D01*
X145700144Y-113360469D01*
X145774355Y-113403314D01*
X145774362Y-113403318D01*
X145857147Y-113425500D01*
X145942853Y-113425500D01*
X156515500Y-113425500D01*
X156582539Y-113445185D01*
X156628294Y-113497989D01*
X156639500Y-113549500D01*
X156639500Y-116524678D01*
X156654032Y-116597735D01*
X156654033Y-116597739D01*
X156672405Y-116625235D01*
X156709399Y-116680601D01*
X156757118Y-116712485D01*
X156792260Y-116735966D01*
X156792264Y-116735967D01*
X156863433Y-116750123D01*
X156865326Y-116750500D01*
X156865331Y-116750500D01*
X156871386Y-116751097D01*
X156871220Y-116752776D01*
X156878756Y-116751636D01*
X156903275Y-116762616D01*
X156929052Y-116770185D01*
X156936346Y-116777425D01*
X156942524Y-116780192D01*
X156958590Y-116799506D01*
X156965832Y-116806694D01*
X156967692Y-116809543D01*
X156989500Y-116847314D01*
X156997749Y-116855563D01*
X157004785Y-116866336D01*
X157011308Y-116887962D01*
X157022132Y-116907784D01*
X157023905Y-116917954D01*
X157024499Y-116922472D01*
X157062017Y-117062488D01*
X157065059Y-117069831D01*
X157066686Y-117078010D01*
X157069477Y-117082353D01*
X157074500Y-117117288D01*
X157074500Y-117189365D01*
X157057887Y-117251365D01*
X157037016Y-117287515D01*
X156999500Y-117427525D01*
X156999500Y-117572475D01*
X157027649Y-117677527D01*
X157037017Y-117712488D01*
X157109488Y-117838011D01*
X157109490Y-117838013D01*
X157109491Y-117838015D01*
X157211985Y-117940509D01*
X157211986Y-117940510D01*
X157211988Y-117940511D01*
X157337511Y-118012982D01*
X157337512Y-118012982D01*
X157337515Y-118012984D01*
X157477525Y-118050500D01*
X157477528Y-118050500D01*
X157622472Y-118050500D01*
X157622475Y-118050500D01*
X157762485Y-118012984D01*
X157888015Y-117940509D01*
X157990509Y-117838015D01*
X158062984Y-117712485D01*
X158100500Y-117572475D01*
X158100500Y-117427525D01*
X158079725Y-117349991D01*
X158075500Y-117317898D01*
X158075500Y-117117288D01*
X158084941Y-117069831D01*
X158087982Y-117062488D01*
X158087981Y-117062488D01*
X158087984Y-117062485D01*
X158125500Y-116922475D01*
X158125500Y-116777525D01*
X158105790Y-116703968D01*
X158107451Y-116634119D01*
X158122462Y-116602983D01*
X158125966Y-116597740D01*
X158140500Y-116524674D01*
X158140500Y-113549500D01*
X158160185Y-113482461D01*
X158212989Y-113436706D01*
X158264500Y-113425500D01*
X159055500Y-113425500D01*
X159122539Y-113445185D01*
X159168294Y-113497989D01*
X159179500Y-113549500D01*
X159179500Y-116524678D01*
X159194032Y-116597735D01*
X159194033Y-116597739D01*
X159212405Y-116625235D01*
X159249399Y-116680601D01*
X159297118Y-116712485D01*
X159332260Y-116735966D01*
X159332264Y-116735967D01*
X159405321Y-116750499D01*
X159405324Y-116750500D01*
X159405326Y-116750500D01*
X160454676Y-116750500D01*
X160454677Y-116750499D01*
X160527740Y-116735966D01*
X160610601Y-116680601D01*
X160665966Y-116597740D01*
X160680500Y-116524674D01*
X160680500Y-113325326D01*
X160680500Y-113325323D01*
X160680499Y-113325321D01*
X160665967Y-113252264D01*
X160665966Y-113252260D01*
X160610600Y-113169398D01*
X160585462Y-113152602D01*
X160540657Y-113098990D01*
X160531950Y-113029665D01*
X160562104Y-112966638D01*
X160621547Y-112929918D01*
X160654353Y-112925500D01*
X161113811Y-112925500D01*
X161180850Y-112945185D01*
X161201492Y-112961819D01*
X161683181Y-113443508D01*
X161716666Y-113504831D01*
X161719500Y-113531189D01*
X161719500Y-116524678D01*
X161734032Y-116597735D01*
X161734033Y-116597739D01*
X161752405Y-116625235D01*
X161789399Y-116680601D01*
X161837118Y-116712485D01*
X161872260Y-116735966D01*
X161872264Y-116735967D01*
X161945321Y-116750499D01*
X161945324Y-116750500D01*
X161945326Y-116750500D01*
X162994676Y-116750500D01*
X162994677Y-116750499D01*
X163067740Y-116735966D01*
X163150601Y-116680601D01*
X163205966Y-116597740D01*
X163220500Y-116524674D01*
X163220500Y-113325326D01*
X163220500Y-113325323D01*
X163220499Y-113325321D01*
X163205967Y-113252264D01*
X163205966Y-113252260D01*
X163150601Y-113169399D01*
X163067740Y-113114034D01*
X163067739Y-113114033D01*
X163067735Y-113114032D01*
X162994677Y-113099500D01*
X162994674Y-113099500D01*
X162311189Y-113099500D01*
X162244150Y-113079815D01*
X162223508Y-113063181D01*
X161897508Y-112737181D01*
X161864023Y-112675858D01*
X161869007Y-112606166D01*
X161910879Y-112550233D01*
X161976343Y-112525816D01*
X161985189Y-112525500D01*
X163213811Y-112525500D01*
X163280850Y-112545185D01*
X163301492Y-112561819D01*
X164223181Y-113483507D01*
X164256666Y-113544830D01*
X164259500Y-113571188D01*
X164259500Y-116524678D01*
X164274032Y-116597735D01*
X164274033Y-116597739D01*
X164292405Y-116625235D01*
X164329399Y-116680601D01*
X164377118Y-116712485D01*
X164412260Y-116735966D01*
X164412264Y-116735967D01*
X164485321Y-116750499D01*
X164485324Y-116750500D01*
X164485326Y-116750500D01*
X165534676Y-116750500D01*
X165534677Y-116750499D01*
X165607740Y-116735966D01*
X165690601Y-116680601D01*
X165745966Y-116597740D01*
X165760500Y-116524674D01*
X165760500Y-113325326D01*
X165760500Y-113325323D01*
X165760499Y-113325321D01*
X165745967Y-113252264D01*
X165745966Y-113252260D01*
X165690601Y-113169399D01*
X165607740Y-113114034D01*
X165607739Y-113114033D01*
X165607735Y-113114032D01*
X165534677Y-113099500D01*
X165534674Y-113099500D01*
X164811188Y-113099500D01*
X164744149Y-113079815D01*
X164723507Y-113063181D01*
X163997508Y-112337181D01*
X163964023Y-112275858D01*
X163969007Y-112206166D01*
X164010879Y-112150233D01*
X164076343Y-112125816D01*
X164085189Y-112125500D01*
X164142851Y-112125500D01*
X164142853Y-112125500D01*
X164225639Y-112103318D01*
X164299862Y-112060465D01*
X164623508Y-111736819D01*
X164684831Y-111703334D01*
X164711189Y-111700500D01*
X165534676Y-111700500D01*
X165534677Y-111700499D01*
X165607740Y-111685966D01*
X165690601Y-111630601D01*
X165745966Y-111547740D01*
X165760500Y-111474674D01*
X165760500Y-108275326D01*
X165760500Y-108275323D01*
X165760499Y-108275321D01*
X165745967Y-108202264D01*
X165745966Y-108202260D01*
X165726706Y-108173435D01*
X165690601Y-108119399D01*
X165620369Y-108072472D01*
X165607739Y-108064033D01*
X165607735Y-108064032D01*
X165534677Y-108049500D01*
X165534674Y-108049500D01*
X164485326Y-108049500D01*
X164485323Y-108049500D01*
X164412264Y-108064032D01*
X164412260Y-108064033D01*
X164329399Y-108119399D01*
X164274033Y-108202260D01*
X164274032Y-108202264D01*
X164259500Y-108275321D01*
X164259500Y-111128811D01*
X164239815Y-111195850D01*
X164223181Y-111216492D01*
X164001492Y-111438181D01*
X163940169Y-111471666D01*
X163913811Y-111474500D01*
X160804500Y-111474500D01*
X160737461Y-111454815D01*
X160691706Y-111402011D01*
X160680500Y-111350500D01*
X160680500Y-108275327D01*
X160680176Y-108273699D01*
X160679268Y-108269133D01*
X160685494Y-108199544D01*
X160728355Y-108144365D01*
X160794244Y-108121118D01*
X160832971Y-108125164D01*
X160927525Y-108150500D01*
X160927528Y-108150500D01*
X161072472Y-108150500D01*
X161072475Y-108150500D01*
X161212485Y-108112984D01*
X161338015Y-108040509D01*
X161440509Y-107938015D01*
X161512984Y-107812485D01*
X161550500Y-107672475D01*
X161550500Y-107527525D01*
X161512984Y-107387515D01*
X161475431Y-107322472D01*
X161440511Y-107261988D01*
X161440506Y-107261982D01*
X161338017Y-107159493D01*
X161338011Y-107159488D01*
X161212488Y-107087017D01*
X161212489Y-107087017D01*
X161187477Y-107080315D01*
X161072475Y-107049500D01*
X160950348Y-107049500D01*
X160888347Y-107032887D01*
X160825640Y-106996682D01*
X160761446Y-106979482D01*
X160742853Y-106974500D01*
X155342853Y-106974500D01*
X155257147Y-106974500D01*
X155174361Y-106996682D01*
X155174358Y-106996683D01*
X155137250Y-107018107D01*
X155137250Y-107018108D01*
X155103644Y-107037511D01*
X155100138Y-107039535D01*
X155100135Y-107039537D01*
X155075992Y-107063681D01*
X155014669Y-107097166D01*
X154988311Y-107100000D01*
X154659688Y-107100000D01*
X154592649Y-107080315D01*
X154546894Y-107027511D01*
X154536950Y-106958353D01*
X154565975Y-106894797D01*
X154572007Y-106888319D01*
X154847145Y-106613181D01*
X155689652Y-105770672D01*
X155689657Y-105770669D01*
X155699860Y-105760465D01*
X155699862Y-105760465D01*
X155760465Y-105699862D01*
X155803318Y-105625638D01*
X155823434Y-105550565D01*
X155825501Y-105542853D01*
X155825501Y-105457147D01*
X155825500Y-105457143D01*
X155825500Y-105204386D01*
X155845185Y-105137347D01*
X155861819Y-105116705D01*
X155878999Y-105099525D01*
X155940509Y-105038015D01*
X156012984Y-104912485D01*
X156050500Y-104772475D01*
X156050500Y-104627525D01*
X156012984Y-104487515D01*
X155973606Y-104419311D01*
X155940511Y-104361988D01*
X155940506Y-104361982D01*
X155838017Y-104259493D01*
X155838011Y-104259488D01*
X155712488Y-104187017D01*
X155712489Y-104187017D01*
X155661677Y-104173402D01*
X155572475Y-104149500D01*
X155427525Y-104149500D01*
X155338323Y-104173402D01*
X155287511Y-104187017D01*
X155161988Y-104259488D01*
X155161982Y-104259493D01*
X155059493Y-104361982D01*
X155059488Y-104361988D01*
X154987017Y-104487511D01*
X154987016Y-104487515D01*
X154949500Y-104627525D01*
X154949500Y-104772475D01*
X154987016Y-104912485D01*
X154987017Y-104912488D01*
X155059488Y-105038011D01*
X155059493Y-105038017D01*
X155138181Y-105116705D01*
X155152884Y-105143632D01*
X155169477Y-105169451D01*
X155170368Y-105175651D01*
X155171666Y-105178028D01*
X155174500Y-105204386D01*
X155174500Y-105313811D01*
X155154815Y-105380850D01*
X155138181Y-105401492D01*
X149901492Y-110638181D01*
X149840169Y-110671666D01*
X149813811Y-110674500D01*
X149476484Y-110674500D01*
X149409445Y-110654815D01*
X149363690Y-110602011D01*
X149353746Y-110532853D01*
X149369097Y-110488500D01*
X149404299Y-110427527D01*
X149412984Y-110412485D01*
X149450500Y-110272475D01*
X149450500Y-110127525D01*
X149412984Y-109987515D01*
X149412696Y-109987017D01*
X149340511Y-109861988D01*
X149340506Y-109861982D01*
X149238017Y-109759493D01*
X149238011Y-109759488D01*
X149112488Y-109687017D01*
X149112489Y-109687017D01*
X149088988Y-109680720D01*
X148972475Y-109649500D01*
X148827525Y-109649500D01*
X148711012Y-109680720D01*
X148687511Y-109687017D01*
X148561988Y-109759488D01*
X148561982Y-109759493D01*
X148459493Y-109861982D01*
X148459488Y-109861988D01*
X148387017Y-109987511D01*
X148387016Y-109987515D01*
X148349500Y-110127525D01*
X148349500Y-110272475D01*
X148383634Y-110399862D01*
X148387017Y-110412488D01*
X148430903Y-110488500D01*
X148447376Y-110556400D01*
X148424524Y-110622427D01*
X148369602Y-110665617D01*
X148323516Y-110674500D01*
X147886189Y-110674500D01*
X147819150Y-110654815D01*
X147798508Y-110638181D01*
X147261819Y-110101492D01*
X147228334Y-110040169D01*
X147225500Y-110013811D01*
X147225500Y-109649500D01*
X147245185Y-109582461D01*
X147297989Y-109536706D01*
X147339560Y-109527662D01*
X147339415Y-109526561D01*
X147347471Y-109525500D01*
X147347475Y-109525500D01*
X147487485Y-109487984D01*
X147613015Y-109415509D01*
X147715509Y-109313015D01*
X147787984Y-109187485D01*
X147825500Y-109047475D01*
X147825500Y-108902525D01*
X147787984Y-108762515D01*
X147786800Y-108760465D01*
X147715511Y-108636988D01*
X147715506Y-108636982D01*
X147613017Y-108534493D01*
X147613011Y-108534488D01*
X147487488Y-108462017D01*
X147487489Y-108462017D01*
X147476006Y-108458940D01*
X147347475Y-108424500D01*
X147236189Y-108424500D01*
X147169150Y-108404815D01*
X147148508Y-108388181D01*
X145782664Y-107022337D01*
X145782662Y-107022335D01*
X145738230Y-106996682D01*
X145708440Y-106979482D01*
X145667046Y-106968391D01*
X145625653Y-106957300D01*
X145625652Y-106957300D01*
X141765282Y-106957300D01*
X141698243Y-106937615D01*
X141652488Y-106884811D01*
X141642544Y-106815653D01*
X141657896Y-106771299D01*
X141662981Y-106762490D01*
X141662982Y-106762489D01*
X141662982Y-106762487D01*
X141662984Y-106762485D01*
X141700500Y-106622475D01*
X141700500Y-106477525D01*
X141662984Y-106337515D01*
X141655809Y-106325088D01*
X141590511Y-106211988D01*
X141590506Y-106211982D01*
X141488017Y-106109493D01*
X141488011Y-106109488D01*
X141362488Y-106037017D01*
X141362489Y-106037017D01*
X141338540Y-106030600D01*
X141222475Y-105999500D01*
X141077525Y-105999500D01*
X140961460Y-106030600D01*
X140937511Y-106037017D01*
X140811988Y-106109488D01*
X140811982Y-106109493D01*
X140709493Y-106211982D01*
X140709488Y-106211988D01*
X140637017Y-106337511D01*
X140637016Y-106337515D01*
X140599500Y-106477525D01*
X140599500Y-106622475D01*
X140618599Y-106693753D01*
X140637017Y-106762489D01*
X140637018Y-106762490D01*
X140642104Y-106771299D01*
X140658578Y-106839199D01*
X140635726Y-106905226D01*
X140580806Y-106948417D01*
X140534718Y-106957300D01*
X139924500Y-106957300D01*
X139857461Y-106937615D01*
X139811706Y-106884811D01*
X139800500Y-106833300D01*
X139800500Y-106693127D01*
X139800500Y-106693125D01*
X139762984Y-106553115D01*
X139690509Y-106427585D01*
X139588015Y-106325091D01*
X139588013Y-106325090D01*
X139588011Y-106325088D01*
X139462488Y-106252617D01*
X139462489Y-106252617D01*
X139322471Y-106215099D01*
X139314415Y-106214039D01*
X139314741Y-106211562D01*
X139259749Y-106195415D01*
X139239107Y-106178781D01*
X138331661Y-105271335D01*
X137399862Y-104339535D01*
X137356282Y-104314374D01*
X137325640Y-104296682D01*
X137284246Y-104285591D01*
X137242853Y-104274500D01*
X126042853Y-104274500D01*
X125957147Y-104274500D01*
X125874359Y-104296682D01*
X125800138Y-104339535D01*
X125800135Y-104339537D01*
X123526491Y-106613181D01*
X123465168Y-106646666D01*
X123438810Y-106649500D01*
X123327525Y-106649500D01*
X123198993Y-106683940D01*
X123187511Y-106687017D01*
X123061988Y-106759488D01*
X123061982Y-106759493D01*
X122959493Y-106861982D01*
X122959488Y-106861988D01*
X122887017Y-106987511D01*
X122887016Y-106987515D01*
X122849500Y-107127525D01*
X122849500Y-107272475D01*
X122881475Y-107391805D01*
X122887017Y-107412488D01*
X122959488Y-107538011D01*
X122959490Y-107538013D01*
X122959491Y-107538015D01*
X123061985Y-107640509D01*
X123061986Y-107640510D01*
X123061988Y-107640511D01*
X123103429Y-107664437D01*
X123187515Y-107712984D01*
X123270658Y-107735262D01*
X123330317Y-107771626D01*
X123360846Y-107834473D01*
X123352551Y-107903848D01*
X123326244Y-107942717D01*
X122044255Y-109224708D01*
X121974343Y-109294619D01*
X121924908Y-109380242D01*
X121924908Y-109380243D01*
X121924907Y-109380245D01*
X121912781Y-109425500D01*
X121899316Y-109475750D01*
X121898256Y-109483808D01*
X121895068Y-109483388D01*
X121879632Y-109535957D01*
X121826828Y-109581712D01*
X121757670Y-109591656D01*
X121694114Y-109562631D01*
X121687636Y-109556599D01*
X119856797Y-107725760D01*
X119823312Y-107664437D01*
X119824704Y-107605984D01*
X119833682Y-107572477D01*
X119833683Y-107572474D01*
X119833683Y-107427527D01*
X119833683Y-107427525D01*
X119796167Y-107287515D01*
X119781427Y-107261985D01*
X119723694Y-107161988D01*
X119723689Y-107161982D01*
X119621200Y-107059493D01*
X119621194Y-107059488D01*
X119495671Y-106987017D01*
X119495672Y-106987017D01*
X119467551Y-106979482D01*
X119355658Y-106949500D01*
X119210708Y-106949500D01*
X119098815Y-106979482D01*
X119070694Y-106987017D01*
X118945171Y-107059488D01*
X118945165Y-107059493D01*
X118842676Y-107161982D01*
X118842671Y-107161988D01*
X118770200Y-107287511D01*
X118770199Y-107287515D01*
X118732683Y-107427525D01*
X105121063Y-107427525D01*
X105129216Y-107391806D01*
X105129216Y-107391805D01*
X105168560Y-107219424D01*
X105168562Y-107219412D01*
X105199999Y-106940401D01*
X105200000Y-106940399D01*
X105200000Y-106659600D01*
X105199999Y-106659598D01*
X105168562Y-106380587D01*
X105168560Y-106380575D01*
X105106078Y-106106821D01*
X105106077Y-106106819D01*
X105013337Y-105841782D01*
X104891507Y-105588799D01*
X104742115Y-105351043D01*
X104667182Y-105257079D01*
X103845025Y-106079236D01*
X103729722Y-105920534D01*
X103579466Y-105770278D01*
X103420762Y-105654973D01*
X104184506Y-104891228D01*
X109299500Y-104891228D01*
X109299500Y-105058771D01*
X109332182Y-105223074D01*
X109332184Y-105223082D01*
X109396295Y-105377860D01*
X109489373Y-105517162D01*
X109607837Y-105635626D01*
X109622431Y-105645377D01*
X109747137Y-105728703D01*
X109901918Y-105792816D01*
X110066228Y-105825499D01*
X110066232Y-105825500D01*
X110066233Y-105825500D01*
X110233768Y-105825500D01*
X110233769Y-105825499D01*
X110398082Y-105792816D01*
X110552863Y-105728703D01*
X110692162Y-105635626D01*
X110810626Y-105517162D01*
X110903703Y-105377863D01*
X110967816Y-105223082D01*
X111000500Y-105058767D01*
X111000500Y-104891233D01*
X110967816Y-104726918D01*
X110903703Y-104572137D01*
X110847160Y-104487515D01*
X110810626Y-104432837D01*
X110692162Y-104314373D01*
X110552860Y-104221295D01*
X110398082Y-104157184D01*
X110398074Y-104157182D01*
X110233771Y-104124500D01*
X110233767Y-104124500D01*
X110066233Y-104124500D01*
X110066228Y-104124500D01*
X109901925Y-104157182D01*
X109901917Y-104157184D01*
X109747139Y-104221295D01*
X109607837Y-104314373D01*
X109489373Y-104432837D01*
X109396295Y-104572139D01*
X109332184Y-104726917D01*
X109332182Y-104726925D01*
X109299500Y-104891228D01*
X104184506Y-104891228D01*
X104242918Y-104832816D01*
X104148950Y-104757880D01*
X103911200Y-104608492D01*
X103658217Y-104486662D01*
X103393180Y-104393922D01*
X103393178Y-104393921D01*
X103119424Y-104331439D01*
X103119412Y-104331437D01*
X102840401Y-104300000D01*
X102559598Y-104300000D01*
X102280587Y-104331437D01*
X102280575Y-104331439D01*
X102006821Y-104393921D01*
X102006819Y-104393922D01*
X101741782Y-104486662D01*
X101488799Y-104608492D01*
X101251043Y-104757884D01*
X101157079Y-104832815D01*
X101979237Y-105654973D01*
X101820534Y-105770278D01*
X101670278Y-105920534D01*
X101554973Y-106079237D01*
X100732815Y-105257079D01*
X100732814Y-105257079D01*
X100721447Y-105271335D01*
X100664259Y-105311475D01*
X100594447Y-105314325D01*
X100534177Y-105278980D01*
X100502584Y-105216661D01*
X100500500Y-105194022D01*
X100500500Y-102202135D01*
X110649500Y-102202135D01*
X110649500Y-103747870D01*
X110649501Y-103747876D01*
X110655908Y-103807483D01*
X110706202Y-103942328D01*
X110706206Y-103942335D01*
X110792452Y-104057544D01*
X110792455Y-104057547D01*
X110907664Y-104143793D01*
X110907671Y-104143797D01*
X111042517Y-104194091D01*
X111042516Y-104194091D01*
X111049444Y-104194835D01*
X111102127Y-104200500D01*
X112397872Y-104200499D01*
X112457483Y-104194091D01*
X112592331Y-104143796D01*
X112707546Y-104057546D01*
X112793796Y-103942331D01*
X112844091Y-103807483D01*
X112844091Y-103807481D01*
X112845874Y-103799938D01*
X112849117Y-103800704D01*
X112870035Y-103750172D01*
X112927419Y-103710311D01*
X112997243Y-103707802D01*
X113057340Y-103743441D01*
X113077089Y-103771662D01*
X113095379Y-103807557D01*
X113220272Y-103979459D01*
X113220276Y-103979464D01*
X113370535Y-104129723D01*
X113370540Y-104129727D01*
X113542442Y-104254620D01*
X113731782Y-104351095D01*
X113933871Y-104416757D01*
X113950000Y-104419312D01*
X113950000Y-103346752D01*
X113958343Y-103355095D01*
X114066657Y-103417630D01*
X114187465Y-103450000D01*
X114312535Y-103450000D01*
X114433343Y-103417630D01*
X114541657Y-103355095D01*
X114550000Y-103346752D01*
X114550000Y-104419311D01*
X114566126Y-104416757D01*
X114566129Y-104416757D01*
X114768217Y-104351095D01*
X114957557Y-104254620D01*
X115129459Y-104129727D01*
X115129464Y-104129723D01*
X115279723Y-103979464D01*
X115279727Y-103979459D01*
X115404620Y-103807557D01*
X115501094Y-103618219D01*
X115516768Y-103569978D01*
X115556205Y-103512302D01*
X115620563Y-103485103D01*
X115689409Y-103497016D01*
X115740886Y-103544259D01*
X115745185Y-103551999D01*
X115754346Y-103569978D01*
X115808768Y-103676788D01*
X115910586Y-103816928D01*
X116033072Y-103939414D01*
X116173212Y-104041232D01*
X116327555Y-104119873D01*
X116492299Y-104173402D01*
X116663389Y-104200500D01*
X116663390Y-104200500D01*
X116836610Y-104200500D01*
X116836611Y-104200500D01*
X117007701Y-104173402D01*
X117155678Y-104125321D01*
X120899500Y-104125321D01*
X120899500Y-105874678D01*
X120914032Y-105947735D01*
X120914033Y-105947739D01*
X120914034Y-105947740D01*
X120969399Y-106030601D01*
X121052260Y-106085966D01*
X121052264Y-106085967D01*
X121125321Y-106100499D01*
X121125324Y-106100500D01*
X121125326Y-106100500D01*
X122874676Y-106100500D01*
X122874677Y-106100499D01*
X122947740Y-106085966D01*
X123030601Y-106030601D01*
X123085966Y-105947740D01*
X123100500Y-105874674D01*
X123100500Y-104125326D01*
X123100500Y-104125323D01*
X123100499Y-104125321D01*
X123085967Y-104052264D01*
X123085966Y-104052260D01*
X123078112Y-104040506D01*
X123030601Y-103969399D01*
X122947740Y-103914034D01*
X122947739Y-103914033D01*
X122947735Y-103914032D01*
X122874677Y-103899500D01*
X122874674Y-103899500D01*
X121125326Y-103899500D01*
X121125323Y-103899500D01*
X121052264Y-103914032D01*
X121052260Y-103914033D01*
X120969399Y-103969399D01*
X120914033Y-104052260D01*
X120914032Y-104052264D01*
X120899500Y-104125321D01*
X117155678Y-104125321D01*
X117172445Y-104119873D01*
X117326788Y-104041232D01*
X117466928Y-103939414D01*
X117589414Y-103816928D01*
X117691232Y-103676788D01*
X117769873Y-103522445D01*
X117823402Y-103357701D01*
X117850500Y-103186611D01*
X117850500Y-102763389D01*
X117823402Y-102592299D01*
X117769873Y-102427555D01*
X117769871Y-102427552D01*
X117769871Y-102427550D01*
X117768473Y-102424806D01*
X117742275Y-102373389D01*
X120899500Y-102373389D01*
X120899500Y-102546611D01*
X120926598Y-102717701D01*
X120980127Y-102882445D01*
X121058768Y-103036788D01*
X121160586Y-103176928D01*
X121283072Y-103299414D01*
X121423212Y-103401232D01*
X121577555Y-103479873D01*
X121742299Y-103533402D01*
X121913389Y-103560500D01*
X121913390Y-103560500D01*
X122086610Y-103560500D01*
X122086611Y-103560500D01*
X122257701Y-103533402D01*
X122275788Y-103527525D01*
X148449500Y-103527525D01*
X148449500Y-103672475D01*
X148485676Y-103807483D01*
X148487017Y-103812488D01*
X148559488Y-103938011D01*
X148559490Y-103938013D01*
X148559491Y-103938015D01*
X148661985Y-104040509D01*
X148661986Y-104040510D01*
X148661988Y-104040511D01*
X148787511Y-104112982D01*
X148787512Y-104112982D01*
X148787515Y-104112984D01*
X148927525Y-104150500D01*
X148927528Y-104150500D01*
X149072472Y-104150500D01*
X149072475Y-104150500D01*
X149212485Y-104112984D01*
X149338015Y-104040509D01*
X149440509Y-103938015D01*
X149512984Y-103812485D01*
X149550500Y-103672475D01*
X149550500Y-103527525D01*
X149512984Y-103387515D01*
X149494266Y-103355095D01*
X149440511Y-103261988D01*
X149440506Y-103261982D01*
X149338017Y-103159493D01*
X149338011Y-103159488D01*
X149212488Y-103087017D01*
X149212489Y-103087017D01*
X149201006Y-103083940D01*
X149072475Y-103049500D01*
X148927525Y-103049500D01*
X148798993Y-103083940D01*
X148787511Y-103087017D01*
X148661988Y-103159488D01*
X148661982Y-103159493D01*
X148559493Y-103261982D01*
X148559488Y-103261988D01*
X148487017Y-103387511D01*
X148487016Y-103387515D01*
X148449500Y-103527525D01*
X122275788Y-103527525D01*
X122422445Y-103479873D01*
X122576788Y-103401232D01*
X122716928Y-103299414D01*
X122839414Y-103176928D01*
X122941232Y-103036788D01*
X123019873Y-102882445D01*
X123073402Y-102717701D01*
X123100500Y-102546611D01*
X123100500Y-102373389D01*
X123093909Y-102331778D01*
X123093235Y-102327525D01*
X160349500Y-102327525D01*
X160349500Y-102472475D01*
X160387016Y-102612485D01*
X160387017Y-102612488D01*
X160459488Y-102738011D01*
X160459490Y-102738013D01*
X160459491Y-102738015D01*
X160561985Y-102840509D01*
X160561986Y-102840510D01*
X160561988Y-102840511D01*
X160687511Y-102912982D01*
X160687512Y-102912982D01*
X160687515Y-102912984D01*
X160827525Y-102950500D01*
X160827528Y-102950500D01*
X160972472Y-102950500D01*
X160972475Y-102950500D01*
X161112485Y-102912984D01*
X161238015Y-102840509D01*
X161340509Y-102738015D01*
X161412984Y-102612485D01*
X161450500Y-102472475D01*
X161450500Y-102327525D01*
X161412984Y-102187515D01*
X161407686Y-102178339D01*
X161340511Y-102061988D01*
X161340506Y-102061982D01*
X161238017Y-101959493D01*
X161238011Y-101959488D01*
X161112488Y-101887017D01*
X161112489Y-101887017D01*
X161098285Y-101883211D01*
X160972475Y-101849500D01*
X160827525Y-101849500D01*
X160701715Y-101883211D01*
X160687511Y-101887017D01*
X160561988Y-101959488D01*
X160561982Y-101959493D01*
X160459493Y-102061982D01*
X160459488Y-102061988D01*
X160387017Y-102187511D01*
X160387016Y-102187515D01*
X160349500Y-102327525D01*
X123093235Y-102327525D01*
X123089766Y-102305621D01*
X123073402Y-102202299D01*
X123019873Y-102037555D01*
X122941232Y-101883212D01*
X122839414Y-101743072D01*
X122716928Y-101620586D01*
X122576788Y-101518768D01*
X122422445Y-101440127D01*
X122257701Y-101386598D01*
X122257699Y-101386597D01*
X122257698Y-101386597D01*
X122126271Y-101365781D01*
X122086611Y-101359500D01*
X121913389Y-101359500D01*
X121873728Y-101365781D01*
X121742302Y-101386597D01*
X121577552Y-101440128D01*
X121423211Y-101518768D01*
X121343256Y-101576859D01*
X121283072Y-101620586D01*
X121283070Y-101620588D01*
X121283069Y-101620588D01*
X121160588Y-101743069D01*
X121160588Y-101743070D01*
X121160586Y-101743072D01*
X121136229Y-101776597D01*
X121058768Y-101883211D01*
X120980128Y-102037552D01*
X120926597Y-102202302D01*
X120904979Y-102338795D01*
X120899500Y-102373389D01*
X117742275Y-102373389D01*
X117691231Y-102273211D01*
X117671408Y-102245927D01*
X117589414Y-102133072D01*
X117466928Y-102010586D01*
X117326788Y-101908768D01*
X117172445Y-101830127D01*
X117007701Y-101776598D01*
X117007699Y-101776597D01*
X117007698Y-101776597D01*
X116876271Y-101755781D01*
X116836611Y-101749500D01*
X116663389Y-101749500D01*
X116623728Y-101755781D01*
X116492302Y-101776597D01*
X116327552Y-101830128D01*
X116173211Y-101908768D01*
X116103402Y-101959488D01*
X116033072Y-102010586D01*
X116033070Y-102010588D01*
X116033069Y-102010588D01*
X115910588Y-102133069D01*
X115910588Y-102133070D01*
X115910586Y-102133072D01*
X115871034Y-102187511D01*
X115808768Y-102273211D01*
X115745185Y-102398000D01*
X115697210Y-102448796D01*
X115629389Y-102465591D01*
X115563254Y-102443053D01*
X115519803Y-102388338D01*
X115516768Y-102380022D01*
X115501093Y-102331778D01*
X115404620Y-102142442D01*
X115279727Y-101970540D01*
X115279723Y-101970535D01*
X115129464Y-101820276D01*
X115129459Y-101820272D01*
X114957557Y-101695379D01*
X114768217Y-101598904D01*
X114566124Y-101533241D01*
X114550000Y-101530686D01*
X114550000Y-102603248D01*
X114541657Y-102594905D01*
X114433343Y-102532370D01*
X114312535Y-102500000D01*
X114187465Y-102500000D01*
X114066657Y-102532370D01*
X113958343Y-102594905D01*
X113950000Y-102603248D01*
X113950000Y-101530687D01*
X113949999Y-101530686D01*
X113933875Y-101533241D01*
X113731782Y-101598904D01*
X113542442Y-101695379D01*
X113370540Y-101820272D01*
X113370535Y-101820276D01*
X113220276Y-101970535D01*
X113220272Y-101970540D01*
X113095377Y-102142444D01*
X113077087Y-102178339D01*
X113029112Y-102229133D01*
X112961290Y-102245927D01*
X112895156Y-102223388D01*
X112851706Y-102168672D01*
X112846976Y-102149807D01*
X112845876Y-102150068D01*
X112844092Y-102142520D01*
X112840567Y-102133070D01*
X112814055Y-102061985D01*
X112793797Y-102007671D01*
X112793793Y-102007664D01*
X112707547Y-101892455D01*
X112707544Y-101892452D01*
X112592335Y-101806206D01*
X112592328Y-101806202D01*
X112457482Y-101755908D01*
X112457483Y-101755908D01*
X112397883Y-101749501D01*
X112397881Y-101749500D01*
X112397873Y-101749500D01*
X112397864Y-101749500D01*
X111102129Y-101749500D01*
X111102123Y-101749501D01*
X111042516Y-101755908D01*
X110907671Y-101806202D01*
X110907664Y-101806206D01*
X110792455Y-101892452D01*
X110792452Y-101892455D01*
X110706206Y-102007664D01*
X110706202Y-102007671D01*
X110655908Y-102142517D01*
X110649501Y-102202116D01*
X110649500Y-102202135D01*
X100500500Y-102202135D01*
X100500500Y-100624500D01*
X100520185Y-100557461D01*
X100572989Y-100511706D01*
X100624500Y-100500500D01*
X169375500Y-100500500D01*
X169442539Y-100520185D01*
G37*
%TD.AperFunction*%
%TD*%
M02*
