%TF.GenerationSoftware,KiCad,Pcbnew,10.0.3*%
%TF.CreationDate,2026-07-21T15:16:09+03:00*%
%TF.ProjectId,FailDeadly,4661696c-4465-4616-946c-792e6b696361,001*%
%TF.SameCoordinates,Original*%
%TF.FileFunction,Copper,L3,Inr*%
%TF.FilePolarity,Positive*%
%FSLAX46Y46*%
G04 Gerber Fmt 4.6, Leading zero omitted, Abs format (unit mm)*
G04 Created by KiCad (PCBNEW 10.0.3) date 2026-07-21 15:16:09*
%MOMM*%
%LPD*%
G01*
G04 APERTURE LIST*
G04 Aperture macros list*
%AMRoundRect*
0 Rectangle with rounded corners*
0 $1 Rounding radius*
0 $2 $3 $4 $5 $6 $7 $8 $9 X,Y pos of 4 corners*
0 Add a 4 corners polygon primitive as box body*
4,1,4,$2,$3,$4,$5,$6,$7,$8,$9,$2,$3,0*
0 Add four circle primitives for the rounded corners*
1,1,$1+$1,$2,$3*
1,1,$1+$1,$4,$5*
1,1,$1+$1,$6,$7*
1,1,$1+$1,$8,$9*
0 Add four rect primitives between the rounded corners*
20,1,$1+$1,$2,$3,$4,$5,0*
20,1,$1+$1,$4,$5,$6,$7,0*
20,1,$1+$1,$6,$7,$8,$9,0*
20,1,$1+$1,$8,$9,$2,$3,0*%
G04 Aperture macros list end*
%ADD10C,0.150000*%
%ADD11C,0.300000*%
%ADD12C,0.400000*%
%TA.AperFunction,ComponentPad*%
%ADD13R,1.700000X1.700000*%
%TD*%
%TA.AperFunction,ComponentPad*%
%ADD14C,1.700000*%
%TD*%
%TA.AperFunction,ComponentPad*%
%ADD15C,4.000000*%
%TD*%
%TA.AperFunction,ComponentPad*%
%ADD16RoundRect,0.250000X-0.600000X-0.725000X0.600000X-0.725000X0.600000X0.725000X-0.600000X0.725000X0*%
%TD*%
%TA.AperFunction,ComponentPad*%
%ADD17O,1.700000X1.950000*%
%TD*%
%TA.AperFunction,ViaPad*%
%ADD18C,0.600000*%
%TD*%
%TA.AperFunction,Conductor*%
%ADD19C,0.150000*%
%TD*%
G04 APERTURE END LIST*
D10*
X177002200Y-166007200D02*
X285002200Y-166007200D01*
X285002200Y-198007200D01*
X177002200Y-198007200D01*
X177002200Y-166007200D01*
X10000000Y-10000000D02*
X287002200Y-10000000D01*
X287002200Y-200007200D01*
X10000000Y-200007200D01*
X10000000Y-10000000D01*
X12000000Y-12000000D02*
X285002200Y-12000000D01*
X285002200Y-198007200D01*
X12000000Y-198007200D01*
X12000000Y-12000000D01*
X60000000Y-12000000D02*
X60000000Y-10000000D01*
X110000000Y-12000000D02*
X110000000Y-10000000D01*
X160000000Y-12000000D02*
X160000000Y-10000000D01*
X210000000Y-12000000D02*
X210000000Y-10000000D01*
X260000000Y-12000000D02*
X260000000Y-10000000D01*
X36089160Y-11593604D02*
X35346303Y-11593604D01*
X35717731Y-11593604D02*
X35717731Y-10293604D01*
X35717731Y-10293604D02*
X35593922Y-10479319D01*
X35593922Y-10479319D02*
X35470112Y-10603128D01*
X35470112Y-10603128D02*
X35346303Y-10665033D01*
X85346303Y-10417414D02*
X85408207Y-10355509D01*
X85408207Y-10355509D02*
X85532017Y-10293604D01*
X85532017Y-10293604D02*
X85841541Y-10293604D01*
X85841541Y-10293604D02*
X85965350Y-10355509D01*
X85965350Y-10355509D02*
X86027255Y-10417414D01*
X86027255Y-10417414D02*
X86089160Y-10541223D01*
X86089160Y-10541223D02*
X86089160Y-10665033D01*
X86089160Y-10665033D02*
X86027255Y-10850747D01*
X86027255Y-10850747D02*
X85284398Y-11593604D01*
X85284398Y-11593604D02*
X86089160Y-11593604D01*
X135284398Y-10293604D02*
X136089160Y-10293604D01*
X136089160Y-10293604D02*
X135655826Y-10788842D01*
X135655826Y-10788842D02*
X135841541Y-10788842D01*
X135841541Y-10788842D02*
X135965350Y-10850747D01*
X135965350Y-10850747D02*
X136027255Y-10912652D01*
X136027255Y-10912652D02*
X136089160Y-11036461D01*
X136089160Y-11036461D02*
X136089160Y-11345985D01*
X136089160Y-11345985D02*
X136027255Y-11469795D01*
X136027255Y-11469795D02*
X135965350Y-11531700D01*
X135965350Y-11531700D02*
X135841541Y-11593604D01*
X135841541Y-11593604D02*
X135470112Y-11593604D01*
X135470112Y-11593604D02*
X135346303Y-11531700D01*
X135346303Y-11531700D02*
X135284398Y-11469795D01*
X185965350Y-10726938D02*
X185965350Y-11593604D01*
X185655826Y-10231700D02*
X185346303Y-11160271D01*
X185346303Y-11160271D02*
X186151064Y-11160271D01*
X236027255Y-10293604D02*
X235408207Y-10293604D01*
X235408207Y-10293604D02*
X235346303Y-10912652D01*
X235346303Y-10912652D02*
X235408207Y-10850747D01*
X235408207Y-10850747D02*
X235532017Y-10788842D01*
X235532017Y-10788842D02*
X235841541Y-10788842D01*
X235841541Y-10788842D02*
X235965350Y-10850747D01*
X235965350Y-10850747D02*
X236027255Y-10912652D01*
X236027255Y-10912652D02*
X236089160Y-11036461D01*
X236089160Y-11036461D02*
X236089160Y-11345985D01*
X236089160Y-11345985D02*
X236027255Y-11469795D01*
X236027255Y-11469795D02*
X235965350Y-11531700D01*
X235965350Y-11531700D02*
X235841541Y-11593604D01*
X235841541Y-11593604D02*
X235532017Y-11593604D01*
X235532017Y-11593604D02*
X235408207Y-11531700D01*
X235408207Y-11531700D02*
X235346303Y-11469795D01*
X285965350Y-10293604D02*
X285717731Y-10293604D01*
X285717731Y-10293604D02*
X285593922Y-10355509D01*
X285593922Y-10355509D02*
X285532017Y-10417414D01*
X285532017Y-10417414D02*
X285408207Y-10603128D01*
X285408207Y-10603128D02*
X285346303Y-10850747D01*
X285346303Y-10850747D02*
X285346303Y-11345985D01*
X285346303Y-11345985D02*
X285408207Y-11469795D01*
X285408207Y-11469795D02*
X285470112Y-11531700D01*
X285470112Y-11531700D02*
X285593922Y-11593604D01*
X285593922Y-11593604D02*
X285841541Y-11593604D01*
X285841541Y-11593604D02*
X285965350Y-11531700D01*
X285965350Y-11531700D02*
X286027255Y-11469795D01*
X286027255Y-11469795D02*
X286089160Y-11345985D01*
X286089160Y-11345985D02*
X286089160Y-11036461D01*
X286089160Y-11036461D02*
X286027255Y-10912652D01*
X286027255Y-10912652D02*
X285965350Y-10850747D01*
X285965350Y-10850747D02*
X285841541Y-10788842D01*
X285841541Y-10788842D02*
X285593922Y-10788842D01*
X285593922Y-10788842D02*
X285470112Y-10850747D01*
X285470112Y-10850747D02*
X285408207Y-10912652D01*
X285408207Y-10912652D02*
X285346303Y-11036461D01*
X60000000Y-198007200D02*
X60000000Y-200007200D01*
X110000000Y-198007200D02*
X110000000Y-200007200D01*
X160000000Y-198007200D02*
X160000000Y-200007200D01*
X210000000Y-198007200D02*
X210000000Y-200007200D01*
X260000000Y-198007200D02*
X260000000Y-200007200D01*
X36089160Y-199600804D02*
X35346303Y-199600804D01*
X35717731Y-199600804D02*
X35717731Y-198300804D01*
X35717731Y-198300804D02*
X35593922Y-198486519D01*
X35593922Y-198486519D02*
X35470112Y-198610328D01*
X35470112Y-198610328D02*
X35346303Y-198672233D01*
X85346303Y-198424614D02*
X85408207Y-198362709D01*
X85408207Y-198362709D02*
X85532017Y-198300804D01*
X85532017Y-198300804D02*
X85841541Y-198300804D01*
X85841541Y-198300804D02*
X85965350Y-198362709D01*
X85965350Y-198362709D02*
X86027255Y-198424614D01*
X86027255Y-198424614D02*
X86089160Y-198548423D01*
X86089160Y-198548423D02*
X86089160Y-198672233D01*
X86089160Y-198672233D02*
X86027255Y-198857947D01*
X86027255Y-198857947D02*
X85284398Y-199600804D01*
X85284398Y-199600804D02*
X86089160Y-199600804D01*
X135284398Y-198300804D02*
X136089160Y-198300804D01*
X136089160Y-198300804D02*
X135655826Y-198796042D01*
X135655826Y-198796042D02*
X135841541Y-198796042D01*
X135841541Y-198796042D02*
X135965350Y-198857947D01*
X135965350Y-198857947D02*
X136027255Y-198919852D01*
X136027255Y-198919852D02*
X136089160Y-199043661D01*
X136089160Y-199043661D02*
X136089160Y-199353185D01*
X136089160Y-199353185D02*
X136027255Y-199476995D01*
X136027255Y-199476995D02*
X135965350Y-199538900D01*
X135965350Y-199538900D02*
X135841541Y-199600804D01*
X135841541Y-199600804D02*
X135470112Y-199600804D01*
X135470112Y-199600804D02*
X135346303Y-199538900D01*
X135346303Y-199538900D02*
X135284398Y-199476995D01*
X185965350Y-198734138D02*
X185965350Y-199600804D01*
X185655826Y-198238900D02*
X185346303Y-199167471D01*
X185346303Y-199167471D02*
X186151064Y-199167471D01*
X236027255Y-198300804D02*
X235408207Y-198300804D01*
X235408207Y-198300804D02*
X235346303Y-198919852D01*
X235346303Y-198919852D02*
X235408207Y-198857947D01*
X235408207Y-198857947D02*
X235532017Y-198796042D01*
X235532017Y-198796042D02*
X235841541Y-198796042D01*
X235841541Y-198796042D02*
X235965350Y-198857947D01*
X235965350Y-198857947D02*
X236027255Y-198919852D01*
X236027255Y-198919852D02*
X236089160Y-199043661D01*
X236089160Y-199043661D02*
X236089160Y-199353185D01*
X236089160Y-199353185D02*
X236027255Y-199476995D01*
X236027255Y-199476995D02*
X235965350Y-199538900D01*
X235965350Y-199538900D02*
X235841541Y-199600804D01*
X235841541Y-199600804D02*
X235532017Y-199600804D01*
X235532017Y-199600804D02*
X235408207Y-199538900D01*
X235408207Y-199538900D02*
X235346303Y-199476995D01*
X285965350Y-198300804D02*
X285717731Y-198300804D01*
X285717731Y-198300804D02*
X285593922Y-198362709D01*
X285593922Y-198362709D02*
X285532017Y-198424614D01*
X285532017Y-198424614D02*
X285408207Y-198610328D01*
X285408207Y-198610328D02*
X285346303Y-198857947D01*
X285346303Y-198857947D02*
X285346303Y-199353185D01*
X285346303Y-199353185D02*
X285408207Y-199476995D01*
X285408207Y-199476995D02*
X285470112Y-199538900D01*
X285470112Y-199538900D02*
X285593922Y-199600804D01*
X285593922Y-199600804D02*
X285841541Y-199600804D01*
X285841541Y-199600804D02*
X285965350Y-199538900D01*
X285965350Y-199538900D02*
X286027255Y-199476995D01*
X286027255Y-199476995D02*
X286089160Y-199353185D01*
X286089160Y-199353185D02*
X286089160Y-199043661D01*
X286089160Y-199043661D02*
X286027255Y-198919852D01*
X286027255Y-198919852D02*
X285965350Y-198857947D01*
X285965350Y-198857947D02*
X285841541Y-198796042D01*
X285841541Y-198796042D02*
X285593922Y-198796042D01*
X285593922Y-198796042D02*
X285470112Y-198857947D01*
X285470112Y-198857947D02*
X285408207Y-198919852D01*
X285408207Y-198919852D02*
X285346303Y-199043661D01*
X10000000Y-60000000D02*
X12000000Y-60000000D01*
X10000000Y-110000000D02*
X12000000Y-110000000D01*
X10000000Y-160000000D02*
X12000000Y-160000000D01*
X10690476Y-35222176D02*
X11309523Y-35222176D01*
X10566666Y-35593604D02*
X10999999Y-34293604D01*
X10999999Y-34293604D02*
X11433333Y-35593604D01*
X11092857Y-84912652D02*
X11278571Y-84974557D01*
X11278571Y-84974557D02*
X11340476Y-85036461D01*
X11340476Y-85036461D02*
X11402380Y-85160271D01*
X11402380Y-85160271D02*
X11402380Y-85345985D01*
X11402380Y-85345985D02*
X11340476Y-85469795D01*
X11340476Y-85469795D02*
X11278571Y-85531700D01*
X11278571Y-85531700D02*
X11154761Y-85593604D01*
X11154761Y-85593604D02*
X10659523Y-85593604D01*
X10659523Y-85593604D02*
X10659523Y-84293604D01*
X10659523Y-84293604D02*
X11092857Y-84293604D01*
X11092857Y-84293604D02*
X11216666Y-84355509D01*
X11216666Y-84355509D02*
X11278571Y-84417414D01*
X11278571Y-84417414D02*
X11340476Y-84541223D01*
X11340476Y-84541223D02*
X11340476Y-84665033D01*
X11340476Y-84665033D02*
X11278571Y-84788842D01*
X11278571Y-84788842D02*
X11216666Y-84850747D01*
X11216666Y-84850747D02*
X11092857Y-84912652D01*
X11092857Y-84912652D02*
X10659523Y-84912652D01*
X11402380Y-135469795D02*
X11340476Y-135531700D01*
X11340476Y-135531700D02*
X11154761Y-135593604D01*
X11154761Y-135593604D02*
X11030952Y-135593604D01*
X11030952Y-135593604D02*
X10845238Y-135531700D01*
X10845238Y-135531700D02*
X10721428Y-135407890D01*
X10721428Y-135407890D02*
X10659523Y-135284080D01*
X10659523Y-135284080D02*
X10597619Y-135036461D01*
X10597619Y-135036461D02*
X10597619Y-134850747D01*
X10597619Y-134850747D02*
X10659523Y-134603128D01*
X10659523Y-134603128D02*
X10721428Y-134479319D01*
X10721428Y-134479319D02*
X10845238Y-134355509D01*
X10845238Y-134355509D02*
X11030952Y-134293604D01*
X11030952Y-134293604D02*
X11154761Y-134293604D01*
X11154761Y-134293604D02*
X11340476Y-134355509D01*
X11340476Y-134355509D02*
X11402380Y-134417414D01*
X10659523Y-185593604D02*
X10659523Y-184293604D01*
X10659523Y-184293604D02*
X10969047Y-184293604D01*
X10969047Y-184293604D02*
X11154761Y-184355509D01*
X11154761Y-184355509D02*
X11278571Y-184479319D01*
X11278571Y-184479319D02*
X11340476Y-184603128D01*
X11340476Y-184603128D02*
X11402380Y-184850747D01*
X11402380Y-184850747D02*
X11402380Y-185036461D01*
X11402380Y-185036461D02*
X11340476Y-185284080D01*
X11340476Y-185284080D02*
X11278571Y-185407890D01*
X11278571Y-185407890D02*
X11154761Y-185531700D01*
X11154761Y-185531700D02*
X10969047Y-185593604D01*
X10969047Y-185593604D02*
X10659523Y-185593604D01*
X287002200Y-60000000D02*
X285002200Y-60000000D01*
X287002200Y-110000000D02*
X285002200Y-110000000D01*
X287002200Y-160000000D02*
X285002200Y-160000000D01*
X285692676Y-35222176D02*
X286311723Y-35222176D01*
X285568866Y-35593604D02*
X286002199Y-34293604D01*
X286002199Y-34293604D02*
X286435533Y-35593604D01*
X286095057Y-84912652D02*
X286280771Y-84974557D01*
X286280771Y-84974557D02*
X286342676Y-85036461D01*
X286342676Y-85036461D02*
X286404580Y-85160271D01*
X286404580Y-85160271D02*
X286404580Y-85345985D01*
X286404580Y-85345985D02*
X286342676Y-85469795D01*
X286342676Y-85469795D02*
X286280771Y-85531700D01*
X286280771Y-85531700D02*
X286156961Y-85593604D01*
X286156961Y-85593604D02*
X285661723Y-85593604D01*
X285661723Y-85593604D02*
X285661723Y-84293604D01*
X285661723Y-84293604D02*
X286095057Y-84293604D01*
X286095057Y-84293604D02*
X286218866Y-84355509D01*
X286218866Y-84355509D02*
X286280771Y-84417414D01*
X286280771Y-84417414D02*
X286342676Y-84541223D01*
X286342676Y-84541223D02*
X286342676Y-84665033D01*
X286342676Y-84665033D02*
X286280771Y-84788842D01*
X286280771Y-84788842D02*
X286218866Y-84850747D01*
X286218866Y-84850747D02*
X286095057Y-84912652D01*
X286095057Y-84912652D02*
X285661723Y-84912652D01*
X286404580Y-135469795D02*
X286342676Y-135531700D01*
X286342676Y-135531700D02*
X286156961Y-135593604D01*
X286156961Y-135593604D02*
X286033152Y-135593604D01*
X286033152Y-135593604D02*
X285847438Y-135531700D01*
X285847438Y-135531700D02*
X285723628Y-135407890D01*
X285723628Y-135407890D02*
X285661723Y-135284080D01*
X285661723Y-135284080D02*
X285599819Y-135036461D01*
X285599819Y-135036461D02*
X285599819Y-134850747D01*
X285599819Y-134850747D02*
X285661723Y-134603128D01*
X285661723Y-134603128D02*
X285723628Y-134479319D01*
X285723628Y-134479319D02*
X285847438Y-134355509D01*
X285847438Y-134355509D02*
X286033152Y-134293604D01*
X286033152Y-134293604D02*
X286156961Y-134293604D01*
X286156961Y-134293604D02*
X286342676Y-134355509D01*
X286342676Y-134355509D02*
X286404580Y-134417414D01*
X285661723Y-185593604D02*
X285661723Y-184293604D01*
X285661723Y-184293604D02*
X285971247Y-184293604D01*
X285971247Y-184293604D02*
X286156961Y-184355509D01*
X286156961Y-184355509D02*
X286280771Y-184479319D01*
X286280771Y-184479319D02*
X286342676Y-184603128D01*
X286342676Y-184603128D02*
X286404580Y-184850747D01*
X286404580Y-184850747D02*
X286404580Y-185036461D01*
X286404580Y-185036461D02*
X286342676Y-185284080D01*
X286342676Y-185284080D02*
X286280771Y-185407890D01*
X286280771Y-185407890D02*
X286156961Y-185531700D01*
X286156961Y-185531700D02*
X285971247Y-185593604D01*
X285971247Y-185593604D02*
X285661723Y-185593604D01*
X200458026Y-193793328D02*
X200458026Y-192293328D01*
X200458026Y-192293328D02*
X200815169Y-192293328D01*
X200815169Y-192293328D02*
X201029455Y-192364757D01*
X201029455Y-192364757D02*
X201172312Y-192507614D01*
X201172312Y-192507614D02*
X201243741Y-192650471D01*
X201243741Y-192650471D02*
X201315169Y-192936185D01*
X201315169Y-192936185D02*
X201315169Y-193150471D01*
X201315169Y-193150471D02*
X201243741Y-193436185D01*
X201243741Y-193436185D02*
X201172312Y-193579042D01*
X201172312Y-193579042D02*
X201029455Y-193721900D01*
X201029455Y-193721900D02*
X200815169Y-193793328D01*
X200815169Y-193793328D02*
X200458026Y-193793328D01*
X202600884Y-193793328D02*
X202600884Y-193007614D01*
X202600884Y-193007614D02*
X202529455Y-192864757D01*
X202529455Y-192864757D02*
X202386598Y-192793328D01*
X202386598Y-192793328D02*
X202100884Y-192793328D01*
X202100884Y-192793328D02*
X201958026Y-192864757D01*
X202600884Y-193721900D02*
X202458026Y-193793328D01*
X202458026Y-193793328D02*
X202100884Y-193793328D01*
X202100884Y-193793328D02*
X201958026Y-193721900D01*
X201958026Y-193721900D02*
X201886598Y-193579042D01*
X201886598Y-193579042D02*
X201886598Y-193436185D01*
X201886598Y-193436185D02*
X201958026Y-193293328D01*
X201958026Y-193293328D02*
X202100884Y-193221900D01*
X202100884Y-193221900D02*
X202458026Y-193221900D01*
X202458026Y-193221900D02*
X202600884Y-193150471D01*
X203100884Y-192793328D02*
X203672312Y-192793328D01*
X203315169Y-192293328D02*
X203315169Y-193579042D01*
X203315169Y-193579042D02*
X203386598Y-193721900D01*
X203386598Y-193721900D02*
X203529455Y-193793328D01*
X203529455Y-193793328D02*
X203672312Y-193793328D01*
X204743741Y-193721900D02*
X204600884Y-193793328D01*
X204600884Y-193793328D02*
X204315170Y-193793328D01*
X204315170Y-193793328D02*
X204172312Y-193721900D01*
X204172312Y-193721900D02*
X204100884Y-193579042D01*
X204100884Y-193579042D02*
X204100884Y-193007614D01*
X204100884Y-193007614D02*
X204172312Y-192864757D01*
X204172312Y-192864757D02*
X204315170Y-192793328D01*
X204315170Y-192793328D02*
X204600884Y-192793328D01*
X204600884Y-192793328D02*
X204743741Y-192864757D01*
X204743741Y-192864757D02*
X204815170Y-193007614D01*
X204815170Y-193007614D02*
X204815170Y-193150471D01*
X204815170Y-193150471D02*
X204100884Y-193293328D01*
X205458026Y-193650471D02*
X205529455Y-193721900D01*
X205529455Y-193721900D02*
X205458026Y-193793328D01*
X205458026Y-193793328D02*
X205386598Y-193721900D01*
X205386598Y-193721900D02*
X205458026Y-193650471D01*
X205458026Y-193650471D02*
X205458026Y-193793328D01*
X205458026Y-192864757D02*
X205529455Y-192936185D01*
X205529455Y-192936185D02*
X205458026Y-193007614D01*
X205458026Y-193007614D02*
X205386598Y-192936185D01*
X205386598Y-192936185D02*
X205458026Y-192864757D01*
X205458026Y-192864757D02*
X205458026Y-193007614D01*
X207243741Y-192436185D02*
X207315169Y-192364757D01*
X207315169Y-192364757D02*
X207458027Y-192293328D01*
X207458027Y-192293328D02*
X207815169Y-192293328D01*
X207815169Y-192293328D02*
X207958027Y-192364757D01*
X207958027Y-192364757D02*
X208029455Y-192436185D01*
X208029455Y-192436185D02*
X208100884Y-192579042D01*
X208100884Y-192579042D02*
X208100884Y-192721900D01*
X208100884Y-192721900D02*
X208029455Y-192936185D01*
X208029455Y-192936185D02*
X207172312Y-193793328D01*
X207172312Y-193793328D02*
X208100884Y-193793328D01*
X209029455Y-192293328D02*
X209172312Y-192293328D01*
X209172312Y-192293328D02*
X209315169Y-192364757D01*
X209315169Y-192364757D02*
X209386598Y-192436185D01*
X209386598Y-192436185D02*
X209458026Y-192579042D01*
X209458026Y-192579042D02*
X209529455Y-192864757D01*
X209529455Y-192864757D02*
X209529455Y-193221900D01*
X209529455Y-193221900D02*
X209458026Y-193507614D01*
X209458026Y-193507614D02*
X209386598Y-193650471D01*
X209386598Y-193650471D02*
X209315169Y-193721900D01*
X209315169Y-193721900D02*
X209172312Y-193793328D01*
X209172312Y-193793328D02*
X209029455Y-193793328D01*
X209029455Y-193793328D02*
X208886598Y-193721900D01*
X208886598Y-193721900D02*
X208815169Y-193650471D01*
X208815169Y-193650471D02*
X208743740Y-193507614D01*
X208743740Y-193507614D02*
X208672312Y-193221900D01*
X208672312Y-193221900D02*
X208672312Y-192864757D01*
X208672312Y-192864757D02*
X208743740Y-192579042D01*
X208743740Y-192579042D02*
X208815169Y-192436185D01*
X208815169Y-192436185D02*
X208886598Y-192364757D01*
X208886598Y-192364757D02*
X209029455Y-192293328D01*
X210100883Y-192436185D02*
X210172311Y-192364757D01*
X210172311Y-192364757D02*
X210315169Y-192293328D01*
X210315169Y-192293328D02*
X210672311Y-192293328D01*
X210672311Y-192293328D02*
X210815169Y-192364757D01*
X210815169Y-192364757D02*
X210886597Y-192436185D01*
X210886597Y-192436185D02*
X210958026Y-192579042D01*
X210958026Y-192579042D02*
X210958026Y-192721900D01*
X210958026Y-192721900D02*
X210886597Y-192936185D01*
X210886597Y-192936185D02*
X210029454Y-193793328D01*
X210029454Y-193793328D02*
X210958026Y-193793328D01*
X212243740Y-192293328D02*
X211958025Y-192293328D01*
X211958025Y-192293328D02*
X211815168Y-192364757D01*
X211815168Y-192364757D02*
X211743740Y-192436185D01*
X211743740Y-192436185D02*
X211600882Y-192650471D01*
X211600882Y-192650471D02*
X211529454Y-192936185D01*
X211529454Y-192936185D02*
X211529454Y-193507614D01*
X211529454Y-193507614D02*
X211600882Y-193650471D01*
X211600882Y-193650471D02*
X211672311Y-193721900D01*
X211672311Y-193721900D02*
X211815168Y-193793328D01*
X211815168Y-193793328D02*
X212100882Y-193793328D01*
X212100882Y-193793328D02*
X212243740Y-193721900D01*
X212243740Y-193721900D02*
X212315168Y-193650471D01*
X212315168Y-193650471D02*
X212386597Y-193507614D01*
X212386597Y-193507614D02*
X212386597Y-193150471D01*
X212386597Y-193150471D02*
X212315168Y-193007614D01*
X212315168Y-193007614D02*
X212243740Y-192936185D01*
X212243740Y-192936185D02*
X212100882Y-192864757D01*
X212100882Y-192864757D02*
X211815168Y-192864757D01*
X211815168Y-192864757D02*
X211672311Y-192936185D01*
X211672311Y-192936185D02*
X211600882Y-193007614D01*
X211600882Y-193007614D02*
X211529454Y-193150471D01*
X213029453Y-193221900D02*
X214172311Y-193221900D01*
X215172311Y-192293328D02*
X215315168Y-192293328D01*
X215315168Y-192293328D02*
X215458025Y-192364757D01*
X215458025Y-192364757D02*
X215529454Y-192436185D01*
X215529454Y-192436185D02*
X215600882Y-192579042D01*
X215600882Y-192579042D02*
X215672311Y-192864757D01*
X215672311Y-192864757D02*
X215672311Y-193221900D01*
X215672311Y-193221900D02*
X215600882Y-193507614D01*
X215600882Y-193507614D02*
X215529454Y-193650471D01*
X215529454Y-193650471D02*
X215458025Y-193721900D01*
X215458025Y-193721900D02*
X215315168Y-193793328D01*
X215315168Y-193793328D02*
X215172311Y-193793328D01*
X215172311Y-193793328D02*
X215029454Y-193721900D01*
X215029454Y-193721900D02*
X214958025Y-193650471D01*
X214958025Y-193650471D02*
X214886596Y-193507614D01*
X214886596Y-193507614D02*
X214815168Y-193221900D01*
X214815168Y-193221900D02*
X214815168Y-192864757D01*
X214815168Y-192864757D02*
X214886596Y-192579042D01*
X214886596Y-192579042D02*
X214958025Y-192436185D01*
X214958025Y-192436185D02*
X215029454Y-192364757D01*
X215029454Y-192364757D02*
X215172311Y-192293328D01*
X216172310Y-192293328D02*
X217172310Y-192293328D01*
X217172310Y-192293328D02*
X216529453Y-193793328D01*
X217743738Y-193221900D02*
X218886596Y-193221900D01*
X219529453Y-192436185D02*
X219600881Y-192364757D01*
X219600881Y-192364757D02*
X219743739Y-192293328D01*
X219743739Y-192293328D02*
X220100881Y-192293328D01*
X220100881Y-192293328D02*
X220243739Y-192364757D01*
X220243739Y-192364757D02*
X220315167Y-192436185D01*
X220315167Y-192436185D02*
X220386596Y-192579042D01*
X220386596Y-192579042D02*
X220386596Y-192721900D01*
X220386596Y-192721900D02*
X220315167Y-192936185D01*
X220315167Y-192936185D02*
X219458024Y-193793328D01*
X219458024Y-193793328D02*
X220386596Y-193793328D01*
X221315167Y-192293328D02*
X221458024Y-192293328D01*
X221458024Y-192293328D02*
X221600881Y-192364757D01*
X221600881Y-192364757D02*
X221672310Y-192436185D01*
X221672310Y-192436185D02*
X221743738Y-192579042D01*
X221743738Y-192579042D02*
X221815167Y-192864757D01*
X221815167Y-192864757D02*
X221815167Y-193221900D01*
X221815167Y-193221900D02*
X221743738Y-193507614D01*
X221743738Y-193507614D02*
X221672310Y-193650471D01*
X221672310Y-193650471D02*
X221600881Y-193721900D01*
X221600881Y-193721900D02*
X221458024Y-193793328D01*
X221458024Y-193793328D02*
X221315167Y-193793328D01*
X221315167Y-193793328D02*
X221172310Y-193721900D01*
X221172310Y-193721900D02*
X221100881Y-193650471D01*
X221100881Y-193650471D02*
X221029452Y-193507614D01*
X221029452Y-193507614D02*
X220958024Y-193221900D01*
X220958024Y-193221900D02*
X220958024Y-192864757D01*
X220958024Y-192864757D02*
X221029452Y-192579042D01*
X221029452Y-192579042D02*
X221100881Y-192436185D01*
X221100881Y-192436185D02*
X221172310Y-192364757D01*
X221172310Y-192364757D02*
X221315167Y-192293328D01*
X177002200Y-194507200D02*
X285002200Y-194507200D01*
X178458026Y-196593328D02*
X178458026Y-195093328D01*
X179315169Y-196593328D02*
X178672312Y-195736185D01*
X179315169Y-195093328D02*
X178458026Y-195950471D01*
X179958026Y-196593328D02*
X179958026Y-195593328D01*
X179958026Y-195093328D02*
X179886598Y-195164757D01*
X179886598Y-195164757D02*
X179958026Y-195236185D01*
X179958026Y-195236185D02*
X180029455Y-195164757D01*
X180029455Y-195164757D02*
X179958026Y-195093328D01*
X179958026Y-195093328D02*
X179958026Y-195236185D01*
X181529455Y-196450471D02*
X181458027Y-196521900D01*
X181458027Y-196521900D02*
X181243741Y-196593328D01*
X181243741Y-196593328D02*
X181100884Y-196593328D01*
X181100884Y-196593328D02*
X180886598Y-196521900D01*
X180886598Y-196521900D02*
X180743741Y-196379042D01*
X180743741Y-196379042D02*
X180672312Y-196236185D01*
X180672312Y-196236185D02*
X180600884Y-195950471D01*
X180600884Y-195950471D02*
X180600884Y-195736185D01*
X180600884Y-195736185D02*
X180672312Y-195450471D01*
X180672312Y-195450471D02*
X180743741Y-195307614D01*
X180743741Y-195307614D02*
X180886598Y-195164757D01*
X180886598Y-195164757D02*
X181100884Y-195093328D01*
X181100884Y-195093328D02*
X181243741Y-195093328D01*
X181243741Y-195093328D02*
X181458027Y-195164757D01*
X181458027Y-195164757D02*
X181529455Y-195236185D01*
X182815170Y-196593328D02*
X182815170Y-195807614D01*
X182815170Y-195807614D02*
X182743741Y-195664757D01*
X182743741Y-195664757D02*
X182600884Y-195593328D01*
X182600884Y-195593328D02*
X182315170Y-195593328D01*
X182315170Y-195593328D02*
X182172312Y-195664757D01*
X182815170Y-196521900D02*
X182672312Y-196593328D01*
X182672312Y-196593328D02*
X182315170Y-196593328D01*
X182315170Y-196593328D02*
X182172312Y-196521900D01*
X182172312Y-196521900D02*
X182100884Y-196379042D01*
X182100884Y-196379042D02*
X182100884Y-196236185D01*
X182100884Y-196236185D02*
X182172312Y-196093328D01*
X182172312Y-196093328D02*
X182315170Y-196021900D01*
X182315170Y-196021900D02*
X182672312Y-196021900D01*
X182672312Y-196021900D02*
X182815170Y-195950471D01*
X184172313Y-196593328D02*
X184172313Y-195093328D01*
X184172313Y-196521900D02*
X184029455Y-196593328D01*
X184029455Y-196593328D02*
X183743741Y-196593328D01*
X183743741Y-196593328D02*
X183600884Y-196521900D01*
X183600884Y-196521900D02*
X183529455Y-196450471D01*
X183529455Y-196450471D02*
X183458027Y-196307614D01*
X183458027Y-196307614D02*
X183458027Y-195879042D01*
X183458027Y-195879042D02*
X183529455Y-195736185D01*
X183529455Y-195736185D02*
X183600884Y-195664757D01*
X183600884Y-195664757D02*
X183743741Y-195593328D01*
X183743741Y-195593328D02*
X184029455Y-195593328D01*
X184029455Y-195593328D02*
X184172313Y-195664757D01*
X186029455Y-195807614D02*
X186529455Y-195807614D01*
X186743741Y-196593328D02*
X186029455Y-196593328D01*
X186029455Y-196593328D02*
X186029455Y-195093328D01*
X186029455Y-195093328D02*
X186743741Y-195093328D01*
X187386598Y-196450471D02*
X187458027Y-196521900D01*
X187458027Y-196521900D02*
X187386598Y-196593328D01*
X187386598Y-196593328D02*
X187315170Y-196521900D01*
X187315170Y-196521900D02*
X187386598Y-196450471D01*
X187386598Y-196450471D02*
X187386598Y-196593328D01*
X188100884Y-196593328D02*
X188100884Y-195093328D01*
X188100884Y-195093328D02*
X188458027Y-195093328D01*
X188458027Y-195093328D02*
X188672313Y-195164757D01*
X188672313Y-195164757D02*
X188815170Y-195307614D01*
X188815170Y-195307614D02*
X188886599Y-195450471D01*
X188886599Y-195450471D02*
X188958027Y-195736185D01*
X188958027Y-195736185D02*
X188958027Y-195950471D01*
X188958027Y-195950471D02*
X188886599Y-196236185D01*
X188886599Y-196236185D02*
X188815170Y-196379042D01*
X188815170Y-196379042D02*
X188672313Y-196521900D01*
X188672313Y-196521900D02*
X188458027Y-196593328D01*
X188458027Y-196593328D02*
X188100884Y-196593328D01*
X189600884Y-196450471D02*
X189672313Y-196521900D01*
X189672313Y-196521900D02*
X189600884Y-196593328D01*
X189600884Y-196593328D02*
X189529456Y-196521900D01*
X189529456Y-196521900D02*
X189600884Y-196450471D01*
X189600884Y-196450471D02*
X189600884Y-196593328D01*
X190243742Y-196164757D02*
X190958028Y-196164757D01*
X190100885Y-196593328D02*
X190600885Y-195093328D01*
X190600885Y-195093328D02*
X191100885Y-196593328D01*
X191600884Y-196450471D02*
X191672313Y-196521900D01*
X191672313Y-196521900D02*
X191600884Y-196593328D01*
X191600884Y-196593328D02*
X191529456Y-196521900D01*
X191529456Y-196521900D02*
X191600884Y-196450471D01*
X191600884Y-196450471D02*
X191600884Y-196593328D01*
X194243742Y-196593328D02*
X193386599Y-196593328D01*
X193815170Y-196593328D02*
X193815170Y-195093328D01*
X193815170Y-195093328D02*
X193672313Y-195307614D01*
X193672313Y-195307614D02*
X193529456Y-195450471D01*
X193529456Y-195450471D02*
X193386599Y-195521900D01*
X195172313Y-195093328D02*
X195315170Y-195093328D01*
X195315170Y-195093328D02*
X195458027Y-195164757D01*
X195458027Y-195164757D02*
X195529456Y-195236185D01*
X195529456Y-195236185D02*
X195600884Y-195379042D01*
X195600884Y-195379042D02*
X195672313Y-195664757D01*
X195672313Y-195664757D02*
X195672313Y-196021900D01*
X195672313Y-196021900D02*
X195600884Y-196307614D01*
X195600884Y-196307614D02*
X195529456Y-196450471D01*
X195529456Y-196450471D02*
X195458027Y-196521900D01*
X195458027Y-196521900D02*
X195315170Y-196593328D01*
X195315170Y-196593328D02*
X195172313Y-196593328D01*
X195172313Y-196593328D02*
X195029456Y-196521900D01*
X195029456Y-196521900D02*
X194958027Y-196450471D01*
X194958027Y-196450471D02*
X194886598Y-196307614D01*
X194886598Y-196307614D02*
X194815170Y-196021900D01*
X194815170Y-196021900D02*
X194815170Y-195664757D01*
X194815170Y-195664757D02*
X194886598Y-195379042D01*
X194886598Y-195379042D02*
X194958027Y-195236185D01*
X194958027Y-195236185D02*
X195029456Y-195164757D01*
X195029456Y-195164757D02*
X195172313Y-195093328D01*
X196315169Y-196450471D02*
X196386598Y-196521900D01*
X196386598Y-196521900D02*
X196315169Y-196593328D01*
X196315169Y-196593328D02*
X196243741Y-196521900D01*
X196243741Y-196521900D02*
X196315169Y-196450471D01*
X196315169Y-196450471D02*
X196315169Y-196593328D01*
X197315170Y-195093328D02*
X197458027Y-195093328D01*
X197458027Y-195093328D02*
X197600884Y-195164757D01*
X197600884Y-195164757D02*
X197672313Y-195236185D01*
X197672313Y-195236185D02*
X197743741Y-195379042D01*
X197743741Y-195379042D02*
X197815170Y-195664757D01*
X197815170Y-195664757D02*
X197815170Y-196021900D01*
X197815170Y-196021900D02*
X197743741Y-196307614D01*
X197743741Y-196307614D02*
X197672313Y-196450471D01*
X197672313Y-196450471D02*
X197600884Y-196521900D01*
X197600884Y-196521900D02*
X197458027Y-196593328D01*
X197458027Y-196593328D02*
X197315170Y-196593328D01*
X197315170Y-196593328D02*
X197172313Y-196521900D01*
X197172313Y-196521900D02*
X197100884Y-196450471D01*
X197100884Y-196450471D02*
X197029455Y-196307614D01*
X197029455Y-196307614D02*
X196958027Y-196021900D01*
X196958027Y-196021900D02*
X196958027Y-195664757D01*
X196958027Y-195664757D02*
X197029455Y-195379042D01*
X197029455Y-195379042D02*
X197100884Y-195236185D01*
X197100884Y-195236185D02*
X197172313Y-195164757D01*
X197172313Y-195164757D02*
X197315170Y-195093328D01*
X198458026Y-196450471D02*
X198529455Y-196521900D01*
X198529455Y-196521900D02*
X198458026Y-196593328D01*
X198458026Y-196593328D02*
X198386598Y-196521900D01*
X198386598Y-196521900D02*
X198458026Y-196450471D01*
X198458026Y-196450471D02*
X198458026Y-196593328D01*
X199029455Y-195093328D02*
X199958027Y-195093328D01*
X199958027Y-195093328D02*
X199458027Y-195664757D01*
X199458027Y-195664757D02*
X199672312Y-195664757D01*
X199672312Y-195664757D02*
X199815170Y-195736185D01*
X199815170Y-195736185D02*
X199886598Y-195807614D01*
X199886598Y-195807614D02*
X199958027Y-195950471D01*
X199958027Y-195950471D02*
X199958027Y-196307614D01*
X199958027Y-196307614D02*
X199886598Y-196450471D01*
X199886598Y-196450471D02*
X199815170Y-196521900D01*
X199815170Y-196521900D02*
X199672312Y-196593328D01*
X199672312Y-196593328D02*
X199243741Y-196593328D01*
X199243741Y-196593328D02*
X199100884Y-196521900D01*
X199100884Y-196521900D02*
X199029455Y-196450471D01*
X177002200Y-191507200D02*
X285002200Y-191507200D01*
D11*
X264413853Y-193785528D02*
X263913853Y-193071242D01*
X263556710Y-193785528D02*
X263556710Y-192285528D01*
X263556710Y-192285528D02*
X264128139Y-192285528D01*
X264128139Y-192285528D02*
X264270996Y-192356957D01*
X264270996Y-192356957D02*
X264342425Y-192428385D01*
X264342425Y-192428385D02*
X264413853Y-192571242D01*
X264413853Y-192571242D02*
X264413853Y-192785528D01*
X264413853Y-192785528D02*
X264342425Y-192928385D01*
X264342425Y-192928385D02*
X264270996Y-192999814D01*
X264270996Y-192999814D02*
X264128139Y-193071242D01*
X264128139Y-193071242D02*
X263556710Y-193071242D01*
X265628139Y-193714100D02*
X265485282Y-193785528D01*
X265485282Y-193785528D02*
X265199568Y-193785528D01*
X265199568Y-193785528D02*
X265056710Y-193714100D01*
X265056710Y-193714100D02*
X264985282Y-193571242D01*
X264985282Y-193571242D02*
X264985282Y-192999814D01*
X264985282Y-192999814D02*
X265056710Y-192856957D01*
X265056710Y-192856957D02*
X265199568Y-192785528D01*
X265199568Y-192785528D02*
X265485282Y-192785528D01*
X265485282Y-192785528D02*
X265628139Y-192856957D01*
X265628139Y-192856957D02*
X265699568Y-192999814D01*
X265699568Y-192999814D02*
X265699568Y-193142671D01*
X265699568Y-193142671D02*
X264985282Y-193285528D01*
X266199567Y-192785528D02*
X266556710Y-193785528D01*
X266556710Y-193785528D02*
X266913853Y-192785528D01*
X267485281Y-193642671D02*
X267556710Y-193714100D01*
X267556710Y-193714100D02*
X267485281Y-193785528D01*
X267485281Y-193785528D02*
X267413853Y-193714100D01*
X267413853Y-193714100D02*
X267485281Y-193642671D01*
X267485281Y-193642671D02*
X267485281Y-193785528D01*
X267485281Y-192856957D02*
X267556710Y-192928385D01*
X267556710Y-192928385D02*
X267485281Y-192999814D01*
X267485281Y-192999814D02*
X267413853Y-192928385D01*
X267413853Y-192928385D02*
X267485281Y-192856957D01*
X267485281Y-192856957D02*
X267485281Y-192999814D01*
X269628139Y-192285528D02*
X269770996Y-192285528D01*
X269770996Y-192285528D02*
X269913853Y-192356957D01*
X269913853Y-192356957D02*
X269985282Y-192428385D01*
X269985282Y-192428385D02*
X270056710Y-192571242D01*
X270056710Y-192571242D02*
X270128139Y-192856957D01*
X270128139Y-192856957D02*
X270128139Y-193214100D01*
X270128139Y-193214100D02*
X270056710Y-193499814D01*
X270056710Y-193499814D02*
X269985282Y-193642671D01*
X269985282Y-193642671D02*
X269913853Y-193714100D01*
X269913853Y-193714100D02*
X269770996Y-193785528D01*
X269770996Y-193785528D02*
X269628139Y-193785528D01*
X269628139Y-193785528D02*
X269485282Y-193714100D01*
X269485282Y-193714100D02*
X269413853Y-193642671D01*
X269413853Y-193642671D02*
X269342424Y-193499814D01*
X269342424Y-193499814D02*
X269270996Y-193214100D01*
X269270996Y-193214100D02*
X269270996Y-192856957D01*
X269270996Y-192856957D02*
X269342424Y-192571242D01*
X269342424Y-192571242D02*
X269413853Y-192428385D01*
X269413853Y-192428385D02*
X269485282Y-192356957D01*
X269485282Y-192356957D02*
X269628139Y-192285528D01*
X271056710Y-192285528D02*
X271199567Y-192285528D01*
X271199567Y-192285528D02*
X271342424Y-192356957D01*
X271342424Y-192356957D02*
X271413853Y-192428385D01*
X271413853Y-192428385D02*
X271485281Y-192571242D01*
X271485281Y-192571242D02*
X271556710Y-192856957D01*
X271556710Y-192856957D02*
X271556710Y-193214100D01*
X271556710Y-193214100D02*
X271485281Y-193499814D01*
X271485281Y-193499814D02*
X271413853Y-193642671D01*
X271413853Y-193642671D02*
X271342424Y-193714100D01*
X271342424Y-193714100D02*
X271199567Y-193785528D01*
X271199567Y-193785528D02*
X271056710Y-193785528D01*
X271056710Y-193785528D02*
X270913853Y-193714100D01*
X270913853Y-193714100D02*
X270842424Y-193642671D01*
X270842424Y-193642671D02*
X270770995Y-193499814D01*
X270770995Y-193499814D02*
X270699567Y-193214100D01*
X270699567Y-193214100D02*
X270699567Y-192856957D01*
X270699567Y-192856957D02*
X270770995Y-192571242D01*
X270770995Y-192571242D02*
X270842424Y-192428385D01*
X270842424Y-192428385D02*
X270913853Y-192356957D01*
X270913853Y-192356957D02*
X271056710Y-192285528D01*
X272985281Y-193785528D02*
X272128138Y-193785528D01*
X272556709Y-193785528D02*
X272556709Y-192285528D01*
X272556709Y-192285528D02*
X272413852Y-192499814D01*
X272413852Y-192499814D02*
X272270995Y-192642671D01*
X272270995Y-192642671D02*
X272128138Y-192714100D01*
D10*
X178386598Y-193721900D02*
X178600884Y-193793328D01*
X178600884Y-193793328D02*
X178958026Y-193793328D01*
X178958026Y-193793328D02*
X179100884Y-193721900D01*
X179100884Y-193721900D02*
X179172312Y-193650471D01*
X179172312Y-193650471D02*
X179243741Y-193507614D01*
X179243741Y-193507614D02*
X179243741Y-193364757D01*
X179243741Y-193364757D02*
X179172312Y-193221900D01*
X179172312Y-193221900D02*
X179100884Y-193150471D01*
X179100884Y-193150471D02*
X178958026Y-193079042D01*
X178958026Y-193079042D02*
X178672312Y-193007614D01*
X178672312Y-193007614D02*
X178529455Y-192936185D01*
X178529455Y-192936185D02*
X178458026Y-192864757D01*
X178458026Y-192864757D02*
X178386598Y-192721900D01*
X178386598Y-192721900D02*
X178386598Y-192579042D01*
X178386598Y-192579042D02*
X178458026Y-192436185D01*
X178458026Y-192436185D02*
X178529455Y-192364757D01*
X178529455Y-192364757D02*
X178672312Y-192293328D01*
X178672312Y-192293328D02*
X179029455Y-192293328D01*
X179029455Y-192293328D02*
X179243741Y-192364757D01*
X179886597Y-193793328D02*
X179886597Y-192793328D01*
X179886597Y-192293328D02*
X179815169Y-192364757D01*
X179815169Y-192364757D02*
X179886597Y-192436185D01*
X179886597Y-192436185D02*
X179958026Y-192364757D01*
X179958026Y-192364757D02*
X179886597Y-192293328D01*
X179886597Y-192293328D02*
X179886597Y-192436185D01*
X180458026Y-192793328D02*
X181243741Y-192793328D01*
X181243741Y-192793328D02*
X180458026Y-193793328D01*
X180458026Y-193793328D02*
X181243741Y-193793328D01*
X182386598Y-193721900D02*
X182243741Y-193793328D01*
X182243741Y-193793328D02*
X181958027Y-193793328D01*
X181958027Y-193793328D02*
X181815169Y-193721900D01*
X181815169Y-193721900D02*
X181743741Y-193579042D01*
X181743741Y-193579042D02*
X181743741Y-193007614D01*
X181743741Y-193007614D02*
X181815169Y-192864757D01*
X181815169Y-192864757D02*
X181958027Y-192793328D01*
X181958027Y-192793328D02*
X182243741Y-192793328D01*
X182243741Y-192793328D02*
X182386598Y-192864757D01*
X182386598Y-192864757D02*
X182458027Y-193007614D01*
X182458027Y-193007614D02*
X182458027Y-193150471D01*
X182458027Y-193150471D02*
X181743741Y-193293328D01*
X183100883Y-193650471D02*
X183172312Y-193721900D01*
X183172312Y-193721900D02*
X183100883Y-193793328D01*
X183100883Y-193793328D02*
X183029455Y-193721900D01*
X183029455Y-193721900D02*
X183100883Y-193650471D01*
X183100883Y-193650471D02*
X183100883Y-193793328D01*
X183100883Y-192864757D02*
X183172312Y-192936185D01*
X183172312Y-192936185D02*
X183100883Y-193007614D01*
X183100883Y-193007614D02*
X183029455Y-192936185D01*
X183029455Y-192936185D02*
X183100883Y-192864757D01*
X183100883Y-192864757D02*
X183100883Y-193007614D01*
X184886598Y-193364757D02*
X185600884Y-193364757D01*
X184743741Y-193793328D02*
X185243741Y-192293328D01*
X185243741Y-192293328D02*
X185743741Y-193793328D01*
X186886598Y-192793328D02*
X186886598Y-193793328D01*
X186529455Y-192221900D02*
X186172312Y-193293328D01*
X186172312Y-193293328D02*
X187100883Y-193293328D01*
X263458026Y-196593328D02*
X263458026Y-195093328D01*
X264815170Y-196593328D02*
X264815170Y-195093328D01*
X264815170Y-196521900D02*
X264672312Y-196593328D01*
X264672312Y-196593328D02*
X264386598Y-196593328D01*
X264386598Y-196593328D02*
X264243741Y-196521900D01*
X264243741Y-196521900D02*
X264172312Y-196450471D01*
X264172312Y-196450471D02*
X264100884Y-196307614D01*
X264100884Y-196307614D02*
X264100884Y-195879042D01*
X264100884Y-195879042D02*
X264172312Y-195736185D01*
X264172312Y-195736185D02*
X264243741Y-195664757D01*
X264243741Y-195664757D02*
X264386598Y-195593328D01*
X264386598Y-195593328D02*
X264672312Y-195593328D01*
X264672312Y-195593328D02*
X264815170Y-195664757D01*
X265529455Y-196450471D02*
X265600884Y-196521900D01*
X265600884Y-196521900D02*
X265529455Y-196593328D01*
X265529455Y-196593328D02*
X265458027Y-196521900D01*
X265458027Y-196521900D02*
X265529455Y-196450471D01*
X265529455Y-196450471D02*
X265529455Y-196593328D01*
X265529455Y-195664757D02*
X265600884Y-195736185D01*
X265600884Y-195736185D02*
X265529455Y-195807614D01*
X265529455Y-195807614D02*
X265458027Y-195736185D01*
X265458027Y-195736185D02*
X265529455Y-195664757D01*
X265529455Y-195664757D02*
X265529455Y-195807614D01*
X267243741Y-195093328D02*
X268172313Y-195093328D01*
X268172313Y-195093328D02*
X267672313Y-195664757D01*
X267672313Y-195664757D02*
X267886598Y-195664757D01*
X267886598Y-195664757D02*
X268029456Y-195736185D01*
X268029456Y-195736185D02*
X268100884Y-195807614D01*
X268100884Y-195807614D02*
X268172313Y-195950471D01*
X268172313Y-195950471D02*
X268172313Y-196307614D01*
X268172313Y-196307614D02*
X268100884Y-196450471D01*
X268100884Y-196450471D02*
X268029456Y-196521900D01*
X268029456Y-196521900D02*
X267886598Y-196593328D01*
X267886598Y-196593328D02*
X267458027Y-196593328D01*
X267458027Y-196593328D02*
X267315170Y-196521900D01*
X267315170Y-196521900D02*
X267243741Y-196450471D01*
X269886598Y-195021900D02*
X268600884Y-196950471D01*
X271172313Y-196593328D02*
X270315170Y-196593328D01*
X270743741Y-196593328D02*
X270743741Y-195093328D01*
X270743741Y-195093328D02*
X270600884Y-195307614D01*
X270600884Y-195307614D02*
X270458027Y-195450471D01*
X270458027Y-195450471D02*
X270315170Y-195521900D01*
X272600884Y-196593328D02*
X271743741Y-196593328D01*
X272172312Y-196593328D02*
X272172312Y-195093328D01*
X272172312Y-195093328D02*
X272029455Y-195307614D01*
X272029455Y-195307614D02*
X271886598Y-195450471D01*
X271886598Y-195450471D02*
X271743741Y-195521900D01*
X177002200Y-187507200D02*
X285002200Y-187507200D01*
D12*
X178693928Y-188211638D02*
X179836785Y-188211638D01*
X179015357Y-190211638D02*
X179265357Y-188211638D01*
X180253452Y-190211638D02*
X180420119Y-188878304D01*
X180503452Y-188211638D02*
X180396309Y-188306876D01*
X180396309Y-188306876D02*
X180479643Y-188402114D01*
X180479643Y-188402114D02*
X180586786Y-188306876D01*
X180586786Y-188306876D02*
X180503452Y-188211638D01*
X180503452Y-188211638D02*
X180479643Y-188402114D01*
X181086786Y-188878304D02*
X181848690Y-188878304D01*
X181455833Y-188211638D02*
X181241548Y-189925923D01*
X181241548Y-189925923D02*
X181312976Y-190116400D01*
X181312976Y-190116400D02*
X181491548Y-190211638D01*
X181491548Y-190211638D02*
X181682024Y-190211638D01*
X182634405Y-190211638D02*
X182455833Y-190116400D01*
X182455833Y-190116400D02*
X182384405Y-189925923D01*
X182384405Y-189925923D02*
X182598690Y-188211638D01*
X184170119Y-190116400D02*
X183967738Y-190211638D01*
X183967738Y-190211638D02*
X183586785Y-190211638D01*
X183586785Y-190211638D02*
X183408214Y-190116400D01*
X183408214Y-190116400D02*
X183336785Y-189925923D01*
X183336785Y-189925923D02*
X183432024Y-189164019D01*
X183432024Y-189164019D02*
X183551071Y-188973542D01*
X183551071Y-188973542D02*
X183753452Y-188878304D01*
X183753452Y-188878304D02*
X184134404Y-188878304D01*
X184134404Y-188878304D02*
X184312976Y-188973542D01*
X184312976Y-188973542D02*
X184384404Y-189164019D01*
X184384404Y-189164019D02*
X184360595Y-189354495D01*
X184360595Y-189354495D02*
X183384404Y-189544971D01*
X185134405Y-190021161D02*
X185217738Y-190116400D01*
X185217738Y-190116400D02*
X185110595Y-190211638D01*
X185110595Y-190211638D02*
X185027262Y-190116400D01*
X185027262Y-190116400D02*
X185134405Y-190021161D01*
X185134405Y-190021161D02*
X185110595Y-190211638D01*
X185265357Y-188973542D02*
X185348690Y-189068780D01*
X185348690Y-189068780D02*
X185241548Y-189164019D01*
X185241548Y-189164019D02*
X185158214Y-189068780D01*
X185158214Y-189068780D02*
X185265357Y-188973542D01*
X185265357Y-188973542D02*
X185241548Y-189164019D01*
X188384405Y-189164019D02*
X187717739Y-189164019D01*
X187586786Y-190211638D02*
X187836786Y-188211638D01*
X187836786Y-188211638D02*
X188789167Y-188211638D01*
X190158215Y-190211638D02*
X190289167Y-189164019D01*
X190289167Y-189164019D02*
X190217739Y-188973542D01*
X190217739Y-188973542D02*
X190039167Y-188878304D01*
X190039167Y-188878304D02*
X189658215Y-188878304D01*
X189658215Y-188878304D02*
X189455834Y-188973542D01*
X190170120Y-190116400D02*
X189967739Y-190211638D01*
X189967739Y-190211638D02*
X189491548Y-190211638D01*
X189491548Y-190211638D02*
X189312977Y-190116400D01*
X189312977Y-190116400D02*
X189241548Y-189925923D01*
X189241548Y-189925923D02*
X189265358Y-189735447D01*
X189265358Y-189735447D02*
X189384406Y-189544971D01*
X189384406Y-189544971D02*
X189586787Y-189449733D01*
X189586787Y-189449733D02*
X190062977Y-189449733D01*
X190062977Y-189449733D02*
X190265358Y-189354495D01*
X191110596Y-190211638D02*
X191277263Y-188878304D01*
X191360596Y-188211638D02*
X191253453Y-188306876D01*
X191253453Y-188306876D02*
X191336787Y-188402114D01*
X191336787Y-188402114D02*
X191443930Y-188306876D01*
X191443930Y-188306876D02*
X191360596Y-188211638D01*
X191360596Y-188211638D02*
X191336787Y-188402114D01*
X192348692Y-190211638D02*
X192170120Y-190116400D01*
X192170120Y-190116400D02*
X192098692Y-189925923D01*
X192098692Y-189925923D02*
X192312977Y-188211638D01*
X193110596Y-190211638D02*
X193360596Y-188211638D01*
X193360596Y-188211638D02*
X193836787Y-188211638D01*
X193836787Y-188211638D02*
X194110596Y-188306876D01*
X194110596Y-188306876D02*
X194277263Y-188497352D01*
X194277263Y-188497352D02*
X194348691Y-188687828D01*
X194348691Y-188687828D02*
X194396311Y-189068780D01*
X194396311Y-189068780D02*
X194360596Y-189354495D01*
X194360596Y-189354495D02*
X194217739Y-189735447D01*
X194217739Y-189735447D02*
X194098691Y-189925923D01*
X194098691Y-189925923D02*
X193884406Y-190116400D01*
X193884406Y-190116400D02*
X193586787Y-190211638D01*
X193586787Y-190211638D02*
X193110596Y-190211638D01*
X195884406Y-190116400D02*
X195682025Y-190211638D01*
X195682025Y-190211638D02*
X195301072Y-190211638D01*
X195301072Y-190211638D02*
X195122501Y-190116400D01*
X195122501Y-190116400D02*
X195051072Y-189925923D01*
X195051072Y-189925923D02*
X195146311Y-189164019D01*
X195146311Y-189164019D02*
X195265358Y-188973542D01*
X195265358Y-188973542D02*
X195467739Y-188878304D01*
X195467739Y-188878304D02*
X195848691Y-188878304D01*
X195848691Y-188878304D02*
X196027263Y-188973542D01*
X196027263Y-188973542D02*
X196098691Y-189164019D01*
X196098691Y-189164019D02*
X196074882Y-189354495D01*
X196074882Y-189354495D02*
X195098691Y-189544971D01*
X197682025Y-190211638D02*
X197812977Y-189164019D01*
X197812977Y-189164019D02*
X197741549Y-188973542D01*
X197741549Y-188973542D02*
X197562977Y-188878304D01*
X197562977Y-188878304D02*
X197182025Y-188878304D01*
X197182025Y-188878304D02*
X196979644Y-188973542D01*
X197693930Y-190116400D02*
X197491549Y-190211638D01*
X197491549Y-190211638D02*
X197015358Y-190211638D01*
X197015358Y-190211638D02*
X196836787Y-190116400D01*
X196836787Y-190116400D02*
X196765358Y-189925923D01*
X196765358Y-189925923D02*
X196789168Y-189735447D01*
X196789168Y-189735447D02*
X196908216Y-189544971D01*
X196908216Y-189544971D02*
X197110597Y-189449733D01*
X197110597Y-189449733D02*
X197586787Y-189449733D01*
X197586787Y-189449733D02*
X197789168Y-189354495D01*
X199491549Y-190211638D02*
X199741549Y-188211638D01*
X199503454Y-190116400D02*
X199301073Y-190211638D01*
X199301073Y-190211638D02*
X198920121Y-190211638D01*
X198920121Y-190211638D02*
X198741549Y-190116400D01*
X198741549Y-190116400D02*
X198658216Y-190021161D01*
X198658216Y-190021161D02*
X198586787Y-189830685D01*
X198586787Y-189830685D02*
X198658216Y-189259257D01*
X198658216Y-189259257D02*
X198777263Y-189068780D01*
X198777263Y-189068780D02*
X198884406Y-188973542D01*
X198884406Y-188973542D02*
X199086787Y-188878304D01*
X199086787Y-188878304D02*
X199467740Y-188878304D01*
X199467740Y-188878304D02*
X199646311Y-188973542D01*
X200729645Y-190211638D02*
X200551073Y-190116400D01*
X200551073Y-190116400D02*
X200479645Y-189925923D01*
X200479645Y-189925923D02*
X200693930Y-188211638D01*
X201467740Y-188878304D02*
X201777264Y-190211638D01*
X202420121Y-188878304D02*
X201777264Y-190211638D01*
X201777264Y-190211638D02*
X201527264Y-190687828D01*
X201527264Y-190687828D02*
X201420121Y-190783066D01*
X201420121Y-190783066D02*
X201217740Y-190878304D01*
X204539169Y-190211638D02*
X204789169Y-188211638D01*
X204789169Y-188211638D02*
X205551074Y-188211638D01*
X205551074Y-188211638D02*
X205729645Y-188306876D01*
X205729645Y-188306876D02*
X205812979Y-188402114D01*
X205812979Y-188402114D02*
X205884407Y-188592590D01*
X205884407Y-188592590D02*
X205848693Y-188878304D01*
X205848693Y-188878304D02*
X205729645Y-189068780D01*
X205729645Y-189068780D02*
X205622503Y-189164019D01*
X205622503Y-189164019D02*
X205420122Y-189259257D01*
X205420122Y-189259257D02*
X204658217Y-189259257D01*
X207705836Y-190021161D02*
X207598693Y-190116400D01*
X207598693Y-190116400D02*
X207301074Y-190211638D01*
X207301074Y-190211638D02*
X207110598Y-190211638D01*
X207110598Y-190211638D02*
X206836788Y-190116400D01*
X206836788Y-190116400D02*
X206670122Y-189925923D01*
X206670122Y-189925923D02*
X206598693Y-189735447D01*
X206598693Y-189735447D02*
X206551074Y-189354495D01*
X206551074Y-189354495D02*
X206586788Y-189068780D01*
X206586788Y-189068780D02*
X206729645Y-188687828D01*
X206729645Y-188687828D02*
X206848693Y-188497352D01*
X206848693Y-188497352D02*
X207062979Y-188306876D01*
X207062979Y-188306876D02*
X207360598Y-188211638D01*
X207360598Y-188211638D02*
X207551074Y-188211638D01*
X207551074Y-188211638D02*
X207824884Y-188306876D01*
X207824884Y-188306876D02*
X207908217Y-188402114D01*
X209336788Y-189164019D02*
X209610598Y-189259257D01*
X209610598Y-189259257D02*
X209693931Y-189354495D01*
X209693931Y-189354495D02*
X209765360Y-189544971D01*
X209765360Y-189544971D02*
X209729645Y-189830685D01*
X209729645Y-189830685D02*
X209610598Y-190021161D01*
X209610598Y-190021161D02*
X209503455Y-190116400D01*
X209503455Y-190116400D02*
X209301074Y-190211638D01*
X209301074Y-190211638D02*
X208539169Y-190211638D01*
X208539169Y-190211638D02*
X208789169Y-188211638D01*
X208789169Y-188211638D02*
X209455836Y-188211638D01*
X209455836Y-188211638D02*
X209634407Y-188306876D01*
X209634407Y-188306876D02*
X209717741Y-188402114D01*
X209717741Y-188402114D02*
X209789169Y-188592590D01*
X209789169Y-188592590D02*
X209765360Y-188783066D01*
X209765360Y-188783066D02*
X209646312Y-188973542D01*
X209646312Y-188973542D02*
X209539169Y-189068780D01*
X209539169Y-189068780D02*
X209336788Y-189164019D01*
X209336788Y-189164019D02*
X208670122Y-189164019D01*
D10*
X178958026Y-185607614D02*
X178458026Y-185607614D01*
X178458026Y-186393328D02*
X178458026Y-184893328D01*
X178458026Y-184893328D02*
X179172312Y-184893328D01*
X179743740Y-186393328D02*
X179743740Y-185393328D01*
X179743740Y-184893328D02*
X179672312Y-184964757D01*
X179672312Y-184964757D02*
X179743740Y-185036185D01*
X179743740Y-185036185D02*
X179815169Y-184964757D01*
X179815169Y-184964757D02*
X179743740Y-184893328D01*
X179743740Y-184893328D02*
X179743740Y-185036185D01*
X180672312Y-186393328D02*
X180529455Y-186321900D01*
X180529455Y-186321900D02*
X180458026Y-186179042D01*
X180458026Y-186179042D02*
X180458026Y-184893328D01*
X181815169Y-186321900D02*
X181672312Y-186393328D01*
X181672312Y-186393328D02*
X181386598Y-186393328D01*
X181386598Y-186393328D02*
X181243740Y-186321900D01*
X181243740Y-186321900D02*
X181172312Y-186179042D01*
X181172312Y-186179042D02*
X181172312Y-185607614D01*
X181172312Y-185607614D02*
X181243740Y-185464757D01*
X181243740Y-185464757D02*
X181386598Y-185393328D01*
X181386598Y-185393328D02*
X181672312Y-185393328D01*
X181672312Y-185393328D02*
X181815169Y-185464757D01*
X181815169Y-185464757D02*
X181886598Y-185607614D01*
X181886598Y-185607614D02*
X181886598Y-185750471D01*
X181886598Y-185750471D02*
X181172312Y-185893328D01*
X182529454Y-186250471D02*
X182600883Y-186321900D01*
X182600883Y-186321900D02*
X182529454Y-186393328D01*
X182529454Y-186393328D02*
X182458026Y-186321900D01*
X182458026Y-186321900D02*
X182529454Y-186250471D01*
X182529454Y-186250471D02*
X182529454Y-186393328D01*
X182529454Y-185464757D02*
X182600883Y-185536185D01*
X182600883Y-185536185D02*
X182529454Y-185607614D01*
X182529454Y-185607614D02*
X182458026Y-185536185D01*
X182458026Y-185536185D02*
X182529454Y-185464757D01*
X182529454Y-185464757D02*
X182529454Y-185607614D01*
X184886597Y-185607614D02*
X184386597Y-185607614D01*
X184386597Y-186393328D02*
X184386597Y-184893328D01*
X184386597Y-184893328D02*
X185100883Y-184893328D01*
X186315169Y-186393328D02*
X186315169Y-185607614D01*
X186315169Y-185607614D02*
X186243740Y-185464757D01*
X186243740Y-185464757D02*
X186100883Y-185393328D01*
X186100883Y-185393328D02*
X185815169Y-185393328D01*
X185815169Y-185393328D02*
X185672311Y-185464757D01*
X186315169Y-186321900D02*
X186172311Y-186393328D01*
X186172311Y-186393328D02*
X185815169Y-186393328D01*
X185815169Y-186393328D02*
X185672311Y-186321900D01*
X185672311Y-186321900D02*
X185600883Y-186179042D01*
X185600883Y-186179042D02*
X185600883Y-186036185D01*
X185600883Y-186036185D02*
X185672311Y-185893328D01*
X185672311Y-185893328D02*
X185815169Y-185821900D01*
X185815169Y-185821900D02*
X186172311Y-185821900D01*
X186172311Y-185821900D02*
X186315169Y-185750471D01*
X187029454Y-186393328D02*
X187029454Y-185393328D01*
X187029454Y-184893328D02*
X186958026Y-184964757D01*
X186958026Y-184964757D02*
X187029454Y-185036185D01*
X187029454Y-185036185D02*
X187100883Y-184964757D01*
X187100883Y-184964757D02*
X187029454Y-184893328D01*
X187029454Y-184893328D02*
X187029454Y-185036185D01*
X187958026Y-186393328D02*
X187815169Y-186321900D01*
X187815169Y-186321900D02*
X187743740Y-186179042D01*
X187743740Y-186179042D02*
X187743740Y-184893328D01*
X188529454Y-186393328D02*
X188529454Y-184893328D01*
X188529454Y-184893328D02*
X188886597Y-184893328D01*
X188886597Y-184893328D02*
X189100883Y-184964757D01*
X189100883Y-184964757D02*
X189243740Y-185107614D01*
X189243740Y-185107614D02*
X189315169Y-185250471D01*
X189315169Y-185250471D02*
X189386597Y-185536185D01*
X189386597Y-185536185D02*
X189386597Y-185750471D01*
X189386597Y-185750471D02*
X189315169Y-186036185D01*
X189315169Y-186036185D02*
X189243740Y-186179042D01*
X189243740Y-186179042D02*
X189100883Y-186321900D01*
X189100883Y-186321900D02*
X188886597Y-186393328D01*
X188886597Y-186393328D02*
X188529454Y-186393328D01*
X190600883Y-186321900D02*
X190458026Y-186393328D01*
X190458026Y-186393328D02*
X190172312Y-186393328D01*
X190172312Y-186393328D02*
X190029454Y-186321900D01*
X190029454Y-186321900D02*
X189958026Y-186179042D01*
X189958026Y-186179042D02*
X189958026Y-185607614D01*
X189958026Y-185607614D02*
X190029454Y-185464757D01*
X190029454Y-185464757D02*
X190172312Y-185393328D01*
X190172312Y-185393328D02*
X190458026Y-185393328D01*
X190458026Y-185393328D02*
X190600883Y-185464757D01*
X190600883Y-185464757D02*
X190672312Y-185607614D01*
X190672312Y-185607614D02*
X190672312Y-185750471D01*
X190672312Y-185750471D02*
X189958026Y-185893328D01*
X191958026Y-186393328D02*
X191958026Y-185607614D01*
X191958026Y-185607614D02*
X191886597Y-185464757D01*
X191886597Y-185464757D02*
X191743740Y-185393328D01*
X191743740Y-185393328D02*
X191458026Y-185393328D01*
X191458026Y-185393328D02*
X191315168Y-185464757D01*
X191958026Y-186321900D02*
X191815168Y-186393328D01*
X191815168Y-186393328D02*
X191458026Y-186393328D01*
X191458026Y-186393328D02*
X191315168Y-186321900D01*
X191315168Y-186321900D02*
X191243740Y-186179042D01*
X191243740Y-186179042D02*
X191243740Y-186036185D01*
X191243740Y-186036185D02*
X191315168Y-185893328D01*
X191315168Y-185893328D02*
X191458026Y-185821900D01*
X191458026Y-185821900D02*
X191815168Y-185821900D01*
X191815168Y-185821900D02*
X191958026Y-185750471D01*
X193315169Y-186393328D02*
X193315169Y-184893328D01*
X193315169Y-186321900D02*
X193172311Y-186393328D01*
X193172311Y-186393328D02*
X192886597Y-186393328D01*
X192886597Y-186393328D02*
X192743740Y-186321900D01*
X192743740Y-186321900D02*
X192672311Y-186250471D01*
X192672311Y-186250471D02*
X192600883Y-186107614D01*
X192600883Y-186107614D02*
X192600883Y-185679042D01*
X192600883Y-185679042D02*
X192672311Y-185536185D01*
X192672311Y-185536185D02*
X192743740Y-185464757D01*
X192743740Y-185464757D02*
X192886597Y-185393328D01*
X192886597Y-185393328D02*
X193172311Y-185393328D01*
X193172311Y-185393328D02*
X193315169Y-185464757D01*
X194243740Y-186393328D02*
X194100883Y-186321900D01*
X194100883Y-186321900D02*
X194029454Y-186179042D01*
X194029454Y-186179042D02*
X194029454Y-184893328D01*
X194672311Y-185393328D02*
X195029454Y-186393328D01*
X195386597Y-185393328D02*
X195029454Y-186393328D01*
X195029454Y-186393328D02*
X194886597Y-186750471D01*
X194886597Y-186750471D02*
X194815168Y-186821900D01*
X194815168Y-186821900D02*
X194672311Y-186893328D01*
X195958025Y-186250471D02*
X196029454Y-186321900D01*
X196029454Y-186321900D02*
X195958025Y-186393328D01*
X195958025Y-186393328D02*
X195886597Y-186321900D01*
X195886597Y-186321900D02*
X195958025Y-186250471D01*
X195958025Y-186250471D02*
X195958025Y-186393328D01*
X196672311Y-186393328D02*
X196672311Y-184893328D01*
X196815169Y-185821900D02*
X197243740Y-186393328D01*
X197243740Y-185393328D02*
X196672311Y-185964757D01*
X197886597Y-186393328D02*
X197886597Y-185393328D01*
X197886597Y-184893328D02*
X197815169Y-184964757D01*
X197815169Y-184964757D02*
X197886597Y-185036185D01*
X197886597Y-185036185D02*
X197958026Y-184964757D01*
X197958026Y-184964757D02*
X197886597Y-184893328D01*
X197886597Y-184893328D02*
X197886597Y-185036185D01*
X199243741Y-186321900D02*
X199100883Y-186393328D01*
X199100883Y-186393328D02*
X198815169Y-186393328D01*
X198815169Y-186393328D02*
X198672312Y-186321900D01*
X198672312Y-186321900D02*
X198600883Y-186250471D01*
X198600883Y-186250471D02*
X198529455Y-186107614D01*
X198529455Y-186107614D02*
X198529455Y-185679042D01*
X198529455Y-185679042D02*
X198600883Y-185536185D01*
X198600883Y-185536185D02*
X198672312Y-185464757D01*
X198672312Y-185464757D02*
X198815169Y-185393328D01*
X198815169Y-185393328D02*
X199100883Y-185393328D01*
X199100883Y-185393328D02*
X199243741Y-185464757D01*
X200529455Y-186393328D02*
X200529455Y-185607614D01*
X200529455Y-185607614D02*
X200458026Y-185464757D01*
X200458026Y-185464757D02*
X200315169Y-185393328D01*
X200315169Y-185393328D02*
X200029455Y-185393328D01*
X200029455Y-185393328D02*
X199886597Y-185464757D01*
X200529455Y-186321900D02*
X200386597Y-186393328D01*
X200386597Y-186393328D02*
X200029455Y-186393328D01*
X200029455Y-186393328D02*
X199886597Y-186321900D01*
X199886597Y-186321900D02*
X199815169Y-186179042D01*
X199815169Y-186179042D02*
X199815169Y-186036185D01*
X199815169Y-186036185D02*
X199886597Y-185893328D01*
X199886597Y-185893328D02*
X200029455Y-185821900D01*
X200029455Y-185821900D02*
X200386597Y-185821900D01*
X200386597Y-185821900D02*
X200529455Y-185750471D01*
X201886598Y-186393328D02*
X201886598Y-184893328D01*
X201886598Y-186321900D02*
X201743740Y-186393328D01*
X201743740Y-186393328D02*
X201458026Y-186393328D01*
X201458026Y-186393328D02*
X201315169Y-186321900D01*
X201315169Y-186321900D02*
X201243740Y-186250471D01*
X201243740Y-186250471D02*
X201172312Y-186107614D01*
X201172312Y-186107614D02*
X201172312Y-185679042D01*
X201172312Y-185679042D02*
X201243740Y-185536185D01*
X201243740Y-185536185D02*
X201315169Y-185464757D01*
X201315169Y-185464757D02*
X201458026Y-185393328D01*
X201458026Y-185393328D02*
X201743740Y-185393328D01*
X201743740Y-185393328D02*
X201886598Y-185464757D01*
X202243741Y-186536185D02*
X203386598Y-186536185D01*
X203743740Y-185393328D02*
X203743740Y-186893328D01*
X203743740Y-185464757D02*
X203886598Y-185393328D01*
X203886598Y-185393328D02*
X204172312Y-185393328D01*
X204172312Y-185393328D02*
X204315169Y-185464757D01*
X204315169Y-185464757D02*
X204386598Y-185536185D01*
X204386598Y-185536185D02*
X204458026Y-185679042D01*
X204458026Y-185679042D02*
X204458026Y-186107614D01*
X204458026Y-186107614D02*
X204386598Y-186250471D01*
X204386598Y-186250471D02*
X204315169Y-186321900D01*
X204315169Y-186321900D02*
X204172312Y-186393328D01*
X204172312Y-186393328D02*
X203886598Y-186393328D01*
X203886598Y-186393328D02*
X203743740Y-186321900D01*
X205743741Y-186321900D02*
X205600883Y-186393328D01*
X205600883Y-186393328D02*
X205315169Y-186393328D01*
X205315169Y-186393328D02*
X205172312Y-186321900D01*
X205172312Y-186321900D02*
X205100883Y-186250471D01*
X205100883Y-186250471D02*
X205029455Y-186107614D01*
X205029455Y-186107614D02*
X205029455Y-185679042D01*
X205029455Y-185679042D02*
X205100883Y-185536185D01*
X205100883Y-185536185D02*
X205172312Y-185464757D01*
X205172312Y-185464757D02*
X205315169Y-185393328D01*
X205315169Y-185393328D02*
X205600883Y-185393328D01*
X205600883Y-185393328D02*
X205743741Y-185464757D01*
X206386597Y-186393328D02*
X206386597Y-184893328D01*
X206386597Y-185464757D02*
X206529455Y-185393328D01*
X206529455Y-185393328D02*
X206815169Y-185393328D01*
X206815169Y-185393328D02*
X206958026Y-185464757D01*
X206958026Y-185464757D02*
X207029455Y-185536185D01*
X207029455Y-185536185D02*
X207100883Y-185679042D01*
X207100883Y-185679042D02*
X207100883Y-186107614D01*
X207100883Y-186107614D02*
X207029455Y-186250471D01*
X207029455Y-186250471D02*
X206958026Y-186321900D01*
X206958026Y-186321900D02*
X206815169Y-186393328D01*
X206815169Y-186393328D02*
X206529455Y-186393328D01*
X206529455Y-186393328D02*
X206386597Y-186321900D01*
X177002200Y-181507200D02*
X285002200Y-181507200D01*
X178386598Y-183621900D02*
X178600884Y-183693328D01*
X178600884Y-183693328D02*
X178958026Y-183693328D01*
X178958026Y-183693328D02*
X179100884Y-183621900D01*
X179100884Y-183621900D02*
X179172312Y-183550471D01*
X179172312Y-183550471D02*
X179243741Y-183407614D01*
X179243741Y-183407614D02*
X179243741Y-183264757D01*
X179243741Y-183264757D02*
X179172312Y-183121900D01*
X179172312Y-183121900D02*
X179100884Y-183050471D01*
X179100884Y-183050471D02*
X178958026Y-182979042D01*
X178958026Y-182979042D02*
X178672312Y-182907614D01*
X178672312Y-182907614D02*
X178529455Y-182836185D01*
X178529455Y-182836185D02*
X178458026Y-182764757D01*
X178458026Y-182764757D02*
X178386598Y-182621900D01*
X178386598Y-182621900D02*
X178386598Y-182479042D01*
X178386598Y-182479042D02*
X178458026Y-182336185D01*
X178458026Y-182336185D02*
X178529455Y-182264757D01*
X178529455Y-182264757D02*
X178672312Y-182193328D01*
X178672312Y-182193328D02*
X179029455Y-182193328D01*
X179029455Y-182193328D02*
X179243741Y-182264757D01*
X179886597Y-183693328D02*
X179886597Y-182193328D01*
X180529455Y-183693328D02*
X180529455Y-182907614D01*
X180529455Y-182907614D02*
X180458026Y-182764757D01*
X180458026Y-182764757D02*
X180315169Y-182693328D01*
X180315169Y-182693328D02*
X180100883Y-182693328D01*
X180100883Y-182693328D02*
X179958026Y-182764757D01*
X179958026Y-182764757D02*
X179886597Y-182836185D01*
X181815169Y-183621900D02*
X181672312Y-183693328D01*
X181672312Y-183693328D02*
X181386598Y-183693328D01*
X181386598Y-183693328D02*
X181243740Y-183621900D01*
X181243740Y-183621900D02*
X181172312Y-183479042D01*
X181172312Y-183479042D02*
X181172312Y-182907614D01*
X181172312Y-182907614D02*
X181243740Y-182764757D01*
X181243740Y-182764757D02*
X181386598Y-182693328D01*
X181386598Y-182693328D02*
X181672312Y-182693328D01*
X181672312Y-182693328D02*
X181815169Y-182764757D01*
X181815169Y-182764757D02*
X181886598Y-182907614D01*
X181886598Y-182907614D02*
X181886598Y-183050471D01*
X181886598Y-183050471D02*
X181172312Y-183193328D01*
X183100883Y-183621900D02*
X182958026Y-183693328D01*
X182958026Y-183693328D02*
X182672312Y-183693328D01*
X182672312Y-183693328D02*
X182529454Y-183621900D01*
X182529454Y-183621900D02*
X182458026Y-183479042D01*
X182458026Y-183479042D02*
X182458026Y-182907614D01*
X182458026Y-182907614D02*
X182529454Y-182764757D01*
X182529454Y-182764757D02*
X182672312Y-182693328D01*
X182672312Y-182693328D02*
X182958026Y-182693328D01*
X182958026Y-182693328D02*
X183100883Y-182764757D01*
X183100883Y-182764757D02*
X183172312Y-182907614D01*
X183172312Y-182907614D02*
X183172312Y-183050471D01*
X183172312Y-183050471D02*
X182458026Y-183193328D01*
X183600883Y-182693328D02*
X184172311Y-182693328D01*
X183815168Y-182193328D02*
X183815168Y-183479042D01*
X183815168Y-183479042D02*
X183886597Y-183621900D01*
X183886597Y-183621900D02*
X184029454Y-183693328D01*
X184029454Y-183693328D02*
X184172311Y-183693328D01*
X184672311Y-183550471D02*
X184743740Y-183621900D01*
X184743740Y-183621900D02*
X184672311Y-183693328D01*
X184672311Y-183693328D02*
X184600883Y-183621900D01*
X184600883Y-183621900D02*
X184672311Y-183550471D01*
X184672311Y-183550471D02*
X184672311Y-183693328D01*
X184672311Y-182764757D02*
X184743740Y-182836185D01*
X184743740Y-182836185D02*
X184672311Y-182907614D01*
X184672311Y-182907614D02*
X184600883Y-182836185D01*
X184600883Y-182836185D02*
X184672311Y-182764757D01*
X184672311Y-182764757D02*
X184672311Y-182907614D01*
X197002200Y-191507200D02*
X197002200Y-194507200D01*
X261002200Y-191507200D02*
X261002200Y-198007200D01*
D13*
%TO.N,Net-(J3-Pin_1)*%
%TO.C,J3*%
X122000000Y-105000000D03*
D14*
%TO.N,Net-(J3-Pin_2)*%
X122000000Y-102460000D03*
%TD*%
D15*
%TO.N,GND*%
%TO.C,J1*%
X102700000Y-118500000D03*
X102700000Y-106800000D03*
%TD*%
D16*
%TO.N,/Power/RAW_3.3V+*%
%TO.C,J2*%
X111750000Y-102975000D03*
D17*
%TO.N,GND*%
X114250000Y-102975000D03*
%TO.N,unconnected-(J2-Pin_3-Pad3)*%
X116750000Y-102975000D03*
%TD*%
D18*
%TO.N,GND*%
X113500000Y-120800000D03*
%TO.N,+3.3V*%
X107800000Y-109800000D03*
X153000000Y-119400000D03*
X120200000Y-122800000D03*
X119400000Y-122800000D03*
X160900000Y-102400000D03*
X148900000Y-110200000D03*
X141150000Y-106550000D03*
X152400000Y-119400000D03*
X149000000Y-115000000D03*
X108489997Y-109800000D03*
X109190000Y-109800000D03*
X149000000Y-103600000D03*
X121000000Y-122800000D03*
%TO.N,GND*%
X124975000Y-116800000D03*
X169000000Y-120000000D03*
X141600000Y-121600000D03*
X158200000Y-120550000D03*
X118875000Y-111800000D03*
X109400000Y-113000000D03*
X121750000Y-114000000D03*
X124250000Y-121650000D03*
X169000000Y-110000000D03*
X149800000Y-118400000D03*
X129200000Y-119800000D03*
X111600000Y-119000000D03*
X114500000Y-111400000D03*
X151750000Y-106750000D03*
X167600000Y-103200000D03*
X134950000Y-112350000D03*
X107000000Y-101000000D03*
X128000000Y-104000000D03*
X156400000Y-106600000D03*
X132000000Y-104000000D03*
X152000000Y-101250000D03*
X149600000Y-124000000D03*
X115500000Y-114975000D03*
X124400000Y-111800000D03*
X104000000Y-103800000D03*
X153900000Y-117200000D03*
X159750000Y-105250000D03*
X160900000Y-115600000D03*
X164250000Y-101250000D03*
X169000000Y-102500000D03*
X147500000Y-116700000D03*
X136000000Y-106000000D03*
X135700000Y-111600000D03*
X110300000Y-119500000D03*
X134950000Y-111600000D03*
X101000000Y-122000000D03*
X101000000Y-102800000D03*
X141250000Y-115000000D03*
X156250000Y-108750000D03*
X110300000Y-118900000D03*
X161100000Y-111000000D03*
X143425000Y-117200000D03*
X108300000Y-111775000D03*
X128250000Y-120250000D03*
X166500000Y-104000000D03*
X107625000Y-111175000D03*
X134200000Y-118300000D03*
X134950000Y-113100000D03*
X107300000Y-114400000D03*
X113300000Y-113100000D03*
X154250000Y-110600000D03*
X160900000Y-114200000D03*
X129700000Y-116600000D03*
X120625000Y-118800000D03*
X104000000Y-124000000D03*
X161000000Y-109250000D03*
X169000000Y-112500000D03*
X161800000Y-119600000D03*
X160750000Y-103500000D03*
X107200000Y-108350000D03*
X108000000Y-106000000D03*
X130000000Y-104000000D03*
X137200000Y-112350000D03*
X118225000Y-120150000D03*
X136450000Y-112350000D03*
X137200000Y-111600000D03*
X118875000Y-113400000D03*
X137250000Y-118100000D03*
X132500000Y-107800000D03*
X162800000Y-107200000D03*
X131750000Y-114250000D03*
X158000000Y-103500000D03*
X169000000Y-105000000D03*
X166600000Y-122800000D03*
X125600000Y-114800000D03*
X111600000Y-113100000D03*
X128000000Y-102000000D03*
X129950000Y-114200000D03*
X127400000Y-114500000D03*
X155250000Y-117500000D03*
X107250000Y-121250000D03*
X112750000Y-115375000D03*
X150525000Y-109200000D03*
X113600000Y-108500000D03*
X113800000Y-105000000D03*
X161100000Y-105400000D03*
X120000000Y-113750000D03*
X166500000Y-121000000D03*
X132000000Y-102000000D03*
X163000000Y-103250000D03*
X124600000Y-110200000D03*
X136450000Y-111600000D03*
X142000000Y-116750000D03*
X110000000Y-124000000D03*
X113000000Y-119000000D03*
X141700000Y-109017200D03*
X110250000Y-121250000D03*
X169000000Y-107500000D03*
X104000000Y-101000000D03*
X154000000Y-119400000D03*
X167600000Y-121800000D03*
X101000000Y-101000000D03*
X112000000Y-124000000D03*
X106000000Y-124000000D03*
X169000000Y-122500000D03*
X158000000Y-104750000D03*
X104000000Y-122000000D03*
X130750000Y-106750000D03*
X101000000Y-124000000D03*
X151750000Y-107500000D03*
X126500000Y-118600000D03*
X162800000Y-120400000D03*
X154000000Y-101250000D03*
X138350000Y-101525000D03*
X137250000Y-117100000D03*
X129750000Y-106750000D03*
X110300000Y-112300000D03*
X155100000Y-106800000D03*
X123100000Y-120325000D03*
X116600000Y-111200000D03*
X166500000Y-115000000D03*
X111850000Y-114475000D03*
X142200000Y-106750000D03*
X144550000Y-107800000D03*
X111000000Y-119200000D03*
X164250000Y-119750000D03*
X162600000Y-117600000D03*
X129500000Y-113700000D03*
X135700000Y-113100000D03*
X108900000Y-111100000D03*
X150600000Y-105100000D03*
X147775000Y-109975000D03*
X157400000Y-123200000D03*
X162800000Y-105400000D03*
X146600000Y-124000000D03*
X146525000Y-104425000D03*
X142000000Y-113700000D03*
X160000000Y-103500000D03*
X135700000Y-112350000D03*
X158750000Y-123250000D03*
X150200000Y-101300000D03*
X156750000Y-103500000D03*
X163600000Y-111200000D03*
X158000000Y-101250000D03*
X125400000Y-109400000D03*
X117175000Y-120750000D03*
X111500000Y-121250000D03*
X118000000Y-124000000D03*
X144700000Y-112900000D03*
X107250000Y-118250000D03*
X154500000Y-104575000D03*
X137200000Y-110850000D03*
X114800000Y-105000000D03*
X145900000Y-116800000D03*
X152300000Y-107100000D03*
X139000000Y-105000000D03*
X114000000Y-124000000D03*
X140300000Y-106750000D03*
X169000000Y-117500000D03*
X166500000Y-110000000D03*
X164250000Y-124000000D03*
X122000000Y-107200000D03*
X155300000Y-114700000D03*
X140800000Y-121600000D03*
X136450000Y-110850000D03*
X108300000Y-113500000D03*
X143400000Y-101100000D03*
X158400000Y-106600000D03*
X122400000Y-119600000D03*
X166500000Y-112500000D03*
X139600000Y-121400000D03*
X169000000Y-115000000D03*
X134100000Y-120600000D03*
X124250000Y-117650000D03*
X146000000Y-109150000D03*
X101000000Y-115800000D03*
X108000000Y-124000000D03*
X125600000Y-111800000D03*
X146800000Y-107400000D03*
X161800000Y-124100000D03*
X142000000Y-117550000D03*
X142000000Y-115750000D03*
X131100000Y-109800000D03*
X124400000Y-114800000D03*
X103600000Y-112600000D03*
X116000000Y-124000000D03*
X158550000Y-117550000D03*
X126600000Y-108200000D03*
X125600000Y-113400000D03*
X121750000Y-111250000D03*
X149200000Y-116000000D03*
X130000000Y-102000000D03*
X141700000Y-101100000D03*
X131100000Y-112000000D03*
X124400000Y-113400000D03*
X156460000Y-118900000D03*
X156000000Y-101250000D03*
X120250000Y-107600000D03*
X163800000Y-114400000D03*
X106000000Y-106000000D03*
X160750000Y-122200000D03*
X147250000Y-114000000D03*
X101000000Y-109400000D03*
X130000000Y-121200000D03*
X135700000Y-110850000D03*
X148000000Y-124000000D03*
X151300000Y-119400000D03*
X158600000Y-113800000D03*
X139175000Y-102750000D03*
X120000000Y-111250000D03*
X109200000Y-108350000D03*
X136450000Y-113100000D03*
X112400000Y-113100000D03*
X151200000Y-116000000D03*
X166500000Y-102300000D03*
X163750000Y-109500000D03*
X129800000Y-112000000D03*
X116900000Y-118900000D03*
X147500000Y-117400000D03*
%TO.N,VDD*%
X138200000Y-120200000D03*
X138400000Y-119350000D03*
X149600000Y-120200000D03*
X139500000Y-117750000D03*
X128600000Y-108000000D03*
X128500000Y-114500000D03*
X139500000Y-116750000D03*
X141750000Y-111500000D03*
X136600000Y-120200000D03*
X139400000Y-119350000D03*
X137400000Y-120200000D03*
%TO.N,PWR_DOWN*%
X126700000Y-111000000D03*
X126700000Y-117700000D03*
X119283183Y-107500000D03*
X122274817Y-110725183D03*
X137000000Y-107250000D03*
%TO.N,+3.3V_LDO*%
X157575000Y-116850000D03*
X119000000Y-116100000D03*
X157550000Y-117500000D03*
X119650000Y-116100000D03*
X125339753Y-110139753D03*
%TO.N,MCU_RST*%
X155750000Y-118250000D03*
X155850000Y-110500000D03*
X155750000Y-115550000D03*
X146000000Y-119000000D03*
X140800000Y-111475000D03*
%TO.N,HALL_DIRECT*%
X147275000Y-108975000D03*
X138500000Y-107400000D03*
X155500000Y-104700000D03*
%TO.N,/MCU/ION_TO_ADC*%
X123400000Y-107200000D03*
X139250000Y-106765600D03*
%TO.N,SWDIO*%
X130800000Y-114000000D03*
%TO.N,SWCLK*%
X132250000Y-116000000D03*
%TO.N,SWO*%
X132403899Y-116896101D03*
%TO.N,UART1_TX*%
X134500000Y-116500000D03*
%TO.N,UART1_RX*%
X133250000Y-116767200D03*
%TO.N,HALL_INV*%
X161000000Y-107600000D03*
X154800000Y-107800000D03*
%TO.N,/Power/USB_D-*%
X113641745Y-111768264D03*
X111198400Y-112300000D03*
%TO.N,/Power/USB_D+*%
X112001600Y-112300000D03*
X112986636Y-112309869D03*
%TD*%
%TO.N,+3.3V_LDO*%
D19*
X119500000Y-115950000D02*
X119650000Y-116100000D01*
%TO.N,/MCU/ION_TO_ADC*%
X123400000Y-107200000D02*
X123399999Y-107200001D01*
%TD*%
%TA.AperFunction,Conductor*%
%TO.N,GND*%
G36*
X169392606Y-100505523D02*
G01*
X169407604Y-100509927D01*
X169422594Y-100519557D01*
X169439675Y-100524567D01*
X169466355Y-100547672D01*
X169467542Y-100549041D01*
X169495018Y-100603902D01*
X169496663Y-100611460D01*
X169499500Y-100637831D01*
X169499500Y-124357670D01*
X169494475Y-124392614D01*
X169490070Y-124407612D01*
X169480439Y-124422601D01*
X169475432Y-124439675D01*
X169452327Y-124466355D01*
X169450958Y-124467542D01*
X169396097Y-124495018D01*
X169388539Y-124496663D01*
X169362168Y-124499500D01*
X100642330Y-124499500D01*
X100607389Y-124494475D01*
X100592390Y-124490070D01*
X100577402Y-124480440D01*
X100560324Y-124475432D01*
X100533644Y-124452327D01*
X100532457Y-124450958D01*
X100504977Y-124396083D01*
X100503332Y-124388521D01*
X100500500Y-124362168D01*
X100500500Y-120123804D01*
X100505521Y-120088877D01*
X100508707Y-120078024D01*
X100518341Y-120063029D01*
X100523362Y-120045924D01*
X100536837Y-120034244D01*
X100546477Y-120019243D01*
X100562691Y-120011836D01*
X100576161Y-120000163D01*
X100593809Y-119997623D01*
X100610031Y-119990214D01*
X100627677Y-119992749D01*
X100645318Y-119990211D01*
X100679176Y-120000147D01*
X100682928Y-120001861D01*
X100728371Y-120037344D01*
X100732816Y-120042918D01*
X101452312Y-119323421D01*
X101513633Y-119289938D01*
X101583324Y-119294922D01*
X101639258Y-119336794D01*
X101640309Y-119338218D01*
X101670276Y-119379464D01*
X101670278Y-119379466D01*
X101820534Y-119529722D01*
X101861779Y-119559688D01*
X101904444Y-119615019D01*
X101910423Y-119684632D01*
X101877817Y-119746427D01*
X101876574Y-119747687D01*
X101157079Y-120467182D01*
X101157079Y-120467183D01*
X101251043Y-120542115D01*
X101488799Y-120691507D01*
X101741782Y-120813337D01*
X102006522Y-120905973D01*
X102006815Y-120906077D01*
X102280569Y-120968559D01*
X102280574Y-120968559D01*
X102280575Y-120968560D01*
X102280587Y-120968562D01*
X102280591Y-120968562D01*
X102280601Y-120968564D01*
X102384255Y-120980242D01*
X102552222Y-120999167D01*
X102557011Y-121000000D01*
X102840400Y-121000000D01*
X102850195Y-121000000D01*
X102857794Y-120998039D01*
X103040338Y-120977471D01*
X103119397Y-120968564D01*
X103119404Y-120968562D01*
X103119412Y-120968562D01*
X103119424Y-120968560D01*
X103119427Y-120968559D01*
X103119429Y-120968559D01*
X103393182Y-120906077D01*
X103393355Y-120906015D01*
X103658217Y-120813337D01*
X103911200Y-120691507D01*
X104148956Y-120542115D01*
X104242919Y-120467182D01*
X103523423Y-119747687D01*
X103489939Y-119686365D01*
X103494923Y-119616674D01*
X103536795Y-119560740D01*
X103538221Y-119559688D01*
X103579462Y-119529725D01*
X103579462Y-119529724D01*
X103579466Y-119529722D01*
X103729722Y-119379466D01*
X103759687Y-119338221D01*
X103815014Y-119295555D01*
X103884628Y-119289574D01*
X103946424Y-119322178D01*
X103947687Y-119323424D01*
X104667182Y-120042919D01*
X104667183Y-120042918D01*
X104667849Y-120042084D01*
X104667874Y-120042053D01*
X104723552Y-119972234D01*
X104780740Y-119932092D01*
X104850551Y-119929242D01*
X104910822Y-119964586D01*
X104942416Y-120026905D01*
X104944500Y-120049545D01*
X104944500Y-123281701D01*
X104944806Y-123294229D01*
X104945399Y-123306332D01*
X104946326Y-123318900D01*
X104947514Y-123330958D01*
X104947516Y-123330972D01*
X104949048Y-123343391D01*
X104949054Y-123343429D01*
X104950828Y-123355403D01*
X104952973Y-123367766D01*
X104957435Y-123390199D01*
X104957440Y-123390222D01*
X104963528Y-123414527D01*
X104963530Y-123414536D01*
X104963851Y-123415593D01*
X104970581Y-123437781D01*
X104970585Y-123437792D01*
X104970588Y-123437802D01*
X104970588Y-123437803D01*
X104979028Y-123461389D01*
X104988203Y-123483539D01*
X104988208Y-123483550D01*
X104988209Y-123483552D01*
X104998922Y-123506201D01*
X104998933Y-123506223D01*
X104998942Y-123506242D01*
X105010392Y-123527658D01*
X105010402Y-123527676D01*
X105023231Y-123549083D01*
X105023252Y-123549116D01*
X105025640Y-123552692D01*
X105040591Y-123572851D01*
X105040615Y-123572882D01*
X105056011Y-123591640D01*
X105072861Y-123610230D01*
X105089774Y-123627143D01*
X105089784Y-123627152D01*
X105108359Y-123643987D01*
X105127144Y-123659404D01*
X105127149Y-123659408D01*
X105127160Y-123659417D01*
X105147269Y-123674332D01*
X105147293Y-123674349D01*
X105150839Y-123676718D01*
X105161549Y-123683138D01*
X105172337Y-123689605D01*
X105172349Y-123689611D01*
X105172357Y-123689616D01*
X105193759Y-123701058D01*
X105193771Y-123701064D01*
X105216456Y-123711794D01*
X105238599Y-123720966D01*
X105262202Y-123729412D01*
X105262208Y-123729414D01*
X105262217Y-123729417D01*
X105279089Y-123734535D01*
X105285454Y-123736466D01*
X105309779Y-123742559D01*
X105332195Y-123747018D01*
X105344547Y-123749162D01*
X105356585Y-123750948D01*
X105369035Y-123752483D01*
X105381106Y-123753672D01*
X105393618Y-123754595D01*
X105405773Y-123755192D01*
X105418307Y-123755500D01*
X105922176Y-123755500D01*
X105922184Y-123755500D01*
X105932751Y-123755154D01*
X105935443Y-123755066D01*
X105939497Y-123755000D01*
X106060503Y-123755000D01*
X106064557Y-123755066D01*
X106067248Y-123755154D01*
X106077816Y-123755500D01*
X107922176Y-123755500D01*
X107922184Y-123755500D01*
X107932751Y-123755154D01*
X107935443Y-123755066D01*
X107939497Y-123755000D01*
X108060503Y-123755000D01*
X108064557Y-123755066D01*
X108067248Y-123755154D01*
X108077816Y-123755500D01*
X109922176Y-123755500D01*
X109922184Y-123755500D01*
X109932751Y-123755154D01*
X109935443Y-123755066D01*
X109939497Y-123755000D01*
X110060503Y-123755000D01*
X110064557Y-123755066D01*
X110067248Y-123755154D01*
X110077816Y-123755500D01*
X111922176Y-123755500D01*
X111922184Y-123755500D01*
X111932751Y-123755154D01*
X111935443Y-123755066D01*
X111939497Y-123755000D01*
X112060503Y-123755000D01*
X112064557Y-123755066D01*
X112067248Y-123755154D01*
X112077816Y-123755500D01*
X113922176Y-123755500D01*
X113922184Y-123755500D01*
X113932751Y-123755154D01*
X113935443Y-123755066D01*
X113939497Y-123755000D01*
X114060503Y-123755000D01*
X114064557Y-123755066D01*
X114067248Y-123755154D01*
X114077816Y-123755500D01*
X115922176Y-123755500D01*
X115922184Y-123755500D01*
X115932751Y-123755154D01*
X115935443Y-123755066D01*
X115939497Y-123755000D01*
X116060503Y-123755000D01*
X116064557Y-123755066D01*
X116067248Y-123755154D01*
X116077816Y-123755500D01*
X117922176Y-123755500D01*
X117922184Y-123755500D01*
X117932751Y-123755154D01*
X117935443Y-123755066D01*
X117939497Y-123755000D01*
X118060503Y-123755000D01*
X118064557Y-123755066D01*
X118067248Y-123755154D01*
X118077816Y-123755500D01*
X121181674Y-123755500D01*
X121181692Y-123755500D01*
X121194236Y-123755192D01*
X121206402Y-123754594D01*
X121218927Y-123753669D01*
X121230997Y-123752479D01*
X121243429Y-123750945D01*
X121255452Y-123749161D01*
X121267790Y-123747020D01*
X121290200Y-123742563D01*
X121290219Y-123742558D01*
X121290225Y-123742557D01*
X121314493Y-123736479D01*
X121314499Y-123736477D01*
X121314528Y-123736470D01*
X121337802Y-123729410D01*
X121361422Y-123720957D01*
X121383550Y-123711790D01*
X121406208Y-123701073D01*
X121427640Y-123689617D01*
X121449141Y-123676730D01*
X121452703Y-123674350D01*
X121472848Y-123659409D01*
X121491639Y-123643987D01*
X121510214Y-123627152D01*
X121527152Y-123610214D01*
X121543987Y-123591639D01*
X121559409Y-123572848D01*
X121574350Y-123552703D01*
X121576730Y-123549141D01*
X121589618Y-123527639D01*
X121601075Y-123506205D01*
X121611794Y-123483542D01*
X121620962Y-123461410D01*
X121629411Y-123437796D01*
X121636468Y-123414532D01*
X121642560Y-123390212D01*
X121647017Y-123367806D01*
X121649160Y-123355459D01*
X121650945Y-123343429D01*
X121652480Y-123330989D01*
X121653670Y-123318915D01*
X121654594Y-123306403D01*
X121655192Y-123294241D01*
X121655500Y-123281693D01*
X121655500Y-122418308D01*
X121655192Y-122405764D01*
X121654594Y-122393598D01*
X121653669Y-122381073D01*
X121652479Y-122369003D01*
X121650944Y-122356565D01*
X121649160Y-122344544D01*
X121647020Y-122332214D01*
X121642562Y-122309798D01*
X121636468Y-122285466D01*
X121636466Y-122285461D01*
X121636464Y-122285451D01*
X121629412Y-122262205D01*
X121620956Y-122238574D01*
X121611799Y-122216470D01*
X121611792Y-122216452D01*
X121601076Y-122193796D01*
X121589620Y-122172363D01*
X121576730Y-122150857D01*
X121575949Y-122149688D01*
X121574368Y-122147321D01*
X121574340Y-122147281D01*
X121559410Y-122127152D01*
X121559409Y-122127150D01*
X121543987Y-122108359D01*
X121527152Y-122089784D01*
X121527143Y-122089774D01*
X121510215Y-122072846D01*
X121491650Y-122056019D01*
X121472864Y-122040600D01*
X121472853Y-122040592D01*
X121452756Y-122025688D01*
X121452717Y-122025659D01*
X121449146Y-122023273D01*
X121427667Y-122010397D01*
X121427662Y-122010394D01*
X121417977Y-122005216D01*
X121406236Y-121998939D01*
X121383552Y-121988209D01*
X121383550Y-121988208D01*
X121383539Y-121988203D01*
X121361389Y-121979028D01*
X121337803Y-121970588D01*
X121337786Y-121970583D01*
X121337781Y-121970581D01*
X121325733Y-121966926D01*
X121314536Y-121963530D01*
X121314527Y-121963528D01*
X121290222Y-121957440D01*
X121290199Y-121957435D01*
X121267766Y-121952973D01*
X121255403Y-121950828D01*
X121245863Y-121949414D01*
X121243391Y-121949048D01*
X121236132Y-121948152D01*
X121230958Y-121947514D01*
X121218900Y-121946326D01*
X121206332Y-121945399D01*
X121194229Y-121944806D01*
X121182327Y-121944515D01*
X121181702Y-121944500D01*
X121181701Y-121944500D01*
X106979696Y-121944500D01*
X106912657Y-121924815D01*
X106866902Y-121872011D01*
X106855696Y-121820436D01*
X106856691Y-119886935D01*
X106858737Y-115912210D01*
X118394500Y-115912210D01*
X118394500Y-115912222D01*
X118394500Y-116169291D01*
X118396376Y-116200190D01*
X118396378Y-116200219D01*
X118400004Y-116229973D01*
X118405609Y-116260440D01*
X118411593Y-116284621D01*
X118417693Y-116309268D01*
X118417695Y-116309274D01*
X118417696Y-116309278D01*
X118428950Y-116343937D01*
X118442226Y-116376663D01*
X118445792Y-116385020D01*
X118454176Y-116396828D01*
X118462752Y-116410774D01*
X118467486Y-116419752D01*
X118485872Y-116446256D01*
X118502728Y-116470554D01*
X118536178Y-116508098D01*
X118536179Y-116508099D01*
X118558143Y-116529931D01*
X118580668Y-116549756D01*
X118605117Y-116568773D01*
X128521676Y-123359267D01*
X128537865Y-123369483D01*
X128553917Y-123378791D01*
X128570811Y-123387760D01*
X128599335Y-123401560D01*
X128599339Y-123401561D01*
X128599342Y-123401563D01*
X128606054Y-123404210D01*
X128634915Y-123415593D01*
X128670272Y-123426560D01*
X128670274Y-123426560D01*
X128670279Y-123426562D01*
X128707535Y-123435122D01*
X128707536Y-123435122D01*
X128707553Y-123435126D01*
X128729251Y-123438425D01*
X128738865Y-123439888D01*
X128738876Y-123439889D01*
X128738881Y-123439890D01*
X128757897Y-123442057D01*
X128763494Y-123442483D01*
X128776402Y-123443466D01*
X128778318Y-123443539D01*
X128795523Y-123444203D01*
X149692469Y-123466891D01*
X149704162Y-123466636D01*
X149715498Y-123466129D01*
X149727162Y-123465339D01*
X149746588Y-123463577D01*
X149769769Y-123460399D01*
X149792077Y-123456292D01*
X149792085Y-123456289D01*
X149792091Y-123456289D01*
X149792091Y-123456288D01*
X149807266Y-123452770D01*
X149814853Y-123451011D01*
X149814855Y-123451010D01*
X149814861Y-123451009D01*
X149833644Y-123445737D01*
X149844828Y-123442320D01*
X149855604Y-123438756D01*
X149866624Y-123434829D01*
X157950998Y-120343746D01*
X157974472Y-120333392D01*
X157974486Y-120333384D01*
X157974501Y-120333378D01*
X157986440Y-120327377D01*
X157996698Y-120322223D01*
X158019019Y-120309563D01*
X158054534Y-120286992D01*
X158094814Y-120255303D01*
X158130449Y-120220951D01*
X158163595Y-120181857D01*
X158180218Y-120157704D01*
X158204893Y-120112787D01*
X158224252Y-120067236D01*
X158239466Y-120018297D01*
X158247864Y-119977069D01*
X158251717Y-119951699D01*
X158254212Y-119926949D01*
X158255500Y-119901322D01*
X158255500Y-116562210D01*
X158254269Y-116537161D01*
X158251886Y-116512971D01*
X158249683Y-116498116D01*
X158248211Y-116488192D01*
X158248208Y-116488176D01*
X158246146Y-116477812D01*
X158240179Y-116447810D01*
X158225637Y-116399875D01*
X158207121Y-116355176D01*
X158190903Y-116324835D01*
X158183520Y-116311022D01*
X158183516Y-116311017D01*
X158183510Y-116311004D01*
X158167560Y-116287134D01*
X158135788Y-116248420D01*
X158135787Y-116248419D01*
X158135783Y-116248414D01*
X158101584Y-116214215D01*
X158084494Y-116200190D01*
X158062865Y-116182439D01*
X158038997Y-116166490D01*
X158038993Y-116166488D01*
X157994822Y-116142876D01*
X157963217Y-116129785D01*
X157950126Y-116124362D01*
X157950123Y-116124361D01*
X157950119Y-116124359D01*
X157902194Y-116109822D01*
X157902191Y-116109821D01*
X157902188Y-116109820D01*
X157902187Y-116109820D01*
X157902170Y-116109815D01*
X157861832Y-116101792D01*
X157861824Y-116101791D01*
X157837020Y-116098112D01*
X157837007Y-116098110D01*
X157812831Y-116095730D01*
X157803988Y-116095295D01*
X157787789Y-116094500D01*
X157787778Y-116094500D01*
X157362221Y-116094500D01*
X157362211Y-116094500D01*
X157346930Y-116095250D01*
X157337191Y-116095728D01*
X157337150Y-116095731D01*
X157312995Y-116098109D01*
X157312977Y-116098111D01*
X157288189Y-116101788D01*
X157247837Y-116109815D01*
X157247807Y-116109821D01*
X157247804Y-116109822D01*
X157199874Y-116124361D01*
X157155176Y-116142876D01*
X157111005Y-116166488D01*
X157111001Y-116166490D01*
X157087133Y-116182439D01*
X157087130Y-116182442D01*
X157048414Y-116214215D01*
X157014215Y-116248414D01*
X156982442Y-116287130D01*
X156982439Y-116287133D01*
X156966490Y-116311001D01*
X156966488Y-116311005D01*
X156942878Y-116355173D01*
X156942878Y-116355174D01*
X156924362Y-116399872D01*
X156909821Y-116447810D01*
X156901791Y-116488180D01*
X156901790Y-116488188D01*
X156898111Y-116512992D01*
X156898111Y-116512996D01*
X156898106Y-116513033D01*
X156895730Y-116537166D01*
X156895730Y-116537173D01*
X156894500Y-116562210D01*
X156894500Y-116562222D01*
X156894500Y-119080915D01*
X156874815Y-119147954D01*
X156822011Y-119193709D01*
X156815149Y-119196597D01*
X149717138Y-121936182D01*
X149672489Y-121944500D01*
X128860227Y-121944500D01*
X128793188Y-121924815D01*
X128787845Y-121921182D01*
X127442758Y-120954174D01*
X126765363Y-120467182D01*
X122944206Y-117720080D01*
X122815464Y-117627525D01*
X126149500Y-117627525D01*
X126149500Y-117772475D01*
X126186877Y-117911968D01*
X126187017Y-117912488D01*
X126187018Y-117912490D01*
X126257631Y-118034795D01*
X126259489Y-118038013D01*
X126361985Y-118140509D01*
X126362674Y-118141005D01*
X126365178Y-118142353D01*
X126484069Y-118210995D01*
X126487087Y-118212869D01*
X126487514Y-118212983D01*
X126487515Y-118212984D01*
X126627525Y-118250500D01*
X126627528Y-118250500D01*
X126772472Y-118250500D01*
X126772475Y-118250500D01*
X126912485Y-118212984D01*
X127038015Y-118140509D01*
X127140509Y-118038015D01*
X127212984Y-117912485D01*
X127250500Y-117772475D01*
X127250500Y-117627525D01*
X127212984Y-117487515D01*
X127189362Y-117446601D01*
X127140511Y-117361988D01*
X127140506Y-117361982D01*
X127140493Y-117361968D01*
X127096115Y-117317590D01*
X127744429Y-117317590D01*
X127744429Y-117317605D01*
X127747541Y-117357366D01*
X127753548Y-117395491D01*
X127753548Y-117395492D01*
X127762822Y-117434317D01*
X127762825Y-117434326D01*
X127767153Y-117447715D01*
X127767155Y-117447719D01*
X127767156Y-117447722D01*
X127786648Y-117487515D01*
X127799154Y-117513045D01*
X127799156Y-117513049D01*
X127838503Y-117570770D01*
X127838505Y-117570772D01*
X127887557Y-117624385D01*
X127892804Y-117628690D01*
X127892856Y-117628732D01*
X127892875Y-117628747D01*
X127892876Y-117628749D01*
X127899683Y-117634331D01*
X127899688Y-117634335D01*
X127899696Y-117634341D01*
X127929442Y-117655374D01*
X127959631Y-117673640D01*
X127992078Y-117690235D01*
X127992090Y-117690241D01*
X135618001Y-120926717D01*
X135618003Y-120926717D01*
X135618007Y-120926719D01*
X135642117Y-120935550D01*
X135665895Y-120942927D01*
X135690778Y-120949295D01*
X135714810Y-120954173D01*
X135740204Y-120958010D01*
X135764976Y-120960488D01*
X135790626Y-120961757D01*
X149766140Y-120949793D01*
X149813709Y-120949753D01*
X149819895Y-120949415D01*
X149841015Y-120948266D01*
X149867368Y-120945410D01*
X149894379Y-120941008D01*
X149901935Y-120939357D01*
X149961946Y-120918128D01*
X150016761Y-120890634D01*
X150069635Y-120855252D01*
X150071016Y-120854054D01*
X150118655Y-120798996D01*
X150156377Y-120740184D01*
X150186528Y-120674004D01*
X150190918Y-120659003D01*
X150198635Y-120623377D01*
X150203626Y-120588443D01*
X150206194Y-120552089D01*
X150205626Y-119886935D01*
X150204144Y-119859671D01*
X150204029Y-119858611D01*
X150203073Y-119849775D01*
X150201297Y-119833356D01*
X150196912Y-119806398D01*
X150195274Y-119798887D01*
X150174096Y-119738922D01*
X150174095Y-119738920D01*
X150174094Y-119738917D01*
X150146676Y-119684166D01*
X150146669Y-119684154D01*
X150146411Y-119683768D01*
X150111313Y-119631248D01*
X150111309Y-119631243D01*
X150110091Y-119629837D01*
X150055133Y-119582216D01*
X150055123Y-119582209D01*
X149996350Y-119544439D01*
X149996345Y-119544436D01*
X149930207Y-119514231D01*
X149930208Y-119514231D01*
X149915214Y-119509828D01*
X149879557Y-119502072D01*
X149844624Y-119497052D01*
X149844612Y-119497051D01*
X149808289Y-119494455D01*
X149808283Y-119494455D01*
X149807971Y-119494455D01*
X146564935Y-119494505D01*
X146497895Y-119474821D01*
X146452139Y-119422018D01*
X146442195Y-119352860D01*
X146457544Y-119308509D01*
X146512984Y-119212485D01*
X146550500Y-119072475D01*
X146550500Y-118927525D01*
X146512984Y-118787515D01*
X146456977Y-118690509D01*
X146440511Y-118661988D01*
X146440506Y-118661982D01*
X146440502Y-118661978D01*
X146440493Y-118661968D01*
X146338030Y-118559505D01*
X146338014Y-118559490D01*
X146338006Y-118559485D01*
X146284243Y-118528445D01*
X146255808Y-118498624D01*
X146201007Y-118483939D01*
X146201007Y-118483940D01*
X146136740Y-118466720D01*
X146072475Y-118449500D01*
X146072474Y-118449500D01*
X145927525Y-118449500D01*
X145798994Y-118483939D01*
X145798993Y-118483940D01*
X145791338Y-118485991D01*
X145787510Y-118487017D01*
X145661991Y-118559485D01*
X145661984Y-118559490D01*
X145661968Y-118559505D01*
X145559505Y-118661968D01*
X145559490Y-118661984D01*
X145559485Y-118661992D01*
X145487017Y-118787509D01*
X145486989Y-118787578D01*
X145486748Y-118788511D01*
X145449500Y-118927525D01*
X145449500Y-119072475D01*
X145451762Y-119080915D01*
X145481842Y-119193176D01*
X145487016Y-119212485D01*
X145487018Y-119212490D01*
X145542463Y-119308524D01*
X145558936Y-119376424D01*
X145536083Y-119442451D01*
X145481162Y-119485642D01*
X145435078Y-119494524D01*
X140529626Y-119494603D01*
X140462586Y-119474920D01*
X140416830Y-119422116D01*
X140405624Y-119370606D01*
X140405623Y-119338223D01*
X140405526Y-114754521D01*
X140425209Y-114687482D01*
X140440794Y-114667901D01*
X140441280Y-114667403D01*
X140759098Y-114341829D01*
X148344500Y-114341829D01*
X148344500Y-115263210D01*
X148345960Y-115290474D01*
X148345962Y-115290502D01*
X148348794Y-115316860D01*
X148348795Y-115316865D01*
X148353165Y-115343832D01*
X148353171Y-115343867D01*
X148354816Y-115351430D01*
X148354816Y-115351431D01*
X148368200Y-115389370D01*
X148376000Y-115411480D01*
X148376002Y-115411484D01*
X148376004Y-115411489D01*
X148403445Y-115466313D01*
X148403448Y-115466318D01*
X148403450Y-115466321D01*
X148438825Y-115519268D01*
X148440012Y-115520638D01*
X148494972Y-115568265D01*
X148553746Y-115606040D01*
X148553745Y-115606040D01*
X148553749Y-115606042D01*
X148553751Y-115606043D01*
X148619903Y-115636256D01*
X148634900Y-115640660D01*
X148634903Y-115640660D01*
X148634908Y-115640662D01*
X148670515Y-115648409D01*
X148670520Y-115648410D01*
X148705454Y-115653434D01*
X148736300Y-115655640D01*
X148736302Y-115655641D01*
X148746225Y-115656351D01*
X148746241Y-115656352D01*
X148757843Y-115657182D01*
X148764194Y-115656036D01*
X151516605Y-115656039D01*
X151583643Y-115675724D01*
X151629397Y-115728528D01*
X151640603Y-115780038D01*
X151640633Y-119862277D01*
X151642095Y-119889573D01*
X151644918Y-119915861D01*
X151644920Y-119915872D01*
X151649279Y-119942814D01*
X151650918Y-119950362D01*
X151672058Y-120010365D01*
X151672062Y-120010376D01*
X151699449Y-120065163D01*
X151699456Y-120065175D01*
X151734834Y-120118171D01*
X151734839Y-120118177D01*
X151734844Y-120118185D01*
X151736052Y-120119580D01*
X151790912Y-120167166D01*
X151849661Y-120204981D01*
X151849664Y-120204983D01*
X151915799Y-120235240D01*
X151915806Y-120235243D01*
X151915810Y-120235244D01*
X151915815Y-120235246D01*
X151924806Y-120237892D01*
X151930806Y-120239658D01*
X151966407Y-120247428D01*
X151966415Y-120247429D01*
X151966419Y-120247430D01*
X152001323Y-120252474D01*
X152001345Y-120252476D01*
X152011288Y-120253190D01*
X152035902Y-120254959D01*
X152036982Y-120255042D01*
X152037700Y-120255100D01*
X152037705Y-120255101D01*
X153262389Y-120255931D01*
X153289732Y-120254482D01*
X153316119Y-120251660D01*
X153343146Y-120247295D01*
X153350743Y-120245646D01*
X153410932Y-120224425D01*
X153465890Y-120196909D01*
X153517714Y-120162235D01*
X153517829Y-120162371D01*
X153517894Y-120162316D01*
X153518319Y-120161830D01*
X153519039Y-120161349D01*
X153520324Y-120160233D01*
X153520222Y-120160115D01*
X153521308Y-120159377D01*
X153534979Y-120147504D01*
X153537986Y-120141214D01*
X153538585Y-120140317D01*
X153548446Y-120127461D01*
X153567833Y-120105348D01*
X153605547Y-120046630D01*
X153635715Y-119980554D01*
X153640120Y-119965556D01*
X153647872Y-119929931D01*
X153652897Y-119894996D01*
X153654857Y-119876732D01*
X153654855Y-119876723D01*
X153654823Y-119873141D01*
X153655240Y-119861750D01*
X153655500Y-119858611D01*
X153655500Y-118177525D01*
X155199500Y-118177525D01*
X155199500Y-118322475D01*
X155212519Y-118371063D01*
X155229984Y-118436243D01*
X155229985Y-118436245D01*
X155233537Y-118449500D01*
X155237017Y-118462488D01*
X155308910Y-118587010D01*
X155309376Y-118587900D01*
X155411985Y-118690509D01*
X155412674Y-118691005D01*
X155415178Y-118692353D01*
X155534069Y-118760995D01*
X155537087Y-118762869D01*
X155537514Y-118762983D01*
X155537515Y-118762984D01*
X155677525Y-118800500D01*
X155677528Y-118800500D01*
X155822472Y-118800500D01*
X155822475Y-118800500D01*
X155962485Y-118762984D01*
X156088015Y-118690509D01*
X156190509Y-118588015D01*
X156262984Y-118462485D01*
X156300500Y-118322475D01*
X156300500Y-118177525D01*
X156262984Y-118037515D01*
X156230805Y-117981780D01*
X156190511Y-117911988D01*
X156190506Y-117911982D01*
X156190493Y-117911968D01*
X156088030Y-117809505D01*
X156088014Y-117809490D01*
X156088006Y-117809485D01*
X156034243Y-117778445D01*
X156005808Y-117748624D01*
X155951007Y-117733939D01*
X155951007Y-117733940D01*
X155886740Y-117716720D01*
X155822475Y-117699500D01*
X155822474Y-117699500D01*
X155677525Y-117699500D01*
X155548994Y-117733939D01*
X155548993Y-117733940D01*
X155541338Y-117735991D01*
X155537510Y-117737017D01*
X155411991Y-117809485D01*
X155411984Y-117809490D01*
X155411968Y-117809505D01*
X155309505Y-117911968D01*
X155309490Y-117911984D01*
X155309485Y-117911992D01*
X155237017Y-118037509D01*
X155237004Y-118037541D01*
X155236909Y-118037914D01*
X155199500Y-118177525D01*
X153655500Y-118177525D01*
X153655500Y-117277816D01*
X153655066Y-117264557D01*
X153655000Y-117260503D01*
X153655000Y-117139496D01*
X153655066Y-117135441D01*
X153655500Y-117122176D01*
X153655500Y-115477525D01*
X155199500Y-115477525D01*
X155199500Y-115622475D01*
X155220407Y-115700499D01*
X155233507Y-115749390D01*
X155237018Y-115762492D01*
X155307631Y-115884795D01*
X155309489Y-115888013D01*
X155411985Y-115990509D01*
X155412674Y-115991005D01*
X155415178Y-115992353D01*
X155534069Y-116060995D01*
X155537087Y-116062869D01*
X155537514Y-116062983D01*
X155537515Y-116062984D01*
X155677525Y-116100500D01*
X155677528Y-116100500D01*
X155822472Y-116100500D01*
X155822475Y-116100500D01*
X155962485Y-116062984D01*
X156088015Y-115990509D01*
X156190509Y-115888015D01*
X156262984Y-115762485D01*
X156300500Y-115622475D01*
X156300500Y-115477525D01*
X156262984Y-115337515D01*
X156190799Y-115212488D01*
X156190511Y-115211988D01*
X156190506Y-115211982D01*
X156190493Y-115211968D01*
X156088030Y-115109505D01*
X156088014Y-115109490D01*
X156088006Y-115109485D01*
X156034243Y-115078445D01*
X156005808Y-115048624D01*
X155951007Y-115033939D01*
X155951007Y-115033940D01*
X155886740Y-115016720D01*
X155822475Y-114999500D01*
X155822474Y-114999500D01*
X155677525Y-114999500D01*
X155548994Y-115033939D01*
X155548993Y-115033940D01*
X155541338Y-115035991D01*
X155537510Y-115037017D01*
X155411991Y-115109485D01*
X155411984Y-115109490D01*
X155411968Y-115109505D01*
X155309505Y-115211968D01*
X155309490Y-115211984D01*
X155309485Y-115211992D01*
X155237017Y-115337509D01*
X155237004Y-115337541D01*
X155236909Y-115337914D01*
X155199500Y-115477525D01*
X153655500Y-115477525D01*
X153655500Y-114337348D01*
X153655499Y-114337313D01*
X153655291Y-114333439D01*
X153654034Y-114310002D01*
X153651197Y-114283631D01*
X153646818Y-114256623D01*
X153645173Y-114249065D01*
X153639518Y-114233044D01*
X153623969Y-114188988D01*
X153606337Y-114153783D01*
X153596492Y-114134126D01*
X153561083Y-114081163D01*
X153559896Y-114079794D01*
X153559889Y-114079787D01*
X153559881Y-114079778D01*
X153534133Y-114054046D01*
X153534117Y-114054030D01*
X153507437Y-114030925D01*
X153500435Y-114025077D01*
X153500434Y-114025076D01*
X153500435Y-114025076D01*
X153470029Y-114009182D01*
X153460453Y-114003618D01*
X153446203Y-113994464D01*
X153446202Y-113994463D01*
X153380090Y-113964277D01*
X153365093Y-113959873D01*
X153329465Y-113952123D01*
X153294532Y-113947101D01*
X153258170Y-113944500D01*
X148737332Y-113944500D01*
X148737331Y-113944500D01*
X148710028Y-113945963D01*
X148699446Y-113947101D01*
X148683670Y-113948797D01*
X148656680Y-113953170D01*
X148649121Y-113954814D01*
X148649116Y-113954815D01*
X148649106Y-113954818D01*
X148589029Y-113976015D01*
X148589023Y-113976017D01*
X148534150Y-114003493D01*
X148512988Y-114017635D01*
X148512969Y-114017648D01*
X148481212Y-114038873D01*
X148479870Y-114040036D01*
X148477103Y-114042611D01*
X148477033Y-114042532D01*
X148477005Y-114042557D01*
X148476396Y-114043269D01*
X148468267Y-114050838D01*
X148468258Y-114050845D01*
X148466534Y-114052451D01*
X148463275Y-114057329D01*
X148454495Y-114068931D01*
X148432212Y-114095040D01*
X148432210Y-114095042D01*
X148394472Y-114153783D01*
X148394461Y-114153802D01*
X148364277Y-114219908D01*
X148359873Y-114234903D01*
X148359873Y-114234907D01*
X148352123Y-114270533D01*
X148347101Y-114305466D01*
X148344500Y-114341829D01*
X140759098Y-114341829D01*
X142340073Y-112722273D01*
X142377761Y-112672840D01*
X142408007Y-112621153D01*
X142432642Y-112564086D01*
X142440128Y-112538588D01*
X142447875Y-112502968D01*
X142452897Y-112468033D01*
X142455497Y-112431678D01*
X142455496Y-112431671D01*
X142455526Y-112431258D01*
X142455495Y-112429520D01*
X142455468Y-111237790D01*
X142454004Y-111210482D01*
X142452674Y-111198114D01*
X142451173Y-111184148D01*
X142451170Y-111184126D01*
X142448838Y-111169736D01*
X142446790Y-111157103D01*
X142445144Y-111149540D01*
X142423947Y-111089479D01*
X142396478Y-111034621D01*
X142361130Y-110981720D01*
X142359944Y-110980351D01*
X142358313Y-110978938D01*
X142304937Y-110932688D01*
X142246170Y-110894932D01*
X142180032Y-110864737D01*
X142180025Y-110864734D01*
X142165020Y-110860330D01*
X142165014Y-110860329D01*
X142129413Y-110852587D01*
X142094478Y-110847567D01*
X142087204Y-110847047D01*
X142058116Y-110844969D01*
X142058108Y-110844969D01*
X141437215Y-110845014D01*
X141409931Y-110846475D01*
X141383652Y-110849297D01*
X141383611Y-110849302D01*
X141356641Y-110853671D01*
X141356623Y-110853674D01*
X141356619Y-110853675D01*
X141356614Y-110853675D01*
X141356609Y-110853677D01*
X141349081Y-110855313D01*
X141289060Y-110876475D01*
X141289039Y-110876484D01*
X141234231Y-110903902D01*
X141234197Y-110903921D01*
X141181336Y-110939209D01*
X141181331Y-110939212D01*
X141179949Y-110940409D01*
X141178078Y-110942278D01*
X141177300Y-110942701D01*
X141176599Y-110943309D01*
X141176466Y-110943156D01*
X141116731Y-110975720D01*
X141058363Y-110974309D01*
X141001007Y-110958939D01*
X141001007Y-110958940D01*
X140931848Y-110940409D01*
X140872475Y-110924500D01*
X140872474Y-110924500D01*
X140727525Y-110924500D01*
X140598994Y-110958939D01*
X140598993Y-110958940D01*
X140591338Y-110960991D01*
X140587510Y-110962017D01*
X140461991Y-111034485D01*
X140461984Y-111034490D01*
X140461968Y-111034505D01*
X140359505Y-111136968D01*
X140359490Y-111136984D01*
X140359485Y-111136992D01*
X140287017Y-111262509D01*
X140286989Y-111262578D01*
X140286748Y-111263511D01*
X140266785Y-111338017D01*
X140249500Y-111402525D01*
X140249500Y-111547475D01*
X140251724Y-111555775D01*
X140281650Y-111667461D01*
X140287016Y-111687487D01*
X140287018Y-111687491D01*
X140357631Y-111809795D01*
X140359489Y-111813013D01*
X140461985Y-111915509D01*
X140462674Y-111916005D01*
X140465178Y-111917353D01*
X140584069Y-111985995D01*
X140587087Y-111987869D01*
X140587514Y-111987983D01*
X140587515Y-111987984D01*
X140727525Y-112025500D01*
X140727528Y-112025500D01*
X140872471Y-112025500D01*
X140872472Y-112025500D01*
X140872475Y-112025500D01*
X140887932Y-112021358D01*
X140912944Y-112021952D01*
X140937715Y-112018400D01*
X140947273Y-112022769D01*
X140957777Y-112023019D01*
X140978498Y-112037042D01*
X141001260Y-112047447D01*
X141006938Y-112056289D01*
X141015641Y-112062179D01*
X141025494Y-112085185D01*
X141039014Y-112106239D01*
X141041281Y-112122047D01*
X141043148Y-112126406D01*
X141044025Y-112141175D01*
X141044024Y-112144047D01*
X141024316Y-112211080D01*
X141007729Y-112231661D01*
X139068982Y-114171467D01*
X139068981Y-114171468D01*
X139029848Y-114221910D01*
X139029834Y-114221930D01*
X138998508Y-114274845D01*
X138973097Y-114333439D01*
X138965738Y-114358659D01*
X138958049Y-114394296D01*
X138958048Y-114394299D01*
X138953086Y-114429234D01*
X138950546Y-114465610D01*
X138950546Y-114465612D01*
X138954277Y-116643156D01*
X138954305Y-116659588D01*
X138949500Y-116677525D01*
X138949500Y-116822475D01*
X138954617Y-116841574D01*
X138954645Y-116857792D01*
X138955980Y-117636798D01*
X138951758Y-117669094D01*
X138949500Y-117677520D01*
X138949500Y-117822479D01*
X138952146Y-117832353D01*
X138956370Y-117864228D01*
X138957419Y-118475914D01*
X138937849Y-118542987D01*
X138885124Y-118588833D01*
X138833631Y-118600127D01*
X133663658Y-118608985D01*
X133613921Y-118598666D01*
X129273790Y-116707906D01*
X129220192Y-116663084D01*
X129199334Y-116596401D01*
X129199315Y-116594367D01*
X129199067Y-115927525D01*
X131699500Y-115927525D01*
X131699500Y-116072475D01*
X131730097Y-116186662D01*
X131730096Y-116186662D01*
X131737016Y-116212486D01*
X131737018Y-116212491D01*
X131809485Y-116338006D01*
X131809490Y-116338014D01*
X131809493Y-116338017D01*
X131899328Y-116427852D01*
X131911797Y-116442419D01*
X131928118Y-116464778D01*
X131951743Y-116530509D01*
X131951744Y-116530529D01*
X131951745Y-116530532D01*
X131951744Y-116530534D01*
X131952106Y-116536599D01*
X131943800Y-116589163D01*
X131943746Y-116589301D01*
X131935659Y-116606115D01*
X131890925Y-116683595D01*
X131890905Y-116683632D01*
X131890857Y-116683729D01*
X131890433Y-116685413D01*
X131857439Y-116808550D01*
X131853399Y-116823626D01*
X131853399Y-116968576D01*
X131865658Y-117014325D01*
X131878766Y-117063247D01*
X131886297Y-117091350D01*
X131890916Y-117108589D01*
X131962970Y-117233390D01*
X131963298Y-117234024D01*
X132065884Y-117336610D01*
X132066573Y-117337106D01*
X132069077Y-117338454D01*
X132187968Y-117407096D01*
X132190986Y-117408970D01*
X132191413Y-117409084D01*
X132191414Y-117409085D01*
X132331424Y-117446601D01*
X132331427Y-117446601D01*
X132476371Y-117446601D01*
X132476374Y-117446601D01*
X132616384Y-117409085D01*
X132741914Y-117336610D01*
X132806005Y-117272517D01*
X132834252Y-117251373D01*
X132847972Y-117243881D01*
X132916237Y-117229032D01*
X132916239Y-117229032D01*
X132925079Y-117229664D01*
X132978235Y-117245959D01*
X133034078Y-117278200D01*
X133037087Y-117280069D01*
X133037514Y-117280183D01*
X133037515Y-117280184D01*
X133177525Y-117317700D01*
X133177528Y-117317700D01*
X133322472Y-117317700D01*
X133322475Y-117317700D01*
X133462485Y-117280184D01*
X133588015Y-117207709D01*
X133690509Y-117105215D01*
X133762984Y-116979685D01*
X133800149Y-116840982D01*
X133803719Y-116833714D01*
X133804117Y-116828751D01*
X133806515Y-116822933D01*
X133812878Y-116808549D01*
X133820504Y-116799534D01*
X133821297Y-116797921D01*
X133830759Y-116785505D01*
X133835028Y-116782365D01*
X133858003Y-116755207D01*
X133881948Y-116747866D01*
X133887050Y-116744115D01*
X133896025Y-116743550D01*
X133924804Y-116734728D01*
X133945210Y-116740457D01*
X133956782Y-116739730D01*
X133971164Y-116747744D01*
X133992071Y-116753614D01*
X133995189Y-116755566D01*
X134006803Y-116767603D01*
X134017815Y-116773740D01*
X134024150Y-116785583D01*
X134036770Y-116798663D01*
X134059488Y-116838011D01*
X134059493Y-116838017D01*
X134161985Y-116940509D01*
X134162674Y-116941005D01*
X134165178Y-116942353D01*
X134284069Y-117010995D01*
X134287087Y-117012869D01*
X134287514Y-117012983D01*
X134287515Y-117012984D01*
X134427525Y-117050500D01*
X134427528Y-117050500D01*
X134572472Y-117050500D01*
X134572475Y-117050500D01*
X134712485Y-117012984D01*
X134838015Y-116940509D01*
X134940509Y-116838015D01*
X135012984Y-116712485D01*
X135050500Y-116572475D01*
X135050500Y-116427525D01*
X135012984Y-116287515D01*
X134993759Y-116254217D01*
X134940511Y-116161988D01*
X134940506Y-116161982D01*
X134940493Y-116161968D01*
X134838030Y-116059505D01*
X134838014Y-116059490D01*
X134838006Y-116059485D01*
X134784243Y-116028445D01*
X134755808Y-115998624D01*
X134701007Y-115983939D01*
X134701007Y-115983940D01*
X134636740Y-115966720D01*
X134572475Y-115949500D01*
X134572474Y-115949500D01*
X134427525Y-115949500D01*
X134298994Y-115983939D01*
X134298993Y-115983940D01*
X134291338Y-115985991D01*
X134287510Y-115987017D01*
X134161991Y-116059485D01*
X134161984Y-116059490D01*
X134161968Y-116059505D01*
X134059505Y-116161968D01*
X134059490Y-116161984D01*
X134059485Y-116161992D01*
X133987017Y-116287509D01*
X133986988Y-116287579D01*
X133986744Y-116288525D01*
X133955006Y-116406979D01*
X133954333Y-116409491D01*
X133952845Y-116415041D01*
X133949846Y-116426232D01*
X133943468Y-116444306D01*
X133937117Y-116458658D01*
X133891987Y-116511997D01*
X133825184Y-116532470D01*
X133757918Y-116513577D01*
X133757915Y-116513576D01*
X133756982Y-116512992D01*
X133754803Y-116511627D01*
X133713225Y-116468530D01*
X133690513Y-116429191D01*
X133690512Y-116429190D01*
X133690510Y-116429186D01*
X133588013Y-116326689D01*
X133587321Y-116326190D01*
X133584802Y-116324835D01*
X133534243Y-116295645D01*
X133505808Y-116265824D01*
X133451007Y-116251139D01*
X133451007Y-116251140D01*
X133372010Y-116229973D01*
X133322475Y-116216700D01*
X133322474Y-116216700D01*
X133177525Y-116216700D01*
X133048994Y-116251139D01*
X133048993Y-116251140D01*
X133037518Y-116254215D01*
X133037511Y-116254217D01*
X133037508Y-116254218D01*
X132974203Y-116290767D01*
X132943080Y-116303227D01*
X132941444Y-116303882D01*
X132930457Y-116306548D01*
X132860666Y-116303227D01*
X132803750Y-116262702D01*
X132777779Y-116197838D01*
X132777779Y-116197833D01*
X132777050Y-116190199D01*
X132780712Y-116146321D01*
X132800500Y-116072475D01*
X132800500Y-115927525D01*
X132762984Y-115787515D01*
X132748244Y-115761985D01*
X132690511Y-115661988D01*
X132690506Y-115661982D01*
X132690493Y-115661968D01*
X132588030Y-115559505D01*
X132588014Y-115559490D01*
X132588006Y-115559485D01*
X132534243Y-115528445D01*
X132505808Y-115498624D01*
X132451007Y-115483939D01*
X132451007Y-115483940D01*
X132365106Y-115460923D01*
X132322475Y-115449500D01*
X132322474Y-115449500D01*
X132177525Y-115449500D01*
X132048994Y-115483939D01*
X132048993Y-115483940D01*
X132041338Y-115485991D01*
X132037510Y-115487017D01*
X131911991Y-115559485D01*
X131911984Y-115559490D01*
X131911968Y-115559505D01*
X131809505Y-115661968D01*
X131809492Y-115661983D01*
X131809485Y-115661992D01*
X131737017Y-115787509D01*
X131737004Y-115787541D01*
X131736909Y-115787914D01*
X131699500Y-115927525D01*
X129199067Y-115927525D01*
X129198324Y-113927525D01*
X130249500Y-113927525D01*
X130249500Y-114072475D01*
X130251827Y-114081158D01*
X130287013Y-114212477D01*
X130287016Y-114212485D01*
X130287017Y-114212488D01*
X130324966Y-114278217D01*
X130357631Y-114334795D01*
X130359489Y-114338013D01*
X130461985Y-114440509D01*
X130462674Y-114441005D01*
X130465178Y-114442353D01*
X130584069Y-114510995D01*
X130587087Y-114512869D01*
X130587514Y-114512983D01*
X130587515Y-114512984D01*
X130727525Y-114550500D01*
X130727528Y-114550500D01*
X130872472Y-114550500D01*
X130872475Y-114550500D01*
X131012485Y-114512984D01*
X131138015Y-114440509D01*
X131240509Y-114338015D01*
X131312984Y-114212485D01*
X131350500Y-114072475D01*
X131350500Y-113927525D01*
X131312984Y-113787515D01*
X131240509Y-113661985D01*
X131138015Y-113559491D01*
X131138013Y-113559489D01*
X131137321Y-113558990D01*
X131134802Y-113557635D01*
X131084243Y-113528445D01*
X131055808Y-113498624D01*
X131001007Y-113483939D01*
X131001007Y-113483940D01*
X130936740Y-113466720D01*
X130872475Y-113449500D01*
X130872474Y-113449500D01*
X130727525Y-113449500D01*
X130598994Y-113483939D01*
X130598993Y-113483940D01*
X130591338Y-113485991D01*
X130587510Y-113487017D01*
X130461991Y-113559485D01*
X130461984Y-113559490D01*
X130461968Y-113559505D01*
X130359505Y-113661968D01*
X130359490Y-113661984D01*
X130359485Y-113661992D01*
X130287017Y-113787509D01*
X130287004Y-113787541D01*
X130286909Y-113787914D01*
X130249500Y-113927525D01*
X129198324Y-113927525D01*
X129196457Y-108902525D01*
X146724500Y-108902525D01*
X146724500Y-108909925D01*
X146724500Y-109047475D01*
X146742147Y-109113336D01*
X146762016Y-109187486D01*
X146762018Y-109187491D01*
X146832631Y-109309795D01*
X146834489Y-109313013D01*
X146936985Y-109415509D01*
X146937674Y-109416005D01*
X146940178Y-109417353D01*
X147059069Y-109485995D01*
X147062087Y-109487869D01*
X147062514Y-109487983D01*
X147062515Y-109487984D01*
X147202525Y-109525500D01*
X147202528Y-109525500D01*
X147347472Y-109525500D01*
X147347475Y-109525500D01*
X147487485Y-109487984D01*
X147613015Y-109415509D01*
X147715509Y-109313015D01*
X147787984Y-109187485D01*
X147825500Y-109047475D01*
X147825500Y-108902525D01*
X147787984Y-108762515D01*
X147785053Y-108757439D01*
X147715511Y-108636988D01*
X147715506Y-108636982D01*
X147613013Y-108534489D01*
X147612321Y-108533990D01*
X147609802Y-108532635D01*
X147559243Y-108503445D01*
X147530808Y-108473624D01*
X147476007Y-108458939D01*
X147476007Y-108458940D01*
X147411740Y-108441720D01*
X147347475Y-108424500D01*
X147347474Y-108424500D01*
X147202525Y-108424500D01*
X147073994Y-108458939D01*
X147073993Y-108458940D01*
X147066338Y-108460991D01*
X147062510Y-108462017D01*
X146936991Y-108534485D01*
X146936984Y-108534490D01*
X146936968Y-108534505D01*
X146834505Y-108636968D01*
X146834490Y-108636984D01*
X146834485Y-108636992D01*
X146762017Y-108762509D01*
X146762004Y-108762541D01*
X146761909Y-108762914D01*
X146724500Y-108902525D01*
X129196457Y-108902525D01*
X129195950Y-107536886D01*
X129194476Y-107509573D01*
X129191632Y-107483214D01*
X129187246Y-107456215D01*
X129185599Y-107448658D01*
X129164397Y-107388625D01*
X129164395Y-107388622D01*
X129164395Y-107388620D01*
X129143917Y-107347745D01*
X129136933Y-107333803D01*
X129101550Y-107280882D01*
X129100358Y-107279507D01*
X129098827Y-107278158D01*
X129080789Y-107259118D01*
X129047889Y-107230625D01*
X129040907Y-107224793D01*
X129040902Y-107224790D01*
X129040899Y-107224787D01*
X129010400Y-107208842D01*
X129010400Y-107208841D01*
X129008142Y-107207661D01*
X129001352Y-107204112D01*
X129001578Y-107203762D01*
X128986573Y-107194126D01*
X128952593Y-107178622D01*
X128952552Y-107178601D01*
X128952535Y-107178596D01*
X128952147Y-107178419D01*
X128951429Y-107178044D01*
X128950215Y-107177525D01*
X136449500Y-107177525D01*
X136449500Y-107322475D01*
X136452537Y-107333810D01*
X136477648Y-107427526D01*
X136487015Y-107462484D01*
X136487018Y-107462491D01*
X136557631Y-107584795D01*
X136559489Y-107588013D01*
X136661985Y-107690509D01*
X136662674Y-107691005D01*
X136665178Y-107692353D01*
X136784069Y-107760995D01*
X136787087Y-107762869D01*
X136787514Y-107762983D01*
X136787515Y-107762984D01*
X136927525Y-107800500D01*
X136927528Y-107800500D01*
X137072472Y-107800500D01*
X137072475Y-107800500D01*
X137212485Y-107762984D01*
X137338015Y-107690509D01*
X137440509Y-107588015D01*
X137512984Y-107462485D01*
X137549147Y-107327525D01*
X137949500Y-107327525D01*
X137949500Y-107472475D01*
X137962439Y-107520763D01*
X137980459Y-107588015D01*
X137987017Y-107612488D01*
X137987018Y-107612491D01*
X138057631Y-107734795D01*
X138059489Y-107738013D01*
X138161985Y-107840509D01*
X138162674Y-107841005D01*
X138165178Y-107842353D01*
X138284069Y-107910995D01*
X138287087Y-107912869D01*
X138287514Y-107912983D01*
X138287515Y-107912984D01*
X138427525Y-107950500D01*
X138427528Y-107950500D01*
X138572472Y-107950500D01*
X138572475Y-107950500D01*
X138712485Y-107912984D01*
X138838015Y-107840509D01*
X138940509Y-107738015D01*
X139012984Y-107612485D01*
X139050500Y-107472475D01*
X139050500Y-107457929D01*
X139052686Y-107442728D01*
X139055523Y-107422993D01*
X139059927Y-107407995D01*
X139097672Y-107349244D01*
X139097700Y-107349219D01*
X139097699Y-107349219D01*
X139099041Y-107348056D01*
X139153920Y-107320577D01*
X139161479Y-107318933D01*
X139187832Y-107316100D01*
X139322472Y-107316100D01*
X139322475Y-107316100D01*
X139462485Y-107278584D01*
X139588015Y-107206109D01*
X139690509Y-107103615D01*
X139762984Y-106978085D01*
X139800500Y-106838075D01*
X139800500Y-106693125D01*
X139762984Y-106553115D01*
X139690509Y-106427585D01*
X139588015Y-106325091D01*
X139588013Y-106325089D01*
X139587321Y-106324590D01*
X139584802Y-106323235D01*
X139534243Y-106294045D01*
X139505808Y-106264224D01*
X139451007Y-106249539D01*
X139451007Y-106249540D01*
X139386740Y-106232320D01*
X139322475Y-106215100D01*
X139322474Y-106215100D01*
X139177525Y-106215100D01*
X139048994Y-106249539D01*
X139048993Y-106249540D01*
X139041338Y-106251591D01*
X139037510Y-106252617D01*
X138911991Y-106325085D01*
X138911984Y-106325090D01*
X138911968Y-106325105D01*
X138809505Y-106427568D01*
X138809490Y-106427584D01*
X138809485Y-106427592D01*
X138737125Y-106552922D01*
X138737124Y-106552925D01*
X138737017Y-106553111D01*
X138737016Y-106553115D01*
X138699500Y-106693125D01*
X138699500Y-106693127D01*
X138699500Y-106721350D01*
X138696517Y-106734704D01*
X138695294Y-106736912D01*
X138694475Y-106742614D01*
X138690070Y-106757612D01*
X138652327Y-106816355D01*
X138650958Y-106817542D01*
X138596097Y-106845018D01*
X138588539Y-106846663D01*
X138562168Y-106849500D01*
X138427525Y-106849500D01*
X138298994Y-106883939D01*
X138298993Y-106883940D01*
X138291338Y-106885991D01*
X138287510Y-106887017D01*
X138161991Y-106959485D01*
X138161984Y-106959490D01*
X138161968Y-106959505D01*
X138059505Y-107061968D01*
X138059490Y-107061984D01*
X138059485Y-107061992D01*
X137987017Y-107187509D01*
X137986989Y-107187578D01*
X137986748Y-107188511D01*
X137952561Y-107316100D01*
X137949500Y-107327525D01*
X137549147Y-107327525D01*
X137550500Y-107322475D01*
X137550500Y-107177525D01*
X137512984Y-107037515D01*
X137485843Y-106990506D01*
X137440511Y-106911988D01*
X137440506Y-106911982D01*
X137440493Y-106911968D01*
X137338030Y-106809505D01*
X137338014Y-106809490D01*
X137338006Y-106809485D01*
X137284243Y-106778445D01*
X137255808Y-106748624D01*
X137201007Y-106733939D01*
X137201007Y-106733940D01*
X137136740Y-106716720D01*
X137072475Y-106699500D01*
X137072474Y-106699500D01*
X136927525Y-106699500D01*
X136798994Y-106733939D01*
X136798993Y-106733940D01*
X136791338Y-106735991D01*
X136787510Y-106737017D01*
X136661991Y-106809485D01*
X136661984Y-106809490D01*
X136661968Y-106809505D01*
X136559505Y-106911968D01*
X136559490Y-106911984D01*
X136559485Y-106911992D01*
X136487017Y-107037509D01*
X136487004Y-107037541D01*
X136486909Y-107037914D01*
X136449500Y-107177525D01*
X128950215Y-107177525D01*
X128949782Y-107177340D01*
X128920409Y-107163938D01*
X128913749Y-107161985D01*
X128905401Y-107159537D01*
X128905398Y-107159536D01*
X128905390Y-107159534D01*
X128869768Y-107151798D01*
X128834862Y-107146793D01*
X128834861Y-107146792D01*
X128834848Y-107146791D01*
X128834836Y-107146790D01*
X128834826Y-107146789D01*
X128801937Y-107144449D01*
X128798480Y-107144203D01*
X128798479Y-107144203D01*
X128798472Y-107144202D01*
X128137168Y-107144449D01*
X128109914Y-107145918D01*
X128109884Y-107145920D01*
X128093547Y-107147681D01*
X128083567Y-107148757D01*
X128081669Y-107149065D01*
X128056596Y-107153132D01*
X128049073Y-107154770D01*
X127989034Y-107175955D01*
X127934214Y-107203398D01*
X127934198Y-107203407D01*
X127881232Y-107238806D01*
X127879853Y-107240001D01*
X127832259Y-107294934D01*
X127794486Y-107353708D01*
X127764274Y-107419866D01*
X127759872Y-107434860D01*
X127759862Y-107434900D01*
X127752122Y-107470477D01*
X127747100Y-107505404D01*
X127747099Y-107505407D01*
X127744497Y-107541771D01*
X127744429Y-117317590D01*
X127096115Y-117317590D01*
X127038030Y-117259505D01*
X127038014Y-117259490D01*
X127038011Y-117259488D01*
X126987562Y-117230361D01*
X126987560Y-117230360D01*
X126912488Y-117187017D01*
X126912489Y-117187017D01*
X126898400Y-117183242D01*
X126886389Y-117180023D01*
X126886388Y-117180023D01*
X126822125Y-117162804D01*
X126772475Y-117149500D01*
X126772474Y-117149500D01*
X126627525Y-117149500D01*
X126501599Y-117183242D01*
X126501598Y-117183242D01*
X126487513Y-117187015D01*
X126487512Y-117187016D01*
X126361992Y-117259485D01*
X126361984Y-117259490D01*
X126361968Y-117259505D01*
X126259505Y-117361968D01*
X126259490Y-117361984D01*
X126259485Y-117361992D01*
X126187017Y-117487509D01*
X126187004Y-117487541D01*
X126186909Y-117487914D01*
X126149500Y-117627525D01*
X122815464Y-117627525D01*
X119905932Y-115535808D01*
X119889330Y-115524827D01*
X119872826Y-115514812D01*
X119855426Y-115505160D01*
X119826029Y-115490321D01*
X119792411Y-115476263D01*
X119792392Y-115476255D01*
X119758989Y-115465012D01*
X119750480Y-115462313D01*
X119743994Y-115460996D01*
X119744008Y-115460923D01*
X119737918Y-115459916D01*
X119713940Y-115454211D01*
X119713914Y-115454206D01*
X119681406Y-115449099D01*
X119681393Y-115449097D01*
X119681390Y-115449097D01*
X119677360Y-115448623D01*
X119661606Y-115446774D01*
X119642388Y-115445275D01*
X119632446Y-115444887D01*
X119622506Y-115444500D01*
X119622505Y-115444500D01*
X118862221Y-115444500D01*
X118862211Y-115444500D01*
X118846930Y-115445250D01*
X118837191Y-115445728D01*
X118837150Y-115445731D01*
X118812995Y-115448109D01*
X118812977Y-115448111D01*
X118788189Y-115451788D01*
X118747812Y-115459820D01*
X118747807Y-115459821D01*
X118747804Y-115459822D01*
X118699874Y-115474361D01*
X118655176Y-115492876D01*
X118611005Y-115516488D01*
X118611001Y-115516490D01*
X118587133Y-115532439D01*
X118587130Y-115532442D01*
X118548414Y-115564215D01*
X118514215Y-115598414D01*
X118482442Y-115637130D01*
X118482439Y-115637133D01*
X118466490Y-115661001D01*
X118466488Y-115661005D01*
X118442878Y-115705173D01*
X118442878Y-115705174D01*
X118424362Y-115749872D01*
X118409821Y-115797810D01*
X118401791Y-115838180D01*
X118401790Y-115838188D01*
X118398111Y-115862992D01*
X118398111Y-115862996D01*
X118398106Y-115863033D01*
X118395730Y-115887166D01*
X118395276Y-115896397D01*
X118394500Y-115912210D01*
X106858737Y-115912210D01*
X106860634Y-112227525D01*
X110647900Y-112227525D01*
X110647900Y-112234925D01*
X110647900Y-112372474D01*
X110685413Y-112512477D01*
X110685416Y-112512485D01*
X110685417Y-112512488D01*
X110715199Y-112564072D01*
X110756031Y-112634795D01*
X110757889Y-112638013D01*
X110860385Y-112740509D01*
X110861074Y-112741005D01*
X110863578Y-112742353D01*
X110982469Y-112810995D01*
X110985487Y-112812869D01*
X110985914Y-112812983D01*
X110985915Y-112812984D01*
X111125925Y-112850500D01*
X111125928Y-112850500D01*
X111270872Y-112850500D01*
X111270875Y-112850500D01*
X111410885Y-112812984D01*
X111410887Y-112812982D01*
X111410889Y-112812982D01*
X111410890Y-112812981D01*
X111414337Y-112810991D01*
X111522565Y-112748504D01*
X111555317Y-112735391D01*
X111573611Y-112730953D01*
X111637776Y-112732479D01*
X111647776Y-112735416D01*
X111674830Y-112747001D01*
X111789115Y-112812984D01*
X111929125Y-112850500D01*
X111929128Y-112850500D01*
X112074072Y-112850500D01*
X112074075Y-112850500D01*
X112214085Y-112812984D01*
X112339615Y-112740509D01*
X112357859Y-112722265D01*
X112388898Y-112691226D01*
X112417153Y-112670074D01*
X112430868Y-112662585D01*
X112499128Y-112647732D01*
X112500938Y-112647861D01*
X112559138Y-112667229D01*
X112565651Y-112671415D01*
X112586291Y-112688048D01*
X112648621Y-112750378D01*
X112649310Y-112750874D01*
X112651814Y-112752222D01*
X112770698Y-112820860D01*
X112774149Y-112822852D01*
X112774151Y-112822853D01*
X112914161Y-112860369D01*
X112914164Y-112860369D01*
X113059108Y-112860369D01*
X113059111Y-112860369D01*
X113199121Y-112822853D01*
X113324651Y-112750378D01*
X113427145Y-112647884D01*
X113499620Y-112522354D01*
X113524932Y-112427886D01*
X113538823Y-112395447D01*
X113546958Y-112382100D01*
X113598651Y-112335105D01*
X113606646Y-112331222D01*
X113660816Y-112318764D01*
X113714217Y-112318764D01*
X113714220Y-112318764D01*
X113854230Y-112281248D01*
X113979760Y-112208773D01*
X114082254Y-112106279D01*
X114154729Y-111980749D01*
X114192245Y-111840739D01*
X114192245Y-111695789D01*
X114154729Y-111555779D01*
X114130021Y-111512984D01*
X114082256Y-111430252D01*
X114082251Y-111430246D01*
X114082238Y-111430232D01*
X113979775Y-111327769D01*
X113979759Y-111327754D01*
X113979751Y-111327749D01*
X113925988Y-111296709D01*
X113897553Y-111266888D01*
X113842752Y-111252203D01*
X113842752Y-111252204D01*
X113778485Y-111234984D01*
X113714220Y-111217764D01*
X113714219Y-111217764D01*
X113569270Y-111217764D01*
X113440739Y-111252203D01*
X113440738Y-111252204D01*
X113433083Y-111254255D01*
X113429255Y-111255281D01*
X113303736Y-111327749D01*
X113303729Y-111327754D01*
X113303713Y-111327769D01*
X113201250Y-111430232D01*
X113201235Y-111430248D01*
X113201230Y-111430256D01*
X113128762Y-111555773D01*
X113128735Y-111555841D01*
X113128493Y-111556776D01*
X113103448Y-111650244D01*
X113089555Y-111682687D01*
X113081421Y-111696032D01*
X113068227Y-111708026D01*
X113067083Y-111709904D01*
X113065105Y-111710864D01*
X113029725Y-111743029D01*
X113021751Y-111746903D01*
X112967565Y-111759369D01*
X112914161Y-111759369D01*
X112785630Y-111793808D01*
X112785629Y-111793809D01*
X112777974Y-111795860D01*
X112774146Y-111796886D01*
X112648627Y-111869355D01*
X112648620Y-111869360D01*
X112599341Y-111918638D01*
X112599340Y-111918641D01*
X112571085Y-111939792D01*
X112557366Y-111947283D01*
X112489110Y-111962135D01*
X112489093Y-111962133D01*
X112489093Y-111962134D01*
X112489092Y-111962133D01*
X112487303Y-111962006D01*
X112429090Y-111942634D01*
X112422580Y-111938450D01*
X112401946Y-111921822D01*
X112339617Y-111859493D01*
X112339614Y-111859490D01*
X112339606Y-111859485D01*
X112285843Y-111828445D01*
X112257408Y-111798624D01*
X112202607Y-111783939D01*
X112202607Y-111783940D01*
X112104498Y-111757652D01*
X112074075Y-111749500D01*
X112074074Y-111749500D01*
X111929125Y-111749500D01*
X111800594Y-111783939D01*
X111800593Y-111783940D01*
X111789111Y-111787017D01*
X111789106Y-111787019D01*
X111677436Y-111851492D01*
X111644672Y-111864609D01*
X111626392Y-111869044D01*
X111562230Y-111867520D01*
X111553198Y-111864868D01*
X111552234Y-111864585D01*
X111525159Y-111852992D01*
X111482641Y-111828443D01*
X111454210Y-111798624D01*
X111399407Y-111783939D01*
X111399407Y-111783940D01*
X111301298Y-111757652D01*
X111270875Y-111749500D01*
X111270874Y-111749500D01*
X111125925Y-111749500D01*
X110997394Y-111783939D01*
X110997393Y-111783940D01*
X110989738Y-111785991D01*
X110985910Y-111787017D01*
X110860391Y-111859485D01*
X110860384Y-111859490D01*
X110860368Y-111859505D01*
X110757905Y-111961968D01*
X110757890Y-111961984D01*
X110757885Y-111961992D01*
X110685417Y-112087509D01*
X110685404Y-112087541D01*
X110685309Y-112087914D01*
X110647900Y-112227525D01*
X106860634Y-112227525D01*
X106861277Y-110978937D01*
X106880996Y-110911909D01*
X106933824Y-110866181D01*
X106985336Y-110855002D01*
X107592691Y-110855316D01*
X107592692Y-110855316D01*
X108818592Y-110855945D01*
X108828852Y-110855613D01*
X108835315Y-110855405D01*
X108835326Y-110855404D01*
X108835334Y-110855404D01*
X108837514Y-110855262D01*
X108845575Y-110855000D01*
X108953459Y-110855000D01*
X108961205Y-110855242D01*
X108962244Y-110855307D01*
X108965822Y-110855531D01*
X108965830Y-110855531D01*
X108965842Y-110855532D01*
X108972845Y-110855752D01*
X108981657Y-110856030D01*
X109481458Y-110856287D01*
X109481458Y-110856286D01*
X109481467Y-110856287D01*
X109485345Y-110856193D01*
X109493983Y-110855986D01*
X109506131Y-110855396D01*
X109518637Y-110854481D01*
X109530708Y-110853299D01*
X109543180Y-110851767D01*
X109555232Y-110849985D01*
X109567592Y-110847846D01*
X109590017Y-110843396D01*
X109614355Y-110837311D01*
X109637626Y-110830262D01*
X109661243Y-110821822D01*
X109683383Y-110812661D01*
X109706063Y-110801944D01*
X109727509Y-110790490D01*
X109749019Y-110777607D01*
X109752579Y-110775230D01*
X109772736Y-110760290D01*
X109791543Y-110744864D01*
X109810137Y-110728019D01*
X109827088Y-110711075D01*
X109843917Y-110692517D01*
X109859336Y-110673740D01*
X109874303Y-110653568D01*
X109874878Y-110652708D01*
X121724317Y-110652708D01*
X121724317Y-110797658D01*
X121739226Y-110853299D01*
X121754496Y-110910287D01*
X121761834Y-110937671D01*
X121761835Y-110937674D01*
X121832448Y-111059978D01*
X121834306Y-111063196D01*
X121936802Y-111165692D01*
X121937491Y-111166188D01*
X121939995Y-111167536D01*
X122058886Y-111236178D01*
X122061904Y-111238052D01*
X122062331Y-111238166D01*
X122062332Y-111238167D01*
X122202342Y-111275683D01*
X122202345Y-111275683D01*
X122347289Y-111275683D01*
X122347292Y-111275683D01*
X122487302Y-111238167D01*
X122612832Y-111165692D01*
X122715326Y-111063198D01*
X122787801Y-110937668D01*
X122790518Y-110927525D01*
X126149500Y-110927525D01*
X126149500Y-111072475D01*
X126163778Y-111125760D01*
X126180232Y-111187168D01*
X126180233Y-111187170D01*
X126183805Y-111200500D01*
X126187017Y-111212488D01*
X126258874Y-111336947D01*
X126259372Y-111337896D01*
X126361985Y-111440509D01*
X126362674Y-111441005D01*
X126365178Y-111442353D01*
X126484069Y-111510995D01*
X126487087Y-111512869D01*
X126487514Y-111512983D01*
X126487515Y-111512984D01*
X126627525Y-111550500D01*
X126627528Y-111550500D01*
X126772472Y-111550500D01*
X126772475Y-111550500D01*
X126912485Y-111512984D01*
X127038015Y-111440509D01*
X127140509Y-111338015D01*
X127212984Y-111212485D01*
X127250500Y-111072475D01*
X127250500Y-110927525D01*
X127212984Y-110787515D01*
X127212982Y-110787512D01*
X127212983Y-110787512D01*
X127208171Y-110779178D01*
X127208170Y-110779177D01*
X127140513Y-110661991D01*
X127140508Y-110661984D01*
X127140493Y-110661968D01*
X127038030Y-110559505D01*
X127038014Y-110559490D01*
X127038011Y-110559488D01*
X127023417Y-110551062D01*
X126984240Y-110528443D01*
X126955808Y-110498625D01*
X126912488Y-110487017D01*
X126912489Y-110487017D01*
X126881987Y-110478844D01*
X126881987Y-110478843D01*
X126795617Y-110455700D01*
X126772475Y-110449500D01*
X126772474Y-110449500D01*
X126627525Y-110449500D01*
X126518012Y-110478844D01*
X126518011Y-110478843D01*
X126487512Y-110487016D01*
X126487507Y-110487018D01*
X126361992Y-110559485D01*
X126361984Y-110559490D01*
X126361968Y-110559505D01*
X126259505Y-110661968D01*
X126259490Y-110661984D01*
X126259485Y-110661992D01*
X126187017Y-110787509D01*
X126186989Y-110787578D01*
X126186748Y-110788511D01*
X126154116Y-110910297D01*
X126149500Y-110927525D01*
X122790518Y-110927525D01*
X122792050Y-110921807D01*
X122801297Y-110887303D01*
X122808861Y-110859068D01*
X122825317Y-110797658D01*
X122825317Y-110652708D01*
X122787801Y-110512698D01*
X122787799Y-110512695D01*
X122787800Y-110512695D01*
X122772973Y-110487015D01*
X122772972Y-110487014D01*
X122715330Y-110387174D01*
X122715325Y-110387167D01*
X122715310Y-110387151D01*
X122612847Y-110284688D01*
X122612831Y-110284673D01*
X122612823Y-110284668D01*
X122567432Y-110258461D01*
X122567429Y-110258459D01*
X122487305Y-110212200D01*
X122487306Y-110212200D01*
X122476829Y-110209392D01*
X122356756Y-110177219D01*
X122356754Y-110177218D01*
X122351671Y-110175856D01*
X122347292Y-110174683D01*
X122347291Y-110174683D01*
X122202342Y-110174683D01*
X122073811Y-110209122D01*
X122073810Y-110209123D01*
X122066155Y-110211174D01*
X122062327Y-110212200D01*
X121936808Y-110284668D01*
X121936801Y-110284673D01*
X121936785Y-110284688D01*
X121834322Y-110387151D01*
X121834307Y-110387167D01*
X121834302Y-110387175D01*
X121761834Y-110512692D01*
X121761821Y-110512724D01*
X121761726Y-110513097D01*
X121724317Y-110652708D01*
X109874878Y-110652708D01*
X109878543Y-110647224D01*
X109888113Y-110631738D01*
X109896875Y-110616360D01*
X109905340Y-110600186D01*
X109908526Y-110593530D01*
X109920113Y-110565035D01*
X109920218Y-110564723D01*
X109921843Y-110560204D01*
X109922469Y-110558563D01*
X109922470Y-110558564D01*
X109922854Y-110557636D01*
X109923738Y-110555236D01*
X109924000Y-110554552D01*
X109924162Y-110554337D01*
X109925554Y-110551093D01*
X109925477Y-110551062D01*
X109927135Y-110546974D01*
X109927144Y-110546958D01*
X109929373Y-110540098D01*
X109929373Y-110540097D01*
X109930825Y-110535630D01*
X109930837Y-110535592D01*
X109931261Y-110534289D01*
X109935497Y-110519823D01*
X109939182Y-110505704D01*
X109942549Y-110491052D01*
X109943353Y-110487016D01*
X109947007Y-110468652D01*
X109947006Y-110468652D01*
X109947011Y-110468632D01*
X109949155Y-110456281D01*
X109950942Y-110444244D01*
X109952481Y-110431770D01*
X109953671Y-110419689D01*
X109954593Y-110407198D01*
X109955191Y-110395043D01*
X109955500Y-110382488D01*
X109955500Y-110067278D01*
X124789253Y-110067278D01*
X124789253Y-110074678D01*
X124789253Y-110212227D01*
X124826766Y-110352230D01*
X124826769Y-110352238D01*
X124826770Y-110352241D01*
X124865508Y-110419337D01*
X124897384Y-110474548D01*
X124899242Y-110477766D01*
X125001738Y-110580262D01*
X125002427Y-110580758D01*
X125004931Y-110582106D01*
X125123822Y-110650748D01*
X125126840Y-110652622D01*
X125127267Y-110652736D01*
X125127268Y-110652737D01*
X125267278Y-110690253D01*
X125267281Y-110690253D01*
X125412225Y-110690253D01*
X125412228Y-110690253D01*
X125552238Y-110652737D01*
X125677768Y-110580262D01*
X125780262Y-110477768D01*
X125852737Y-110352238D01*
X125890253Y-110212228D01*
X125890253Y-110067278D01*
X125852737Y-109927268D01*
X125831053Y-109889711D01*
X125780264Y-109801741D01*
X125780259Y-109801735D01*
X125780246Y-109801721D01*
X125677783Y-109699258D01*
X125677767Y-109699243D01*
X125677759Y-109699238D01*
X125623996Y-109668198D01*
X125595561Y-109638377D01*
X125540760Y-109623692D01*
X125540760Y-109623693D01*
X125450470Y-109599500D01*
X125412228Y-109589253D01*
X125412227Y-109589253D01*
X125267278Y-109589253D01*
X125138747Y-109623692D01*
X125138746Y-109623693D01*
X125131091Y-109625744D01*
X125127263Y-109626770D01*
X125001744Y-109699238D01*
X125001737Y-109699243D01*
X125001721Y-109699258D01*
X124899258Y-109801721D01*
X124899243Y-109801737D01*
X124899238Y-109801745D01*
X124826770Y-109927262D01*
X124826757Y-109927294D01*
X124826662Y-109927667D01*
X124789253Y-110067278D01*
X109955500Y-110067278D01*
X109955500Y-109218306D01*
X109955192Y-109205755D01*
X109954594Y-109193596D01*
X109953671Y-109181093D01*
X109952481Y-109169016D01*
X109950946Y-109156574D01*
X109949163Y-109144556D01*
X109947021Y-109132213D01*
X109942561Y-109109788D01*
X109936466Y-109085455D01*
X109929410Y-109062196D01*
X109920960Y-109038581D01*
X109911791Y-109016448D01*
X109901073Y-108993790D01*
X109901060Y-108993765D01*
X109889626Y-108972374D01*
X109889610Y-108972345D01*
X109876743Y-108950877D01*
X109876724Y-108950848D01*
X109872497Y-108944520D01*
X109867889Y-108938131D01*
X109861812Y-108929703D01*
X109850969Y-108915746D01*
X109850966Y-108915742D01*
X109839289Y-108901769D01*
X109834362Y-108896284D01*
X109834354Y-108896275D01*
X109812443Y-108874655D01*
X109806661Y-108869599D01*
X109805013Y-108868132D01*
X109791648Y-108856018D01*
X109790475Y-108855055D01*
X109772864Y-108840600D01*
X109772853Y-108840592D01*
X109752756Y-108825688D01*
X109752717Y-108825659D01*
X109749146Y-108823273D01*
X109727667Y-108810397D01*
X109727662Y-108810394D01*
X109717977Y-108805216D01*
X109706236Y-108798939D01*
X109683552Y-108788209D01*
X109683550Y-108788208D01*
X109683539Y-108788203D01*
X109661389Y-108779028D01*
X109637803Y-108770588D01*
X109637786Y-108770583D01*
X109637781Y-108770581D01*
X109625733Y-108766926D01*
X109614536Y-108763530D01*
X109614527Y-108763528D01*
X109590222Y-108757440D01*
X109590199Y-108757435D01*
X109567766Y-108752973D01*
X109555403Y-108750828D01*
X109545863Y-108749414D01*
X109543391Y-108749048D01*
X109536132Y-108748152D01*
X109530958Y-108747514D01*
X109518900Y-108746326D01*
X109506332Y-108745399D01*
X109494229Y-108744806D01*
X109482327Y-108744515D01*
X109481702Y-108744500D01*
X109481701Y-108744500D01*
X105418314Y-108744500D01*
X105418296Y-108744500D01*
X105405783Y-108744807D01*
X105405069Y-108744842D01*
X105393632Y-108745402D01*
X105381129Y-108746324D01*
X105369020Y-108747516D01*
X105356622Y-108749045D01*
X105348605Y-108750233D01*
X105344603Y-108750827D01*
X105344598Y-108750827D01*
X105344597Y-108750828D01*
X105332211Y-108752976D01*
X105309788Y-108757436D01*
X105297560Y-108760499D01*
X105285452Y-108763533D01*
X105285442Y-108763535D01*
X105285434Y-108763538D01*
X105262201Y-108770586D01*
X105238613Y-108779026D01*
X105238596Y-108779033D01*
X105216467Y-108788199D01*
X105216431Y-108788215D01*
X105193775Y-108798932D01*
X105172341Y-108810391D01*
X105172330Y-108810398D01*
X105150903Y-108823238D01*
X105150888Y-108823247D01*
X105150883Y-108823251D01*
X105150843Y-108823278D01*
X105147296Y-108825647D01*
X105127091Y-108840632D01*
X105108372Y-108855997D01*
X105108347Y-108856019D01*
X105089795Y-108872834D01*
X105072827Y-108889802D01*
X105056009Y-108908359D01*
X105040595Y-108927141D01*
X105040574Y-108927168D01*
X105025683Y-108947244D01*
X105025675Y-108947256D01*
X105023281Y-108950837D01*
X105010389Y-108972344D01*
X105010373Y-108972374D01*
X105000145Y-108991508D01*
X104998928Y-108993784D01*
X104998917Y-108993806D01*
X104988214Y-109016432D01*
X104988197Y-109016470D01*
X104979028Y-109038607D01*
X104970588Y-109062198D01*
X104963531Y-109085462D01*
X104963529Y-109085469D01*
X104957441Y-109109769D01*
X104952978Y-109132207D01*
X104952977Y-109132213D01*
X104950836Y-109144554D01*
X104950644Y-109145842D01*
X104949048Y-109156600D01*
X104947516Y-109169022D01*
X104946325Y-109181118D01*
X104945402Y-109193634D01*
X104944844Y-109205025D01*
X104944809Y-109205754D01*
X104944807Y-109205785D01*
X104944500Y-109218314D01*
X104944500Y-116950453D01*
X104924815Y-117017492D01*
X104872011Y-117063247D01*
X104802853Y-117073191D01*
X104739297Y-117044166D01*
X104723553Y-117027766D01*
X104667182Y-116957078D01*
X103947687Y-117676573D01*
X103886364Y-117710058D01*
X103816672Y-117705074D01*
X103760739Y-117663202D01*
X103759688Y-117661778D01*
X103729723Y-117620535D01*
X103579468Y-117470280D01*
X103579466Y-117470278D01*
X103538216Y-117440308D01*
X103495553Y-117384980D01*
X103489574Y-117315366D01*
X103522180Y-117253571D01*
X103523359Y-117252375D01*
X104242918Y-116532816D01*
X104242917Y-116532815D01*
X104242918Y-116532815D01*
X104173944Y-116477812D01*
X104148950Y-116457880D01*
X103967614Y-116343939D01*
X103911197Y-116308490D01*
X103658215Y-116186661D01*
X103658211Y-116186659D01*
X103527882Y-116141055D01*
X103527876Y-116141054D01*
X103514688Y-116136439D01*
X103393617Y-116094075D01*
X103393187Y-116093922D01*
X103119429Y-116031439D01*
X103119397Y-116031434D01*
X102840407Y-116000000D01*
X102840401Y-116000000D01*
X102559598Y-116000000D01*
X102559591Y-116000000D01*
X102280601Y-116031434D01*
X102280569Y-116031439D01*
X102006808Y-116093923D01*
X102006347Y-116094087D01*
X101741780Y-116186662D01*
X101488801Y-116308490D01*
X101251045Y-116457882D01*
X101157079Y-116532815D01*
X101876575Y-117252311D01*
X101910060Y-117313634D01*
X101905076Y-117383325D01*
X101863204Y-117439259D01*
X101861782Y-117440308D01*
X101820537Y-117470275D01*
X101820531Y-117470280D01*
X101670280Y-117620531D01*
X101670275Y-117620537D01*
X101640308Y-117661782D01*
X101584977Y-117704446D01*
X101515364Y-117710424D01*
X101453570Y-117677816D01*
X101452311Y-117676575D01*
X100732815Y-116957079D01*
X100732814Y-116957079D01*
X100732812Y-116957079D01*
X100732563Y-116957393D01*
X100732558Y-116957396D01*
X100732558Y-116957399D01*
X100706851Y-116981579D01*
X100697596Y-116988075D01*
X100631417Y-117010478D01*
X100563631Y-116993544D01*
X100515760Y-116942651D01*
X100515753Y-116942638D01*
X100513894Y-116938970D01*
X100500500Y-116882913D01*
X100500500Y-114978848D01*
X101899499Y-114978848D01*
X101930257Y-115133471D01*
X101930264Y-115133502D01*
X101990598Y-115279165D01*
X101990603Y-115279174D01*
X101990613Y-115279191D01*
X102078211Y-115410290D01*
X102078212Y-115410291D01*
X102078217Y-115410297D01*
X102189701Y-115521781D01*
X102189707Y-115521786D01*
X102189711Y-115521789D01*
X102320814Y-115609390D01*
X102320827Y-115609397D01*
X102447788Y-115661985D01*
X102466503Y-115669737D01*
X102615521Y-115699378D01*
X102617470Y-115699833D01*
X102617641Y-115699929D01*
X102621155Y-115700500D01*
X102778844Y-115700500D01*
X102782964Y-115700500D01*
X102790814Y-115698118D01*
X102933497Y-115669737D01*
X103079179Y-115609394D01*
X103210289Y-115521789D01*
X103321789Y-115410289D01*
X103409394Y-115279179D01*
X103469737Y-115133497D01*
X103500500Y-114978842D01*
X103500500Y-114821158D01*
X103500500Y-114821155D01*
X103500500Y-114820973D01*
X103500065Y-114818972D01*
X103487245Y-114754522D01*
X103470395Y-114669815D01*
X103469983Y-114667403D01*
X103469737Y-114666504D01*
X103432779Y-114577278D01*
X103430790Y-114572475D01*
X103409397Y-114520827D01*
X103409393Y-114520820D01*
X103387657Y-114488290D01*
X103387656Y-114488288D01*
X103355732Y-114440511D01*
X103348200Y-114429238D01*
X103321802Y-114389729D01*
X103321793Y-114389716D01*
X103321782Y-114389702D01*
X103210297Y-114278217D01*
X103210291Y-114278212D01*
X103210290Y-114278211D01*
X103079191Y-114190613D01*
X103079190Y-114190612D01*
X103079185Y-114190609D01*
X103079172Y-114190602D01*
X103079165Y-114190598D01*
X102933502Y-114130264D01*
X102933471Y-114130257D01*
X102778847Y-114099500D01*
X102778845Y-114099500D01*
X102778842Y-114099500D01*
X102621158Y-114099500D01*
X102621155Y-114099500D01*
X102621153Y-114099500D01*
X102466527Y-114130257D01*
X102466496Y-114130264D01*
X102320833Y-114190598D01*
X102320824Y-114190603D01*
X102320807Y-114190613D01*
X102189708Y-114278211D01*
X102189707Y-114278212D01*
X102189701Y-114278217D01*
X102078217Y-114389701D01*
X102078212Y-114389707D01*
X102078211Y-114389708D01*
X101990613Y-114520807D01*
X101990603Y-114520824D01*
X101990598Y-114520833D01*
X101930264Y-114666496D01*
X101930257Y-114666527D01*
X101899500Y-114821150D01*
X101899500Y-114821153D01*
X101899500Y-114978846D01*
X101899500Y-114978848D01*
X101899499Y-114978848D01*
X100500500Y-114978848D01*
X100500500Y-110478848D01*
X101899499Y-110478848D01*
X101930257Y-110633471D01*
X101930264Y-110633502D01*
X101990598Y-110779165D01*
X101990603Y-110779174D01*
X101990613Y-110779191D01*
X102078212Y-110910291D01*
X102078217Y-110910297D01*
X102189701Y-111021781D01*
X102189707Y-111021786D01*
X102189711Y-111021789D01*
X102320814Y-111109390D01*
X102320827Y-111109397D01*
X102447788Y-111161985D01*
X102466503Y-111169737D01*
X102615521Y-111199378D01*
X102617470Y-111199833D01*
X102617641Y-111199929D01*
X102621155Y-111200500D01*
X102778844Y-111200500D01*
X102782964Y-111200500D01*
X102790814Y-111198118D01*
X102933497Y-111169737D01*
X103079179Y-111109394D01*
X103210289Y-111021789D01*
X103321789Y-110910289D01*
X103321790Y-110910288D01*
X103321791Y-110910287D01*
X103409390Y-110779185D01*
X103409390Y-110779184D01*
X103409394Y-110779179D01*
X103469737Y-110633497D01*
X103498874Y-110487015D01*
X103500500Y-110478843D01*
X103500500Y-110320973D01*
X103500065Y-110318971D01*
X103484457Y-110240505D01*
X103471364Y-110174683D01*
X103469737Y-110166503D01*
X103428637Y-110067278D01*
X103425417Y-110059505D01*
X103409402Y-110020840D01*
X103409399Y-110020833D01*
X103409397Y-110020827D01*
X103409390Y-110020814D01*
X103321789Y-109889711D01*
X103321787Y-109889708D01*
X103321786Y-109889707D01*
X103321781Y-109889701D01*
X103210297Y-109778217D01*
X103210291Y-109778212D01*
X103210290Y-109778211D01*
X103079191Y-109690613D01*
X103079190Y-109690612D01*
X103079185Y-109690609D01*
X103079172Y-109690602D01*
X103079165Y-109690598D01*
X102933502Y-109630264D01*
X102933471Y-109630257D01*
X102778847Y-109599500D01*
X102778845Y-109599500D01*
X102778842Y-109599500D01*
X102621158Y-109599500D01*
X102621155Y-109599500D01*
X102621153Y-109599500D01*
X102466527Y-109630257D01*
X102466496Y-109630264D01*
X102320833Y-109690598D01*
X102320824Y-109690603D01*
X102320807Y-109690613D01*
X102189708Y-109778211D01*
X102189707Y-109778212D01*
X102189701Y-109778217D01*
X102078217Y-109889701D01*
X102078212Y-109889707D01*
X102078211Y-109889708D01*
X101990613Y-110020807D01*
X101990603Y-110020824D01*
X101990598Y-110020833D01*
X101930264Y-110166496D01*
X101930257Y-110166527D01*
X101899500Y-110321150D01*
X101899500Y-110478844D01*
X101899499Y-110478848D01*
X100500500Y-110478848D01*
X100500500Y-108423804D01*
X100505521Y-108388877D01*
X100508707Y-108378024D01*
X100546477Y-108319243D01*
X100610031Y-108290214D01*
X100679180Y-108300149D01*
X100682928Y-108301861D01*
X100728371Y-108337344D01*
X100732816Y-108342918D01*
X101452312Y-107623421D01*
X101513633Y-107589938D01*
X101583324Y-107594922D01*
X101639258Y-107636794D01*
X101640309Y-107638218D01*
X101670276Y-107679464D01*
X101670278Y-107679466D01*
X101820534Y-107829722D01*
X101861779Y-107859688D01*
X101904444Y-107915019D01*
X101910423Y-107984632D01*
X101877817Y-108046427D01*
X101876574Y-108047687D01*
X101157079Y-108767182D01*
X101157079Y-108767183D01*
X101251043Y-108842115D01*
X101458303Y-108972345D01*
X101488801Y-108991508D01*
X101741779Y-109113336D01*
X101741782Y-109113337D01*
X102006522Y-109205973D01*
X102006815Y-109206077D01*
X102280569Y-109268559D01*
X102280574Y-109268559D01*
X102280575Y-109268560D01*
X102280587Y-109268562D01*
X102280591Y-109268562D01*
X102280601Y-109268564D01*
X102384255Y-109280242D01*
X102552222Y-109299167D01*
X102557011Y-109300000D01*
X102840400Y-109300000D01*
X102850195Y-109300000D01*
X102857794Y-109298039D01*
X103040338Y-109277471D01*
X103119397Y-109268564D01*
X103119404Y-109268562D01*
X103119412Y-109268562D01*
X103119424Y-109268560D01*
X103119427Y-109268559D01*
X103119429Y-109268559D01*
X103339603Y-109218306D01*
X103393178Y-109206078D01*
X103393178Y-109206077D01*
X103393182Y-109206077D01*
X103393355Y-109206015D01*
X103658217Y-109113337D01*
X103658216Y-109113337D01*
X103658220Y-109113336D01*
X103794987Y-109047472D01*
X103911200Y-108991507D01*
X104148956Y-108842115D01*
X104204964Y-108797451D01*
X104242919Y-108767182D01*
X104242918Y-108767181D01*
X104242919Y-108767181D01*
X103523424Y-108047688D01*
X103489939Y-107986365D01*
X103494923Y-107916674D01*
X103536794Y-107860740D01*
X103538221Y-107859688D01*
X103579462Y-107829725D01*
X103579462Y-107829724D01*
X103579466Y-107829722D01*
X103729722Y-107679466D01*
X103759687Y-107638221D01*
X103815014Y-107595555D01*
X103884628Y-107589574D01*
X103946424Y-107622178D01*
X103947687Y-107623424D01*
X104667182Y-108342919D01*
X104742115Y-108248956D01*
X104891507Y-108011200D01*
X105013337Y-107758217D01*
X105106077Y-107493180D01*
X105106079Y-107493174D01*
X105121063Y-107427525D01*
X118732683Y-107427525D01*
X118732683Y-107572475D01*
X118736847Y-107588015D01*
X118764310Y-107690509D01*
X118770199Y-107712486D01*
X118770201Y-107712491D01*
X118840814Y-107834795D01*
X118842672Y-107838013D01*
X118945168Y-107940509D01*
X118945857Y-107941005D01*
X118948361Y-107942353D01*
X119067252Y-108010995D01*
X119070270Y-108012869D01*
X119070697Y-108012983D01*
X119070698Y-108012984D01*
X119210708Y-108050500D01*
X119210711Y-108050500D01*
X119355655Y-108050500D01*
X119355658Y-108050500D01*
X119495668Y-108012984D01*
X119621198Y-107940509D01*
X119723692Y-107838015D01*
X119796167Y-107712485D01*
X119833683Y-107572475D01*
X119833683Y-107427525D01*
X119796167Y-107287515D01*
X119796164Y-107287509D01*
X119741796Y-107193341D01*
X119741794Y-107193339D01*
X119723692Y-107161985D01*
X119689232Y-107127525D01*
X122849500Y-107127525D01*
X122849500Y-107272475D01*
X122879654Y-107385008D01*
X122881475Y-107391805D01*
X122887017Y-107412488D01*
X122887018Y-107412491D01*
X122957631Y-107534795D01*
X122959489Y-107538013D01*
X123061985Y-107640509D01*
X123062674Y-107641005D01*
X123065178Y-107642353D01*
X123184069Y-107710995D01*
X123187087Y-107712869D01*
X123187514Y-107712983D01*
X123187515Y-107712984D01*
X123327525Y-107750500D01*
X123327528Y-107750500D01*
X123472472Y-107750500D01*
X123472475Y-107750500D01*
X123612485Y-107712984D01*
X123738015Y-107640509D01*
X123840509Y-107538015D01*
X123912984Y-107412485D01*
X123950500Y-107272475D01*
X123950500Y-107127525D01*
X123912984Y-106987515D01*
X123912696Y-106987017D01*
X123890047Y-106947787D01*
X123840513Y-106861991D01*
X123840508Y-106861984D01*
X123840493Y-106861968D01*
X123738030Y-106759505D01*
X123738014Y-106759490D01*
X123738006Y-106759485D01*
X123684243Y-106728445D01*
X123655808Y-106698624D01*
X123601007Y-106683939D01*
X123601007Y-106683940D01*
X123510161Y-106659598D01*
X123472475Y-106649500D01*
X123472474Y-106649500D01*
X123327525Y-106649500D01*
X123198994Y-106683939D01*
X123198993Y-106683940D01*
X123193392Y-106685441D01*
X123187510Y-106687017D01*
X123061991Y-106759485D01*
X123061984Y-106759490D01*
X123061968Y-106759505D01*
X122959505Y-106861968D01*
X122959490Y-106861984D01*
X122959485Y-106861992D01*
X122887017Y-106987510D01*
X122887015Y-106987515D01*
X122886215Y-106990503D01*
X122886214Y-106990509D01*
X122849500Y-107127525D01*
X119689232Y-107127525D01*
X119621198Y-107059491D01*
X119621196Y-107059490D01*
X119621194Y-107059488D01*
X119615001Y-107055912D01*
X119567426Y-107028445D01*
X119538991Y-106998624D01*
X119484190Y-106983939D01*
X119484190Y-106983940D01*
X119392922Y-106959485D01*
X119355658Y-106949500D01*
X119355657Y-106949500D01*
X119210708Y-106949500D01*
X119082177Y-106983939D01*
X119082176Y-106983940D01*
X119074521Y-106985991D01*
X119070693Y-106987017D01*
X118945174Y-107059485D01*
X118945167Y-107059490D01*
X118945151Y-107059505D01*
X118842688Y-107161968D01*
X118842673Y-107161984D01*
X118842668Y-107161992D01*
X118770200Y-107287509D01*
X118770172Y-107287578D01*
X118769931Y-107288511D01*
X118742254Y-107391805D01*
X118732683Y-107427525D01*
X105121063Y-107427525D01*
X105122811Y-107419868D01*
X105129217Y-107391804D01*
X105129968Y-107388511D01*
X105168560Y-107219424D01*
X105168562Y-107219412D01*
X105170326Y-107203762D01*
X105177751Y-107137854D01*
X105199168Y-106947773D01*
X105200000Y-106942987D01*
X105200000Y-106657010D01*
X105199167Y-106652222D01*
X105173858Y-106427588D01*
X105168564Y-106380601D01*
X105168559Y-106380569D01*
X105106077Y-106106815D01*
X105105973Y-106106522D01*
X105024848Y-105874680D01*
X120899499Y-105874680D01*
X120914028Y-105947717D01*
X120914032Y-105947735D01*
X120914033Y-105947739D01*
X120917480Y-105953826D01*
X120920816Y-105957891D01*
X120969399Y-106030601D01*
X121052256Y-106085964D01*
X121052258Y-106085965D01*
X121052259Y-106085965D01*
X121052260Y-106085966D01*
X121052264Y-106085967D01*
X121052279Y-106085970D01*
X121052288Y-106085972D01*
X121097021Y-106094869D01*
X121117681Y-106098979D01*
X121120415Y-106099703D01*
X121125323Y-106100500D01*
X122874676Y-106100500D01*
X122878796Y-106100500D01*
X122886648Y-106098117D01*
X122947740Y-106085966D01*
X123030601Y-106030601D01*
X123085966Y-105947740D01*
X123100500Y-105874674D01*
X123100500Y-105323998D01*
X140544500Y-105323998D01*
X140544500Y-106672176D01*
X140544934Y-106685441D01*
X140545000Y-106689496D01*
X140545000Y-106810503D01*
X140544934Y-106814557D01*
X140544500Y-106827823D01*
X140544500Y-106975999D01*
X140547100Y-107012358D01*
X140547101Y-107012362D01*
X140552124Y-107047297D01*
X140552132Y-107047346D01*
X140553581Y-107056293D01*
X140553582Y-107056295D01*
X140559474Y-107071273D01*
X140559260Y-107071320D01*
X140561548Y-107081835D01*
X140568780Y-107108194D01*
X140585667Y-107137851D01*
X140588913Y-107146101D01*
X140590078Y-107149062D01*
X140605599Y-107173215D01*
X140607401Y-107176019D01*
X140618110Y-107194825D01*
X140623445Y-107200982D01*
X140626741Y-107206111D01*
X140627865Y-107207859D01*
X140655799Y-107243817D01*
X140655802Y-107243820D01*
X140672079Y-107255557D01*
X140696641Y-107279256D01*
X140726891Y-107295080D01*
X140736664Y-107302127D01*
X140744900Y-107305888D01*
X140744900Y-107305887D01*
X140762744Y-107314036D01*
X140762750Y-107314039D01*
X140765772Y-107315419D01*
X140784976Y-107325465D01*
X140792794Y-107327760D01*
X140800216Y-107331150D01*
X140843183Y-107346306D01*
X140864552Y-107347449D01*
X140875553Y-107348532D01*
X140924000Y-107355500D01*
X141476000Y-107355500D01*
X141530313Y-107349661D01*
X141581824Y-107338455D01*
X141608198Y-107331219D01*
X141659283Y-107302129D01*
X141694818Y-107281894D01*
X141694819Y-107281892D01*
X141694828Y-107281888D01*
X141747632Y-107236133D01*
X141779257Y-107203359D01*
X141825465Y-107115024D01*
X141828815Y-107103617D01*
X141841767Y-107059505D01*
X141845150Y-107047985D01*
X141855500Y-106976000D01*
X141855500Y-106379500D01*
X141875185Y-106312461D01*
X141927989Y-106266706D01*
X141979500Y-106255500D01*
X148120500Y-106255500D01*
X148187539Y-106275185D01*
X148233294Y-106327989D01*
X148244500Y-106379500D01*
X148244500Y-110476002D01*
X148250338Y-110530312D01*
X148261543Y-110581818D01*
X148261546Y-110581827D01*
X148268779Y-110608192D01*
X148268783Y-110608203D01*
X148318105Y-110694818D01*
X148318110Y-110694825D01*
X148318112Y-110694828D01*
X148325631Y-110703505D01*
X148363863Y-110747628D01*
X148363866Y-110747631D01*
X148363867Y-110747632D01*
X148396641Y-110779257D01*
X148484976Y-110825465D01*
X148484977Y-110825465D01*
X148484977Y-110825466D01*
X148527709Y-110838013D01*
X148552015Y-110845150D01*
X148552019Y-110845150D01*
X148552021Y-110845151D01*
X148561230Y-110846475D01*
X148624000Y-110855500D01*
X149374187Y-110855500D01*
X149374188Y-110855500D01*
X149428439Y-110849674D01*
X149479896Y-110838493D01*
X149499754Y-110833052D01*
X149506211Y-110831284D01*
X149506211Y-110831283D01*
X149506214Y-110831283D01*
X149592868Y-110781994D01*
X149645694Y-110736265D01*
X149677336Y-110703505D01*
X149723587Y-110615191D01*
X149743304Y-110548161D01*
X149753688Y-110476184D01*
X149753712Y-110427525D01*
X155299500Y-110427525D01*
X155299500Y-110572475D01*
X155311259Y-110616360D01*
X155331059Y-110690254D01*
X155337015Y-110712484D01*
X155337018Y-110712491D01*
X155407631Y-110834795D01*
X155409489Y-110838013D01*
X155511985Y-110940509D01*
X155512674Y-110941005D01*
X155515178Y-110942353D01*
X155634069Y-111010995D01*
X155637087Y-111012869D01*
X155637514Y-111012983D01*
X155637515Y-111012984D01*
X155777525Y-111050500D01*
X155777528Y-111050500D01*
X155922472Y-111050500D01*
X155922475Y-111050500D01*
X156062485Y-111012984D01*
X156188015Y-110940509D01*
X156290509Y-110838015D01*
X156362984Y-110712485D01*
X156400500Y-110572475D01*
X156400500Y-110427525D01*
X156362984Y-110287515D01*
X156344673Y-110255800D01*
X156290511Y-110161988D01*
X156290506Y-110161982D01*
X156290493Y-110161968D01*
X156188030Y-110059505D01*
X156188014Y-110059490D01*
X156188006Y-110059485D01*
X156134243Y-110028445D01*
X156105808Y-109998624D01*
X156051007Y-109983939D01*
X156051007Y-109983940D01*
X155986740Y-109966720D01*
X155922475Y-109949500D01*
X155922474Y-109949500D01*
X155777525Y-109949500D01*
X155648994Y-109983939D01*
X155648993Y-109983940D01*
X155641338Y-109985991D01*
X155637510Y-109987017D01*
X155511991Y-110059485D01*
X155511984Y-110059490D01*
X155511968Y-110059505D01*
X155409505Y-110161968D01*
X155409490Y-110161984D01*
X155409485Y-110161992D01*
X155337017Y-110287509D01*
X155337004Y-110287541D01*
X155336909Y-110287914D01*
X155299500Y-110427525D01*
X149753712Y-110427525D01*
X149753716Y-110419337D01*
X149753716Y-110419336D01*
X149754330Y-109156558D01*
X149755025Y-107727525D01*
X154249500Y-107727525D01*
X154249500Y-107734925D01*
X154249500Y-107872474D01*
X154270406Y-107950499D01*
X154270407Y-107950499D01*
X154287018Y-108012491D01*
X154357631Y-108134795D01*
X154359489Y-108138013D01*
X154461985Y-108240509D01*
X154462674Y-108241005D01*
X154465178Y-108242353D01*
X154584069Y-108310995D01*
X154587087Y-108312869D01*
X154587514Y-108312983D01*
X154587515Y-108312984D01*
X154727525Y-108350500D01*
X154727528Y-108350500D01*
X154872472Y-108350500D01*
X154872475Y-108350500D01*
X155012485Y-108312984D01*
X155138015Y-108240509D01*
X155240509Y-108138015D01*
X155312984Y-108012485D01*
X155350500Y-107872475D01*
X155350500Y-107727525D01*
X155312984Y-107587515D01*
X155312982Y-107587511D01*
X155309454Y-107581400D01*
X155309453Y-107581399D01*
X155309450Y-107581393D01*
X155309450Y-107581392D01*
X155309448Y-107581390D01*
X155306698Y-107576627D01*
X155305389Y-107574359D01*
X155305388Y-107574358D01*
X155305387Y-107574355D01*
X155296805Y-107559492D01*
X155296803Y-107559489D01*
X155278349Y-107527525D01*
X160449500Y-107527525D01*
X160449500Y-107672475D01*
X160454831Y-107692370D01*
X160480232Y-107787168D01*
X160480233Y-107787170D01*
X160483805Y-107800500D01*
X160487017Y-107812488D01*
X160558874Y-107936947D01*
X160559372Y-107937896D01*
X160661985Y-108040509D01*
X160662674Y-108041005D01*
X160665178Y-108042353D01*
X160784069Y-108110995D01*
X160787087Y-108112869D01*
X160787514Y-108112983D01*
X160787515Y-108112984D01*
X160927525Y-108150500D01*
X160927528Y-108150500D01*
X161072472Y-108150500D01*
X161072475Y-108150500D01*
X161212485Y-108112984D01*
X161338015Y-108040509D01*
X161440509Y-107938015D01*
X161512984Y-107812485D01*
X161550500Y-107672475D01*
X161550500Y-107527525D01*
X161512984Y-107387515D01*
X161496805Y-107359493D01*
X161440511Y-107261988D01*
X161440506Y-107261982D01*
X161440493Y-107261968D01*
X161338030Y-107159505D01*
X161338014Y-107159490D01*
X161338006Y-107159485D01*
X161284243Y-107128445D01*
X161255808Y-107098624D01*
X161201007Y-107083939D01*
X161201007Y-107083940D01*
X161119095Y-107061992D01*
X161072475Y-107049500D01*
X161072474Y-107049500D01*
X160927525Y-107049500D01*
X160798994Y-107083939D01*
X160798993Y-107083940D01*
X160791338Y-107085991D01*
X160787510Y-107087017D01*
X160661991Y-107159485D01*
X160661984Y-107159490D01*
X160661968Y-107159505D01*
X160559505Y-107261968D01*
X160559490Y-107261984D01*
X160559485Y-107261992D01*
X160487017Y-107387509D01*
X160486989Y-107387578D01*
X160486748Y-107388511D01*
X160454317Y-107509547D01*
X160449500Y-107527525D01*
X155278349Y-107527525D01*
X155240511Y-107461988D01*
X155240507Y-107461983D01*
X155138013Y-107359489D01*
X155137321Y-107358990D01*
X155134802Y-107357635D01*
X155093523Y-107333803D01*
X155084242Y-107328444D01*
X155055808Y-107298624D01*
X155001007Y-107283939D01*
X155001007Y-107283940D01*
X154919095Y-107261992D01*
X154872475Y-107249500D01*
X154872474Y-107249500D01*
X154727525Y-107249500D01*
X154598994Y-107283939D01*
X154598993Y-107283940D01*
X154591338Y-107285991D01*
X154587510Y-107287017D01*
X154461991Y-107359485D01*
X154461984Y-107359490D01*
X154461968Y-107359505D01*
X154359505Y-107461968D01*
X154359490Y-107461984D01*
X154359485Y-107461992D01*
X154287017Y-107587509D01*
X154287004Y-107587541D01*
X154286909Y-107587914D01*
X154249500Y-107727525D01*
X149755025Y-107727525D01*
X149756532Y-104627525D01*
X154949500Y-104627525D01*
X154949500Y-104634925D01*
X154949500Y-104772474D01*
X154987013Y-104912477D01*
X154987016Y-104912485D01*
X154987017Y-104912488D01*
X155015339Y-104961543D01*
X155057631Y-105034795D01*
X155059489Y-105038013D01*
X155161985Y-105140509D01*
X155162674Y-105141005D01*
X155165178Y-105142353D01*
X155284069Y-105210995D01*
X155287087Y-105212869D01*
X155287514Y-105212983D01*
X155287515Y-105212984D01*
X155427525Y-105250500D01*
X155427528Y-105250500D01*
X155572472Y-105250500D01*
X155572475Y-105250500D01*
X155712485Y-105212984D01*
X155838015Y-105140509D01*
X155940509Y-105038015D01*
X156012984Y-104912485D01*
X156050500Y-104772475D01*
X156050500Y-104627525D01*
X156012984Y-104487515D01*
X155973606Y-104419311D01*
X155940511Y-104361988D01*
X155940506Y-104361982D01*
X155940493Y-104361968D01*
X155838030Y-104259505D01*
X155838014Y-104259490D01*
X155838011Y-104259488D01*
X155790001Y-104231769D01*
X155789998Y-104231767D01*
X155712488Y-104187017D01*
X155712489Y-104187017D01*
X155661677Y-104173402D01*
X155652401Y-104170916D01*
X155652398Y-104170915D01*
X155595596Y-104155695D01*
X155572475Y-104149500D01*
X155572474Y-104149500D01*
X155427525Y-104149500D01*
X155338323Y-104173401D01*
X155338323Y-104173402D01*
X155315916Y-104179405D01*
X155287506Y-104187018D01*
X155161992Y-104259485D01*
X155161984Y-104259490D01*
X155161968Y-104259505D01*
X155059505Y-104361968D01*
X155059490Y-104361984D01*
X155059485Y-104361992D01*
X154987017Y-104487509D01*
X154987004Y-104487541D01*
X154986909Y-104487914D01*
X154949500Y-104627525D01*
X149756532Y-104627525D01*
X149757237Y-103176617D01*
X149776954Y-103109590D01*
X149829780Y-103063861D01*
X149881295Y-103052680D01*
X161175816Y-103058177D01*
X161175816Y-103058176D01*
X161175818Y-103058177D01*
X161195004Y-103056121D01*
X161230192Y-103052351D01*
X161281763Y-103041145D01*
X161308198Y-103033896D01*
X161394828Y-102984565D01*
X161447632Y-102938810D01*
X161479257Y-102906036D01*
X161525465Y-102817701D01*
X161545150Y-102750662D01*
X161555500Y-102678677D01*
X161555500Y-102024000D01*
X161549661Y-101969687D01*
X161538455Y-101918176D01*
X161531219Y-101891802D01*
X161526331Y-101883218D01*
X161481894Y-101805181D01*
X161481890Y-101805176D01*
X161481888Y-101805172D01*
X161446097Y-101763867D01*
X161436136Y-101752371D01*
X161433325Y-101749659D01*
X161403359Y-101720743D01*
X161315024Y-101674535D01*
X161315023Y-101674534D01*
X161315022Y-101674534D01*
X161315022Y-101674533D01*
X161247990Y-101654851D01*
X161247978Y-101654848D01*
X161176001Y-101644500D01*
X161176000Y-101644500D01*
X148624000Y-101644500D01*
X148623997Y-101644500D01*
X148569687Y-101650338D01*
X148518181Y-101661543D01*
X148518172Y-101661546D01*
X148491807Y-101668779D01*
X148491796Y-101668783D01*
X148405181Y-101718105D01*
X148405173Y-101718111D01*
X148352371Y-101763863D01*
X148320743Y-101796640D01*
X148274534Y-101884977D01*
X148274533Y-101884977D01*
X148254851Y-101952009D01*
X148254848Y-101952021D01*
X148244500Y-102023998D01*
X148244500Y-104820500D01*
X148224815Y-104887539D01*
X148172011Y-104933294D01*
X148120500Y-104944500D01*
X140923997Y-104944500D01*
X140869687Y-104950338D01*
X140818181Y-104961543D01*
X140818172Y-104961546D01*
X140791807Y-104968779D01*
X140791796Y-104968783D01*
X140705181Y-105018105D01*
X140705173Y-105018111D01*
X140652371Y-105063863D01*
X140620743Y-105096640D01*
X140574534Y-105184977D01*
X140574533Y-105184977D01*
X140554851Y-105252009D01*
X140554848Y-105252021D01*
X140544500Y-105323998D01*
X123100500Y-105323998D01*
X123100500Y-104125326D01*
X123100500Y-104125323D01*
X123100499Y-104125321D01*
X123085967Y-104052264D01*
X123085966Y-104052260D01*
X123078112Y-104040506D01*
X123068357Y-104025906D01*
X123068356Y-104025903D01*
X123030604Y-103969403D01*
X123030600Y-103969398D01*
X122957891Y-103920816D01*
X122953826Y-103917480D01*
X122947739Y-103914033D01*
X122947735Y-103914032D01*
X122947709Y-103914026D01*
X122874680Y-103899500D01*
X122874677Y-103899500D01*
X122874674Y-103899500D01*
X121125326Y-103899500D01*
X121125323Y-103899500D01*
X121125319Y-103899500D01*
X121052285Y-103914027D01*
X121052262Y-103914032D01*
X121052258Y-103914033D01*
X120969399Y-103969399D01*
X120914033Y-104052258D01*
X120914032Y-104052266D01*
X120914028Y-104052281D01*
X120899500Y-104125318D01*
X120899500Y-104125321D01*
X120899500Y-105874678D01*
X120899500Y-105874680D01*
X120899499Y-105874680D01*
X105024848Y-105874680D01*
X105013337Y-105841782D01*
X104918754Y-105645378D01*
X104891508Y-105588801D01*
X104742113Y-105351040D01*
X104742110Y-105351036D01*
X104667182Y-105257078D01*
X103947687Y-105976573D01*
X103886364Y-106010058D01*
X103816672Y-106005074D01*
X103760739Y-105963202D01*
X103759688Y-105961778D01*
X103729723Y-105920535D01*
X103579468Y-105770280D01*
X103579466Y-105770278D01*
X103538216Y-105740308D01*
X103495553Y-105684980D01*
X103489574Y-105615366D01*
X103522180Y-105553571D01*
X103523359Y-105552375D01*
X104016961Y-105058773D01*
X109299499Y-105058773D01*
X109332178Y-105223056D01*
X109332184Y-105223083D01*
X109396292Y-105377856D01*
X109396295Y-105377860D01*
X109489373Y-105517162D01*
X109607837Y-105635626D01*
X109622431Y-105645377D01*
X109747137Y-105728703D01*
X109901918Y-105792816D01*
X110066228Y-105825499D01*
X110066232Y-105825500D01*
X110066233Y-105825500D01*
X110233768Y-105825500D01*
X110233769Y-105825499D01*
X110398082Y-105792816D01*
X110552863Y-105728703D01*
X110692162Y-105635626D01*
X110810626Y-105517162D01*
X110903703Y-105377863D01*
X110967816Y-105223082D01*
X111000500Y-105058767D01*
X111000500Y-104891233D01*
X110967816Y-104726918D01*
X110903703Y-104572137D01*
X110847160Y-104487515D01*
X110847157Y-104487511D01*
X110810627Y-104432838D01*
X110810621Y-104432831D01*
X110692164Y-104314374D01*
X110552856Y-104221292D01*
X110398083Y-104157184D01*
X110398056Y-104157178D01*
X110233773Y-104124500D01*
X110233771Y-104124500D01*
X110233767Y-104124500D01*
X110066233Y-104124500D01*
X110066228Y-104124500D01*
X110066226Y-104124500D01*
X109901942Y-104157178D01*
X109901915Y-104157184D01*
X109747142Y-104221292D01*
X109607834Y-104314374D01*
X109489374Y-104432834D01*
X109396292Y-104572142D01*
X109332184Y-104726915D01*
X109332178Y-104726942D01*
X109299500Y-104891225D01*
X109299500Y-104891228D01*
X109299500Y-105058771D01*
X109299500Y-105058773D01*
X109299499Y-105058773D01*
X104016961Y-105058773D01*
X104242918Y-104832816D01*
X104242917Y-104832815D01*
X104242918Y-104832815D01*
X104183999Y-104785831D01*
X104148950Y-104757880D01*
X103911200Y-104608492D01*
X103911197Y-104608490D01*
X103658218Y-104486662D01*
X103458433Y-104416755D01*
X103393617Y-104394075D01*
X103393187Y-104393922D01*
X103119429Y-104331439D01*
X103119397Y-104331434D01*
X102840407Y-104300000D01*
X102840401Y-104300000D01*
X102559598Y-104300000D01*
X102559591Y-104300000D01*
X102280601Y-104331434D01*
X102280569Y-104331439D01*
X102006808Y-104393923D01*
X102006347Y-104394087D01*
X101741780Y-104486662D01*
X101488801Y-104608490D01*
X101251045Y-104757882D01*
X101157079Y-104832815D01*
X101876575Y-105552311D01*
X101910060Y-105613634D01*
X101905076Y-105683325D01*
X101863204Y-105739259D01*
X101861782Y-105740308D01*
X101820537Y-105770275D01*
X101820531Y-105770280D01*
X101670280Y-105920531D01*
X101670275Y-105920537D01*
X101640308Y-105961782D01*
X101584977Y-106004446D01*
X101515364Y-106010424D01*
X101453570Y-105977816D01*
X101452311Y-105976575D01*
X100732815Y-105257079D01*
X100732814Y-105257079D01*
X100732812Y-105257079D01*
X100732563Y-105257393D01*
X100732558Y-105257396D01*
X100732558Y-105257399D01*
X100706851Y-105281579D01*
X100697596Y-105288075D01*
X100631417Y-105310478D01*
X100563631Y-105293544D01*
X100515760Y-105242651D01*
X100515753Y-105242638D01*
X100513894Y-105238970D01*
X100500500Y-105182913D01*
X100500500Y-102202139D01*
X110649500Y-102202139D01*
X110649500Y-103747876D01*
X110649659Y-103749806D01*
X110649885Y-103751454D01*
X110655907Y-103807482D01*
X110667335Y-103838121D01*
X110706202Y-103942328D01*
X110706206Y-103942335D01*
X110749086Y-103999616D01*
X110792450Y-104057542D01*
X110792452Y-104057544D01*
X110792455Y-104057547D01*
X110907664Y-104143793D01*
X110907671Y-104143797D01*
X110957155Y-104162253D01*
X110992513Y-104188721D01*
X111049444Y-104194835D01*
X111049443Y-104194839D01*
X111049458Y-104194836D01*
X111102127Y-104200500D01*
X112397872Y-104200499D01*
X112457483Y-104194091D01*
X112592331Y-104143796D01*
X112707546Y-104057546D01*
X112793796Y-103942331D01*
X112804351Y-103914033D01*
X112829207Y-103847389D01*
X112833098Y-103838121D01*
X112837652Y-103828398D01*
X112849116Y-103800703D01*
X112849117Y-103800704D01*
X112854456Y-103787804D01*
X112898284Y-103733394D01*
X112964573Y-103711314D01*
X112970409Y-103712801D01*
X112972068Y-103712332D01*
X112990193Y-103717845D01*
X113032261Y-103728568D01*
X113034105Y-103729662D01*
X113036125Y-103731815D01*
X113038914Y-103732664D01*
X113058082Y-103755223D01*
X113081353Y-103780030D01*
X113095380Y-103807560D01*
X113193300Y-103942335D01*
X113220272Y-103979459D01*
X113220276Y-103979464D01*
X113220281Y-103979470D01*
X113370528Y-104129717D01*
X113370532Y-104129720D01*
X113370535Y-104129723D01*
X113370540Y-104129727D01*
X113542442Y-104254620D01*
X113731782Y-104351095D01*
X113731785Y-104351096D01*
X113731791Y-104351099D01*
X113854185Y-104390865D01*
X113933871Y-104416757D01*
X113950000Y-104419312D01*
X113950000Y-103547971D01*
X113969685Y-103480932D01*
X114022489Y-103435177D01*
X114091647Y-103425233D01*
X114106078Y-103428192D01*
X114187465Y-103450000D01*
X114312532Y-103450000D01*
X114312535Y-103450000D01*
X114393909Y-103428196D01*
X114463756Y-103429859D01*
X114521619Y-103469021D01*
X114549123Y-103533250D01*
X114550000Y-103547971D01*
X114550000Y-104419310D01*
X114550000Y-104419311D01*
X114556488Y-104418283D01*
X114556492Y-104418283D01*
X114566126Y-104416757D01*
X114566129Y-104416757D01*
X114768217Y-104351095D01*
X114957557Y-104254620D01*
X115129459Y-104129727D01*
X115129464Y-104129723D01*
X115279723Y-103979464D01*
X115279727Y-103979459D01*
X115404620Y-103807557D01*
X115454170Y-103710311D01*
X115501092Y-103618224D01*
X115501094Y-103618218D01*
X115511258Y-103586935D01*
X115526823Y-103555271D01*
X115533214Y-103545925D01*
X115587297Y-103501697D01*
X115656711Y-103493729D01*
X115719409Y-103524548D01*
X115725063Y-103529737D01*
X115751714Y-103564812D01*
X115754347Y-103569980D01*
X115808766Y-103676786D01*
X115831301Y-103707802D01*
X115910586Y-103816928D01*
X116033072Y-103939414D01*
X116173212Y-104041232D01*
X116327555Y-104119873D01*
X116492299Y-104173402D01*
X116663389Y-104200500D01*
X116663390Y-104200500D01*
X116836610Y-104200500D01*
X116836611Y-104200500D01*
X117007701Y-104173402D01*
X117172445Y-104119873D01*
X117326788Y-104041232D01*
X117466928Y-103939414D01*
X117589414Y-103816928D01*
X117691232Y-103676788D01*
X117769873Y-103522445D01*
X117823402Y-103357701D01*
X117850500Y-103186611D01*
X117850500Y-102763389D01*
X117823402Y-102592299D01*
X117769873Y-102427555D01*
X117769871Y-102427552D01*
X117769871Y-102427550D01*
X117768473Y-102424806D01*
X117767624Y-102423140D01*
X117767317Y-102422353D01*
X117766588Y-102421107D01*
X117758455Y-102405146D01*
X117742274Y-102373389D01*
X120899500Y-102373389D01*
X120899500Y-102546611D01*
X120926598Y-102717701D01*
X120980127Y-102882445D01*
X121058768Y-103036788D01*
X121160586Y-103176928D01*
X121283072Y-103299414D01*
X121423212Y-103401232D01*
X121577555Y-103479873D01*
X121742299Y-103533402D01*
X121913389Y-103560500D01*
X121913390Y-103560500D01*
X122086610Y-103560500D01*
X122086611Y-103560500D01*
X122257701Y-103533402D01*
X122422445Y-103479873D01*
X122576788Y-103401232D01*
X122716928Y-103299414D01*
X122839414Y-103176928D01*
X122941232Y-103036788D01*
X123019873Y-102882445D01*
X123073402Y-102717701D01*
X123100500Y-102546611D01*
X123100500Y-102373389D01*
X123093909Y-102331778D01*
X123089766Y-102305621D01*
X123073402Y-102202299D01*
X123019873Y-102037555D01*
X123019871Y-102037552D01*
X123019871Y-102037550D01*
X122976289Y-101952015D01*
X122941232Y-101883212D01*
X122839414Y-101743072D01*
X122716928Y-101620586D01*
X122576788Y-101518768D01*
X122422449Y-101440128D01*
X122271215Y-101390988D01*
X122271203Y-101390985D01*
X122257701Y-101386598D01*
X122257699Y-101386597D01*
X122257698Y-101386597D01*
X122243312Y-101384318D01*
X122243306Y-101384317D01*
X122153188Y-101370044D01*
X122126271Y-101365781D01*
X122110407Y-101363268D01*
X122086614Y-101359500D01*
X122086611Y-101359500D01*
X121913389Y-101359500D01*
X121913388Y-101359500D01*
X121873726Y-101365781D01*
X121873725Y-101365780D01*
X121742304Y-101386596D01*
X121577549Y-101440129D01*
X121423210Y-101518768D01*
X121343256Y-101576859D01*
X121343255Y-101576859D01*
X121294941Y-101611961D01*
X121287564Y-101616092D01*
X121156092Y-101747564D01*
X121151963Y-101754938D01*
X121136230Y-101776594D01*
X121136228Y-101776597D01*
X121058772Y-101883205D01*
X121058768Y-101883211D01*
X121058766Y-101883213D01*
X121058764Y-101883218D01*
X120980129Y-102037549D01*
X120926596Y-102202305D01*
X120926595Y-102202306D01*
X120915365Y-102273218D01*
X120904979Y-102338795D01*
X120899500Y-102373389D01*
X117742274Y-102373389D01*
X117691231Y-102273211D01*
X117671408Y-102245927D01*
X117589414Y-102133072D01*
X117466928Y-102010586D01*
X117326788Y-101908768D01*
X117293490Y-101891802D01*
X117172449Y-101830128D01*
X117021215Y-101780988D01*
X117021203Y-101780985D01*
X117007701Y-101776598D01*
X117007699Y-101776597D01*
X117007698Y-101776597D01*
X116993312Y-101774318D01*
X116993306Y-101774317D01*
X116903188Y-101760044D01*
X116876271Y-101755781D01*
X116860407Y-101753268D01*
X116836614Y-101749500D01*
X116836611Y-101749500D01*
X116663389Y-101749500D01*
X116663388Y-101749500D01*
X116623726Y-101755781D01*
X116623725Y-101755780D01*
X116492304Y-101776596D01*
X116327549Y-101830129D01*
X116173218Y-101908764D01*
X116173205Y-101908772D01*
X116103401Y-101959488D01*
X116052837Y-101996224D01*
X116052830Y-101996230D01*
X116033072Y-102010586D01*
X116033070Y-102010588D01*
X116033069Y-102010588D01*
X115910588Y-102133069D01*
X115910588Y-102133070D01*
X115910586Y-102133072D01*
X115896233Y-102152826D01*
X115896226Y-102152834D01*
X115873463Y-102184168D01*
X115871034Y-102187511D01*
X115860285Y-102202306D01*
X115808766Y-102273212D01*
X115808763Y-102273218D01*
X115753277Y-102382115D01*
X115753275Y-102382117D01*
X115753275Y-102382120D01*
X115732939Y-102410966D01*
X115725174Y-102419187D01*
X115664830Y-102454406D01*
X115595025Y-102451411D01*
X115537922Y-102411154D01*
X115533151Y-102405146D01*
X115512325Y-102366349D01*
X115501092Y-102331775D01*
X115501091Y-102331772D01*
X115404619Y-102142440D01*
X115306701Y-102007667D01*
X115279727Y-101970540D01*
X115279723Y-101970535D01*
X115279720Y-101970532D01*
X115279717Y-101970528D01*
X115129470Y-101820281D01*
X115129465Y-101820277D01*
X115129464Y-101820276D01*
X115129459Y-101820272D01*
X115066207Y-101774317D01*
X114957560Y-101695381D01*
X114957559Y-101695380D01*
X114957557Y-101695379D01*
X114768217Y-101598904D01*
X114768213Y-101598902D01*
X114768208Y-101598900D01*
X114566133Y-101533243D01*
X114566117Y-101533239D01*
X114550000Y-101530686D01*
X114550000Y-102402028D01*
X114530315Y-102469067D01*
X114477511Y-102514822D01*
X114408353Y-102524766D01*
X114393908Y-102521803D01*
X114312536Y-102500000D01*
X114312535Y-102500000D01*
X114187465Y-102500000D01*
X114187463Y-102500000D01*
X114106092Y-102521803D01*
X114036242Y-102520140D01*
X113978380Y-102480977D01*
X113950877Y-102416748D01*
X113950000Y-102402028D01*
X113950000Y-101530687D01*
X113949999Y-101530686D01*
X113949997Y-101530686D01*
X113933882Y-101533239D01*
X113933865Y-101533243D01*
X113731790Y-101598900D01*
X113731782Y-101598903D01*
X113731782Y-101598904D01*
X113608848Y-101661543D01*
X113542438Y-101695381D01*
X113370557Y-101820259D01*
X113370528Y-101820281D01*
X113220283Y-101970526D01*
X113220274Y-101970536D01*
X113220272Y-101970538D01*
X113220267Y-101970545D01*
X113095378Y-102142441D01*
X113085179Y-102162456D01*
X113075535Y-102173481D01*
X113071082Y-102184168D01*
X113064843Y-102191302D01*
X113057078Y-102199523D01*
X113048251Y-102204674D01*
X113045200Y-102208163D01*
X113035972Y-102214541D01*
X113025308Y-102218064D01*
X112996734Y-102234742D01*
X112977357Y-102233910D01*
X112969631Y-102236464D01*
X112956187Y-102233002D01*
X112926929Y-102231747D01*
X112912898Y-102221855D01*
X112901968Y-102219041D01*
X112888878Y-102204921D01*
X112869824Y-102191488D01*
X112869812Y-102191472D01*
X112868349Y-102189629D01*
X112861122Y-102174981D01*
X112854467Y-102167802D01*
X112852706Y-102157921D01*
X112845192Y-102142691D01*
X112840790Y-102125136D01*
X112836444Y-102120367D01*
X112831730Y-102109377D01*
X112814055Y-102061986D01*
X112804943Y-102037555D01*
X112793797Y-102007671D01*
X112793793Y-102007664D01*
X112707547Y-101892455D01*
X112707544Y-101892452D01*
X112707542Y-101892450D01*
X112649616Y-101849086D01*
X112592335Y-101806206D01*
X112592332Y-101806204D01*
X112592330Y-101806203D01*
X112592328Y-101806202D01*
X112457482Y-101755908D01*
X112457483Y-101755908D01*
X112397883Y-101749501D01*
X112397881Y-101749500D01*
X112397873Y-101749500D01*
X112397864Y-101749500D01*
X112396841Y-101749500D01*
X111102123Y-101749500D01*
X111100192Y-101749659D01*
X111098545Y-101749885D01*
X111042516Y-101755908D01*
X110910409Y-101805181D01*
X110907666Y-101806204D01*
X110907665Y-101806205D01*
X110792456Y-101892450D01*
X110792450Y-101892456D01*
X110706205Y-102007665D01*
X110706203Y-102007668D01*
X110655907Y-102142516D01*
X110649501Y-102202116D01*
X110649500Y-102202139D01*
X100500500Y-102202139D01*
X100500500Y-100642329D01*
X100505523Y-100607393D01*
X100509927Y-100592395D01*
X100547672Y-100533644D01*
X100547700Y-100533619D01*
X100547699Y-100533619D01*
X100549041Y-100532456D01*
X100603920Y-100504977D01*
X100611479Y-100503333D01*
X100637832Y-100500500D01*
X169357670Y-100500500D01*
X169392606Y-100505523D01*
G37*
%TD.AperFunction*%
%TD*%
%TA.AperFunction,Conductor*%
%TO.N,VDD*%
G36*
X128833507Y-107404713D02*
G01*
X128848512Y-107409113D01*
X128863517Y-107418749D01*
X128880629Y-107423769D01*
X128907294Y-107446862D01*
X128907303Y-107446868D01*
X128907309Y-107446875D01*
X128908495Y-107448243D01*
X128935959Y-107503065D01*
X128937606Y-107510622D01*
X128940450Y-107536981D01*
X128943907Y-116839261D01*
X128943909Y-116842888D01*
X133584684Y-118864622D01*
X139213570Y-118854978D01*
X139206047Y-114465169D01*
X139211010Y-114430229D01*
X139218370Y-114405004D01*
X139249699Y-114352083D01*
X141299459Y-112301203D01*
X141299779Y-111543579D01*
X141300500Y-111540892D01*
X141300500Y-111409108D01*
X141299837Y-111406636D01*
X141299907Y-111242286D01*
X141304946Y-111207353D01*
X141305969Y-111203877D01*
X141309356Y-111192358D01*
X141347136Y-111133616D01*
X141348525Y-111132414D01*
X141403366Y-111104980D01*
X141410904Y-111103341D01*
X141437222Y-111100515D01*
X142058135Y-111100469D01*
X142093063Y-111105488D01*
X142108066Y-111109892D01*
X142166833Y-111147648D01*
X142168019Y-111149017D01*
X142195488Y-111203875D01*
X142196245Y-111207353D01*
X142197134Y-111211438D01*
X142199968Y-111237796D01*
X142199996Y-112431677D01*
X142199997Y-112431678D01*
X142194975Y-112466613D01*
X142187489Y-112492111D01*
X142157243Y-112543798D01*
X140150023Y-114600002D01*
X140150084Y-117436774D01*
X140150133Y-119750110D01*
X140150133Y-119750109D01*
X140150134Y-119750109D01*
X140150134Y-119750110D01*
X140150135Y-119750109D01*
X140167301Y-119757220D01*
X140175134Y-119752943D01*
X140201491Y-119750109D01*
X149808287Y-119749955D01*
X149843219Y-119754976D01*
X149858217Y-119759380D01*
X149916996Y-119797154D01*
X149917012Y-119797172D01*
X149918216Y-119798562D01*
X149945641Y-119853327D01*
X149947279Y-119860838D01*
X149950126Y-119887153D01*
X149950694Y-120552307D01*
X149945703Y-120587241D01*
X149941313Y-120602242D01*
X149903591Y-120661054D01*
X149903580Y-120661063D01*
X149902210Y-120662252D01*
X149847395Y-120689746D01*
X149839839Y-120691397D01*
X149813486Y-120694253D01*
X135790407Y-120706257D01*
X135765635Y-120703779D01*
X135741603Y-120698901D01*
X135717825Y-120691524D01*
X135648853Y-120662252D01*
X133760530Y-119860838D01*
X128091896Y-117455040D01*
X128061707Y-117436774D01*
X128054867Y-117431165D01*
X128049620Y-117426860D01*
X128010269Y-117369133D01*
X128005937Y-117355732D01*
X127999929Y-117317600D01*
X127999998Y-107541773D01*
X128005020Y-107506851D01*
X128009426Y-107491844D01*
X128047198Y-107433071D01*
X128048579Y-107431874D01*
X128103409Y-107404426D01*
X128110944Y-107402786D01*
X128137268Y-107399949D01*
X128798575Y-107399703D01*
X128833507Y-107404713D01*
G37*
%TD.AperFunction*%
%TD*%
%TA.AperFunction,Conductor*%
%TO.N,+3.3V*%
G36*
X153293106Y-114205023D02*
G01*
X153308104Y-114209427D01*
X153323094Y-114219057D01*
X153340175Y-114224067D01*
X153366855Y-114247172D01*
X153368042Y-114248541D01*
X153395518Y-114303402D01*
X153397163Y-114310960D01*
X153400000Y-114337331D01*
X153400000Y-117122185D01*
X153399500Y-117129815D01*
X153399500Y-117270186D01*
X153400000Y-117277816D01*
X153400000Y-119858611D01*
X153399999Y-119858617D01*
X153400000Y-119858620D01*
X153394975Y-119893555D01*
X153390570Y-119908553D01*
X153352856Y-119967271D01*
X153352791Y-119967326D01*
X153352791Y-119967328D01*
X153352789Y-119967328D01*
X153351504Y-119968444D01*
X153296546Y-119995960D01*
X153288949Y-119997609D01*
X153262562Y-120000431D01*
X152037878Y-119999601D01*
X152037875Y-119999600D01*
X152037875Y-119999601D01*
X152002948Y-119994554D01*
X151987948Y-119990139D01*
X151929199Y-119952324D01*
X151927991Y-119950929D01*
X151900595Y-119896125D01*
X151898959Y-119888593D01*
X151896134Y-119862287D01*
X151896102Y-115400543D01*
X151896102Y-115400542D01*
X151896100Y-115400541D01*
X148741828Y-115400536D01*
X148741825Y-115400535D01*
X148741824Y-115400536D01*
X148706890Y-115395512D01*
X148691893Y-115391108D01*
X148633116Y-115353332D01*
X148633114Y-115353330D01*
X148631927Y-115351960D01*
X148604477Y-115297119D01*
X148602832Y-115289557D01*
X148600000Y-115263204D01*
X148600000Y-114341829D01*
X148605023Y-114306893D01*
X148609427Y-114291895D01*
X148647172Y-114233144D01*
X148647200Y-114233119D01*
X148647199Y-114233119D01*
X148648541Y-114231956D01*
X148703420Y-114204477D01*
X148710979Y-114202833D01*
X148737332Y-114200000D01*
X153258170Y-114200000D01*
X153293106Y-114205023D01*
G37*
%TD.AperFunction*%
%TD*%
%TA.AperFunction,Conductor*%
%TO.N,+3.3V*%
G36*
X109493841Y-109000595D02*
G01*
X109505918Y-109001785D01*
X109517930Y-109003566D01*
X109540373Y-109008030D01*
X109563619Y-109015081D01*
X109585770Y-109024257D01*
X109607201Y-109035715D01*
X109610772Y-109038101D01*
X109629548Y-109053512D01*
X109634475Y-109058439D01*
X109644265Y-109066999D01*
X109649202Y-109072496D01*
X109660045Y-109086453D01*
X109664289Y-109092805D01*
X109675744Y-109114235D01*
X109684913Y-109136368D01*
X109691969Y-109159627D01*
X109696429Y-109182052D01*
X109698212Y-109194070D01*
X109699402Y-109206147D01*
X109700000Y-109218306D01*
X109700000Y-110382488D01*
X109699402Y-110394643D01*
X109698371Y-110405105D01*
X109698212Y-110406724D01*
X109696425Y-110418761D01*
X109691963Y-110441181D01*
X109688278Y-110455300D01*
X109686768Y-110459945D01*
X109686384Y-110460873D01*
X109686379Y-110461143D01*
X109684150Y-110468003D01*
X109682318Y-110470681D01*
X109682245Y-110470857D01*
X109678067Y-110483217D01*
X109674881Y-110489873D01*
X109666119Y-110505251D01*
X109663179Y-110509649D01*
X109661879Y-110511595D01*
X109646460Y-110530372D01*
X109629509Y-110547316D01*
X109610702Y-110562742D01*
X109607142Y-110565119D01*
X109585696Y-110576573D01*
X109563556Y-110585734D01*
X109540285Y-110592783D01*
X109525822Y-110595653D01*
X109517860Y-110597233D01*
X109505808Y-110599015D01*
X109493737Y-110600197D01*
X109481589Y-110600787D01*
X108981788Y-110600530D01*
X108968787Y-110599716D01*
X108968159Y-110599772D01*
X108968150Y-110599771D01*
X108966549Y-110599576D01*
X108966472Y-110599572D01*
X108966464Y-110599571D01*
X108966449Y-110599564D01*
X108965916Y-110599500D01*
X108965892Y-110599500D01*
X108834108Y-110599500D01*
X108833228Y-110599500D01*
X108818723Y-110600445D01*
X107592823Y-110599816D01*
X106820398Y-110599418D01*
X106820385Y-110599416D01*
X106608518Y-110599309D01*
X106606076Y-110599308D01*
X106606045Y-110599308D01*
X106605973Y-110599308D01*
X106600000Y-122200000D01*
X121181702Y-122200000D01*
X121193841Y-122200595D01*
X121205918Y-122201785D01*
X121217930Y-122203566D01*
X121240373Y-122208030D01*
X121263619Y-122215081D01*
X121285770Y-122224257D01*
X121307201Y-122235715D01*
X121310772Y-122238101D01*
X121329548Y-122253512D01*
X121346486Y-122270450D01*
X121361908Y-122289241D01*
X121364288Y-122292803D01*
X121375744Y-122314236D01*
X121384911Y-122336365D01*
X121391970Y-122359635D01*
X121396428Y-122382051D01*
X121398212Y-122394072D01*
X121399402Y-122406142D01*
X121400000Y-122418308D01*
X121400000Y-123281693D01*
X121399402Y-123293855D01*
X121398212Y-123305929D01*
X121396427Y-123317959D01*
X121391970Y-123340365D01*
X121384913Y-123363629D01*
X121375745Y-123385761D01*
X121364288Y-123407195D01*
X121361908Y-123410757D01*
X121346486Y-123429548D01*
X121329548Y-123446486D01*
X121310763Y-123461903D01*
X121310757Y-123461908D01*
X121307195Y-123464288D01*
X121285763Y-123475744D01*
X121263635Y-123484911D01*
X121240361Y-123491971D01*
X121235835Y-123492871D01*
X121217951Y-123496428D01*
X121205928Y-123498212D01*
X121193858Y-123499402D01*
X121181692Y-123500000D01*
X118077816Y-123500000D01*
X118070187Y-123499500D01*
X118065892Y-123499500D01*
X117934108Y-123499500D01*
X117929813Y-123499500D01*
X117922184Y-123500000D01*
X116077816Y-123500000D01*
X116070187Y-123499500D01*
X116065892Y-123499500D01*
X115934108Y-123499500D01*
X115929813Y-123499500D01*
X115922184Y-123500000D01*
X114077816Y-123500000D01*
X114070187Y-123499500D01*
X114065892Y-123499500D01*
X113934108Y-123499500D01*
X113929813Y-123499500D01*
X113922184Y-123500000D01*
X112077816Y-123500000D01*
X112070187Y-123499500D01*
X112065892Y-123499500D01*
X111934108Y-123499500D01*
X111929813Y-123499500D01*
X111922184Y-123500000D01*
X110077816Y-123500000D01*
X110070187Y-123499500D01*
X110065892Y-123499500D01*
X109934108Y-123499500D01*
X109929813Y-123499500D01*
X109922184Y-123500000D01*
X108077816Y-123500000D01*
X108070187Y-123499500D01*
X108065892Y-123499500D01*
X107934108Y-123499500D01*
X107929813Y-123499500D01*
X107922184Y-123500000D01*
X106077816Y-123500000D01*
X106070187Y-123499500D01*
X106065892Y-123499500D01*
X105934108Y-123499500D01*
X105929813Y-123499500D01*
X105922184Y-123500000D01*
X105418307Y-123500000D01*
X105406152Y-123499403D01*
X105394081Y-123498214D01*
X105382043Y-123496428D01*
X105372744Y-123494578D01*
X105359627Y-123491969D01*
X105336375Y-123484915D01*
X105314232Y-123475743D01*
X105292798Y-123464284D01*
X105289235Y-123461903D01*
X105270450Y-123446486D01*
X105253512Y-123429548D01*
X105238099Y-123410770D01*
X105235715Y-123407201D01*
X105224257Y-123385770D01*
X105215081Y-123363619D01*
X105208030Y-123340373D01*
X105203566Y-123317930D01*
X105201785Y-123305918D01*
X105200595Y-123293841D01*
X105200000Y-123281702D01*
X105200000Y-109218297D01*
X105200595Y-109206162D01*
X105201785Y-109194078D01*
X105203569Y-109182055D01*
X105208030Y-109159628D01*
X105215086Y-109136368D01*
X105224256Y-109114230D01*
X105235711Y-109092802D01*
X105238097Y-109089232D01*
X105253507Y-109070455D01*
X105270455Y-109053507D01*
X105289220Y-109038104D01*
X105292801Y-109035712D01*
X105314229Y-109024257D01*
X105336378Y-109015082D01*
X105359624Y-109008030D01*
X105382071Y-109003565D01*
X105394078Y-109001785D01*
X105406161Y-109000595D01*
X105418296Y-109000000D01*
X109481702Y-109000000D01*
X109493841Y-109000595D01*
G37*
%TD.AperFunction*%
%TD*%
%TA.AperFunction,Conductor*%
%TO.N,+3.3V_LDO*%
G36*
X119641738Y-115701501D02*
G01*
X119674272Y-115706612D01*
X119676316Y-115707270D01*
X119677450Y-115707153D01*
X119710895Y-115718410D01*
X119740289Y-115733248D01*
X119756787Y-115743259D01*
X120621927Y-116365224D01*
X125817794Y-120100631D01*
X128737970Y-122200000D01*
X149705926Y-122200000D01*
X149743182Y-122200000D01*
X149743183Y-122200000D01*
X149774379Y-122187959D01*
X149774386Y-122187957D01*
X157034063Y-119385975D01*
X157034087Y-119385964D01*
X157150000Y-119341227D01*
X157150000Y-116562210D01*
X157152381Y-116538029D01*
X157160412Y-116497651D01*
X157178927Y-116452956D01*
X157194877Y-116429086D01*
X157229086Y-116394877D01*
X157252956Y-116378927D01*
X157297653Y-116360412D01*
X157338027Y-116352381D01*
X157362211Y-116350000D01*
X157787789Y-116350000D01*
X157811971Y-116352381D01*
X157852346Y-116360412D01*
X157897043Y-116378927D01*
X157920913Y-116394877D01*
X157955122Y-116429086D01*
X157971072Y-116452956D01*
X157989588Y-116497655D01*
X157997617Y-116538020D01*
X158000000Y-116562210D01*
X158000000Y-119901322D01*
X157997505Y-119926072D01*
X157989107Y-119967300D01*
X157969748Y-120012851D01*
X157953125Y-120037004D01*
X157917490Y-120071356D01*
X157881975Y-120093927D01*
X157859749Y-120105096D01*
X149775375Y-123196179D01*
X149764599Y-123199743D01*
X149745816Y-123205015D01*
X149723508Y-123209122D01*
X149704082Y-123210884D01*
X149692746Y-123211391D01*
X135088935Y-123195536D01*
X128795800Y-123188703D01*
X128777293Y-123187294D01*
X128745965Y-123182530D01*
X128710608Y-123171563D01*
X128682084Y-123157763D01*
X128666032Y-123148455D01*
X118749473Y-116357961D01*
X118726948Y-116338136D01*
X118693495Y-116300588D01*
X118686898Y-116288076D01*
X118678977Y-116280592D01*
X118665711Y-116247891D01*
X118653629Y-116199069D01*
X118650000Y-116169287D01*
X118650000Y-115912210D01*
X118652381Y-115888029D01*
X118660412Y-115847651D01*
X118678927Y-115802956D01*
X118694877Y-115779086D01*
X118729086Y-115744877D01*
X118752956Y-115728927D01*
X118797653Y-115710412D01*
X118838027Y-115702381D01*
X118862211Y-115700000D01*
X119622506Y-115700000D01*
X119641738Y-115701501D01*
G37*
%TD.AperFunction*%
%TD*%
%TA.AperFunction,Conductor*%
%TO.N,+3.3V*%
G36*
X161243039Y-101919685D02*
G01*
X161288794Y-101972489D01*
X161300000Y-102024000D01*
X161300000Y-102678677D01*
X161280315Y-102745716D01*
X161227511Y-102791471D01*
X161175940Y-102802677D01*
X149501923Y-102796996D01*
X149498188Y-110476060D01*
X149478471Y-110543090D01*
X149425645Y-110588819D01*
X149374188Y-110600000D01*
X148624000Y-110600000D01*
X148556961Y-110580315D01*
X148511206Y-110527511D01*
X148500000Y-110476000D01*
X148500000Y-106000000D01*
X141600000Y-106000000D01*
X141600000Y-106976000D01*
X141580315Y-107043039D01*
X141527511Y-107088794D01*
X141476000Y-107100000D01*
X140924000Y-107100000D01*
X140915314Y-107097449D01*
X140906353Y-107098738D01*
X140882312Y-107087759D01*
X140856961Y-107080315D01*
X140851033Y-107073474D01*
X140842797Y-107069713D01*
X140828507Y-107047478D01*
X140811206Y-107027511D01*
X140808918Y-107016996D01*
X140805023Y-107010935D01*
X140800000Y-106976000D01*
X140800000Y-106827816D01*
X140800500Y-106820186D01*
X140800500Y-106679815D01*
X140800000Y-106672185D01*
X140800000Y-105324000D01*
X140819685Y-105256961D01*
X140872489Y-105211206D01*
X140924000Y-105200000D01*
X148500000Y-105200000D01*
X148500000Y-102024000D01*
X148519685Y-101956961D01*
X148572489Y-101911206D01*
X148624000Y-101900000D01*
X161176000Y-101900000D01*
X161243039Y-101919685D01*
G37*
%TD.AperFunction*%
%TD*%
M02*
