%TF.GenerationSoftware,KiCad,Pcbnew,10.0.3*%
%TF.CreationDate,2026-07-21T15:16:09+03:00*%
%TF.ProjectId,FailDeadly,4661696c-4465-4616-946c-792e6b696361,001*%
%TF.SameCoordinates,Original*%
%TF.FileFunction,Legend,Bot*%
%TF.FilePolarity,Positive*%
%FSLAX46Y46*%
G04 Gerber Fmt 4.6, Leading zero omitted, Abs format (unit mm)*
G04 Created by KiCad (PCBNEW 10.0.3) date 2026-07-21 15:16:09*
%MOMM*%
%LPD*%
G01*
G04 APERTURE LIST*
%ADD10C,0.150000*%
%ADD11C,0.300000*%
%ADD12C,0.400000*%
%ADD13C,0.097999*%
%ADD14C,0.100000*%
%ADD15C,0.200000*%
%ADD16C,0.120000*%
G04 APERTURE END LIST*
D10*
X177002200Y-166007200D02*
X285002200Y-166007200D01*
X285002200Y-198007200D01*
X177002200Y-198007200D01*
X177002200Y-166007200D01*
X10000000Y-10000000D02*
X287002200Y-10000000D01*
X287002200Y-200007200D01*
X10000000Y-200007200D01*
X10000000Y-10000000D01*
X12000000Y-12000000D02*
X285002200Y-12000000D01*
X285002200Y-198007200D01*
X12000000Y-198007200D01*
X12000000Y-12000000D01*
X60000000Y-12000000D02*
X60000000Y-10000000D01*
X110000000Y-12000000D02*
X110000000Y-10000000D01*
X160000000Y-12000000D02*
X160000000Y-10000000D01*
X210000000Y-12000000D02*
X210000000Y-10000000D01*
X260000000Y-12000000D02*
X260000000Y-10000000D01*
X36089160Y-11593604D02*
X35346303Y-11593604D01*
X35717731Y-11593604D02*
X35717731Y-10293604D01*
X35717731Y-10293604D02*
X35593922Y-10479319D01*
X35593922Y-10479319D02*
X35470112Y-10603128D01*
X35470112Y-10603128D02*
X35346303Y-10665033D01*
X85346303Y-10417414D02*
X85408207Y-10355509D01*
X85408207Y-10355509D02*
X85532017Y-10293604D01*
X85532017Y-10293604D02*
X85841541Y-10293604D01*
X85841541Y-10293604D02*
X85965350Y-10355509D01*
X85965350Y-10355509D02*
X86027255Y-10417414D01*
X86027255Y-10417414D02*
X86089160Y-10541223D01*
X86089160Y-10541223D02*
X86089160Y-10665033D01*
X86089160Y-10665033D02*
X86027255Y-10850747D01*
X86027255Y-10850747D02*
X85284398Y-11593604D01*
X85284398Y-11593604D02*
X86089160Y-11593604D01*
X135284398Y-10293604D02*
X136089160Y-10293604D01*
X136089160Y-10293604D02*
X135655826Y-10788842D01*
X135655826Y-10788842D02*
X135841541Y-10788842D01*
X135841541Y-10788842D02*
X135965350Y-10850747D01*
X135965350Y-10850747D02*
X136027255Y-10912652D01*
X136027255Y-10912652D02*
X136089160Y-11036461D01*
X136089160Y-11036461D02*
X136089160Y-11345985D01*
X136089160Y-11345985D02*
X136027255Y-11469795D01*
X136027255Y-11469795D02*
X135965350Y-11531700D01*
X135965350Y-11531700D02*
X135841541Y-11593604D01*
X135841541Y-11593604D02*
X135470112Y-11593604D01*
X135470112Y-11593604D02*
X135346303Y-11531700D01*
X135346303Y-11531700D02*
X135284398Y-11469795D01*
X185965350Y-10726938D02*
X185965350Y-11593604D01*
X185655826Y-10231700D02*
X185346303Y-11160271D01*
X185346303Y-11160271D02*
X186151064Y-11160271D01*
X236027255Y-10293604D02*
X235408207Y-10293604D01*
X235408207Y-10293604D02*
X235346303Y-10912652D01*
X235346303Y-10912652D02*
X235408207Y-10850747D01*
X235408207Y-10850747D02*
X235532017Y-10788842D01*
X235532017Y-10788842D02*
X235841541Y-10788842D01*
X235841541Y-10788842D02*
X235965350Y-10850747D01*
X235965350Y-10850747D02*
X236027255Y-10912652D01*
X236027255Y-10912652D02*
X236089160Y-11036461D01*
X236089160Y-11036461D02*
X236089160Y-11345985D01*
X236089160Y-11345985D02*
X236027255Y-11469795D01*
X236027255Y-11469795D02*
X235965350Y-11531700D01*
X235965350Y-11531700D02*
X235841541Y-11593604D01*
X235841541Y-11593604D02*
X235532017Y-11593604D01*
X235532017Y-11593604D02*
X235408207Y-11531700D01*
X235408207Y-11531700D02*
X235346303Y-11469795D01*
X285965350Y-10293604D02*
X285717731Y-10293604D01*
X285717731Y-10293604D02*
X285593922Y-10355509D01*
X285593922Y-10355509D02*
X285532017Y-10417414D01*
X285532017Y-10417414D02*
X285408207Y-10603128D01*
X285408207Y-10603128D02*
X285346303Y-10850747D01*
X285346303Y-10850747D02*
X285346303Y-11345985D01*
X285346303Y-11345985D02*
X285408207Y-11469795D01*
X285408207Y-11469795D02*
X285470112Y-11531700D01*
X285470112Y-11531700D02*
X285593922Y-11593604D01*
X285593922Y-11593604D02*
X285841541Y-11593604D01*
X285841541Y-11593604D02*
X285965350Y-11531700D01*
X285965350Y-11531700D02*
X286027255Y-11469795D01*
X286027255Y-11469795D02*
X286089160Y-11345985D01*
X286089160Y-11345985D02*
X286089160Y-11036461D01*
X286089160Y-11036461D02*
X286027255Y-10912652D01*
X286027255Y-10912652D02*
X285965350Y-10850747D01*
X285965350Y-10850747D02*
X285841541Y-10788842D01*
X285841541Y-10788842D02*
X285593922Y-10788842D01*
X285593922Y-10788842D02*
X285470112Y-10850747D01*
X285470112Y-10850747D02*
X285408207Y-10912652D01*
X285408207Y-10912652D02*
X285346303Y-11036461D01*
X60000000Y-198007200D02*
X60000000Y-200007200D01*
X110000000Y-198007200D02*
X110000000Y-200007200D01*
X160000000Y-198007200D02*
X160000000Y-200007200D01*
X210000000Y-198007200D02*
X210000000Y-200007200D01*
X260000000Y-198007200D02*
X260000000Y-200007200D01*
X36089160Y-199600804D02*
X35346303Y-199600804D01*
X35717731Y-199600804D02*
X35717731Y-198300804D01*
X35717731Y-198300804D02*
X35593922Y-198486519D01*
X35593922Y-198486519D02*
X35470112Y-198610328D01*
X35470112Y-198610328D02*
X35346303Y-198672233D01*
X85346303Y-198424614D02*
X85408207Y-198362709D01*
X85408207Y-198362709D02*
X85532017Y-198300804D01*
X85532017Y-198300804D02*
X85841541Y-198300804D01*
X85841541Y-198300804D02*
X85965350Y-198362709D01*
X85965350Y-198362709D02*
X86027255Y-198424614D01*
X86027255Y-198424614D02*
X86089160Y-198548423D01*
X86089160Y-198548423D02*
X86089160Y-198672233D01*
X86089160Y-198672233D02*
X86027255Y-198857947D01*
X86027255Y-198857947D02*
X85284398Y-199600804D01*
X85284398Y-199600804D02*
X86089160Y-199600804D01*
X135284398Y-198300804D02*
X136089160Y-198300804D01*
X136089160Y-198300804D02*
X135655826Y-198796042D01*
X135655826Y-198796042D02*
X135841541Y-198796042D01*
X135841541Y-198796042D02*
X135965350Y-198857947D01*
X135965350Y-198857947D02*
X136027255Y-198919852D01*
X136027255Y-198919852D02*
X136089160Y-199043661D01*
X136089160Y-199043661D02*
X136089160Y-199353185D01*
X136089160Y-199353185D02*
X136027255Y-199476995D01*
X136027255Y-199476995D02*
X135965350Y-199538900D01*
X135965350Y-199538900D02*
X135841541Y-199600804D01*
X135841541Y-199600804D02*
X135470112Y-199600804D01*
X135470112Y-199600804D02*
X135346303Y-199538900D01*
X135346303Y-199538900D02*
X135284398Y-199476995D01*
X185965350Y-198734138D02*
X185965350Y-199600804D01*
X185655826Y-198238900D02*
X185346303Y-199167471D01*
X185346303Y-199167471D02*
X186151064Y-199167471D01*
X236027255Y-198300804D02*
X235408207Y-198300804D01*
X235408207Y-198300804D02*
X235346303Y-198919852D01*
X235346303Y-198919852D02*
X235408207Y-198857947D01*
X235408207Y-198857947D02*
X235532017Y-198796042D01*
X235532017Y-198796042D02*
X235841541Y-198796042D01*
X235841541Y-198796042D02*
X235965350Y-198857947D01*
X235965350Y-198857947D02*
X236027255Y-198919852D01*
X236027255Y-198919852D02*
X236089160Y-199043661D01*
X236089160Y-199043661D02*
X236089160Y-199353185D01*
X236089160Y-199353185D02*
X236027255Y-199476995D01*
X236027255Y-199476995D02*
X235965350Y-199538900D01*
X235965350Y-199538900D02*
X235841541Y-199600804D01*
X235841541Y-199600804D02*
X235532017Y-199600804D01*
X235532017Y-199600804D02*
X235408207Y-199538900D01*
X235408207Y-199538900D02*
X235346303Y-199476995D01*
X285965350Y-198300804D02*
X285717731Y-198300804D01*
X285717731Y-198300804D02*
X285593922Y-198362709D01*
X285593922Y-198362709D02*
X285532017Y-198424614D01*
X285532017Y-198424614D02*
X285408207Y-198610328D01*
X285408207Y-198610328D02*
X285346303Y-198857947D01*
X285346303Y-198857947D02*
X285346303Y-199353185D01*
X285346303Y-199353185D02*
X285408207Y-199476995D01*
X285408207Y-199476995D02*
X285470112Y-199538900D01*
X285470112Y-199538900D02*
X285593922Y-199600804D01*
X285593922Y-199600804D02*
X285841541Y-199600804D01*
X285841541Y-199600804D02*
X285965350Y-199538900D01*
X285965350Y-199538900D02*
X286027255Y-199476995D01*
X286027255Y-199476995D02*
X286089160Y-199353185D01*
X286089160Y-199353185D02*
X286089160Y-199043661D01*
X286089160Y-199043661D02*
X286027255Y-198919852D01*
X286027255Y-198919852D02*
X285965350Y-198857947D01*
X285965350Y-198857947D02*
X285841541Y-198796042D01*
X285841541Y-198796042D02*
X285593922Y-198796042D01*
X285593922Y-198796042D02*
X285470112Y-198857947D01*
X285470112Y-198857947D02*
X285408207Y-198919852D01*
X285408207Y-198919852D02*
X285346303Y-199043661D01*
X10000000Y-60000000D02*
X12000000Y-60000000D01*
X10000000Y-110000000D02*
X12000000Y-110000000D01*
X10000000Y-160000000D02*
X12000000Y-160000000D01*
X10690476Y-35222176D02*
X11309523Y-35222176D01*
X10566666Y-35593604D02*
X10999999Y-34293604D01*
X10999999Y-34293604D02*
X11433333Y-35593604D01*
X11092857Y-84912652D02*
X11278571Y-84974557D01*
X11278571Y-84974557D02*
X11340476Y-85036461D01*
X11340476Y-85036461D02*
X11402380Y-85160271D01*
X11402380Y-85160271D02*
X11402380Y-85345985D01*
X11402380Y-85345985D02*
X11340476Y-85469795D01*
X11340476Y-85469795D02*
X11278571Y-85531700D01*
X11278571Y-85531700D02*
X11154761Y-85593604D01*
X11154761Y-85593604D02*
X10659523Y-85593604D01*
X10659523Y-85593604D02*
X10659523Y-84293604D01*
X10659523Y-84293604D02*
X11092857Y-84293604D01*
X11092857Y-84293604D02*
X11216666Y-84355509D01*
X11216666Y-84355509D02*
X11278571Y-84417414D01*
X11278571Y-84417414D02*
X11340476Y-84541223D01*
X11340476Y-84541223D02*
X11340476Y-84665033D01*
X11340476Y-84665033D02*
X11278571Y-84788842D01*
X11278571Y-84788842D02*
X11216666Y-84850747D01*
X11216666Y-84850747D02*
X11092857Y-84912652D01*
X11092857Y-84912652D02*
X10659523Y-84912652D01*
X11402380Y-135469795D02*
X11340476Y-135531700D01*
X11340476Y-135531700D02*
X11154761Y-135593604D01*
X11154761Y-135593604D02*
X11030952Y-135593604D01*
X11030952Y-135593604D02*
X10845238Y-135531700D01*
X10845238Y-135531700D02*
X10721428Y-135407890D01*
X10721428Y-135407890D02*
X10659523Y-135284080D01*
X10659523Y-135284080D02*
X10597619Y-135036461D01*
X10597619Y-135036461D02*
X10597619Y-134850747D01*
X10597619Y-134850747D02*
X10659523Y-134603128D01*
X10659523Y-134603128D02*
X10721428Y-134479319D01*
X10721428Y-134479319D02*
X10845238Y-134355509D01*
X10845238Y-134355509D02*
X11030952Y-134293604D01*
X11030952Y-134293604D02*
X11154761Y-134293604D01*
X11154761Y-134293604D02*
X11340476Y-134355509D01*
X11340476Y-134355509D02*
X11402380Y-134417414D01*
X10659523Y-185593604D02*
X10659523Y-184293604D01*
X10659523Y-184293604D02*
X10969047Y-184293604D01*
X10969047Y-184293604D02*
X11154761Y-184355509D01*
X11154761Y-184355509D02*
X11278571Y-184479319D01*
X11278571Y-184479319D02*
X11340476Y-184603128D01*
X11340476Y-184603128D02*
X11402380Y-184850747D01*
X11402380Y-184850747D02*
X11402380Y-185036461D01*
X11402380Y-185036461D02*
X11340476Y-185284080D01*
X11340476Y-185284080D02*
X11278571Y-185407890D01*
X11278571Y-185407890D02*
X11154761Y-185531700D01*
X11154761Y-185531700D02*
X10969047Y-185593604D01*
X10969047Y-185593604D02*
X10659523Y-185593604D01*
X287002200Y-60000000D02*
X285002200Y-60000000D01*
X287002200Y-110000000D02*
X285002200Y-110000000D01*
X287002200Y-160000000D02*
X285002200Y-160000000D01*
X285692676Y-35222176D02*
X286311723Y-35222176D01*
X285568866Y-35593604D02*
X286002199Y-34293604D01*
X286002199Y-34293604D02*
X286435533Y-35593604D01*
X286095057Y-84912652D02*
X286280771Y-84974557D01*
X286280771Y-84974557D02*
X286342676Y-85036461D01*
X286342676Y-85036461D02*
X286404580Y-85160271D01*
X286404580Y-85160271D02*
X286404580Y-85345985D01*
X286404580Y-85345985D02*
X286342676Y-85469795D01*
X286342676Y-85469795D02*
X286280771Y-85531700D01*
X286280771Y-85531700D02*
X286156961Y-85593604D01*
X286156961Y-85593604D02*
X285661723Y-85593604D01*
X285661723Y-85593604D02*
X285661723Y-84293604D01*
X285661723Y-84293604D02*
X286095057Y-84293604D01*
X286095057Y-84293604D02*
X286218866Y-84355509D01*
X286218866Y-84355509D02*
X286280771Y-84417414D01*
X286280771Y-84417414D02*
X286342676Y-84541223D01*
X286342676Y-84541223D02*
X286342676Y-84665033D01*
X286342676Y-84665033D02*
X286280771Y-84788842D01*
X286280771Y-84788842D02*
X286218866Y-84850747D01*
X286218866Y-84850747D02*
X286095057Y-84912652D01*
X286095057Y-84912652D02*
X285661723Y-84912652D01*
X286404580Y-135469795D02*
X286342676Y-135531700D01*
X286342676Y-135531700D02*
X286156961Y-135593604D01*
X286156961Y-135593604D02*
X286033152Y-135593604D01*
X286033152Y-135593604D02*
X285847438Y-135531700D01*
X285847438Y-135531700D02*
X285723628Y-135407890D01*
X285723628Y-135407890D02*
X285661723Y-135284080D01*
X285661723Y-135284080D02*
X285599819Y-135036461D01*
X285599819Y-135036461D02*
X285599819Y-134850747D01*
X285599819Y-134850747D02*
X285661723Y-134603128D01*
X285661723Y-134603128D02*
X285723628Y-134479319D01*
X285723628Y-134479319D02*
X285847438Y-134355509D01*
X285847438Y-134355509D02*
X286033152Y-134293604D01*
X286033152Y-134293604D02*
X286156961Y-134293604D01*
X286156961Y-134293604D02*
X286342676Y-134355509D01*
X286342676Y-134355509D02*
X286404580Y-134417414D01*
X285661723Y-185593604D02*
X285661723Y-184293604D01*
X285661723Y-184293604D02*
X285971247Y-184293604D01*
X285971247Y-184293604D02*
X286156961Y-184355509D01*
X286156961Y-184355509D02*
X286280771Y-184479319D01*
X286280771Y-184479319D02*
X286342676Y-184603128D01*
X286342676Y-184603128D02*
X286404580Y-184850747D01*
X286404580Y-184850747D02*
X286404580Y-185036461D01*
X286404580Y-185036461D02*
X286342676Y-185284080D01*
X286342676Y-185284080D02*
X286280771Y-185407890D01*
X286280771Y-185407890D02*
X286156961Y-185531700D01*
X286156961Y-185531700D02*
X285971247Y-185593604D01*
X285971247Y-185593604D02*
X285661723Y-185593604D01*
X200458026Y-193793328D02*
X200458026Y-192293328D01*
X200458026Y-192293328D02*
X200815169Y-192293328D01*
X200815169Y-192293328D02*
X201029455Y-192364757D01*
X201029455Y-192364757D02*
X201172312Y-192507614D01*
X201172312Y-192507614D02*
X201243741Y-192650471D01*
X201243741Y-192650471D02*
X201315169Y-192936185D01*
X201315169Y-192936185D02*
X201315169Y-193150471D01*
X201315169Y-193150471D02*
X201243741Y-193436185D01*
X201243741Y-193436185D02*
X201172312Y-193579042D01*
X201172312Y-193579042D02*
X201029455Y-193721900D01*
X201029455Y-193721900D02*
X200815169Y-193793328D01*
X200815169Y-193793328D02*
X200458026Y-193793328D01*
X202600884Y-193793328D02*
X202600884Y-193007614D01*
X202600884Y-193007614D02*
X202529455Y-192864757D01*
X202529455Y-192864757D02*
X202386598Y-192793328D01*
X202386598Y-192793328D02*
X202100884Y-192793328D01*
X202100884Y-192793328D02*
X201958026Y-192864757D01*
X202600884Y-193721900D02*
X202458026Y-193793328D01*
X202458026Y-193793328D02*
X202100884Y-193793328D01*
X202100884Y-193793328D02*
X201958026Y-193721900D01*
X201958026Y-193721900D02*
X201886598Y-193579042D01*
X201886598Y-193579042D02*
X201886598Y-193436185D01*
X201886598Y-193436185D02*
X201958026Y-193293328D01*
X201958026Y-193293328D02*
X202100884Y-193221900D01*
X202100884Y-193221900D02*
X202458026Y-193221900D01*
X202458026Y-193221900D02*
X202600884Y-193150471D01*
X203100884Y-192793328D02*
X203672312Y-192793328D01*
X203315169Y-192293328D02*
X203315169Y-193579042D01*
X203315169Y-193579042D02*
X203386598Y-193721900D01*
X203386598Y-193721900D02*
X203529455Y-193793328D01*
X203529455Y-193793328D02*
X203672312Y-193793328D01*
X204743741Y-193721900D02*
X204600884Y-193793328D01*
X204600884Y-193793328D02*
X204315170Y-193793328D01*
X204315170Y-193793328D02*
X204172312Y-193721900D01*
X204172312Y-193721900D02*
X204100884Y-193579042D01*
X204100884Y-193579042D02*
X204100884Y-193007614D01*
X204100884Y-193007614D02*
X204172312Y-192864757D01*
X204172312Y-192864757D02*
X204315170Y-192793328D01*
X204315170Y-192793328D02*
X204600884Y-192793328D01*
X204600884Y-192793328D02*
X204743741Y-192864757D01*
X204743741Y-192864757D02*
X204815170Y-193007614D01*
X204815170Y-193007614D02*
X204815170Y-193150471D01*
X204815170Y-193150471D02*
X204100884Y-193293328D01*
X205458026Y-193650471D02*
X205529455Y-193721900D01*
X205529455Y-193721900D02*
X205458026Y-193793328D01*
X205458026Y-193793328D02*
X205386598Y-193721900D01*
X205386598Y-193721900D02*
X205458026Y-193650471D01*
X205458026Y-193650471D02*
X205458026Y-193793328D01*
X205458026Y-192864757D02*
X205529455Y-192936185D01*
X205529455Y-192936185D02*
X205458026Y-193007614D01*
X205458026Y-193007614D02*
X205386598Y-192936185D01*
X205386598Y-192936185D02*
X205458026Y-192864757D01*
X205458026Y-192864757D02*
X205458026Y-193007614D01*
X207243741Y-192436185D02*
X207315169Y-192364757D01*
X207315169Y-192364757D02*
X207458027Y-192293328D01*
X207458027Y-192293328D02*
X207815169Y-192293328D01*
X207815169Y-192293328D02*
X207958027Y-192364757D01*
X207958027Y-192364757D02*
X208029455Y-192436185D01*
X208029455Y-192436185D02*
X208100884Y-192579042D01*
X208100884Y-192579042D02*
X208100884Y-192721900D01*
X208100884Y-192721900D02*
X208029455Y-192936185D01*
X208029455Y-192936185D02*
X207172312Y-193793328D01*
X207172312Y-193793328D02*
X208100884Y-193793328D01*
X209029455Y-192293328D02*
X209172312Y-192293328D01*
X209172312Y-192293328D02*
X209315169Y-192364757D01*
X209315169Y-192364757D02*
X209386598Y-192436185D01*
X209386598Y-192436185D02*
X209458026Y-192579042D01*
X209458026Y-192579042D02*
X209529455Y-192864757D01*
X209529455Y-192864757D02*
X209529455Y-193221900D01*
X209529455Y-193221900D02*
X209458026Y-193507614D01*
X209458026Y-193507614D02*
X209386598Y-193650471D01*
X209386598Y-193650471D02*
X209315169Y-193721900D01*
X209315169Y-193721900D02*
X209172312Y-193793328D01*
X209172312Y-193793328D02*
X209029455Y-193793328D01*
X209029455Y-193793328D02*
X208886598Y-193721900D01*
X208886598Y-193721900D02*
X208815169Y-193650471D01*
X208815169Y-193650471D02*
X208743740Y-193507614D01*
X208743740Y-193507614D02*
X208672312Y-193221900D01*
X208672312Y-193221900D02*
X208672312Y-192864757D01*
X208672312Y-192864757D02*
X208743740Y-192579042D01*
X208743740Y-192579042D02*
X208815169Y-192436185D01*
X208815169Y-192436185D02*
X208886598Y-192364757D01*
X208886598Y-192364757D02*
X209029455Y-192293328D01*
X210100883Y-192436185D02*
X210172311Y-192364757D01*
X210172311Y-192364757D02*
X210315169Y-192293328D01*
X210315169Y-192293328D02*
X210672311Y-192293328D01*
X210672311Y-192293328D02*
X210815169Y-192364757D01*
X210815169Y-192364757D02*
X210886597Y-192436185D01*
X210886597Y-192436185D02*
X210958026Y-192579042D01*
X210958026Y-192579042D02*
X210958026Y-192721900D01*
X210958026Y-192721900D02*
X210886597Y-192936185D01*
X210886597Y-192936185D02*
X210029454Y-193793328D01*
X210029454Y-193793328D02*
X210958026Y-193793328D01*
X212243740Y-192293328D02*
X211958025Y-192293328D01*
X211958025Y-192293328D02*
X211815168Y-192364757D01*
X211815168Y-192364757D02*
X211743740Y-192436185D01*
X211743740Y-192436185D02*
X211600882Y-192650471D01*
X211600882Y-192650471D02*
X211529454Y-192936185D01*
X211529454Y-192936185D02*
X211529454Y-193507614D01*
X211529454Y-193507614D02*
X211600882Y-193650471D01*
X211600882Y-193650471D02*
X211672311Y-193721900D01*
X211672311Y-193721900D02*
X211815168Y-193793328D01*
X211815168Y-193793328D02*
X212100882Y-193793328D01*
X212100882Y-193793328D02*
X212243740Y-193721900D01*
X212243740Y-193721900D02*
X212315168Y-193650471D01*
X212315168Y-193650471D02*
X212386597Y-193507614D01*
X212386597Y-193507614D02*
X212386597Y-193150471D01*
X212386597Y-193150471D02*
X212315168Y-193007614D01*
X212315168Y-193007614D02*
X212243740Y-192936185D01*
X212243740Y-192936185D02*
X212100882Y-192864757D01*
X212100882Y-192864757D02*
X211815168Y-192864757D01*
X211815168Y-192864757D02*
X211672311Y-192936185D01*
X211672311Y-192936185D02*
X211600882Y-193007614D01*
X211600882Y-193007614D02*
X211529454Y-193150471D01*
X213029453Y-193221900D02*
X214172311Y-193221900D01*
X215172311Y-192293328D02*
X215315168Y-192293328D01*
X215315168Y-192293328D02*
X215458025Y-192364757D01*
X215458025Y-192364757D02*
X215529454Y-192436185D01*
X215529454Y-192436185D02*
X215600882Y-192579042D01*
X215600882Y-192579042D02*
X215672311Y-192864757D01*
X215672311Y-192864757D02*
X215672311Y-193221900D01*
X215672311Y-193221900D02*
X215600882Y-193507614D01*
X215600882Y-193507614D02*
X215529454Y-193650471D01*
X215529454Y-193650471D02*
X215458025Y-193721900D01*
X215458025Y-193721900D02*
X215315168Y-193793328D01*
X215315168Y-193793328D02*
X215172311Y-193793328D01*
X215172311Y-193793328D02*
X215029454Y-193721900D01*
X215029454Y-193721900D02*
X214958025Y-193650471D01*
X214958025Y-193650471D02*
X214886596Y-193507614D01*
X214886596Y-193507614D02*
X214815168Y-193221900D01*
X214815168Y-193221900D02*
X214815168Y-192864757D01*
X214815168Y-192864757D02*
X214886596Y-192579042D01*
X214886596Y-192579042D02*
X214958025Y-192436185D01*
X214958025Y-192436185D02*
X215029454Y-192364757D01*
X215029454Y-192364757D02*
X215172311Y-192293328D01*
X216172310Y-192293328D02*
X217172310Y-192293328D01*
X217172310Y-192293328D02*
X216529453Y-193793328D01*
X217743738Y-193221900D02*
X218886596Y-193221900D01*
X219529453Y-192436185D02*
X219600881Y-192364757D01*
X219600881Y-192364757D02*
X219743739Y-192293328D01*
X219743739Y-192293328D02*
X220100881Y-192293328D01*
X220100881Y-192293328D02*
X220243739Y-192364757D01*
X220243739Y-192364757D02*
X220315167Y-192436185D01*
X220315167Y-192436185D02*
X220386596Y-192579042D01*
X220386596Y-192579042D02*
X220386596Y-192721900D01*
X220386596Y-192721900D02*
X220315167Y-192936185D01*
X220315167Y-192936185D02*
X219458024Y-193793328D01*
X219458024Y-193793328D02*
X220386596Y-193793328D01*
X221315167Y-192293328D02*
X221458024Y-192293328D01*
X221458024Y-192293328D02*
X221600881Y-192364757D01*
X221600881Y-192364757D02*
X221672310Y-192436185D01*
X221672310Y-192436185D02*
X221743738Y-192579042D01*
X221743738Y-192579042D02*
X221815167Y-192864757D01*
X221815167Y-192864757D02*
X221815167Y-193221900D01*
X221815167Y-193221900D02*
X221743738Y-193507614D01*
X221743738Y-193507614D02*
X221672310Y-193650471D01*
X221672310Y-193650471D02*
X221600881Y-193721900D01*
X221600881Y-193721900D02*
X221458024Y-193793328D01*
X221458024Y-193793328D02*
X221315167Y-193793328D01*
X221315167Y-193793328D02*
X221172310Y-193721900D01*
X221172310Y-193721900D02*
X221100881Y-193650471D01*
X221100881Y-193650471D02*
X221029452Y-193507614D01*
X221029452Y-193507614D02*
X220958024Y-193221900D01*
X220958024Y-193221900D02*
X220958024Y-192864757D01*
X220958024Y-192864757D02*
X221029452Y-192579042D01*
X221029452Y-192579042D02*
X221100881Y-192436185D01*
X221100881Y-192436185D02*
X221172310Y-192364757D01*
X221172310Y-192364757D02*
X221315167Y-192293328D01*
X177002200Y-194507200D02*
X285002200Y-194507200D01*
X178458026Y-196593328D02*
X178458026Y-195093328D01*
X179315169Y-196593328D02*
X178672312Y-195736185D01*
X179315169Y-195093328D02*
X178458026Y-195950471D01*
X179958026Y-196593328D02*
X179958026Y-195593328D01*
X179958026Y-195093328D02*
X179886598Y-195164757D01*
X179886598Y-195164757D02*
X179958026Y-195236185D01*
X179958026Y-195236185D02*
X180029455Y-195164757D01*
X180029455Y-195164757D02*
X179958026Y-195093328D01*
X179958026Y-195093328D02*
X179958026Y-195236185D01*
X181529455Y-196450471D02*
X181458027Y-196521900D01*
X181458027Y-196521900D02*
X181243741Y-196593328D01*
X181243741Y-196593328D02*
X181100884Y-196593328D01*
X181100884Y-196593328D02*
X180886598Y-196521900D01*
X180886598Y-196521900D02*
X180743741Y-196379042D01*
X180743741Y-196379042D02*
X180672312Y-196236185D01*
X180672312Y-196236185D02*
X180600884Y-195950471D01*
X180600884Y-195950471D02*
X180600884Y-195736185D01*
X180600884Y-195736185D02*
X180672312Y-195450471D01*
X180672312Y-195450471D02*
X180743741Y-195307614D01*
X180743741Y-195307614D02*
X180886598Y-195164757D01*
X180886598Y-195164757D02*
X181100884Y-195093328D01*
X181100884Y-195093328D02*
X181243741Y-195093328D01*
X181243741Y-195093328D02*
X181458027Y-195164757D01*
X181458027Y-195164757D02*
X181529455Y-195236185D01*
X182815170Y-196593328D02*
X182815170Y-195807614D01*
X182815170Y-195807614D02*
X182743741Y-195664757D01*
X182743741Y-195664757D02*
X182600884Y-195593328D01*
X182600884Y-195593328D02*
X182315170Y-195593328D01*
X182315170Y-195593328D02*
X182172312Y-195664757D01*
X182815170Y-196521900D02*
X182672312Y-196593328D01*
X182672312Y-196593328D02*
X182315170Y-196593328D01*
X182315170Y-196593328D02*
X182172312Y-196521900D01*
X182172312Y-196521900D02*
X182100884Y-196379042D01*
X182100884Y-196379042D02*
X182100884Y-196236185D01*
X182100884Y-196236185D02*
X182172312Y-196093328D01*
X182172312Y-196093328D02*
X182315170Y-196021900D01*
X182315170Y-196021900D02*
X182672312Y-196021900D01*
X182672312Y-196021900D02*
X182815170Y-195950471D01*
X184172313Y-196593328D02*
X184172313Y-195093328D01*
X184172313Y-196521900D02*
X184029455Y-196593328D01*
X184029455Y-196593328D02*
X183743741Y-196593328D01*
X183743741Y-196593328D02*
X183600884Y-196521900D01*
X183600884Y-196521900D02*
X183529455Y-196450471D01*
X183529455Y-196450471D02*
X183458027Y-196307614D01*
X183458027Y-196307614D02*
X183458027Y-195879042D01*
X183458027Y-195879042D02*
X183529455Y-195736185D01*
X183529455Y-195736185D02*
X183600884Y-195664757D01*
X183600884Y-195664757D02*
X183743741Y-195593328D01*
X183743741Y-195593328D02*
X184029455Y-195593328D01*
X184029455Y-195593328D02*
X184172313Y-195664757D01*
X186029455Y-195807614D02*
X186529455Y-195807614D01*
X186743741Y-196593328D02*
X186029455Y-196593328D01*
X186029455Y-196593328D02*
X186029455Y-195093328D01*
X186029455Y-195093328D02*
X186743741Y-195093328D01*
X187386598Y-196450471D02*
X187458027Y-196521900D01*
X187458027Y-196521900D02*
X187386598Y-196593328D01*
X187386598Y-196593328D02*
X187315170Y-196521900D01*
X187315170Y-196521900D02*
X187386598Y-196450471D01*
X187386598Y-196450471D02*
X187386598Y-196593328D01*
X188100884Y-196593328D02*
X188100884Y-195093328D01*
X188100884Y-195093328D02*
X188458027Y-195093328D01*
X188458027Y-195093328D02*
X188672313Y-195164757D01*
X188672313Y-195164757D02*
X188815170Y-195307614D01*
X188815170Y-195307614D02*
X188886599Y-195450471D01*
X188886599Y-195450471D02*
X188958027Y-195736185D01*
X188958027Y-195736185D02*
X188958027Y-195950471D01*
X188958027Y-195950471D02*
X188886599Y-196236185D01*
X188886599Y-196236185D02*
X188815170Y-196379042D01*
X188815170Y-196379042D02*
X188672313Y-196521900D01*
X188672313Y-196521900D02*
X188458027Y-196593328D01*
X188458027Y-196593328D02*
X188100884Y-196593328D01*
X189600884Y-196450471D02*
X189672313Y-196521900D01*
X189672313Y-196521900D02*
X189600884Y-196593328D01*
X189600884Y-196593328D02*
X189529456Y-196521900D01*
X189529456Y-196521900D02*
X189600884Y-196450471D01*
X189600884Y-196450471D02*
X189600884Y-196593328D01*
X190243742Y-196164757D02*
X190958028Y-196164757D01*
X190100885Y-196593328D02*
X190600885Y-195093328D01*
X190600885Y-195093328D02*
X191100885Y-196593328D01*
X191600884Y-196450471D02*
X191672313Y-196521900D01*
X191672313Y-196521900D02*
X191600884Y-196593328D01*
X191600884Y-196593328D02*
X191529456Y-196521900D01*
X191529456Y-196521900D02*
X191600884Y-196450471D01*
X191600884Y-196450471D02*
X191600884Y-196593328D01*
X194243742Y-196593328D02*
X193386599Y-196593328D01*
X193815170Y-196593328D02*
X193815170Y-195093328D01*
X193815170Y-195093328D02*
X193672313Y-195307614D01*
X193672313Y-195307614D02*
X193529456Y-195450471D01*
X193529456Y-195450471D02*
X193386599Y-195521900D01*
X195172313Y-195093328D02*
X195315170Y-195093328D01*
X195315170Y-195093328D02*
X195458027Y-195164757D01*
X195458027Y-195164757D02*
X195529456Y-195236185D01*
X195529456Y-195236185D02*
X195600884Y-195379042D01*
X195600884Y-195379042D02*
X195672313Y-195664757D01*
X195672313Y-195664757D02*
X195672313Y-196021900D01*
X195672313Y-196021900D02*
X195600884Y-196307614D01*
X195600884Y-196307614D02*
X195529456Y-196450471D01*
X195529456Y-196450471D02*
X195458027Y-196521900D01*
X195458027Y-196521900D02*
X195315170Y-196593328D01*
X195315170Y-196593328D02*
X195172313Y-196593328D01*
X195172313Y-196593328D02*
X195029456Y-196521900D01*
X195029456Y-196521900D02*
X194958027Y-196450471D01*
X194958027Y-196450471D02*
X194886598Y-196307614D01*
X194886598Y-196307614D02*
X194815170Y-196021900D01*
X194815170Y-196021900D02*
X194815170Y-195664757D01*
X194815170Y-195664757D02*
X194886598Y-195379042D01*
X194886598Y-195379042D02*
X194958027Y-195236185D01*
X194958027Y-195236185D02*
X195029456Y-195164757D01*
X195029456Y-195164757D02*
X195172313Y-195093328D01*
X196315169Y-196450471D02*
X196386598Y-196521900D01*
X196386598Y-196521900D02*
X196315169Y-196593328D01*
X196315169Y-196593328D02*
X196243741Y-196521900D01*
X196243741Y-196521900D02*
X196315169Y-196450471D01*
X196315169Y-196450471D02*
X196315169Y-196593328D01*
X197315170Y-195093328D02*
X197458027Y-195093328D01*
X197458027Y-195093328D02*
X197600884Y-195164757D01*
X197600884Y-195164757D02*
X197672313Y-195236185D01*
X197672313Y-195236185D02*
X197743741Y-195379042D01*
X197743741Y-195379042D02*
X197815170Y-195664757D01*
X197815170Y-195664757D02*
X197815170Y-196021900D01*
X197815170Y-196021900D02*
X197743741Y-196307614D01*
X197743741Y-196307614D02*
X197672313Y-196450471D01*
X197672313Y-196450471D02*
X197600884Y-196521900D01*
X197600884Y-196521900D02*
X197458027Y-196593328D01*
X197458027Y-196593328D02*
X197315170Y-196593328D01*
X197315170Y-196593328D02*
X197172313Y-196521900D01*
X197172313Y-196521900D02*
X197100884Y-196450471D01*
X197100884Y-196450471D02*
X197029455Y-196307614D01*
X197029455Y-196307614D02*
X196958027Y-196021900D01*
X196958027Y-196021900D02*
X196958027Y-195664757D01*
X196958027Y-195664757D02*
X197029455Y-195379042D01*
X197029455Y-195379042D02*
X197100884Y-195236185D01*
X197100884Y-195236185D02*
X197172313Y-195164757D01*
X197172313Y-195164757D02*
X197315170Y-195093328D01*
X198458026Y-196450471D02*
X198529455Y-196521900D01*
X198529455Y-196521900D02*
X198458026Y-196593328D01*
X198458026Y-196593328D02*
X198386598Y-196521900D01*
X198386598Y-196521900D02*
X198458026Y-196450471D01*
X198458026Y-196450471D02*
X198458026Y-196593328D01*
X199029455Y-195093328D02*
X199958027Y-195093328D01*
X199958027Y-195093328D02*
X199458027Y-195664757D01*
X199458027Y-195664757D02*
X199672312Y-195664757D01*
X199672312Y-195664757D02*
X199815170Y-195736185D01*
X199815170Y-195736185D02*
X199886598Y-195807614D01*
X199886598Y-195807614D02*
X199958027Y-195950471D01*
X199958027Y-195950471D02*
X199958027Y-196307614D01*
X199958027Y-196307614D02*
X199886598Y-196450471D01*
X199886598Y-196450471D02*
X199815170Y-196521900D01*
X199815170Y-196521900D02*
X199672312Y-196593328D01*
X199672312Y-196593328D02*
X199243741Y-196593328D01*
X199243741Y-196593328D02*
X199100884Y-196521900D01*
X199100884Y-196521900D02*
X199029455Y-196450471D01*
X177002200Y-191507200D02*
X285002200Y-191507200D01*
D11*
X264413853Y-193785528D02*
X263913853Y-193071242D01*
X263556710Y-193785528D02*
X263556710Y-192285528D01*
X263556710Y-192285528D02*
X264128139Y-192285528D01*
X264128139Y-192285528D02*
X264270996Y-192356957D01*
X264270996Y-192356957D02*
X264342425Y-192428385D01*
X264342425Y-192428385D02*
X264413853Y-192571242D01*
X264413853Y-192571242D02*
X264413853Y-192785528D01*
X264413853Y-192785528D02*
X264342425Y-192928385D01*
X264342425Y-192928385D02*
X264270996Y-192999814D01*
X264270996Y-192999814D02*
X264128139Y-193071242D01*
X264128139Y-193071242D02*
X263556710Y-193071242D01*
X265628139Y-193714100D02*
X265485282Y-193785528D01*
X265485282Y-193785528D02*
X265199568Y-193785528D01*
X265199568Y-193785528D02*
X265056710Y-193714100D01*
X265056710Y-193714100D02*
X264985282Y-193571242D01*
X264985282Y-193571242D02*
X264985282Y-192999814D01*
X264985282Y-192999814D02*
X265056710Y-192856957D01*
X265056710Y-192856957D02*
X265199568Y-192785528D01*
X265199568Y-192785528D02*
X265485282Y-192785528D01*
X265485282Y-192785528D02*
X265628139Y-192856957D01*
X265628139Y-192856957D02*
X265699568Y-192999814D01*
X265699568Y-192999814D02*
X265699568Y-193142671D01*
X265699568Y-193142671D02*
X264985282Y-193285528D01*
X266199567Y-192785528D02*
X266556710Y-193785528D01*
X266556710Y-193785528D02*
X266913853Y-192785528D01*
X267485281Y-193642671D02*
X267556710Y-193714100D01*
X267556710Y-193714100D02*
X267485281Y-193785528D01*
X267485281Y-193785528D02*
X267413853Y-193714100D01*
X267413853Y-193714100D02*
X267485281Y-193642671D01*
X267485281Y-193642671D02*
X267485281Y-193785528D01*
X267485281Y-192856957D02*
X267556710Y-192928385D01*
X267556710Y-192928385D02*
X267485281Y-192999814D01*
X267485281Y-192999814D02*
X267413853Y-192928385D01*
X267413853Y-192928385D02*
X267485281Y-192856957D01*
X267485281Y-192856957D02*
X267485281Y-192999814D01*
X269628139Y-192285528D02*
X269770996Y-192285528D01*
X269770996Y-192285528D02*
X269913853Y-192356957D01*
X269913853Y-192356957D02*
X269985282Y-192428385D01*
X269985282Y-192428385D02*
X270056710Y-192571242D01*
X270056710Y-192571242D02*
X270128139Y-192856957D01*
X270128139Y-192856957D02*
X270128139Y-193214100D01*
X270128139Y-193214100D02*
X270056710Y-193499814D01*
X270056710Y-193499814D02*
X269985282Y-193642671D01*
X269985282Y-193642671D02*
X269913853Y-193714100D01*
X269913853Y-193714100D02*
X269770996Y-193785528D01*
X269770996Y-193785528D02*
X269628139Y-193785528D01*
X269628139Y-193785528D02*
X269485282Y-193714100D01*
X269485282Y-193714100D02*
X269413853Y-193642671D01*
X269413853Y-193642671D02*
X269342424Y-193499814D01*
X269342424Y-193499814D02*
X269270996Y-193214100D01*
X269270996Y-193214100D02*
X269270996Y-192856957D01*
X269270996Y-192856957D02*
X269342424Y-192571242D01*
X269342424Y-192571242D02*
X269413853Y-192428385D01*
X269413853Y-192428385D02*
X269485282Y-192356957D01*
X269485282Y-192356957D02*
X269628139Y-192285528D01*
X271056710Y-192285528D02*
X271199567Y-192285528D01*
X271199567Y-192285528D02*
X271342424Y-192356957D01*
X271342424Y-192356957D02*
X271413853Y-192428385D01*
X271413853Y-192428385D02*
X271485281Y-192571242D01*
X271485281Y-192571242D02*
X271556710Y-192856957D01*
X271556710Y-192856957D02*
X271556710Y-193214100D01*
X271556710Y-193214100D02*
X271485281Y-193499814D01*
X271485281Y-193499814D02*
X271413853Y-193642671D01*
X271413853Y-193642671D02*
X271342424Y-193714100D01*
X271342424Y-193714100D02*
X271199567Y-193785528D01*
X271199567Y-193785528D02*
X271056710Y-193785528D01*
X271056710Y-193785528D02*
X270913853Y-193714100D01*
X270913853Y-193714100D02*
X270842424Y-193642671D01*
X270842424Y-193642671D02*
X270770995Y-193499814D01*
X270770995Y-193499814D02*
X270699567Y-193214100D01*
X270699567Y-193214100D02*
X270699567Y-192856957D01*
X270699567Y-192856957D02*
X270770995Y-192571242D01*
X270770995Y-192571242D02*
X270842424Y-192428385D01*
X270842424Y-192428385D02*
X270913853Y-192356957D01*
X270913853Y-192356957D02*
X271056710Y-192285528D01*
X272985281Y-193785528D02*
X272128138Y-193785528D01*
X272556709Y-193785528D02*
X272556709Y-192285528D01*
X272556709Y-192285528D02*
X272413852Y-192499814D01*
X272413852Y-192499814D02*
X272270995Y-192642671D01*
X272270995Y-192642671D02*
X272128138Y-192714100D01*
D10*
X178386598Y-193721900D02*
X178600884Y-193793328D01*
X178600884Y-193793328D02*
X178958026Y-193793328D01*
X178958026Y-193793328D02*
X179100884Y-193721900D01*
X179100884Y-193721900D02*
X179172312Y-193650471D01*
X179172312Y-193650471D02*
X179243741Y-193507614D01*
X179243741Y-193507614D02*
X179243741Y-193364757D01*
X179243741Y-193364757D02*
X179172312Y-193221900D01*
X179172312Y-193221900D02*
X179100884Y-193150471D01*
X179100884Y-193150471D02*
X178958026Y-193079042D01*
X178958026Y-193079042D02*
X178672312Y-193007614D01*
X178672312Y-193007614D02*
X178529455Y-192936185D01*
X178529455Y-192936185D02*
X178458026Y-192864757D01*
X178458026Y-192864757D02*
X178386598Y-192721900D01*
X178386598Y-192721900D02*
X178386598Y-192579042D01*
X178386598Y-192579042D02*
X178458026Y-192436185D01*
X178458026Y-192436185D02*
X178529455Y-192364757D01*
X178529455Y-192364757D02*
X178672312Y-192293328D01*
X178672312Y-192293328D02*
X179029455Y-192293328D01*
X179029455Y-192293328D02*
X179243741Y-192364757D01*
X179886597Y-193793328D02*
X179886597Y-192793328D01*
X179886597Y-192293328D02*
X179815169Y-192364757D01*
X179815169Y-192364757D02*
X179886597Y-192436185D01*
X179886597Y-192436185D02*
X179958026Y-192364757D01*
X179958026Y-192364757D02*
X179886597Y-192293328D01*
X179886597Y-192293328D02*
X179886597Y-192436185D01*
X180458026Y-192793328D02*
X181243741Y-192793328D01*
X181243741Y-192793328D02*
X180458026Y-193793328D01*
X180458026Y-193793328D02*
X181243741Y-193793328D01*
X182386598Y-193721900D02*
X182243741Y-193793328D01*
X182243741Y-193793328D02*
X181958027Y-193793328D01*
X181958027Y-193793328D02*
X181815169Y-193721900D01*
X181815169Y-193721900D02*
X181743741Y-193579042D01*
X181743741Y-193579042D02*
X181743741Y-193007614D01*
X181743741Y-193007614D02*
X181815169Y-192864757D01*
X181815169Y-192864757D02*
X181958027Y-192793328D01*
X181958027Y-192793328D02*
X182243741Y-192793328D01*
X182243741Y-192793328D02*
X182386598Y-192864757D01*
X182386598Y-192864757D02*
X182458027Y-193007614D01*
X182458027Y-193007614D02*
X182458027Y-193150471D01*
X182458027Y-193150471D02*
X181743741Y-193293328D01*
X183100883Y-193650471D02*
X183172312Y-193721900D01*
X183172312Y-193721900D02*
X183100883Y-193793328D01*
X183100883Y-193793328D02*
X183029455Y-193721900D01*
X183029455Y-193721900D02*
X183100883Y-193650471D01*
X183100883Y-193650471D02*
X183100883Y-193793328D01*
X183100883Y-192864757D02*
X183172312Y-192936185D01*
X183172312Y-192936185D02*
X183100883Y-193007614D01*
X183100883Y-193007614D02*
X183029455Y-192936185D01*
X183029455Y-192936185D02*
X183100883Y-192864757D01*
X183100883Y-192864757D02*
X183100883Y-193007614D01*
X184886598Y-193364757D02*
X185600884Y-193364757D01*
X184743741Y-193793328D02*
X185243741Y-192293328D01*
X185243741Y-192293328D02*
X185743741Y-193793328D01*
X186886598Y-192793328D02*
X186886598Y-193793328D01*
X186529455Y-192221900D02*
X186172312Y-193293328D01*
X186172312Y-193293328D02*
X187100883Y-193293328D01*
X263458026Y-196593328D02*
X263458026Y-195093328D01*
X264815170Y-196593328D02*
X264815170Y-195093328D01*
X264815170Y-196521900D02*
X264672312Y-196593328D01*
X264672312Y-196593328D02*
X264386598Y-196593328D01*
X264386598Y-196593328D02*
X264243741Y-196521900D01*
X264243741Y-196521900D02*
X264172312Y-196450471D01*
X264172312Y-196450471D02*
X264100884Y-196307614D01*
X264100884Y-196307614D02*
X264100884Y-195879042D01*
X264100884Y-195879042D02*
X264172312Y-195736185D01*
X264172312Y-195736185D02*
X264243741Y-195664757D01*
X264243741Y-195664757D02*
X264386598Y-195593328D01*
X264386598Y-195593328D02*
X264672312Y-195593328D01*
X264672312Y-195593328D02*
X264815170Y-195664757D01*
X265529455Y-196450471D02*
X265600884Y-196521900D01*
X265600884Y-196521900D02*
X265529455Y-196593328D01*
X265529455Y-196593328D02*
X265458027Y-196521900D01*
X265458027Y-196521900D02*
X265529455Y-196450471D01*
X265529455Y-196450471D02*
X265529455Y-196593328D01*
X265529455Y-195664757D02*
X265600884Y-195736185D01*
X265600884Y-195736185D02*
X265529455Y-195807614D01*
X265529455Y-195807614D02*
X265458027Y-195736185D01*
X265458027Y-195736185D02*
X265529455Y-195664757D01*
X265529455Y-195664757D02*
X265529455Y-195807614D01*
X267600884Y-195736185D02*
X267458027Y-195664757D01*
X267458027Y-195664757D02*
X267386598Y-195593328D01*
X267386598Y-195593328D02*
X267315170Y-195450471D01*
X267315170Y-195450471D02*
X267315170Y-195379042D01*
X267315170Y-195379042D02*
X267386598Y-195236185D01*
X267386598Y-195236185D02*
X267458027Y-195164757D01*
X267458027Y-195164757D02*
X267600884Y-195093328D01*
X267600884Y-195093328D02*
X267886598Y-195093328D01*
X267886598Y-195093328D02*
X268029456Y-195164757D01*
X268029456Y-195164757D02*
X268100884Y-195236185D01*
X268100884Y-195236185D02*
X268172313Y-195379042D01*
X268172313Y-195379042D02*
X268172313Y-195450471D01*
X268172313Y-195450471D02*
X268100884Y-195593328D01*
X268100884Y-195593328D02*
X268029456Y-195664757D01*
X268029456Y-195664757D02*
X267886598Y-195736185D01*
X267886598Y-195736185D02*
X267600884Y-195736185D01*
X267600884Y-195736185D02*
X267458027Y-195807614D01*
X267458027Y-195807614D02*
X267386598Y-195879042D01*
X267386598Y-195879042D02*
X267315170Y-196021900D01*
X267315170Y-196021900D02*
X267315170Y-196307614D01*
X267315170Y-196307614D02*
X267386598Y-196450471D01*
X267386598Y-196450471D02*
X267458027Y-196521900D01*
X267458027Y-196521900D02*
X267600884Y-196593328D01*
X267600884Y-196593328D02*
X267886598Y-196593328D01*
X267886598Y-196593328D02*
X268029456Y-196521900D01*
X268029456Y-196521900D02*
X268100884Y-196450471D01*
X268100884Y-196450471D02*
X268172313Y-196307614D01*
X268172313Y-196307614D02*
X268172313Y-196021900D01*
X268172313Y-196021900D02*
X268100884Y-195879042D01*
X268100884Y-195879042D02*
X268029456Y-195807614D01*
X268029456Y-195807614D02*
X267886598Y-195736185D01*
X269886598Y-195021900D02*
X268600884Y-196950471D01*
X271172313Y-196593328D02*
X270315170Y-196593328D01*
X270743741Y-196593328D02*
X270743741Y-195093328D01*
X270743741Y-195093328D02*
X270600884Y-195307614D01*
X270600884Y-195307614D02*
X270458027Y-195450471D01*
X270458027Y-195450471D02*
X270315170Y-195521900D01*
X272600884Y-196593328D02*
X271743741Y-196593328D01*
X272172312Y-196593328D02*
X272172312Y-195093328D01*
X272172312Y-195093328D02*
X272029455Y-195307614D01*
X272029455Y-195307614D02*
X271886598Y-195450471D01*
X271886598Y-195450471D02*
X271743741Y-195521900D01*
X177002200Y-187507200D02*
X285002200Y-187507200D01*
D12*
X178693928Y-188211638D02*
X179836785Y-188211638D01*
X179015357Y-190211638D02*
X179265357Y-188211638D01*
X180253452Y-190211638D02*
X180420119Y-188878304D01*
X180503452Y-188211638D02*
X180396309Y-188306876D01*
X180396309Y-188306876D02*
X180479643Y-188402114D01*
X180479643Y-188402114D02*
X180586786Y-188306876D01*
X180586786Y-188306876D02*
X180503452Y-188211638D01*
X180503452Y-188211638D02*
X180479643Y-188402114D01*
X181086786Y-188878304D02*
X181848690Y-188878304D01*
X181455833Y-188211638D02*
X181241548Y-189925923D01*
X181241548Y-189925923D02*
X181312976Y-190116400D01*
X181312976Y-190116400D02*
X181491548Y-190211638D01*
X181491548Y-190211638D02*
X181682024Y-190211638D01*
X182634405Y-190211638D02*
X182455833Y-190116400D01*
X182455833Y-190116400D02*
X182384405Y-189925923D01*
X182384405Y-189925923D02*
X182598690Y-188211638D01*
X184170119Y-190116400D02*
X183967738Y-190211638D01*
X183967738Y-190211638D02*
X183586785Y-190211638D01*
X183586785Y-190211638D02*
X183408214Y-190116400D01*
X183408214Y-190116400D02*
X183336785Y-189925923D01*
X183336785Y-189925923D02*
X183432024Y-189164019D01*
X183432024Y-189164019D02*
X183551071Y-188973542D01*
X183551071Y-188973542D02*
X183753452Y-188878304D01*
X183753452Y-188878304D02*
X184134404Y-188878304D01*
X184134404Y-188878304D02*
X184312976Y-188973542D01*
X184312976Y-188973542D02*
X184384404Y-189164019D01*
X184384404Y-189164019D02*
X184360595Y-189354495D01*
X184360595Y-189354495D02*
X183384404Y-189544971D01*
X185134405Y-190021161D02*
X185217738Y-190116400D01*
X185217738Y-190116400D02*
X185110595Y-190211638D01*
X185110595Y-190211638D02*
X185027262Y-190116400D01*
X185027262Y-190116400D02*
X185134405Y-190021161D01*
X185134405Y-190021161D02*
X185110595Y-190211638D01*
X185265357Y-188973542D02*
X185348690Y-189068780D01*
X185348690Y-189068780D02*
X185241548Y-189164019D01*
X185241548Y-189164019D02*
X185158214Y-189068780D01*
X185158214Y-189068780D02*
X185265357Y-188973542D01*
X185265357Y-188973542D02*
X185241548Y-189164019D01*
X188384405Y-189164019D02*
X187717739Y-189164019D01*
X187586786Y-190211638D02*
X187836786Y-188211638D01*
X187836786Y-188211638D02*
X188789167Y-188211638D01*
X190158215Y-190211638D02*
X190289167Y-189164019D01*
X190289167Y-189164019D02*
X190217739Y-188973542D01*
X190217739Y-188973542D02*
X190039167Y-188878304D01*
X190039167Y-188878304D02*
X189658215Y-188878304D01*
X189658215Y-188878304D02*
X189455834Y-188973542D01*
X190170120Y-190116400D02*
X189967739Y-190211638D01*
X189967739Y-190211638D02*
X189491548Y-190211638D01*
X189491548Y-190211638D02*
X189312977Y-190116400D01*
X189312977Y-190116400D02*
X189241548Y-189925923D01*
X189241548Y-189925923D02*
X189265358Y-189735447D01*
X189265358Y-189735447D02*
X189384406Y-189544971D01*
X189384406Y-189544971D02*
X189586787Y-189449733D01*
X189586787Y-189449733D02*
X190062977Y-189449733D01*
X190062977Y-189449733D02*
X190265358Y-189354495D01*
X191110596Y-190211638D02*
X191277263Y-188878304D01*
X191360596Y-188211638D02*
X191253453Y-188306876D01*
X191253453Y-188306876D02*
X191336787Y-188402114D01*
X191336787Y-188402114D02*
X191443930Y-188306876D01*
X191443930Y-188306876D02*
X191360596Y-188211638D01*
X191360596Y-188211638D02*
X191336787Y-188402114D01*
X192348692Y-190211638D02*
X192170120Y-190116400D01*
X192170120Y-190116400D02*
X192098692Y-189925923D01*
X192098692Y-189925923D02*
X192312977Y-188211638D01*
X193110596Y-190211638D02*
X193360596Y-188211638D01*
X193360596Y-188211638D02*
X193836787Y-188211638D01*
X193836787Y-188211638D02*
X194110596Y-188306876D01*
X194110596Y-188306876D02*
X194277263Y-188497352D01*
X194277263Y-188497352D02*
X194348691Y-188687828D01*
X194348691Y-188687828D02*
X194396311Y-189068780D01*
X194396311Y-189068780D02*
X194360596Y-189354495D01*
X194360596Y-189354495D02*
X194217739Y-189735447D01*
X194217739Y-189735447D02*
X194098691Y-189925923D01*
X194098691Y-189925923D02*
X193884406Y-190116400D01*
X193884406Y-190116400D02*
X193586787Y-190211638D01*
X193586787Y-190211638D02*
X193110596Y-190211638D01*
X195884406Y-190116400D02*
X195682025Y-190211638D01*
X195682025Y-190211638D02*
X195301072Y-190211638D01*
X195301072Y-190211638D02*
X195122501Y-190116400D01*
X195122501Y-190116400D02*
X195051072Y-189925923D01*
X195051072Y-189925923D02*
X195146311Y-189164019D01*
X195146311Y-189164019D02*
X195265358Y-188973542D01*
X195265358Y-188973542D02*
X195467739Y-188878304D01*
X195467739Y-188878304D02*
X195848691Y-188878304D01*
X195848691Y-188878304D02*
X196027263Y-188973542D01*
X196027263Y-188973542D02*
X196098691Y-189164019D01*
X196098691Y-189164019D02*
X196074882Y-189354495D01*
X196074882Y-189354495D02*
X195098691Y-189544971D01*
X197682025Y-190211638D02*
X197812977Y-189164019D01*
X197812977Y-189164019D02*
X197741549Y-188973542D01*
X197741549Y-188973542D02*
X197562977Y-188878304D01*
X197562977Y-188878304D02*
X197182025Y-188878304D01*
X197182025Y-188878304D02*
X196979644Y-188973542D01*
X197693930Y-190116400D02*
X197491549Y-190211638D01*
X197491549Y-190211638D02*
X197015358Y-190211638D01*
X197015358Y-190211638D02*
X196836787Y-190116400D01*
X196836787Y-190116400D02*
X196765358Y-189925923D01*
X196765358Y-189925923D02*
X196789168Y-189735447D01*
X196789168Y-189735447D02*
X196908216Y-189544971D01*
X196908216Y-189544971D02*
X197110597Y-189449733D01*
X197110597Y-189449733D02*
X197586787Y-189449733D01*
X197586787Y-189449733D02*
X197789168Y-189354495D01*
X199491549Y-190211638D02*
X199741549Y-188211638D01*
X199503454Y-190116400D02*
X199301073Y-190211638D01*
X199301073Y-190211638D02*
X198920121Y-190211638D01*
X198920121Y-190211638D02*
X198741549Y-190116400D01*
X198741549Y-190116400D02*
X198658216Y-190021161D01*
X198658216Y-190021161D02*
X198586787Y-189830685D01*
X198586787Y-189830685D02*
X198658216Y-189259257D01*
X198658216Y-189259257D02*
X198777263Y-189068780D01*
X198777263Y-189068780D02*
X198884406Y-188973542D01*
X198884406Y-188973542D02*
X199086787Y-188878304D01*
X199086787Y-188878304D02*
X199467740Y-188878304D01*
X199467740Y-188878304D02*
X199646311Y-188973542D01*
X200729645Y-190211638D02*
X200551073Y-190116400D01*
X200551073Y-190116400D02*
X200479645Y-189925923D01*
X200479645Y-189925923D02*
X200693930Y-188211638D01*
X201467740Y-188878304D02*
X201777264Y-190211638D01*
X202420121Y-188878304D02*
X201777264Y-190211638D01*
X201777264Y-190211638D02*
X201527264Y-190687828D01*
X201527264Y-190687828D02*
X201420121Y-190783066D01*
X201420121Y-190783066D02*
X201217740Y-190878304D01*
X204539169Y-190211638D02*
X204789169Y-188211638D01*
X204789169Y-188211638D02*
X205551074Y-188211638D01*
X205551074Y-188211638D02*
X205729645Y-188306876D01*
X205729645Y-188306876D02*
X205812979Y-188402114D01*
X205812979Y-188402114D02*
X205884407Y-188592590D01*
X205884407Y-188592590D02*
X205848693Y-188878304D01*
X205848693Y-188878304D02*
X205729645Y-189068780D01*
X205729645Y-189068780D02*
X205622503Y-189164019D01*
X205622503Y-189164019D02*
X205420122Y-189259257D01*
X205420122Y-189259257D02*
X204658217Y-189259257D01*
X207705836Y-190021161D02*
X207598693Y-190116400D01*
X207598693Y-190116400D02*
X207301074Y-190211638D01*
X207301074Y-190211638D02*
X207110598Y-190211638D01*
X207110598Y-190211638D02*
X206836788Y-190116400D01*
X206836788Y-190116400D02*
X206670122Y-189925923D01*
X206670122Y-189925923D02*
X206598693Y-189735447D01*
X206598693Y-189735447D02*
X206551074Y-189354495D01*
X206551074Y-189354495D02*
X206586788Y-189068780D01*
X206586788Y-189068780D02*
X206729645Y-188687828D01*
X206729645Y-188687828D02*
X206848693Y-188497352D01*
X206848693Y-188497352D02*
X207062979Y-188306876D01*
X207062979Y-188306876D02*
X207360598Y-188211638D01*
X207360598Y-188211638D02*
X207551074Y-188211638D01*
X207551074Y-188211638D02*
X207824884Y-188306876D01*
X207824884Y-188306876D02*
X207908217Y-188402114D01*
X209336788Y-189164019D02*
X209610598Y-189259257D01*
X209610598Y-189259257D02*
X209693931Y-189354495D01*
X209693931Y-189354495D02*
X209765360Y-189544971D01*
X209765360Y-189544971D02*
X209729645Y-189830685D01*
X209729645Y-189830685D02*
X209610598Y-190021161D01*
X209610598Y-190021161D02*
X209503455Y-190116400D01*
X209503455Y-190116400D02*
X209301074Y-190211638D01*
X209301074Y-190211638D02*
X208539169Y-190211638D01*
X208539169Y-190211638D02*
X208789169Y-188211638D01*
X208789169Y-188211638D02*
X209455836Y-188211638D01*
X209455836Y-188211638D02*
X209634407Y-188306876D01*
X209634407Y-188306876D02*
X209717741Y-188402114D01*
X209717741Y-188402114D02*
X209789169Y-188592590D01*
X209789169Y-188592590D02*
X209765360Y-188783066D01*
X209765360Y-188783066D02*
X209646312Y-188973542D01*
X209646312Y-188973542D02*
X209539169Y-189068780D01*
X209539169Y-189068780D02*
X209336788Y-189164019D01*
X209336788Y-189164019D02*
X208670122Y-189164019D01*
D10*
X178958026Y-185607614D02*
X178458026Y-185607614D01*
X178458026Y-186393328D02*
X178458026Y-184893328D01*
X178458026Y-184893328D02*
X179172312Y-184893328D01*
X179743740Y-186393328D02*
X179743740Y-185393328D01*
X179743740Y-184893328D02*
X179672312Y-184964757D01*
X179672312Y-184964757D02*
X179743740Y-185036185D01*
X179743740Y-185036185D02*
X179815169Y-184964757D01*
X179815169Y-184964757D02*
X179743740Y-184893328D01*
X179743740Y-184893328D02*
X179743740Y-185036185D01*
X180672312Y-186393328D02*
X180529455Y-186321900D01*
X180529455Y-186321900D02*
X180458026Y-186179042D01*
X180458026Y-186179042D02*
X180458026Y-184893328D01*
X181815169Y-186321900D02*
X181672312Y-186393328D01*
X181672312Y-186393328D02*
X181386598Y-186393328D01*
X181386598Y-186393328D02*
X181243740Y-186321900D01*
X181243740Y-186321900D02*
X181172312Y-186179042D01*
X181172312Y-186179042D02*
X181172312Y-185607614D01*
X181172312Y-185607614D02*
X181243740Y-185464757D01*
X181243740Y-185464757D02*
X181386598Y-185393328D01*
X181386598Y-185393328D02*
X181672312Y-185393328D01*
X181672312Y-185393328D02*
X181815169Y-185464757D01*
X181815169Y-185464757D02*
X181886598Y-185607614D01*
X181886598Y-185607614D02*
X181886598Y-185750471D01*
X181886598Y-185750471D02*
X181172312Y-185893328D01*
X182529454Y-186250471D02*
X182600883Y-186321900D01*
X182600883Y-186321900D02*
X182529454Y-186393328D01*
X182529454Y-186393328D02*
X182458026Y-186321900D01*
X182458026Y-186321900D02*
X182529454Y-186250471D01*
X182529454Y-186250471D02*
X182529454Y-186393328D01*
X182529454Y-185464757D02*
X182600883Y-185536185D01*
X182600883Y-185536185D02*
X182529454Y-185607614D01*
X182529454Y-185607614D02*
X182458026Y-185536185D01*
X182458026Y-185536185D02*
X182529454Y-185464757D01*
X182529454Y-185464757D02*
X182529454Y-185607614D01*
X184886597Y-185607614D02*
X184386597Y-185607614D01*
X184386597Y-186393328D02*
X184386597Y-184893328D01*
X184386597Y-184893328D02*
X185100883Y-184893328D01*
X186315169Y-186393328D02*
X186315169Y-185607614D01*
X186315169Y-185607614D02*
X186243740Y-185464757D01*
X186243740Y-185464757D02*
X186100883Y-185393328D01*
X186100883Y-185393328D02*
X185815169Y-185393328D01*
X185815169Y-185393328D02*
X185672311Y-185464757D01*
X186315169Y-186321900D02*
X186172311Y-186393328D01*
X186172311Y-186393328D02*
X185815169Y-186393328D01*
X185815169Y-186393328D02*
X185672311Y-186321900D01*
X185672311Y-186321900D02*
X185600883Y-186179042D01*
X185600883Y-186179042D02*
X185600883Y-186036185D01*
X185600883Y-186036185D02*
X185672311Y-185893328D01*
X185672311Y-185893328D02*
X185815169Y-185821900D01*
X185815169Y-185821900D02*
X186172311Y-185821900D01*
X186172311Y-185821900D02*
X186315169Y-185750471D01*
X187029454Y-186393328D02*
X187029454Y-185393328D01*
X187029454Y-184893328D02*
X186958026Y-184964757D01*
X186958026Y-184964757D02*
X187029454Y-185036185D01*
X187029454Y-185036185D02*
X187100883Y-184964757D01*
X187100883Y-184964757D02*
X187029454Y-184893328D01*
X187029454Y-184893328D02*
X187029454Y-185036185D01*
X187958026Y-186393328D02*
X187815169Y-186321900D01*
X187815169Y-186321900D02*
X187743740Y-186179042D01*
X187743740Y-186179042D02*
X187743740Y-184893328D01*
X188529454Y-186393328D02*
X188529454Y-184893328D01*
X188529454Y-184893328D02*
X188886597Y-184893328D01*
X188886597Y-184893328D02*
X189100883Y-184964757D01*
X189100883Y-184964757D02*
X189243740Y-185107614D01*
X189243740Y-185107614D02*
X189315169Y-185250471D01*
X189315169Y-185250471D02*
X189386597Y-185536185D01*
X189386597Y-185536185D02*
X189386597Y-185750471D01*
X189386597Y-185750471D02*
X189315169Y-186036185D01*
X189315169Y-186036185D02*
X189243740Y-186179042D01*
X189243740Y-186179042D02*
X189100883Y-186321900D01*
X189100883Y-186321900D02*
X188886597Y-186393328D01*
X188886597Y-186393328D02*
X188529454Y-186393328D01*
X190600883Y-186321900D02*
X190458026Y-186393328D01*
X190458026Y-186393328D02*
X190172312Y-186393328D01*
X190172312Y-186393328D02*
X190029454Y-186321900D01*
X190029454Y-186321900D02*
X189958026Y-186179042D01*
X189958026Y-186179042D02*
X189958026Y-185607614D01*
X189958026Y-185607614D02*
X190029454Y-185464757D01*
X190029454Y-185464757D02*
X190172312Y-185393328D01*
X190172312Y-185393328D02*
X190458026Y-185393328D01*
X190458026Y-185393328D02*
X190600883Y-185464757D01*
X190600883Y-185464757D02*
X190672312Y-185607614D01*
X190672312Y-185607614D02*
X190672312Y-185750471D01*
X190672312Y-185750471D02*
X189958026Y-185893328D01*
X191958026Y-186393328D02*
X191958026Y-185607614D01*
X191958026Y-185607614D02*
X191886597Y-185464757D01*
X191886597Y-185464757D02*
X191743740Y-185393328D01*
X191743740Y-185393328D02*
X191458026Y-185393328D01*
X191458026Y-185393328D02*
X191315168Y-185464757D01*
X191958026Y-186321900D02*
X191815168Y-186393328D01*
X191815168Y-186393328D02*
X191458026Y-186393328D01*
X191458026Y-186393328D02*
X191315168Y-186321900D01*
X191315168Y-186321900D02*
X191243740Y-186179042D01*
X191243740Y-186179042D02*
X191243740Y-186036185D01*
X191243740Y-186036185D02*
X191315168Y-185893328D01*
X191315168Y-185893328D02*
X191458026Y-185821900D01*
X191458026Y-185821900D02*
X191815168Y-185821900D01*
X191815168Y-185821900D02*
X191958026Y-185750471D01*
X193315169Y-186393328D02*
X193315169Y-184893328D01*
X193315169Y-186321900D02*
X193172311Y-186393328D01*
X193172311Y-186393328D02*
X192886597Y-186393328D01*
X192886597Y-186393328D02*
X192743740Y-186321900D01*
X192743740Y-186321900D02*
X192672311Y-186250471D01*
X192672311Y-186250471D02*
X192600883Y-186107614D01*
X192600883Y-186107614D02*
X192600883Y-185679042D01*
X192600883Y-185679042D02*
X192672311Y-185536185D01*
X192672311Y-185536185D02*
X192743740Y-185464757D01*
X192743740Y-185464757D02*
X192886597Y-185393328D01*
X192886597Y-185393328D02*
X193172311Y-185393328D01*
X193172311Y-185393328D02*
X193315169Y-185464757D01*
X194243740Y-186393328D02*
X194100883Y-186321900D01*
X194100883Y-186321900D02*
X194029454Y-186179042D01*
X194029454Y-186179042D02*
X194029454Y-184893328D01*
X194672311Y-185393328D02*
X195029454Y-186393328D01*
X195386597Y-185393328D02*
X195029454Y-186393328D01*
X195029454Y-186393328D02*
X194886597Y-186750471D01*
X194886597Y-186750471D02*
X194815168Y-186821900D01*
X194815168Y-186821900D02*
X194672311Y-186893328D01*
X195958025Y-186250471D02*
X196029454Y-186321900D01*
X196029454Y-186321900D02*
X195958025Y-186393328D01*
X195958025Y-186393328D02*
X195886597Y-186321900D01*
X195886597Y-186321900D02*
X195958025Y-186250471D01*
X195958025Y-186250471D02*
X195958025Y-186393328D01*
X196672311Y-186393328D02*
X196672311Y-184893328D01*
X196815169Y-185821900D02*
X197243740Y-186393328D01*
X197243740Y-185393328D02*
X196672311Y-185964757D01*
X197886597Y-186393328D02*
X197886597Y-185393328D01*
X197886597Y-184893328D02*
X197815169Y-184964757D01*
X197815169Y-184964757D02*
X197886597Y-185036185D01*
X197886597Y-185036185D02*
X197958026Y-184964757D01*
X197958026Y-184964757D02*
X197886597Y-184893328D01*
X197886597Y-184893328D02*
X197886597Y-185036185D01*
X199243741Y-186321900D02*
X199100883Y-186393328D01*
X199100883Y-186393328D02*
X198815169Y-186393328D01*
X198815169Y-186393328D02*
X198672312Y-186321900D01*
X198672312Y-186321900D02*
X198600883Y-186250471D01*
X198600883Y-186250471D02*
X198529455Y-186107614D01*
X198529455Y-186107614D02*
X198529455Y-185679042D01*
X198529455Y-185679042D02*
X198600883Y-185536185D01*
X198600883Y-185536185D02*
X198672312Y-185464757D01*
X198672312Y-185464757D02*
X198815169Y-185393328D01*
X198815169Y-185393328D02*
X199100883Y-185393328D01*
X199100883Y-185393328D02*
X199243741Y-185464757D01*
X200529455Y-186393328D02*
X200529455Y-185607614D01*
X200529455Y-185607614D02*
X200458026Y-185464757D01*
X200458026Y-185464757D02*
X200315169Y-185393328D01*
X200315169Y-185393328D02*
X200029455Y-185393328D01*
X200029455Y-185393328D02*
X199886597Y-185464757D01*
X200529455Y-186321900D02*
X200386597Y-186393328D01*
X200386597Y-186393328D02*
X200029455Y-186393328D01*
X200029455Y-186393328D02*
X199886597Y-186321900D01*
X199886597Y-186321900D02*
X199815169Y-186179042D01*
X199815169Y-186179042D02*
X199815169Y-186036185D01*
X199815169Y-186036185D02*
X199886597Y-185893328D01*
X199886597Y-185893328D02*
X200029455Y-185821900D01*
X200029455Y-185821900D02*
X200386597Y-185821900D01*
X200386597Y-185821900D02*
X200529455Y-185750471D01*
X201886598Y-186393328D02*
X201886598Y-184893328D01*
X201886598Y-186321900D02*
X201743740Y-186393328D01*
X201743740Y-186393328D02*
X201458026Y-186393328D01*
X201458026Y-186393328D02*
X201315169Y-186321900D01*
X201315169Y-186321900D02*
X201243740Y-186250471D01*
X201243740Y-186250471D02*
X201172312Y-186107614D01*
X201172312Y-186107614D02*
X201172312Y-185679042D01*
X201172312Y-185679042D02*
X201243740Y-185536185D01*
X201243740Y-185536185D02*
X201315169Y-185464757D01*
X201315169Y-185464757D02*
X201458026Y-185393328D01*
X201458026Y-185393328D02*
X201743740Y-185393328D01*
X201743740Y-185393328D02*
X201886598Y-185464757D01*
X202243741Y-186536185D02*
X203386598Y-186536185D01*
X203743740Y-185393328D02*
X203743740Y-186893328D01*
X203743740Y-185464757D02*
X203886598Y-185393328D01*
X203886598Y-185393328D02*
X204172312Y-185393328D01*
X204172312Y-185393328D02*
X204315169Y-185464757D01*
X204315169Y-185464757D02*
X204386598Y-185536185D01*
X204386598Y-185536185D02*
X204458026Y-185679042D01*
X204458026Y-185679042D02*
X204458026Y-186107614D01*
X204458026Y-186107614D02*
X204386598Y-186250471D01*
X204386598Y-186250471D02*
X204315169Y-186321900D01*
X204315169Y-186321900D02*
X204172312Y-186393328D01*
X204172312Y-186393328D02*
X203886598Y-186393328D01*
X203886598Y-186393328D02*
X203743740Y-186321900D01*
X205743741Y-186321900D02*
X205600883Y-186393328D01*
X205600883Y-186393328D02*
X205315169Y-186393328D01*
X205315169Y-186393328D02*
X205172312Y-186321900D01*
X205172312Y-186321900D02*
X205100883Y-186250471D01*
X205100883Y-186250471D02*
X205029455Y-186107614D01*
X205029455Y-186107614D02*
X205029455Y-185679042D01*
X205029455Y-185679042D02*
X205100883Y-185536185D01*
X205100883Y-185536185D02*
X205172312Y-185464757D01*
X205172312Y-185464757D02*
X205315169Y-185393328D01*
X205315169Y-185393328D02*
X205600883Y-185393328D01*
X205600883Y-185393328D02*
X205743741Y-185464757D01*
X206386597Y-186393328D02*
X206386597Y-184893328D01*
X206386597Y-185464757D02*
X206529455Y-185393328D01*
X206529455Y-185393328D02*
X206815169Y-185393328D01*
X206815169Y-185393328D02*
X206958026Y-185464757D01*
X206958026Y-185464757D02*
X207029455Y-185536185D01*
X207029455Y-185536185D02*
X207100883Y-185679042D01*
X207100883Y-185679042D02*
X207100883Y-186107614D01*
X207100883Y-186107614D02*
X207029455Y-186250471D01*
X207029455Y-186250471D02*
X206958026Y-186321900D01*
X206958026Y-186321900D02*
X206815169Y-186393328D01*
X206815169Y-186393328D02*
X206529455Y-186393328D01*
X206529455Y-186393328D02*
X206386597Y-186321900D01*
X177002200Y-181507200D02*
X285002200Y-181507200D01*
X178386598Y-183621900D02*
X178600884Y-183693328D01*
X178600884Y-183693328D02*
X178958026Y-183693328D01*
X178958026Y-183693328D02*
X179100884Y-183621900D01*
X179100884Y-183621900D02*
X179172312Y-183550471D01*
X179172312Y-183550471D02*
X179243741Y-183407614D01*
X179243741Y-183407614D02*
X179243741Y-183264757D01*
X179243741Y-183264757D02*
X179172312Y-183121900D01*
X179172312Y-183121900D02*
X179100884Y-183050471D01*
X179100884Y-183050471D02*
X178958026Y-182979042D01*
X178958026Y-182979042D02*
X178672312Y-182907614D01*
X178672312Y-182907614D02*
X178529455Y-182836185D01*
X178529455Y-182836185D02*
X178458026Y-182764757D01*
X178458026Y-182764757D02*
X178386598Y-182621900D01*
X178386598Y-182621900D02*
X178386598Y-182479042D01*
X178386598Y-182479042D02*
X178458026Y-182336185D01*
X178458026Y-182336185D02*
X178529455Y-182264757D01*
X178529455Y-182264757D02*
X178672312Y-182193328D01*
X178672312Y-182193328D02*
X179029455Y-182193328D01*
X179029455Y-182193328D02*
X179243741Y-182264757D01*
X179886597Y-183693328D02*
X179886597Y-182193328D01*
X180529455Y-183693328D02*
X180529455Y-182907614D01*
X180529455Y-182907614D02*
X180458026Y-182764757D01*
X180458026Y-182764757D02*
X180315169Y-182693328D01*
X180315169Y-182693328D02*
X180100883Y-182693328D01*
X180100883Y-182693328D02*
X179958026Y-182764757D01*
X179958026Y-182764757D02*
X179886597Y-182836185D01*
X181815169Y-183621900D02*
X181672312Y-183693328D01*
X181672312Y-183693328D02*
X181386598Y-183693328D01*
X181386598Y-183693328D02*
X181243740Y-183621900D01*
X181243740Y-183621900D02*
X181172312Y-183479042D01*
X181172312Y-183479042D02*
X181172312Y-182907614D01*
X181172312Y-182907614D02*
X181243740Y-182764757D01*
X181243740Y-182764757D02*
X181386598Y-182693328D01*
X181386598Y-182693328D02*
X181672312Y-182693328D01*
X181672312Y-182693328D02*
X181815169Y-182764757D01*
X181815169Y-182764757D02*
X181886598Y-182907614D01*
X181886598Y-182907614D02*
X181886598Y-183050471D01*
X181886598Y-183050471D02*
X181172312Y-183193328D01*
X183100883Y-183621900D02*
X182958026Y-183693328D01*
X182958026Y-183693328D02*
X182672312Y-183693328D01*
X182672312Y-183693328D02*
X182529454Y-183621900D01*
X182529454Y-183621900D02*
X182458026Y-183479042D01*
X182458026Y-183479042D02*
X182458026Y-182907614D01*
X182458026Y-182907614D02*
X182529454Y-182764757D01*
X182529454Y-182764757D02*
X182672312Y-182693328D01*
X182672312Y-182693328D02*
X182958026Y-182693328D01*
X182958026Y-182693328D02*
X183100883Y-182764757D01*
X183100883Y-182764757D02*
X183172312Y-182907614D01*
X183172312Y-182907614D02*
X183172312Y-183050471D01*
X183172312Y-183050471D02*
X182458026Y-183193328D01*
X183600883Y-182693328D02*
X184172311Y-182693328D01*
X183815168Y-182193328D02*
X183815168Y-183479042D01*
X183815168Y-183479042D02*
X183886597Y-183621900D01*
X183886597Y-183621900D02*
X184029454Y-183693328D01*
X184029454Y-183693328D02*
X184172311Y-183693328D01*
X184672311Y-183550471D02*
X184743740Y-183621900D01*
X184743740Y-183621900D02*
X184672311Y-183693328D01*
X184672311Y-183693328D02*
X184600883Y-183621900D01*
X184600883Y-183621900D02*
X184672311Y-183550471D01*
X184672311Y-183550471D02*
X184672311Y-183693328D01*
X184672311Y-182764757D02*
X184743740Y-182836185D01*
X184743740Y-182836185D02*
X184672311Y-182907614D01*
X184672311Y-182907614D02*
X184600883Y-182836185D01*
X184600883Y-182836185D02*
X184672311Y-182764757D01*
X184672311Y-182764757D02*
X184672311Y-182907614D01*
X197002200Y-191507200D02*
X197002200Y-194507200D01*
X261002200Y-191507200D02*
X261002200Y-198007200D01*
D13*
X132500000Y-111400000D02*
X141647140Y-102252862D01*
D14*
X132500000Y-111400000D02*
X141647140Y-102252862D01*
D13*
X132500000Y-113617488D02*
X132500000Y-111400000D01*
D14*
X132500000Y-113617488D02*
X132500000Y-111400000D01*
D13*
X133054371Y-111122815D02*
X133331557Y-110845627D01*
D14*
X133054371Y-111122815D02*
X133331557Y-110845627D01*
D13*
X133054371Y-113894672D02*
X133816644Y-113132411D01*
D14*
X133054371Y-113894672D02*
X133816644Y-113132411D01*
D13*
X133331557Y-110845627D02*
X134093830Y-111607889D01*
D14*
X133331557Y-110845627D02*
X134093830Y-111607889D01*
D13*
X133331557Y-114171858D02*
X133239163Y-114079464D01*
X133054371Y-113894672D01*
D14*
X133331557Y-114171858D02*
X133239163Y-114079464D01*
X133054371Y-113894672D01*
D13*
X133785143Y-110392055D02*
X134062330Y-110114870D01*
D14*
X133785143Y-110392055D02*
X134062330Y-110114870D01*
D13*
X133785143Y-114625431D02*
X134547401Y-113863175D01*
D14*
X133785143Y-114625431D02*
X134547401Y-113863175D01*
D13*
X133816644Y-111885075D02*
X133054371Y-111122815D01*
D14*
X133816644Y-111885075D02*
X133054371Y-111122815D01*
D13*
X133816644Y-113132411D02*
X134093830Y-113409597D01*
D14*
X133816644Y-113132411D02*
X134093830Y-113409597D01*
D13*
X134062330Y-110114870D02*
X134824588Y-110877127D01*
D14*
X134062330Y-110114870D02*
X134824588Y-110877127D01*
D13*
X134062330Y-114902617D02*
X133785143Y-114625431D01*
D14*
X134062330Y-114902617D02*
X133785143Y-114625431D01*
D13*
X134093830Y-111607889D02*
X133909039Y-111792681D01*
X133816644Y-111885075D01*
D14*
X134093830Y-111607889D02*
X133909039Y-111792681D01*
X133816644Y-111885075D01*
D13*
X134093830Y-113409597D02*
X133331557Y-114171858D01*
D14*
X134093830Y-113409597D02*
X133331557Y-114171858D01*
D13*
X134163115Y-112508743D02*
X142755884Y-103915978D01*
D14*
X134163115Y-112508743D02*
X142755884Y-103915978D01*
D13*
X134515900Y-109661283D02*
X134682214Y-109494972D01*
X134793089Y-109384098D01*
D14*
X134515900Y-109661283D02*
X134682214Y-109494972D01*
X134793089Y-109384098D01*
D13*
X134515900Y-115356204D02*
X135151122Y-114720972D01*
X135278161Y-114593931D01*
D14*
X134515900Y-115356204D02*
X135151122Y-114720972D01*
X135278161Y-114593931D01*
D13*
X134547401Y-111154312D02*
X133785143Y-110392055D01*
D14*
X134547401Y-111154312D02*
X133785143Y-110392055D01*
D13*
X134547401Y-113863175D02*
X134824588Y-114140358D01*
D14*
X134547401Y-113863175D02*
X134824588Y-114140358D01*
D13*
X134793089Y-109384098D02*
X135010879Y-109601891D01*
X135555348Y-110146370D01*
D14*
X134793089Y-109384098D02*
X135010879Y-109601891D01*
X135555348Y-110146370D01*
D13*
X134793089Y-115633388D02*
X134692294Y-115532594D01*
X134515900Y-115356204D01*
D14*
X134793089Y-115633388D02*
X134692294Y-115532594D01*
X134515900Y-115356204D01*
D13*
X134824588Y-110877127D02*
X134547401Y-111154312D01*
D14*
X134824588Y-110877127D02*
X134547401Y-111154312D01*
D13*
X134824588Y-114140358D02*
X134062330Y-114902617D01*
D14*
X134824588Y-114140358D02*
X134062330Y-114902617D01*
D13*
X134994675Y-112508743D02*
X142755884Y-104747536D01*
D14*
X134994675Y-112508743D02*
X142755884Y-104747536D01*
D13*
X135246662Y-108930525D02*
X135523849Y-108653339D01*
D14*
X135246662Y-108930525D02*
X135523849Y-108653339D01*
D13*
X135246662Y-116086962D02*
X135246672Y-116086952D01*
X136008933Y-115324703D01*
D14*
X135246662Y-116086962D02*
X135246672Y-116086952D01*
X136008933Y-115324703D01*
D13*
X135278161Y-110423554D02*
X135125714Y-110271104D01*
X134515900Y-109661283D01*
D14*
X135278161Y-110423554D02*
X135125714Y-110271104D01*
X134515900Y-109661283D01*
D13*
X135278161Y-114593931D02*
X135555348Y-114871117D01*
D14*
X135278161Y-114593931D02*
X135555348Y-114871117D01*
D13*
X135523849Y-108653339D02*
X136286110Y-109415588D01*
X136286120Y-109415598D01*
D14*
X135523849Y-108653339D02*
X136286110Y-109415588D01*
X136286120Y-109415598D01*
D13*
X135523849Y-116364147D02*
X135246662Y-116086962D01*
D14*
X135523849Y-116364147D02*
X135246662Y-116086962D01*
D13*
X135555348Y-110146370D02*
X135278161Y-110423554D01*
D14*
X135555348Y-110146370D02*
X135278161Y-110423554D01*
D13*
X135555348Y-114871117D02*
X135047176Y-115379298D01*
X134793089Y-115633388D01*
D14*
X135555348Y-114871117D02*
X135047176Y-115379298D01*
X134793089Y-115633388D01*
D13*
X135977432Y-108199767D02*
X136254621Y-107922581D01*
D14*
X135977432Y-108199767D02*
X136254621Y-107922581D01*
D13*
X135977432Y-116817717D02*
X136739691Y-116055461D01*
D14*
X135977432Y-116817717D02*
X136739691Y-116055461D01*
D13*
X136008933Y-109692783D02*
X135246662Y-108930525D01*
D14*
X136008933Y-109692783D02*
X135246662Y-108930525D01*
D13*
X136008933Y-115324703D02*
X136286120Y-115601888D01*
D14*
X136008933Y-115324703D02*
X136286120Y-115601888D01*
D13*
X136254621Y-107922581D02*
X136847487Y-108515448D01*
X137016879Y-108684839D01*
D14*
X136254621Y-107922581D02*
X136847487Y-108515448D01*
X137016879Y-108684839D01*
D13*
X136254621Y-117094904D02*
X135977432Y-116817717D01*
D14*
X136254621Y-117094904D02*
X135977432Y-116817717D01*
D13*
X136286120Y-109415598D02*
X136008933Y-109692783D01*
D14*
X136286120Y-109415598D02*
X136008933Y-109692783D01*
D13*
X136286120Y-115601888D02*
X135523849Y-116364147D01*
D14*
X136286120Y-115601888D02*
X135523849Y-116364147D01*
D13*
X136708192Y-107468995D02*
X136985379Y-107191809D01*
D14*
X136708192Y-107468995D02*
X136985379Y-107191809D01*
D13*
X136708192Y-117548490D02*
X137470450Y-116786219D01*
D14*
X136708192Y-117548490D02*
X137470450Y-116786219D01*
D13*
X136739691Y-108962025D02*
X135977432Y-108199767D01*
D14*
X136739691Y-108962025D02*
X135977432Y-108199767D01*
D13*
X136739691Y-116055461D02*
X137016879Y-116332646D01*
D14*
X136739691Y-116055461D02*
X137016879Y-116332646D01*
D13*
X136985379Y-107191809D02*
X137239461Y-107445897D01*
X137747637Y-107954082D01*
D14*
X136985379Y-107191809D02*
X137239461Y-107445897D01*
X137747637Y-107954082D01*
D13*
X136985379Y-117825676D02*
X136787388Y-117627687D01*
X136708192Y-117548490D01*
D14*
X136985379Y-117825676D02*
X136787388Y-117627687D01*
X136708192Y-117548490D01*
D13*
X137016879Y-108684839D02*
X136739691Y-108962025D01*
D14*
X137016879Y-108684839D02*
X136739691Y-108962025D01*
D13*
X137016879Y-116332646D02*
X136762792Y-116586733D01*
X136254621Y-117094904D01*
D14*
X137016879Y-116332646D02*
X136762792Y-116586733D01*
X136254621Y-117094904D01*
D13*
X137438949Y-106738238D02*
X137716136Y-106461051D01*
D14*
X137438949Y-106738238D02*
X137716136Y-106461051D01*
D13*
X137438949Y-118279247D02*
X138201223Y-117516989D01*
D14*
X137438949Y-118279247D02*
X138201223Y-117516989D01*
D13*
X137470450Y-108231267D02*
X137123969Y-107884780D01*
X136708192Y-107468995D01*
D14*
X137470450Y-108231267D02*
X137123969Y-107884780D01*
X136708192Y-107468995D01*
D13*
X137470450Y-116786219D02*
X137747637Y-117063405D01*
D14*
X137470450Y-116786219D02*
X137747637Y-117063405D01*
D13*
X137716136Y-106461051D02*
X138478409Y-107223309D01*
D14*
X137716136Y-106461051D02*
X138478409Y-107223309D01*
D13*
X137716136Y-118556436D02*
X137438949Y-118279247D01*
D14*
X137716136Y-118556436D02*
X137438949Y-118279247D01*
D13*
X137747637Y-107954082D02*
X137470450Y-108231267D01*
D14*
X137747637Y-107954082D02*
X137470450Y-108231267D01*
D13*
X137747637Y-117063405D02*
X137271223Y-117539827D01*
X136985379Y-117825676D01*
D14*
X137747637Y-117063405D02*
X137271223Y-117539827D01*
X136985379Y-117825676D01*
D13*
X138049518Y-111421571D02*
X138049518Y-113972289D01*
D14*
X138049518Y-111421571D02*
X138049518Y-113972289D01*
D13*
X138049518Y-113972289D02*
X138048873Y-113979765D01*
X138048307Y-113987247D01*
X138047821Y-113994734D01*
X138047415Y-114002224D01*
X138047089Y-114009717D01*
X138046842Y-114017213D01*
X138046676Y-114024710D01*
X138046590Y-114032208D01*
X138046583Y-114039707D01*
X138046656Y-114047205D01*
X138046810Y-114054701D01*
X138047043Y-114062195D01*
X138047356Y-114069686D01*
X138047749Y-114077174D01*
X138048222Y-114084657D01*
X138048775Y-114092135D01*
X138049407Y-114099606D01*
X138050119Y-114107071D01*
X138050910Y-114114528D01*
X138051782Y-114121976D01*
X138052732Y-114129415D01*
X138053762Y-114136843D01*
X138054871Y-114144261D01*
X138056059Y-114151666D01*
X138057326Y-114159059D01*
X138058671Y-114166438D01*
X138060096Y-114173803D01*
X138061599Y-114181152D01*
X138063180Y-114188486D01*
X138064839Y-114195802D01*
X138066577Y-114203100D01*
X138068392Y-114210380D01*
X138070284Y-114217641D01*
X138072254Y-114224880D01*
X138074302Y-114232099D01*
X138076426Y-114239296D01*
X138078626Y-114246470D01*
X138080904Y-114253620D01*
X138082071Y-114257185D01*
X138083257Y-114260745D01*
X138084462Y-114264298D01*
X138085686Y-114267845D01*
X138086929Y-114271385D01*
X138088191Y-114274919D01*
X138089471Y-114278445D01*
X138090770Y-114281965D01*
X138092089Y-114285478D01*
X138093425Y-114288984D01*
X138094781Y-114292483D01*
X138096155Y-114295974D01*
X138097548Y-114299458D01*
X138098959Y-114302935D01*
X138100389Y-114306403D01*
X138101837Y-114309865D01*
X138103304Y-114313318D01*
X138104789Y-114316764D01*
X138106292Y-114320201D01*
X138107814Y-114323631D01*
X138109354Y-114327052D01*
X138110912Y-114330465D01*
X138112488Y-114333869D01*
X138114083Y-114337266D01*
X138115695Y-114340653D01*
X138117326Y-114344032D01*
X138118974Y-114347402D01*
X138120641Y-114350763D01*
X138122325Y-114354115D01*
X138124027Y-114357459D01*
X138125747Y-114360793D01*
X138127485Y-114364118D01*
X138129240Y-114367433D01*
X138131013Y-114370739D01*
X138132804Y-114374035D01*
X138134612Y-114377323D01*
X138136438Y-114380600D01*
X138138281Y-114383867D01*
X138140141Y-114387124D01*
X138142020Y-114390372D01*
X138143915Y-114393609D01*
X138145827Y-114396837D01*
X138147757Y-114400054D01*
X138149704Y-114403261D01*
X138151667Y-114406457D01*
X138153648Y-114409643D01*
X138155646Y-114412818D01*
X138157661Y-114415983D01*
X138159692Y-114419136D01*
X138161741Y-114422279D01*
X138163806Y-114425411D01*
X138165888Y-114428532D01*
X138167987Y-114431642D01*
X138170102Y-114434741D01*
X138172234Y-114437828D01*
X138174382Y-114440904D01*
X138176547Y-114443969D01*
X138178728Y-114447022D01*
X138180925Y-114450063D01*
X138183139Y-114453094D01*
X138185369Y-114456111D01*
X138187615Y-114459118D01*
X138189877Y-114462112D01*
X138192155Y-114465096D01*
X138194449Y-114468065D01*
X138196760Y-114471025D01*
X138199085Y-114473970D01*
X138201428Y-114476905D01*
X138203785Y-114479826D01*
X138206159Y-114482736D01*
X138208547Y-114485632D01*
X138210952Y-114488517D01*
X138213372Y-114491388D01*
X138215808Y-114494247D01*
X138216424Y-114494965D01*
D14*
X138049518Y-113972289D02*
X138048873Y-113979765D01*
X138048307Y-113987247D01*
X138047821Y-113994734D01*
X138047415Y-114002224D01*
X138047089Y-114009717D01*
X138046842Y-114017213D01*
X138046676Y-114024710D01*
X138046590Y-114032208D01*
X138046583Y-114039707D01*
X138046656Y-114047205D01*
X138046810Y-114054701D01*
X138047043Y-114062195D01*
X138047356Y-114069686D01*
X138047749Y-114077174D01*
X138048222Y-114084657D01*
X138048775Y-114092135D01*
X138049407Y-114099606D01*
X138050119Y-114107071D01*
X138050910Y-114114528D01*
X138051782Y-114121976D01*
X138052732Y-114129415D01*
X138053762Y-114136843D01*
X138054871Y-114144261D01*
X138056059Y-114151666D01*
X138057326Y-114159059D01*
X138058671Y-114166438D01*
X138060096Y-114173803D01*
X138061599Y-114181152D01*
X138063180Y-114188486D01*
X138064839Y-114195802D01*
X138066577Y-114203100D01*
X138068392Y-114210380D01*
X138070284Y-114217641D01*
X138072254Y-114224880D01*
X138074302Y-114232099D01*
X138076426Y-114239296D01*
X138078626Y-114246470D01*
X138080904Y-114253620D01*
X138082071Y-114257185D01*
X138083257Y-114260745D01*
X138084462Y-114264298D01*
X138085686Y-114267845D01*
X138086929Y-114271385D01*
X138088191Y-114274919D01*
X138089471Y-114278445D01*
X138090770Y-114281965D01*
X138092089Y-114285478D01*
X138093425Y-114288984D01*
X138094781Y-114292483D01*
X138096155Y-114295974D01*
X138097548Y-114299458D01*
X138098959Y-114302935D01*
X138100389Y-114306403D01*
X138101837Y-114309865D01*
X138103304Y-114313318D01*
X138104789Y-114316764D01*
X138106292Y-114320201D01*
X138107814Y-114323631D01*
X138109354Y-114327052D01*
X138110912Y-114330465D01*
X138112488Y-114333869D01*
X138114083Y-114337266D01*
X138115695Y-114340653D01*
X138117326Y-114344032D01*
X138118974Y-114347402D01*
X138120641Y-114350763D01*
X138122325Y-114354115D01*
X138124027Y-114357459D01*
X138125747Y-114360793D01*
X138127485Y-114364118D01*
X138129240Y-114367433D01*
X138131013Y-114370739D01*
X138132804Y-114374035D01*
X138134612Y-114377323D01*
X138136438Y-114380600D01*
X138138281Y-114383867D01*
X138140141Y-114387124D01*
X138142020Y-114390372D01*
X138143915Y-114393609D01*
X138145827Y-114396837D01*
X138147757Y-114400054D01*
X138149704Y-114403261D01*
X138151667Y-114406457D01*
X138153648Y-114409643D01*
X138155646Y-114412818D01*
X138157661Y-114415983D01*
X138159692Y-114419136D01*
X138161741Y-114422279D01*
X138163806Y-114425411D01*
X138165888Y-114428532D01*
X138167987Y-114431642D01*
X138170102Y-114434741D01*
X138172234Y-114437828D01*
X138174382Y-114440904D01*
X138176547Y-114443969D01*
X138178728Y-114447022D01*
X138180925Y-114450063D01*
X138183139Y-114453094D01*
X138185369Y-114456111D01*
X138187615Y-114459118D01*
X138189877Y-114462112D01*
X138192155Y-114465096D01*
X138194449Y-114468065D01*
X138196760Y-114471025D01*
X138199085Y-114473970D01*
X138201428Y-114476905D01*
X138203785Y-114479826D01*
X138206159Y-114482736D01*
X138208547Y-114485632D01*
X138210952Y-114488517D01*
X138213372Y-114491388D01*
X138215808Y-114494247D01*
X138216424Y-114494965D01*
D13*
X138169722Y-106007480D02*
X138400710Y-105776492D01*
X138446908Y-105730294D01*
D14*
X138169722Y-106007480D02*
X138400710Y-105776492D01*
X138446908Y-105730294D01*
D13*
X138169722Y-119010007D02*
X138508504Y-118671225D01*
X138931980Y-118247749D01*
D14*
X138169722Y-119010007D02*
X138508504Y-118671225D01*
X138931980Y-118247749D01*
D13*
X138198213Y-110906905D02*
X138193579Y-110913199D01*
X138189011Y-110919540D01*
X138184508Y-110925926D01*
X138180071Y-110932358D01*
X138175700Y-110938834D01*
X138171396Y-110945355D01*
X138167159Y-110951919D01*
X138162990Y-110958525D01*
X138158888Y-110965174D01*
X138154855Y-110971864D01*
X138150891Y-110978596D01*
X138146995Y-110985367D01*
X138143169Y-110992178D01*
X138139413Y-110999028D01*
X138135728Y-111005916D01*
X138132113Y-111012841D01*
X138128568Y-111019803D01*
X138125096Y-111026802D01*
X138121695Y-111033836D01*
X138118366Y-111040904D01*
X138115109Y-111048006D01*
X138111925Y-111055142D01*
X138108814Y-111062310D01*
X138105777Y-111069510D01*
X138102813Y-111076740D01*
X138099924Y-111084001D01*
X138097109Y-111091292D01*
X138094368Y-111098610D01*
X138091703Y-111105957D01*
X138089112Y-111113331D01*
X138086598Y-111120731D01*
X138084159Y-111128157D01*
X138081796Y-111135607D01*
X138079509Y-111143082D01*
X138077300Y-111150579D01*
X138076223Y-111154336D01*
X138075166Y-111158099D01*
X138074129Y-111161867D01*
X138073110Y-111165640D01*
X138072111Y-111169419D01*
X138071132Y-111173202D01*
X138070171Y-111176991D01*
X138069230Y-111180784D01*
X138068309Y-111184582D01*
X138067407Y-111188385D01*
X138066524Y-111192192D01*
X138065661Y-111196004D01*
X138064818Y-111199821D01*
X138063994Y-111203641D01*
X138063189Y-111207466D01*
X138062404Y-111211294D01*
X138061639Y-111215127D01*
X138060893Y-111218964D01*
X138060167Y-111222804D01*
X138059461Y-111226648D01*
X138058774Y-111230495D01*
X138058108Y-111234346D01*
X138057460Y-111238200D01*
X138056833Y-111242058D01*
X138056225Y-111245918D01*
X138055637Y-111249782D01*
X138055069Y-111253648D01*
X138054521Y-111257518D01*
X138053992Y-111261390D01*
X138053484Y-111265265D01*
X138052995Y-111269142D01*
X138052526Y-111273022D01*
X138052077Y-111276904D01*
X138051648Y-111280789D01*
X138051238Y-111284675D01*
X138050849Y-111288564D01*
X138050479Y-111292454D01*
X138050130Y-111296347D01*
X138049800Y-111300240D01*
X138049491Y-111304136D01*
X138049201Y-111308033D01*
X138048931Y-111311932D01*
X138048681Y-111315832D01*
X138048451Y-111319733D01*
X138048242Y-111323635D01*
X138048052Y-111327539D01*
X138047882Y-111331443D01*
X138047732Y-111335349D01*
X138047602Y-111339254D01*
X138047492Y-111343161D01*
X138047402Y-111347068D01*
X138047332Y-111350976D01*
X138047282Y-111354884D01*
X138047253Y-111358793D01*
X138047243Y-111362700D01*
X138047253Y-111366610D01*
X138047283Y-111370518D01*
X138047333Y-111374427D01*
X138047403Y-111378334D01*
X138047494Y-111382243D01*
X138047604Y-111386150D01*
X138047734Y-111390058D01*
X138047884Y-111393964D01*
X138048055Y-111397870D01*
X138048245Y-111401775D01*
X138048455Y-111405680D01*
X138048685Y-111409583D01*
X138048936Y-111413486D01*
X138049206Y-111417387D01*
X138049496Y-111421288D01*
X138049518Y-111421571D01*
D14*
X138198213Y-110906905D02*
X138193579Y-110913199D01*
X138189011Y-110919540D01*
X138184508Y-110925926D01*
X138180071Y-110932358D01*
X138175700Y-110938834D01*
X138171396Y-110945355D01*
X138167159Y-110951919D01*
X138162990Y-110958525D01*
X138158888Y-110965174D01*
X138154855Y-110971864D01*
X138150891Y-110978596D01*
X138146995Y-110985367D01*
X138143169Y-110992178D01*
X138139413Y-110999028D01*
X138135728Y-111005916D01*
X138132113Y-111012841D01*
X138128568Y-111019803D01*
X138125096Y-111026802D01*
X138121695Y-111033836D01*
X138118366Y-111040904D01*
X138115109Y-111048006D01*
X138111925Y-111055142D01*
X138108814Y-111062310D01*
X138105777Y-111069510D01*
X138102813Y-111076740D01*
X138099924Y-111084001D01*
X138097109Y-111091292D01*
X138094368Y-111098610D01*
X138091703Y-111105957D01*
X138089112Y-111113331D01*
X138086598Y-111120731D01*
X138084159Y-111128157D01*
X138081796Y-111135607D01*
X138079509Y-111143082D01*
X138077300Y-111150579D01*
X138076223Y-111154336D01*
X138075166Y-111158099D01*
X138074129Y-111161867D01*
X138073110Y-111165640D01*
X138072111Y-111169419D01*
X138071132Y-111173202D01*
X138070171Y-111176991D01*
X138069230Y-111180784D01*
X138068309Y-111184582D01*
X138067407Y-111188385D01*
X138066524Y-111192192D01*
X138065661Y-111196004D01*
X138064818Y-111199821D01*
X138063994Y-111203641D01*
X138063189Y-111207466D01*
X138062404Y-111211294D01*
X138061639Y-111215127D01*
X138060893Y-111218964D01*
X138060167Y-111222804D01*
X138059461Y-111226648D01*
X138058774Y-111230495D01*
X138058108Y-111234346D01*
X138057460Y-111238200D01*
X138056833Y-111242058D01*
X138056225Y-111245918D01*
X138055637Y-111249782D01*
X138055069Y-111253648D01*
X138054521Y-111257518D01*
X138053992Y-111261390D01*
X138053484Y-111265265D01*
X138052995Y-111269142D01*
X138052526Y-111273022D01*
X138052077Y-111276904D01*
X138051648Y-111280789D01*
X138051238Y-111284675D01*
X138050849Y-111288564D01*
X138050479Y-111292454D01*
X138050130Y-111296347D01*
X138049800Y-111300240D01*
X138049491Y-111304136D01*
X138049201Y-111308033D01*
X138048931Y-111311932D01*
X138048681Y-111315832D01*
X138048451Y-111319733D01*
X138048242Y-111323635D01*
X138048052Y-111327539D01*
X138047882Y-111331443D01*
X138047732Y-111335349D01*
X138047602Y-111339254D01*
X138047492Y-111343161D01*
X138047402Y-111347068D01*
X138047332Y-111350976D01*
X138047282Y-111354884D01*
X138047253Y-111358793D01*
X138047243Y-111362700D01*
X138047253Y-111366610D01*
X138047283Y-111370518D01*
X138047333Y-111374427D01*
X138047403Y-111378334D01*
X138047494Y-111382243D01*
X138047604Y-111386150D01*
X138047734Y-111390058D01*
X138047884Y-111393964D01*
X138048055Y-111397870D01*
X138048245Y-111401775D01*
X138048455Y-111405680D01*
X138048685Y-111409583D01*
X138048936Y-111413486D01*
X138049206Y-111417387D01*
X138049496Y-111421288D01*
X138049518Y-111421571D01*
D13*
X138201223Y-107500496D02*
X137438949Y-106738238D01*
D14*
X138201223Y-107500496D02*
X137438949Y-106738238D01*
D13*
X138201223Y-117516989D02*
X138478409Y-117794178D01*
D14*
X138201223Y-117516989D02*
X138478409Y-117794178D01*
D13*
X138216424Y-114494965D02*
X138222293Y-114499762D01*
X138228211Y-114504496D01*
X138234178Y-114509166D01*
X138240193Y-114513773D01*
X138246256Y-114518316D01*
X138252366Y-114522795D01*
X138258523Y-114527208D01*
X138264725Y-114531556D01*
X138270973Y-114535838D01*
X138277266Y-114540053D01*
X138283602Y-114544202D01*
X138289982Y-114548284D01*
X138296405Y-114552298D01*
X138302869Y-114556245D01*
X138309375Y-114560122D01*
X138315922Y-114563931D01*
X138322508Y-114567671D01*
X138329134Y-114571341D01*
X138335799Y-114574941D01*
X138342501Y-114578471D01*
X138349240Y-114581929D01*
X138356016Y-114585317D01*
X138362828Y-114588633D01*
X138369674Y-114591877D01*
X138376554Y-114595048D01*
X138383468Y-114598147D01*
X138390414Y-114601173D01*
X138397392Y-114604126D01*
X138404401Y-114607005D01*
X138411441Y-114609809D01*
X138418510Y-114612540D01*
X138425607Y-114615195D01*
X138432732Y-114617776D01*
X138439884Y-114620281D01*
X138447063Y-114622711D01*
X138454266Y-114625065D01*
X138461495Y-114627343D01*
X138465118Y-114628453D01*
X138468747Y-114629544D01*
X138472381Y-114630616D01*
X138476021Y-114631669D01*
X138479667Y-114632703D01*
X138483318Y-114633717D01*
X138486975Y-114634712D01*
X138490636Y-114635688D01*
X138494303Y-114636644D01*
X138497975Y-114637581D01*
X138501651Y-114638498D01*
X138505333Y-114639397D01*
X138509019Y-114640275D01*
X138512709Y-114641134D01*
X138516404Y-114641974D01*
X138520104Y-114642794D01*
X138523807Y-114643595D01*
X138527516Y-114644376D01*
X138531227Y-114645138D01*
X138534943Y-114645879D01*
X138538663Y-114646602D01*
X138542386Y-114647304D01*
X138546113Y-114647987D01*
X138549844Y-114648650D01*
X138553578Y-114649294D01*
X138557315Y-114649918D01*
X138561055Y-114650522D01*
X138564799Y-114651106D01*
X138568546Y-114651670D01*
X138572295Y-114652215D01*
X138576047Y-114652740D01*
X138579803Y-114653245D01*
X138583560Y-114653730D01*
X138587320Y-114654195D01*
X138591082Y-114654641D01*
X138594848Y-114655066D01*
X138598614Y-114655472D01*
X138602383Y-114655858D01*
X138606154Y-114656224D01*
X138609927Y-114656570D01*
X138613701Y-114656896D01*
X138617478Y-114657202D01*
X138621255Y-114657488D01*
X138625035Y-114657754D01*
X138628815Y-114658000D01*
X138632598Y-114658227D01*
X138636380Y-114658433D01*
X138640165Y-114658619D01*
X138643949Y-114658785D01*
X138647736Y-114658932D01*
X138651522Y-114659058D01*
X138655310Y-114659164D01*
X138659097Y-114659251D01*
X138662886Y-114659317D01*
X138666675Y-114659363D01*
X138670464Y-114659389D01*
X138674253Y-114659396D01*
X138678043Y-114659382D01*
X138681832Y-114659348D01*
X138685622Y-114659294D01*
X138689410Y-114659220D01*
X138693200Y-114659126D01*
X138696987Y-114659013D01*
X138700776Y-114658879D01*
X138704563Y-114658725D01*
X138708350Y-114658551D01*
X138712136Y-114658357D01*
X138715922Y-114658143D01*
X138719705Y-114657909D01*
X138723489Y-114657655D01*
X138727270Y-114657382D01*
X138731052Y-114657088D01*
X138732969Y-114656931D01*
D14*
X138216424Y-114494965D02*
X138222293Y-114499762D01*
X138228211Y-114504496D01*
X138234178Y-114509166D01*
X138240193Y-114513773D01*
X138246256Y-114518316D01*
X138252366Y-114522795D01*
X138258523Y-114527208D01*
X138264725Y-114531556D01*
X138270973Y-114535838D01*
X138277266Y-114540053D01*
X138283602Y-114544202D01*
X138289982Y-114548284D01*
X138296405Y-114552298D01*
X138302869Y-114556245D01*
X138309375Y-114560122D01*
X138315922Y-114563931D01*
X138322508Y-114567671D01*
X138329134Y-114571341D01*
X138335799Y-114574941D01*
X138342501Y-114578471D01*
X138349240Y-114581929D01*
X138356016Y-114585317D01*
X138362828Y-114588633D01*
X138369674Y-114591877D01*
X138376554Y-114595048D01*
X138383468Y-114598147D01*
X138390414Y-114601173D01*
X138397392Y-114604126D01*
X138404401Y-114607005D01*
X138411441Y-114609809D01*
X138418510Y-114612540D01*
X138425607Y-114615195D01*
X138432732Y-114617776D01*
X138439884Y-114620281D01*
X138447063Y-114622711D01*
X138454266Y-114625065D01*
X138461495Y-114627343D01*
X138465118Y-114628453D01*
X138468747Y-114629544D01*
X138472381Y-114630616D01*
X138476021Y-114631669D01*
X138479667Y-114632703D01*
X138483318Y-114633717D01*
X138486975Y-114634712D01*
X138490636Y-114635688D01*
X138494303Y-114636644D01*
X138497975Y-114637581D01*
X138501651Y-114638498D01*
X138505333Y-114639397D01*
X138509019Y-114640275D01*
X138512709Y-114641134D01*
X138516404Y-114641974D01*
X138520104Y-114642794D01*
X138523807Y-114643595D01*
X138527516Y-114644376D01*
X138531227Y-114645138D01*
X138534943Y-114645879D01*
X138538663Y-114646602D01*
X138542386Y-114647304D01*
X138546113Y-114647987D01*
X138549844Y-114648650D01*
X138553578Y-114649294D01*
X138557315Y-114649918D01*
X138561055Y-114650522D01*
X138564799Y-114651106D01*
X138568546Y-114651670D01*
X138572295Y-114652215D01*
X138576047Y-114652740D01*
X138579803Y-114653245D01*
X138583560Y-114653730D01*
X138587320Y-114654195D01*
X138591082Y-114654641D01*
X138594848Y-114655066D01*
X138598614Y-114655472D01*
X138602383Y-114655858D01*
X138606154Y-114656224D01*
X138609927Y-114656570D01*
X138613701Y-114656896D01*
X138617478Y-114657202D01*
X138621255Y-114657488D01*
X138625035Y-114657754D01*
X138628815Y-114658000D01*
X138632598Y-114658227D01*
X138636380Y-114658433D01*
X138640165Y-114658619D01*
X138643949Y-114658785D01*
X138647736Y-114658932D01*
X138651522Y-114659058D01*
X138655310Y-114659164D01*
X138659097Y-114659251D01*
X138662886Y-114659317D01*
X138666675Y-114659363D01*
X138670464Y-114659389D01*
X138674253Y-114659396D01*
X138678043Y-114659382D01*
X138681832Y-114659348D01*
X138685622Y-114659294D01*
X138689410Y-114659220D01*
X138693200Y-114659126D01*
X138696987Y-114659013D01*
X138700776Y-114658879D01*
X138704563Y-114658725D01*
X138708350Y-114658551D01*
X138712136Y-114658357D01*
X138715922Y-114658143D01*
X138719705Y-114657909D01*
X138723489Y-114657655D01*
X138727270Y-114657382D01*
X138731052Y-114657088D01*
X138732969Y-114656931D01*
D13*
X138446908Y-105730294D02*
X139209165Y-106492551D01*
D14*
X138446908Y-105730294D02*
X139209165Y-106492551D01*
D13*
X138446908Y-119287193D02*
X138354512Y-119194797D01*
X138169722Y-119010007D01*
D14*
X138446908Y-119287193D02*
X138354512Y-119194797D01*
X138169722Y-119010007D01*
D13*
X138472821Y-111092348D02*
X139824410Y-111092348D01*
D14*
X138472821Y-111092348D02*
X139824410Y-111092348D01*
D13*
X138472821Y-114301512D02*
X138472821Y-111092348D01*
D14*
X138472821Y-114301512D02*
X138472821Y-111092348D01*
D13*
X138478409Y-107223309D02*
X138201223Y-107500496D01*
D14*
X138478409Y-107223309D02*
X138201223Y-107500496D01*
D13*
X138478409Y-117794178D02*
X137843179Y-118429395D01*
X137716136Y-118556436D01*
D14*
X138478409Y-117794178D02*
X137843179Y-118429395D01*
X137716136Y-118556436D01*
D13*
X138732969Y-110736931D02*
X138725593Y-110736137D01*
X138718210Y-110735422D01*
X138710820Y-110734788D01*
X138703426Y-110734233D01*
X138696027Y-110733757D01*
X138688624Y-110733362D01*
X138681218Y-110733046D01*
X138673809Y-110732811D01*
X138666399Y-110732655D01*
X138658988Y-110732579D01*
X138651577Y-110732583D01*
X138644166Y-110732667D01*
X138636757Y-110732831D01*
X138629350Y-110733075D01*
X138621946Y-110733399D01*
X138614546Y-110733803D01*
X138607151Y-110734286D01*
X138599761Y-110734849D01*
X138592377Y-110735492D01*
X138585001Y-110736215D01*
X138577632Y-110737017D01*
X138570272Y-110737899D01*
X138562922Y-110738859D01*
X138555582Y-110739900D01*
X138548253Y-110741019D01*
X138540937Y-110742218D01*
X138533633Y-110743495D01*
X138526344Y-110744851D01*
X138519069Y-110746286D01*
X138511810Y-110747799D01*
X138504567Y-110749390D01*
X138497341Y-110751060D01*
X138490134Y-110752807D01*
X138482945Y-110754632D01*
X138475777Y-110756535D01*
X138468629Y-110758515D01*
X138461503Y-110760572D01*
X138454399Y-110762705D01*
X138447319Y-110764916D01*
X138443787Y-110766049D01*
X138440262Y-110767202D01*
X138436743Y-110768374D01*
X138433231Y-110769565D01*
X138429725Y-110770774D01*
X138426225Y-110772003D01*
X138422733Y-110773250D01*
X138419247Y-110774516D01*
X138415767Y-110775801D01*
X138412295Y-110777105D01*
X138408830Y-110778427D01*
X138405372Y-110779769D01*
X138401922Y-110781128D01*
X138398479Y-110782507D01*
X138395043Y-110783903D01*
X138391615Y-110785319D01*
X138388195Y-110786753D01*
X138384782Y-110788205D01*
X138381378Y-110789675D01*
X138377981Y-110791164D01*
X138374592Y-110792672D01*
X138371212Y-110794197D01*
X138367840Y-110795741D01*
X138364476Y-110797303D01*
X138361122Y-110798882D01*
X138357775Y-110800481D01*
X138354437Y-110802096D01*
X138351108Y-110803730D01*
X138347789Y-110805382D01*
X138344477Y-110807052D01*
X138341176Y-110808740D01*
X138337882Y-110810445D01*
X138334599Y-110812168D01*
X138331325Y-110813909D01*
X138328061Y-110815667D01*
X138324805Y-110817443D01*
X138321560Y-110819236D01*
X138318324Y-110821048D01*
X138315099Y-110822876D01*
X138311883Y-110824722D01*
X138308677Y-110826584D01*
X138305481Y-110828465D01*
X138302296Y-110830362D01*
X138299121Y-110832277D01*
X138295956Y-110834209D01*
X138292801Y-110836158D01*
X138289658Y-110838123D01*
X138286525Y-110840107D01*
X138283403Y-110842106D01*
X138280291Y-110844123D01*
X138277190Y-110846156D01*
X138274100Y-110848206D01*
X138271022Y-110850273D01*
X138267954Y-110852356D01*
X138264899Y-110854456D01*
X138261853Y-110856573D01*
X138258820Y-110858705D01*
X138255798Y-110860855D01*
X138252788Y-110863020D01*
X138249788Y-110865202D01*
X138246802Y-110867400D01*
X138243826Y-110869614D01*
X138240863Y-110871844D01*
X138237911Y-110874091D01*
X138234972Y-110876353D01*
X138232044Y-110878632D01*
X138229130Y-110880926D01*
X138226226Y-110883237D01*
X138223336Y-110885562D01*
X138220457Y-110887904D01*
X138217592Y-110890261D01*
X138214739Y-110892634D01*
X138211899Y-110895022D01*
X138209070Y-110897427D01*
X138206256Y-110899845D01*
X138203453Y-110902281D01*
X138198213Y-110906905D01*
D14*
X138732969Y-110736931D02*
X138725593Y-110736137D01*
X138718210Y-110735422D01*
X138710820Y-110734788D01*
X138703426Y-110734233D01*
X138696027Y-110733757D01*
X138688624Y-110733362D01*
X138681218Y-110733046D01*
X138673809Y-110732811D01*
X138666399Y-110732655D01*
X138658988Y-110732579D01*
X138651577Y-110732583D01*
X138644166Y-110732667D01*
X138636757Y-110732831D01*
X138629350Y-110733075D01*
X138621946Y-110733399D01*
X138614546Y-110733803D01*
X138607151Y-110734286D01*
X138599761Y-110734849D01*
X138592377Y-110735492D01*
X138585001Y-110736215D01*
X138577632Y-110737017D01*
X138570272Y-110737899D01*
X138562922Y-110738859D01*
X138555582Y-110739900D01*
X138548253Y-110741019D01*
X138540937Y-110742218D01*
X138533633Y-110743495D01*
X138526344Y-110744851D01*
X138519069Y-110746286D01*
X138511810Y-110747799D01*
X138504567Y-110749390D01*
X138497341Y-110751060D01*
X138490134Y-110752807D01*
X138482945Y-110754632D01*
X138475777Y-110756535D01*
X138468629Y-110758515D01*
X138461503Y-110760572D01*
X138454399Y-110762705D01*
X138447319Y-110764916D01*
X138443787Y-110766049D01*
X138440262Y-110767202D01*
X138436743Y-110768374D01*
X138433231Y-110769565D01*
X138429725Y-110770774D01*
X138426225Y-110772003D01*
X138422733Y-110773250D01*
X138419247Y-110774516D01*
X138415767Y-110775801D01*
X138412295Y-110777105D01*
X138408830Y-110778427D01*
X138405372Y-110779769D01*
X138401922Y-110781128D01*
X138398479Y-110782507D01*
X138395043Y-110783903D01*
X138391615Y-110785319D01*
X138388195Y-110786753D01*
X138384782Y-110788205D01*
X138381378Y-110789675D01*
X138377981Y-110791164D01*
X138374592Y-110792672D01*
X138371212Y-110794197D01*
X138367840Y-110795741D01*
X138364476Y-110797303D01*
X138361122Y-110798882D01*
X138357775Y-110800481D01*
X138354437Y-110802096D01*
X138351108Y-110803730D01*
X138347789Y-110805382D01*
X138344477Y-110807052D01*
X138341176Y-110808740D01*
X138337882Y-110810445D01*
X138334599Y-110812168D01*
X138331325Y-110813909D01*
X138328061Y-110815667D01*
X138324805Y-110817443D01*
X138321560Y-110819236D01*
X138318324Y-110821048D01*
X138315099Y-110822876D01*
X138311883Y-110824722D01*
X138308677Y-110826584D01*
X138305481Y-110828465D01*
X138302296Y-110830362D01*
X138299121Y-110832277D01*
X138295956Y-110834209D01*
X138292801Y-110836158D01*
X138289658Y-110838123D01*
X138286525Y-110840107D01*
X138283403Y-110842106D01*
X138280291Y-110844123D01*
X138277190Y-110846156D01*
X138274100Y-110848206D01*
X138271022Y-110850273D01*
X138267954Y-110852356D01*
X138264899Y-110854456D01*
X138261853Y-110856573D01*
X138258820Y-110858705D01*
X138255798Y-110860855D01*
X138252788Y-110863020D01*
X138249788Y-110865202D01*
X138246802Y-110867400D01*
X138243826Y-110869614D01*
X138240863Y-110871844D01*
X138237911Y-110874091D01*
X138234972Y-110876353D01*
X138232044Y-110878632D01*
X138229130Y-110880926D01*
X138226226Y-110883237D01*
X138223336Y-110885562D01*
X138220457Y-110887904D01*
X138217592Y-110890261D01*
X138214739Y-110892634D01*
X138211899Y-110895022D01*
X138209070Y-110897427D01*
X138206256Y-110899845D01*
X138203453Y-110902281D01*
X138198213Y-110906905D01*
D13*
X138732969Y-114656931D02*
X140574376Y-114656931D01*
D14*
X138732969Y-114656931D02*
X140574376Y-114656931D01*
D13*
X138900479Y-105276708D02*
X139177666Y-104999522D01*
D14*
X138900479Y-105276708D02*
X139177666Y-104999522D01*
D13*
X138900479Y-119740779D02*
X139662738Y-118978506D01*
D14*
X138900479Y-119740779D02*
X139662738Y-118978506D01*
D13*
X138931980Y-106769738D02*
X138169722Y-106007480D01*
D14*
X138931980Y-106769738D02*
X138169722Y-106007480D01*
D13*
X138931980Y-118247749D02*
X139209165Y-118524935D01*
D14*
X138931980Y-118247749D02*
X139209165Y-118524935D01*
D13*
X139177666Y-104999522D02*
X139939924Y-105761794D01*
D14*
X139177666Y-104999522D02*
X139939924Y-105761794D01*
D13*
X139177666Y-120017966D02*
X138900479Y-119740779D01*
D14*
X139177666Y-120017966D02*
X138900479Y-119740779D01*
D13*
X139209165Y-106492551D02*
X139057973Y-106643744D01*
X138931980Y-106769738D01*
D14*
X139209165Y-106492551D02*
X139057973Y-106643744D01*
X138931980Y-106769738D01*
D13*
X139209165Y-118524935D02*
X138446908Y-119287193D01*
D14*
X139209165Y-118524935D02*
X138446908Y-119287193D01*
D13*
X139631239Y-104545950D02*
X139908423Y-104268764D01*
D14*
X139631239Y-104545950D02*
X139908423Y-104268764D01*
D13*
X139631239Y-120471537D02*
X139885329Y-120217450D01*
X140393510Y-119709278D01*
D14*
X139631239Y-120471537D02*
X139885329Y-120217450D01*
X140393510Y-119709278D01*
D13*
X139662738Y-106038980D02*
X138900479Y-105276708D01*
D14*
X139662738Y-106038980D02*
X138900479Y-105276708D01*
D13*
X139662738Y-118978506D02*
X139939924Y-119255693D01*
D14*
X139662738Y-118978506D02*
X139939924Y-119255693D01*
D13*
X139824410Y-111092348D02*
X139824410Y-114301512D01*
D14*
X139824410Y-111092348D02*
X139824410Y-114301512D01*
D13*
X139824410Y-114301512D02*
X138472821Y-114301512D01*
D14*
X139824410Y-114301512D02*
X138472821Y-114301512D01*
D13*
X139908423Y-104268764D02*
X140670694Y-105031022D01*
D14*
X139908423Y-104268764D02*
X140670694Y-105031022D01*
D13*
X139908423Y-120748723D02*
X139631239Y-120471537D01*
D14*
X139908423Y-120748723D02*
X139631239Y-120471537D01*
D13*
X139939924Y-105761794D02*
X139662738Y-106038980D01*
D14*
X139939924Y-105761794D02*
X139662738Y-106038980D01*
D13*
X139939924Y-119255693D02*
X139177666Y-120017966D01*
D14*
X139939924Y-119255693D02*
X139177666Y-120017966D01*
D13*
X140247712Y-111092348D02*
X140574376Y-111092348D01*
D14*
X140247712Y-111092348D02*
X140574376Y-111092348D01*
D13*
X140247712Y-114301512D02*
X140247712Y-111092348D01*
D14*
X140247712Y-114301512D02*
X140247712Y-111092348D01*
D13*
X140362009Y-103815191D02*
X140417447Y-103759754D01*
X140639196Y-103538005D01*
D14*
X140362009Y-103815191D02*
X140417447Y-103759754D01*
X140639196Y-103538005D01*
D13*
X140362009Y-121202294D02*
X140870182Y-120694122D01*
X141124267Y-120440036D01*
D14*
X140362009Y-121202294D02*
X140870182Y-120694122D01*
X141124267Y-120440036D01*
D13*
X140393510Y-105308208D02*
X139631239Y-104545950D01*
D14*
X140393510Y-105308208D02*
X139631239Y-104545950D01*
D13*
X140393510Y-119709278D02*
X140670694Y-119986465D01*
D14*
X140393510Y-119709278D02*
X140670694Y-119986465D01*
D13*
X140574376Y-110736931D02*
X138732969Y-110736931D01*
D14*
X140574376Y-110736931D02*
X138732969Y-110736931D01*
D13*
X140574376Y-111092348D02*
X140574376Y-110736931D01*
D14*
X140574376Y-111092348D02*
X140574376Y-110736931D01*
D13*
X140574376Y-114301512D02*
X140247712Y-114301512D01*
D14*
X140574376Y-114301512D02*
X140247712Y-114301512D01*
D13*
X140574376Y-114656931D02*
X140574376Y-114301512D01*
D14*
X140574376Y-114656931D02*
X140574376Y-114301512D01*
D13*
X140639196Y-103538005D02*
X141401452Y-104300263D01*
D14*
X140639196Y-103538005D02*
X141401452Y-104300263D01*
D13*
X140639196Y-121479483D02*
X140362009Y-121202294D01*
D14*
X140639196Y-121479483D02*
X140362009Y-121202294D01*
D13*
X140670694Y-105031022D02*
X140393510Y-105308208D01*
D14*
X140670694Y-105031022D02*
X140393510Y-105308208D01*
D13*
X140670694Y-119986465D02*
X139908423Y-120748723D01*
D14*
X140670694Y-119986465D02*
X139908423Y-120748723D01*
D13*
X140976680Y-110987139D02*
X144369441Y-114379745D01*
D14*
X140976680Y-110987139D02*
X144369441Y-114379745D01*
D13*
X140976680Y-114141857D02*
X141214722Y-114379745D01*
D14*
X140976680Y-114141857D02*
X141214722Y-114379745D01*
D13*
X141092769Y-103084419D02*
X141369955Y-102807233D01*
D14*
X141092769Y-103084419D02*
X141369955Y-102807233D01*
D13*
X141092769Y-121933067D02*
X141537421Y-121488408D01*
X141855029Y-121170795D01*
D14*
X141092769Y-121933067D02*
X141537421Y-121488408D01*
X141855029Y-121170795D01*
D13*
X141124267Y-104577450D02*
X140362009Y-103815191D01*
D14*
X141124267Y-104577450D02*
X140362009Y-103815191D01*
D13*
X141124267Y-120440036D02*
X141401452Y-120717225D01*
D14*
X141124267Y-120440036D02*
X141401452Y-120717225D01*
D13*
X141214722Y-110749097D02*
X140976680Y-110987139D01*
D14*
X141214722Y-110749097D02*
X140976680Y-110987139D01*
D13*
X141214722Y-114379745D02*
X142558667Y-113031089D01*
D14*
X141214722Y-114379745D02*
X142558667Y-113031089D01*
D13*
X141369955Y-102807233D02*
X142132216Y-103569505D01*
D14*
X141369955Y-102807233D02*
X142132216Y-103569505D01*
D13*
X141369955Y-122210253D02*
X141092769Y-121933067D01*
D14*
X141369955Y-122210253D02*
X141092769Y-121933067D01*
D13*
X141401452Y-104300263D02*
X141124267Y-104577450D01*
D14*
X141401452Y-104300263D02*
X141124267Y-104577450D01*
D13*
X141401452Y-120717225D02*
X140639196Y-121479483D01*
D14*
X141401452Y-120717225D02*
X140639196Y-121479483D01*
D13*
X141647140Y-102252862D02*
X143864628Y-102252862D01*
D14*
X141647140Y-102252862D02*
X143864628Y-102252862D01*
D13*
X141647140Y-122764624D02*
X139817713Y-120935196D01*
X132500000Y-113617488D01*
D14*
X141647140Y-122764624D02*
X139817713Y-120935196D01*
X132500000Y-113617488D01*
D13*
X141855029Y-103846692D02*
X141550125Y-103541783D01*
X141092769Y-103084419D01*
D14*
X141855029Y-103846692D02*
X141550125Y-103541783D01*
X141092769Y-103084419D01*
D13*
X141855029Y-121170795D02*
X142132216Y-121447982D01*
D14*
X141855029Y-121170795D02*
X142132216Y-121447982D01*
D13*
X142132216Y-103569505D02*
X141947425Y-103754296D01*
X141855029Y-103846692D01*
D14*
X142132216Y-103569505D02*
X141947425Y-103754296D01*
X141855029Y-103846692D01*
D13*
X142132216Y-121447982D02*
X141369955Y-122210253D01*
D14*
X142132216Y-121447982D02*
X141369955Y-122210253D01*
D13*
X142325333Y-112797752D02*
X141425470Y-113694581D01*
X140976680Y-114141857D01*
D14*
X142325333Y-112797752D02*
X141425470Y-113694581D01*
X140976680Y-114141857D01*
D13*
X142558667Y-113031089D02*
X142325333Y-112797752D01*
D14*
X142558667Y-113031089D02*
X142325333Y-112797752D01*
D13*
X142755884Y-103915978D02*
X151348648Y-112508743D01*
D14*
X142755884Y-103915978D02*
X151348648Y-112508743D01*
D13*
X142755884Y-104747536D02*
X150517090Y-112508743D01*
D14*
X142755884Y-104747536D02*
X150517090Y-112508743D01*
D13*
X142755884Y-120269951D02*
X134994675Y-112508743D01*
D14*
X142755884Y-120269951D02*
X134994675Y-112508743D01*
D13*
X142755884Y-121101509D02*
X134163115Y-112508743D01*
D14*
X142755884Y-121101509D02*
X134163115Y-112508743D01*
D13*
X143025335Y-112097752D02*
X143258669Y-112331085D01*
D14*
X143025335Y-112097752D02*
X143258669Y-112331085D01*
D13*
X143079506Y-102833974D02*
X143079546Y-102838481D01*
X143079665Y-102842977D01*
X143079865Y-102847464D01*
X143080143Y-102851939D01*
X143080500Y-102856402D01*
X143080937Y-102860852D01*
X143081452Y-102865289D01*
X143082047Y-102869711D01*
X143082719Y-102874119D01*
X143083470Y-102878510D01*
X143084299Y-102882884D01*
X143085205Y-102887241D01*
X143086190Y-102891579D01*
X143087252Y-102895897D01*
X143088390Y-102900194D01*
X143089606Y-102904470D01*
X143090898Y-102908723D01*
X143092267Y-102912953D01*
X143093711Y-102917157D01*
X143095231Y-102921335D01*
X143096825Y-102925487D01*
X143098495Y-102929610D01*
X143100239Y-102933703D01*
X143102056Y-102937767D01*
X143103947Y-102941798D01*
X143105911Y-102945797D01*
X143107947Y-102949761D01*
X143110054Y-102953690D01*
X143112233Y-102957582D01*
X143114482Y-102961436D01*
X143116800Y-102965251D01*
X143119188Y-102969026D01*
X143121643Y-102972759D01*
X143124166Y-102976448D01*
X143126756Y-102980094D01*
X143129411Y-102983694D01*
X143132131Y-102987247D01*
X143134915Y-102990753D01*
X143137762Y-102994208D01*
X143140671Y-102997614D01*
X143143640Y-103000967D01*
X143146670Y-103004268D01*
X143149759Y-103007514D01*
X143152905Y-103010705D01*
X143154499Y-103012279D01*
X143156108Y-103013839D01*
X143157730Y-103015385D01*
X143159366Y-103016916D01*
X143161015Y-103018432D01*
X143162678Y-103019934D01*
X143164354Y-103021420D01*
X143166044Y-103022892D01*
X143167746Y-103024348D01*
X143169462Y-103025789D01*
X143171189Y-103027214D01*
X143172930Y-103028624D01*
X143174682Y-103030018D01*
X143176448Y-103031397D01*
X143178224Y-103032759D01*
X143180013Y-103034105D01*
X143181814Y-103035435D01*
X143183626Y-103036749D01*
X143185449Y-103038046D01*
X143187285Y-103039326D01*
X143189130Y-103040590D01*
X143190988Y-103041837D01*
X143192855Y-103043067D01*
X143194734Y-103044281D01*
X143196622Y-103045477D01*
X143198522Y-103046656D01*
X143200430Y-103047818D01*
X143202350Y-103048963D01*
X143204279Y-103050089D01*
X143206218Y-103051199D01*
X143208166Y-103052291D01*
X143210124Y-103053365D01*
X143212090Y-103054421D01*
X143214067Y-103055460D01*
X143216051Y-103056480D01*
X143218045Y-103057483D01*
X143220046Y-103058467D01*
X143222057Y-103059433D01*
X143224075Y-103060381D01*
X143226103Y-103061311D01*
X143228137Y-103062221D01*
X143230180Y-103063114D01*
X143232230Y-103063988D01*
X143234288Y-103064844D01*
X143236352Y-103065681D01*
X143238426Y-103066500D01*
X143240504Y-103067299D01*
X143242591Y-103068080D01*
X143244683Y-103068841D01*
X143246784Y-103069585D01*
X143248889Y-103070308D01*
X143251003Y-103071014D01*
X143253120Y-103071699D01*
X143255246Y-103072366D01*
X143257376Y-103073014D01*
X143259514Y-103073643D01*
X143261655Y-103074252D01*
X143263804Y-103074842D01*
X143265956Y-103075412D01*
X143268116Y-103075964D01*
X143270278Y-103076496D01*
X143272448Y-103077009D01*
X143274620Y-103077502D01*
X143276800Y-103077976D01*
X143278982Y-103078430D01*
X143281171Y-103078865D01*
X143283361Y-103079280D01*
X143285559Y-103079675D01*
X143287758Y-103080051D01*
X143289964Y-103080408D01*
X143292171Y-103080744D01*
X143294385Y-103081061D01*
X143296600Y-103081358D01*
X143298821Y-103081636D01*
X143301043Y-103081894D01*
X143303271Y-103082132D01*
X143305500Y-103082350D01*
X143307735Y-103082548D01*
X143309970Y-103082726D01*
X143312211Y-103082885D01*
X143314452Y-103083024D01*
X143316699Y-103083143D01*
X143318946Y-103083241D01*
X143321198Y-103083320D01*
X143323450Y-103083379D01*
X143325707Y-103083418D01*
X143328968Y-103083439D01*
D14*
X143079506Y-102833974D02*
X143079546Y-102838481D01*
X143079665Y-102842977D01*
X143079865Y-102847464D01*
X143080143Y-102851939D01*
X143080500Y-102856402D01*
X143080937Y-102860852D01*
X143081452Y-102865289D01*
X143082047Y-102869711D01*
X143082719Y-102874119D01*
X143083470Y-102878510D01*
X143084299Y-102882884D01*
X143085205Y-102887241D01*
X143086190Y-102891579D01*
X143087252Y-102895897D01*
X143088390Y-102900194D01*
X143089606Y-102904470D01*
X143090898Y-102908723D01*
X143092267Y-102912953D01*
X143093711Y-102917157D01*
X143095231Y-102921335D01*
X143096825Y-102925487D01*
X143098495Y-102929610D01*
X143100239Y-102933703D01*
X143102056Y-102937767D01*
X143103947Y-102941798D01*
X143105911Y-102945797D01*
X143107947Y-102949761D01*
X143110054Y-102953690D01*
X143112233Y-102957582D01*
X143114482Y-102961436D01*
X143116800Y-102965251D01*
X143119188Y-102969026D01*
X143121643Y-102972759D01*
X143124166Y-102976448D01*
X143126756Y-102980094D01*
X143129411Y-102983694D01*
X143132131Y-102987247D01*
X143134915Y-102990753D01*
X143137762Y-102994208D01*
X143140671Y-102997614D01*
X143143640Y-103000967D01*
X143146670Y-103004268D01*
X143149759Y-103007514D01*
X143152905Y-103010705D01*
X143154499Y-103012279D01*
X143156108Y-103013839D01*
X143157730Y-103015385D01*
X143159366Y-103016916D01*
X143161015Y-103018432D01*
X143162678Y-103019934D01*
X143164354Y-103021420D01*
X143166044Y-103022892D01*
X143167746Y-103024348D01*
X143169462Y-103025789D01*
X143171189Y-103027214D01*
X143172930Y-103028624D01*
X143174682Y-103030018D01*
X143176448Y-103031397D01*
X143178224Y-103032759D01*
X143180013Y-103034105D01*
X143181814Y-103035435D01*
X143183626Y-103036749D01*
X143185449Y-103038046D01*
X143187285Y-103039326D01*
X143189130Y-103040590D01*
X143190988Y-103041837D01*
X143192855Y-103043067D01*
X143194734Y-103044281D01*
X143196622Y-103045477D01*
X143198522Y-103046656D01*
X143200430Y-103047818D01*
X143202350Y-103048963D01*
X143204279Y-103050089D01*
X143206218Y-103051199D01*
X143208166Y-103052291D01*
X143210124Y-103053365D01*
X143212090Y-103054421D01*
X143214067Y-103055460D01*
X143216051Y-103056480D01*
X143218045Y-103057483D01*
X143220046Y-103058467D01*
X143222057Y-103059433D01*
X143224075Y-103060381D01*
X143226103Y-103061311D01*
X143228137Y-103062221D01*
X143230180Y-103063114D01*
X143232230Y-103063988D01*
X143234288Y-103064844D01*
X143236352Y-103065681D01*
X143238426Y-103066500D01*
X143240504Y-103067299D01*
X143242591Y-103068080D01*
X143244683Y-103068841D01*
X143246784Y-103069585D01*
X143248889Y-103070308D01*
X143251003Y-103071014D01*
X143253120Y-103071699D01*
X143255246Y-103072366D01*
X143257376Y-103073014D01*
X143259514Y-103073643D01*
X143261655Y-103074252D01*
X143263804Y-103074842D01*
X143265956Y-103075412D01*
X143268116Y-103075964D01*
X143270278Y-103076496D01*
X143272448Y-103077009D01*
X143274620Y-103077502D01*
X143276800Y-103077976D01*
X143278982Y-103078430D01*
X143281171Y-103078865D01*
X143283361Y-103079280D01*
X143285559Y-103079675D01*
X143287758Y-103080051D01*
X143289964Y-103080408D01*
X143292171Y-103080744D01*
X143294385Y-103081061D01*
X143296600Y-103081358D01*
X143298821Y-103081636D01*
X143301043Y-103081894D01*
X143303271Y-103082132D01*
X143305500Y-103082350D01*
X143307735Y-103082548D01*
X143309970Y-103082726D01*
X143312211Y-103082885D01*
X143314452Y-103083024D01*
X143316699Y-103083143D01*
X143318946Y-103083241D01*
X143321198Y-103083320D01*
X143323450Y-103083379D01*
X143325707Y-103083418D01*
X143328968Y-103083439D01*
D13*
X143258669Y-112331085D02*
X144607327Y-110987139D01*
D14*
X143258669Y-112331085D02*
X144607327Y-110987139D01*
D13*
X143328968Y-102584522D02*
X143324461Y-102584562D01*
X143319964Y-102584681D01*
X143315478Y-102584881D01*
X143311003Y-102585159D01*
X143306539Y-102585516D01*
X143302089Y-102585953D01*
X143297652Y-102586468D01*
X143293229Y-102587063D01*
X143288822Y-102587735D01*
X143284430Y-102588486D01*
X143280056Y-102589315D01*
X143275699Y-102590221D01*
X143271361Y-102591206D01*
X143267043Y-102592267D01*
X143262745Y-102593406D01*
X143258469Y-102594622D01*
X143254216Y-102595914D01*
X143249987Y-102597282D01*
X143245783Y-102598727D01*
X143241604Y-102600246D01*
X143237453Y-102601841D01*
X143233330Y-102603511D01*
X143229236Y-102605254D01*
X143225173Y-102607072D01*
X143221141Y-102608963D01*
X143217143Y-102610927D01*
X143213179Y-102612962D01*
X143209250Y-102615070D01*
X143205358Y-102617248D01*
X143201503Y-102619497D01*
X143197688Y-102621815D01*
X143193914Y-102624203D01*
X143190181Y-102626658D01*
X143186491Y-102629181D01*
X143182846Y-102631771D01*
X143179246Y-102634426D01*
X143175693Y-102637146D01*
X143172187Y-102639930D01*
X143168732Y-102642776D01*
X143165327Y-102645685D01*
X143161973Y-102648655D01*
X143158673Y-102651684D01*
X143155427Y-102654773D01*
X143152236Y-102657919D01*
X143150661Y-102659513D01*
X143149101Y-102661121D01*
X143147556Y-102662743D01*
X143146025Y-102664379D01*
X143144509Y-102666029D01*
X143143007Y-102667692D01*
X143141521Y-102669368D01*
X143140049Y-102671057D01*
X143138593Y-102672760D01*
X143137152Y-102674475D01*
X143135727Y-102676202D01*
X143134317Y-102677943D01*
X143132923Y-102679695D01*
X143131545Y-102681461D01*
X143130183Y-102683237D01*
X143128836Y-102685026D01*
X143127507Y-102686827D01*
X143126193Y-102688639D01*
X143124896Y-102690462D01*
X143123615Y-102692297D01*
X143122352Y-102694143D01*
X143121104Y-102696000D01*
X143119874Y-102697867D01*
X143118661Y-102699746D01*
X143117465Y-102701634D01*
X143116286Y-102703534D01*
X143115124Y-102705443D01*
X143113980Y-102707362D01*
X143112853Y-102709291D01*
X143111743Y-102711230D01*
X143110652Y-102713178D01*
X143109577Y-102715136D01*
X143108522Y-102717102D01*
X143107483Y-102719078D01*
X143106463Y-102721062D01*
X143105460Y-102723057D01*
X143104476Y-102725058D01*
X143103510Y-102727069D01*
X143102562Y-102729087D01*
X143101632Y-102731114D01*
X143100722Y-102733148D01*
X143099829Y-102735192D01*
X143098955Y-102737241D01*
X143098099Y-102739299D01*
X143097262Y-102741364D01*
X143096444Y-102743437D01*
X143095645Y-102745515D01*
X143094863Y-102747602D01*
X143094102Y-102749694D01*
X143093359Y-102751795D01*
X143092635Y-102753900D01*
X143091930Y-102756014D01*
X143091244Y-102758131D01*
X143090577Y-102760257D01*
X143089930Y-102762387D01*
X143089301Y-102764524D01*
X143088692Y-102766666D01*
X143088102Y-102768814D01*
X143087531Y-102770967D01*
X143086980Y-102773126D01*
X143086448Y-102775289D01*
X143085935Y-102777458D01*
X143085442Y-102779631D01*
X143084968Y-102781810D01*
X143084514Y-102783992D01*
X143084079Y-102786181D01*
X143083665Y-102788372D01*
X143083269Y-102790569D01*
X143082893Y-102792769D01*
X143082537Y-102794974D01*
X143082200Y-102797182D01*
X143081883Y-102799395D01*
X143081586Y-102801610D01*
X143081309Y-102803831D01*
X143081051Y-102806054D01*
X143080813Y-102808282D01*
X143080595Y-102810511D01*
X143080397Y-102812745D01*
X143080218Y-102814980D01*
X143080060Y-102817221D01*
X143079921Y-102819463D01*
X143079802Y-102821709D01*
X143079703Y-102823956D01*
X143079625Y-102826208D01*
X143079566Y-102828460D01*
X143079527Y-102830717D01*
X143079506Y-102833974D01*
D14*
X143328968Y-102584522D02*
X143324461Y-102584562D01*
X143319964Y-102584681D01*
X143315478Y-102584881D01*
X143311003Y-102585159D01*
X143306539Y-102585516D01*
X143302089Y-102585953D01*
X143297652Y-102586468D01*
X143293229Y-102587063D01*
X143288822Y-102587735D01*
X143284430Y-102588486D01*
X143280056Y-102589315D01*
X143275699Y-102590221D01*
X143271361Y-102591206D01*
X143267043Y-102592267D01*
X143262745Y-102593406D01*
X143258469Y-102594622D01*
X143254216Y-102595914D01*
X143249987Y-102597282D01*
X143245783Y-102598727D01*
X143241604Y-102600246D01*
X143237453Y-102601841D01*
X143233330Y-102603511D01*
X143229236Y-102605254D01*
X143225173Y-102607072D01*
X143221141Y-102608963D01*
X143217143Y-102610927D01*
X143213179Y-102612962D01*
X143209250Y-102615070D01*
X143205358Y-102617248D01*
X143201503Y-102619497D01*
X143197688Y-102621815D01*
X143193914Y-102624203D01*
X143190181Y-102626658D01*
X143186491Y-102629181D01*
X143182846Y-102631771D01*
X143179246Y-102634426D01*
X143175693Y-102637146D01*
X143172187Y-102639930D01*
X143168732Y-102642776D01*
X143165327Y-102645685D01*
X143161973Y-102648655D01*
X143158673Y-102651684D01*
X143155427Y-102654773D01*
X143152236Y-102657919D01*
X143150661Y-102659513D01*
X143149101Y-102661121D01*
X143147556Y-102662743D01*
X143146025Y-102664379D01*
X143144509Y-102666029D01*
X143143007Y-102667692D01*
X143141521Y-102669368D01*
X143140049Y-102671057D01*
X143138593Y-102672760D01*
X143137152Y-102674475D01*
X143135727Y-102676202D01*
X143134317Y-102677943D01*
X143132923Y-102679695D01*
X143131545Y-102681461D01*
X143130183Y-102683237D01*
X143128836Y-102685026D01*
X143127507Y-102686827D01*
X143126193Y-102688639D01*
X143124896Y-102690462D01*
X143123615Y-102692297D01*
X143122352Y-102694143D01*
X143121104Y-102696000D01*
X143119874Y-102697867D01*
X143118661Y-102699746D01*
X143117465Y-102701634D01*
X143116286Y-102703534D01*
X143115124Y-102705443D01*
X143113980Y-102707362D01*
X143112853Y-102709291D01*
X143111743Y-102711230D01*
X143110652Y-102713178D01*
X143109577Y-102715136D01*
X143108522Y-102717102D01*
X143107483Y-102719078D01*
X143106463Y-102721062D01*
X143105460Y-102723057D01*
X143104476Y-102725058D01*
X143103510Y-102727069D01*
X143102562Y-102729087D01*
X143101632Y-102731114D01*
X143100722Y-102733148D01*
X143099829Y-102735192D01*
X143098955Y-102737241D01*
X143098099Y-102739299D01*
X143097262Y-102741364D01*
X143096444Y-102743437D01*
X143095645Y-102745515D01*
X143094863Y-102747602D01*
X143094102Y-102749694D01*
X143093359Y-102751795D01*
X143092635Y-102753900D01*
X143091930Y-102756014D01*
X143091244Y-102758131D01*
X143090577Y-102760257D01*
X143089930Y-102762387D01*
X143089301Y-102764524D01*
X143088692Y-102766666D01*
X143088102Y-102768814D01*
X143087531Y-102770967D01*
X143086980Y-102773126D01*
X143086448Y-102775289D01*
X143085935Y-102777458D01*
X143085442Y-102779631D01*
X143084968Y-102781810D01*
X143084514Y-102783992D01*
X143084079Y-102786181D01*
X143083665Y-102788372D01*
X143083269Y-102790569D01*
X143082893Y-102792769D01*
X143082537Y-102794974D01*
X143082200Y-102797182D01*
X143081883Y-102799395D01*
X143081586Y-102801610D01*
X143081309Y-102803831D01*
X143081051Y-102806054D01*
X143080813Y-102808282D01*
X143080595Y-102810511D01*
X143080397Y-102812745D01*
X143080218Y-102814980D01*
X143080060Y-102817221D01*
X143079921Y-102819463D01*
X143079802Y-102821709D01*
X143079703Y-102823956D01*
X143079625Y-102826208D01*
X143079566Y-102828460D01*
X143079527Y-102830717D01*
X143079506Y-102833974D01*
D13*
X143328968Y-103083439D02*
X143333475Y-103083399D01*
X143337971Y-103083280D01*
X143342458Y-103083080D01*
X143346933Y-103082802D01*
X143351396Y-103082445D01*
X143355846Y-103082008D01*
X143360283Y-103081493D01*
X143364705Y-103080898D01*
X143369113Y-103080226D01*
X143373504Y-103079475D01*
X143377878Y-103078646D01*
X143382235Y-103077740D01*
X143386573Y-103076755D01*
X143390891Y-103075693D01*
X143395188Y-103074555D01*
X143399464Y-103073339D01*
X143403717Y-103072047D01*
X143407946Y-103070679D01*
X143412150Y-103069234D01*
X143416329Y-103067715D01*
X143420480Y-103066120D01*
X143424603Y-103064450D01*
X143428697Y-103062706D01*
X143432760Y-103060889D01*
X143436791Y-103058998D01*
X143440790Y-103057034D01*
X143444754Y-103054998D01*
X143448683Y-103052891D01*
X143452575Y-103050712D01*
X143456429Y-103048463D01*
X143460244Y-103046145D01*
X143464019Y-103043757D01*
X143467752Y-103041302D01*
X143471442Y-103038779D01*
X143475087Y-103036189D01*
X143478687Y-103033534D01*
X143482240Y-103030814D01*
X143485746Y-103028030D01*
X143489201Y-103025183D01*
X143492607Y-103022274D01*
X143495960Y-103019305D01*
X143499261Y-103016275D01*
X143502507Y-103013186D01*
X143505698Y-103010040D01*
X143507272Y-103008446D01*
X143508832Y-103006837D01*
X143510378Y-103005215D01*
X143511909Y-103003579D01*
X143513425Y-103001930D01*
X143514927Y-103000266D01*
X143516413Y-102998590D01*
X143517885Y-102996901D01*
X143519341Y-102995199D01*
X143520782Y-102993483D01*
X143522208Y-102991756D01*
X143523618Y-102990015D01*
X143525011Y-102988262D01*
X143526390Y-102986497D01*
X143527752Y-102984720D01*
X143529098Y-102982931D01*
X143530428Y-102981131D01*
X143531742Y-102979318D01*
X143533039Y-102977495D01*
X143534320Y-102975660D01*
X143535583Y-102973814D01*
X143536831Y-102971957D01*
X143538061Y-102970090D01*
X143539274Y-102968211D01*
X143540470Y-102966322D01*
X143541650Y-102964423D01*
X143542811Y-102962514D01*
X143543956Y-102960594D01*
X143545083Y-102958666D01*
X143546192Y-102956726D01*
X143547284Y-102954779D01*
X143548358Y-102952820D01*
X143549414Y-102950854D01*
X143550453Y-102948878D01*
X143551473Y-102946894D01*
X143552476Y-102944899D01*
X143553460Y-102942898D01*
X143554426Y-102940887D01*
X143555374Y-102938869D01*
X143556304Y-102936841D01*
X143557215Y-102934807D01*
X143558108Y-102932764D01*
X143558982Y-102930714D01*
X143559838Y-102928656D01*
X143560674Y-102926592D01*
X143561493Y-102924518D01*
X143562292Y-102922440D01*
X143563073Y-102920353D01*
X143563835Y-102918260D01*
X143564578Y-102916160D01*
X143565302Y-102914055D01*
X143566007Y-102911941D01*
X143566693Y-102909823D01*
X143567360Y-102907697D01*
X143568007Y-102905568D01*
X143568636Y-102903430D01*
X143569245Y-102901289D01*
X143569836Y-102899140D01*
X143570406Y-102896988D01*
X143570958Y-102894828D01*
X143571490Y-102892665D01*
X143572003Y-102890496D01*
X143572496Y-102888323D01*
X143572970Y-102886143D01*
X143573424Y-102883962D01*
X143573858Y-102881773D01*
X143574273Y-102879582D01*
X143574669Y-102877384D01*
X143575045Y-102875185D01*
X143575401Y-102872979D01*
X143575738Y-102870772D01*
X143576055Y-102868558D01*
X143576352Y-102866343D01*
X143576630Y-102864122D01*
X143576887Y-102861900D01*
X143577125Y-102859672D01*
X143577344Y-102857443D01*
X143577542Y-102855208D01*
X143577720Y-102852973D01*
X143577879Y-102850732D01*
X143578018Y-102848491D01*
X143578136Y-102846244D01*
X143578235Y-102843998D01*
X143578314Y-102841746D01*
X143578373Y-102839493D01*
X143578412Y-102837236D01*
X143578433Y-102833974D01*
D14*
X143328968Y-103083439D02*
X143333475Y-103083399D01*
X143337971Y-103083280D01*
X143342458Y-103083080D01*
X143346933Y-103082802D01*
X143351396Y-103082445D01*
X143355846Y-103082008D01*
X143360283Y-103081493D01*
X143364705Y-103080898D01*
X143369113Y-103080226D01*
X143373504Y-103079475D01*
X143377878Y-103078646D01*
X143382235Y-103077740D01*
X143386573Y-103076755D01*
X143390891Y-103075693D01*
X143395188Y-103074555D01*
X143399464Y-103073339D01*
X143403717Y-103072047D01*
X143407946Y-103070679D01*
X143412150Y-103069234D01*
X143416329Y-103067715D01*
X143420480Y-103066120D01*
X143424603Y-103064450D01*
X143428697Y-103062706D01*
X143432760Y-103060889D01*
X143436791Y-103058998D01*
X143440790Y-103057034D01*
X143444754Y-103054998D01*
X143448683Y-103052891D01*
X143452575Y-103050712D01*
X143456429Y-103048463D01*
X143460244Y-103046145D01*
X143464019Y-103043757D01*
X143467752Y-103041302D01*
X143471442Y-103038779D01*
X143475087Y-103036189D01*
X143478687Y-103033534D01*
X143482240Y-103030814D01*
X143485746Y-103028030D01*
X143489201Y-103025183D01*
X143492607Y-103022274D01*
X143495960Y-103019305D01*
X143499261Y-103016275D01*
X143502507Y-103013186D01*
X143505698Y-103010040D01*
X143507272Y-103008446D01*
X143508832Y-103006837D01*
X143510378Y-103005215D01*
X143511909Y-103003579D01*
X143513425Y-103001930D01*
X143514927Y-103000266D01*
X143516413Y-102998590D01*
X143517885Y-102996901D01*
X143519341Y-102995199D01*
X143520782Y-102993483D01*
X143522208Y-102991756D01*
X143523618Y-102990015D01*
X143525011Y-102988262D01*
X143526390Y-102986497D01*
X143527752Y-102984720D01*
X143529098Y-102982931D01*
X143530428Y-102981131D01*
X143531742Y-102979318D01*
X143533039Y-102977495D01*
X143534320Y-102975660D01*
X143535583Y-102973814D01*
X143536831Y-102971957D01*
X143538061Y-102970090D01*
X143539274Y-102968211D01*
X143540470Y-102966322D01*
X143541650Y-102964423D01*
X143542811Y-102962514D01*
X143543956Y-102960594D01*
X143545083Y-102958666D01*
X143546192Y-102956726D01*
X143547284Y-102954779D01*
X143548358Y-102952820D01*
X143549414Y-102950854D01*
X143550453Y-102948878D01*
X143551473Y-102946894D01*
X143552476Y-102944899D01*
X143553460Y-102942898D01*
X143554426Y-102940887D01*
X143555374Y-102938869D01*
X143556304Y-102936841D01*
X143557215Y-102934807D01*
X143558108Y-102932764D01*
X143558982Y-102930714D01*
X143559838Y-102928656D01*
X143560674Y-102926592D01*
X143561493Y-102924518D01*
X143562292Y-102922440D01*
X143563073Y-102920353D01*
X143563835Y-102918260D01*
X143564578Y-102916160D01*
X143565302Y-102914055D01*
X143566007Y-102911941D01*
X143566693Y-102909823D01*
X143567360Y-102907697D01*
X143568007Y-102905568D01*
X143568636Y-102903430D01*
X143569245Y-102901289D01*
X143569836Y-102899140D01*
X143570406Y-102896988D01*
X143570958Y-102894828D01*
X143571490Y-102892665D01*
X143572003Y-102890496D01*
X143572496Y-102888323D01*
X143572970Y-102886143D01*
X143573424Y-102883962D01*
X143573858Y-102881773D01*
X143574273Y-102879582D01*
X143574669Y-102877384D01*
X143575045Y-102875185D01*
X143575401Y-102872979D01*
X143575738Y-102870772D01*
X143576055Y-102868558D01*
X143576352Y-102866343D01*
X143576630Y-102864122D01*
X143576887Y-102861900D01*
X143577125Y-102859672D01*
X143577344Y-102857443D01*
X143577542Y-102855208D01*
X143577720Y-102852973D01*
X143577879Y-102850732D01*
X143578018Y-102848491D01*
X143578136Y-102846244D01*
X143578235Y-102843998D01*
X143578314Y-102841746D01*
X143578373Y-102839493D01*
X143578412Y-102837236D01*
X143578433Y-102833974D01*
D13*
X143379552Y-103569505D02*
X144141813Y-102807233D01*
D14*
X143379552Y-103569505D02*
X144141813Y-102807233D01*
D13*
X143379552Y-121447982D02*
X143656737Y-121170795D01*
D14*
X143379552Y-121447982D02*
X143656737Y-121170795D01*
D13*
X143578433Y-102833974D02*
X143578393Y-102829467D01*
X143578274Y-102824971D01*
X143578074Y-102820485D01*
X143577796Y-102816010D01*
X143577439Y-102811547D01*
X143577002Y-102807096D01*
X143576487Y-102802660D01*
X143575892Y-102798237D01*
X143575220Y-102793830D01*
X143574469Y-102789439D01*
X143573640Y-102785065D01*
X143572734Y-102780708D01*
X143571749Y-102776371D01*
X143570688Y-102772053D01*
X143569549Y-102767755D01*
X143568333Y-102763480D01*
X143567041Y-102759227D01*
X143565673Y-102754998D01*
X143564228Y-102750794D01*
X143562709Y-102746616D01*
X143561114Y-102742465D01*
X143559444Y-102738342D01*
X143557701Y-102734248D01*
X143555883Y-102730185D01*
X143553992Y-102726154D01*
X143552028Y-102722156D01*
X143549993Y-102718192D01*
X143547885Y-102714263D01*
X143545707Y-102710371D01*
X143543458Y-102706517D01*
X143541139Y-102702702D01*
X143538752Y-102698928D01*
X143536296Y-102695195D01*
X143533773Y-102691506D01*
X143531184Y-102687860D01*
X143528529Y-102684261D01*
X143525809Y-102680708D01*
X143523025Y-102677203D01*
X143520178Y-102673747D01*
X143517269Y-102670342D01*
X143514299Y-102666989D01*
X143511270Y-102663688D01*
X143508181Y-102660442D01*
X143505035Y-102657252D01*
X143503441Y-102655677D01*
X143501832Y-102654117D01*
X143500210Y-102652572D01*
X143498574Y-102651041D01*
X143496925Y-102649525D01*
X143495262Y-102648023D01*
X143493585Y-102646537D01*
X143491896Y-102645065D01*
X143490194Y-102643609D01*
X143488478Y-102642168D01*
X143486751Y-102640743D01*
X143485010Y-102639333D01*
X143483257Y-102637939D01*
X143481492Y-102636561D01*
X143479716Y-102635199D01*
X143477926Y-102633853D01*
X143476126Y-102632523D01*
X143474313Y-102631209D01*
X143472490Y-102629913D01*
X143470655Y-102628632D01*
X143468809Y-102627368D01*
X143466952Y-102626121D01*
X143465085Y-102624891D01*
X143463206Y-102623677D01*
X143461317Y-102622482D01*
X143459418Y-102621302D01*
X143457509Y-102620141D01*
X143455589Y-102618996D01*
X143453660Y-102617870D01*
X143451721Y-102616760D01*
X143449773Y-102615668D01*
X143447815Y-102614594D01*
X143445849Y-102613538D01*
X143443872Y-102612499D01*
X143441888Y-102611479D01*
X143439894Y-102610477D01*
X143437893Y-102609493D01*
X143435881Y-102608526D01*
X143433863Y-102607579D01*
X143431836Y-102606649D01*
X143429802Y-102605738D01*
X143427758Y-102604845D01*
X143425709Y-102603971D01*
X143423650Y-102603115D01*
X143421586Y-102602279D01*
X143419512Y-102601460D01*
X143417434Y-102600661D01*
X143415347Y-102599880D01*
X143413254Y-102599118D01*
X143411154Y-102598375D01*
X143409048Y-102597652D01*
X143406935Y-102596946D01*
X143404817Y-102596261D01*
X143402691Y-102595594D01*
X143400561Y-102594946D01*
X143398423Y-102594317D01*
X143396282Y-102593708D01*
X143394133Y-102593118D01*
X143391981Y-102592548D01*
X143389821Y-102591996D01*
X143387658Y-102591464D01*
X143385488Y-102590951D01*
X143383316Y-102590459D01*
X143381136Y-102589985D01*
X143378954Y-102589531D01*
X143376765Y-102589096D01*
X143374574Y-102588681D01*
X143372377Y-102588285D01*
X143370177Y-102587909D01*
X143367971Y-102587553D01*
X143365764Y-102587216D01*
X143363550Y-102586899D01*
X143361335Y-102586602D01*
X143359114Y-102586325D01*
X143356891Y-102586067D01*
X143354663Y-102585829D01*
X143352434Y-102585611D01*
X143350199Y-102585413D01*
X143347964Y-102585234D01*
X143345723Y-102585076D01*
X143343482Y-102584937D01*
X143341235Y-102584818D01*
X143338988Y-102584720D01*
X143336736Y-102584641D01*
X143334483Y-102584582D01*
X143332226Y-102584543D01*
X143328968Y-102584522D01*
D14*
X143578433Y-102833974D02*
X143578393Y-102829467D01*
X143578274Y-102824971D01*
X143578074Y-102820485D01*
X143577796Y-102816010D01*
X143577439Y-102811547D01*
X143577002Y-102807096D01*
X143576487Y-102802660D01*
X143575892Y-102798237D01*
X143575220Y-102793830D01*
X143574469Y-102789439D01*
X143573640Y-102785065D01*
X143572734Y-102780708D01*
X143571749Y-102776371D01*
X143570688Y-102772053D01*
X143569549Y-102767755D01*
X143568333Y-102763480D01*
X143567041Y-102759227D01*
X143565673Y-102754998D01*
X143564228Y-102750794D01*
X143562709Y-102746616D01*
X143561114Y-102742465D01*
X143559444Y-102738342D01*
X143557701Y-102734248D01*
X143555883Y-102730185D01*
X143553992Y-102726154D01*
X143552028Y-102722156D01*
X143549993Y-102718192D01*
X143547885Y-102714263D01*
X143545707Y-102710371D01*
X143543458Y-102706517D01*
X143541139Y-102702702D01*
X143538752Y-102698928D01*
X143536296Y-102695195D01*
X143533773Y-102691506D01*
X143531184Y-102687860D01*
X143528529Y-102684261D01*
X143525809Y-102680708D01*
X143523025Y-102677203D01*
X143520178Y-102673747D01*
X143517269Y-102670342D01*
X143514299Y-102666989D01*
X143511270Y-102663688D01*
X143508181Y-102660442D01*
X143505035Y-102657252D01*
X143503441Y-102655677D01*
X143501832Y-102654117D01*
X143500210Y-102652572D01*
X143498574Y-102651041D01*
X143496925Y-102649525D01*
X143495262Y-102648023D01*
X143493585Y-102646537D01*
X143491896Y-102645065D01*
X143490194Y-102643609D01*
X143488478Y-102642168D01*
X143486751Y-102640743D01*
X143485010Y-102639333D01*
X143483257Y-102637939D01*
X143481492Y-102636561D01*
X143479716Y-102635199D01*
X143477926Y-102633853D01*
X143476126Y-102632523D01*
X143474313Y-102631209D01*
X143472490Y-102629913D01*
X143470655Y-102628632D01*
X143468809Y-102627368D01*
X143466952Y-102626121D01*
X143465085Y-102624891D01*
X143463206Y-102623677D01*
X143461317Y-102622482D01*
X143459418Y-102621302D01*
X143457509Y-102620141D01*
X143455589Y-102618996D01*
X143453660Y-102617870D01*
X143451721Y-102616760D01*
X143449773Y-102615668D01*
X143447815Y-102614594D01*
X143445849Y-102613538D01*
X143443872Y-102612499D01*
X143441888Y-102611479D01*
X143439894Y-102610477D01*
X143437893Y-102609493D01*
X143435881Y-102608526D01*
X143433863Y-102607579D01*
X143431836Y-102606649D01*
X143429802Y-102605738D01*
X143427758Y-102604845D01*
X143425709Y-102603971D01*
X143423650Y-102603115D01*
X143421586Y-102602279D01*
X143419512Y-102601460D01*
X143417434Y-102600661D01*
X143415347Y-102599880D01*
X143413254Y-102599118D01*
X143411154Y-102598375D01*
X143409048Y-102597652D01*
X143406935Y-102596946D01*
X143404817Y-102596261D01*
X143402691Y-102595594D01*
X143400561Y-102594946D01*
X143398423Y-102594317D01*
X143396282Y-102593708D01*
X143394133Y-102593118D01*
X143391981Y-102592548D01*
X143389821Y-102591996D01*
X143387658Y-102591464D01*
X143385488Y-102590951D01*
X143383316Y-102590459D01*
X143381136Y-102589985D01*
X143378954Y-102589531D01*
X143376765Y-102589096D01*
X143374574Y-102588681D01*
X143372377Y-102588285D01*
X143370177Y-102587909D01*
X143367971Y-102587553D01*
X143365764Y-102587216D01*
X143363550Y-102586899D01*
X143361335Y-102586602D01*
X143359114Y-102586325D01*
X143356891Y-102586067D01*
X143354663Y-102585829D01*
X143352434Y-102585611D01*
X143350199Y-102585413D01*
X143347964Y-102585234D01*
X143345723Y-102585076D01*
X143343482Y-102584937D01*
X143341235Y-102584818D01*
X143338988Y-102584720D01*
X143336736Y-102584641D01*
X143334483Y-102584582D01*
X143332226Y-102584543D01*
X143328968Y-102584522D01*
D13*
X143656737Y-103846692D02*
X143379552Y-103569505D01*
D14*
X143656737Y-103846692D02*
X143379552Y-103569505D01*
D13*
X143656737Y-121170795D02*
X144418999Y-121933067D01*
D14*
X143656737Y-121170795D02*
X144418999Y-121933067D01*
D13*
X143864628Y-102252862D02*
X153011764Y-111400000D01*
D14*
X143864628Y-102252862D02*
X153011764Y-111400000D01*
D13*
X143864628Y-122764624D02*
X141647140Y-122764624D01*
D14*
X143864628Y-122764624D02*
X141647140Y-122764624D01*
D13*
X144110316Y-104300263D02*
X144872572Y-103538005D01*
D14*
X144110316Y-104300263D02*
X144872572Y-103538005D01*
D13*
X144110316Y-120717225D02*
X144387498Y-120440036D01*
D14*
X144110316Y-120717225D02*
X144387498Y-120440036D01*
D13*
X144141813Y-102807233D02*
X144418999Y-103084419D01*
D14*
X144141813Y-102807233D02*
X144418999Y-103084419D01*
D13*
X144141813Y-122210253D02*
X143379552Y-121447982D01*
D14*
X144141813Y-122210253D02*
X143379552Y-121447982D01*
D13*
X144369441Y-110749097D02*
X143025335Y-112097752D01*
D14*
X144369441Y-110749097D02*
X143025335Y-112097752D01*
D13*
X144369441Y-114379745D02*
X144607327Y-114141857D01*
D14*
X144369441Y-114379745D02*
X144607327Y-114141857D01*
D13*
X144387498Y-104577450D02*
X144110316Y-104300263D01*
D14*
X144387498Y-104577450D02*
X144110316Y-104300263D01*
D13*
X144387498Y-120440036D02*
X144768628Y-120821166D01*
X145149757Y-121202294D01*
D14*
X144387498Y-120440036D02*
X144768628Y-120821166D01*
X145149757Y-121202294D01*
D13*
X144418999Y-103084419D02*
X143656737Y-103846692D01*
D14*
X144418999Y-103084419D02*
X143656737Y-103846692D01*
D13*
X144418999Y-121933067D02*
X144141813Y-122210253D01*
D14*
X144418999Y-121933067D02*
X144141813Y-122210253D01*
D13*
X144607327Y-110987139D02*
X144369441Y-110749097D01*
D14*
X144607327Y-110987139D02*
X144369441Y-110749097D01*
D13*
X144607327Y-114141857D02*
X141214722Y-110749097D01*
D14*
X144607327Y-114141857D02*
X141214722Y-110749097D01*
D13*
X144810160Y-110736931D02*
X144810160Y-111701452D01*
D14*
X144810160Y-110736931D02*
X144810160Y-111701452D01*
D13*
X144810160Y-111701452D02*
X145169485Y-111701452D01*
D14*
X144810160Y-111701452D02*
X145169485Y-111701452D01*
D13*
X144841071Y-105031022D02*
X145603345Y-104268764D01*
D14*
X144841071Y-105031022D02*
X145603345Y-104268764D01*
D13*
X144841071Y-119986465D02*
X145118258Y-119709278D01*
D14*
X144841071Y-119986465D02*
X145118258Y-119709278D01*
D13*
X144872572Y-103538005D02*
X145149757Y-103815191D01*
D14*
X144872572Y-103538005D02*
X145149757Y-103815191D01*
D13*
X144872572Y-121479483D02*
X144110316Y-120717225D01*
D14*
X144872572Y-121479483D02*
X144110316Y-120717225D01*
D13*
X145118258Y-105308208D02*
X144841071Y-105031022D01*
D14*
X145118258Y-105308208D02*
X144841071Y-105031022D01*
D13*
X145118258Y-119709278D02*
X145541742Y-120132755D01*
X145880529Y-120471537D01*
D14*
X145118258Y-119709278D02*
X145541742Y-120132755D01*
X145880529Y-120471537D01*
D13*
X145149757Y-103815191D02*
X144895671Y-104069277D01*
X144387498Y-104577450D01*
D14*
X145149757Y-103815191D02*
X144895671Y-104069277D01*
X144387498Y-104577450D01*
D13*
X145149757Y-121202294D02*
X144872572Y-121479483D01*
D14*
X145149757Y-121202294D02*
X144872572Y-121479483D01*
D13*
X145169485Y-111092348D02*
X146510180Y-111092348D01*
D14*
X145169485Y-111092348D02*
X146510180Y-111092348D01*
D13*
X145169485Y-111701452D02*
X145169485Y-111092348D01*
D14*
X145169485Y-111701452D02*
X145169485Y-111092348D01*
D13*
X145409037Y-112076266D02*
X145409037Y-113176045D01*
D14*
X145409037Y-112076266D02*
X145409037Y-113176045D01*
D13*
X145409037Y-113176045D02*
X145768375Y-113176045D01*
D14*
X145409037Y-113176045D02*
X145768375Y-113176045D01*
D13*
X145571844Y-105761794D02*
X146334102Y-104999522D01*
D14*
X145571844Y-105761794D02*
X146334102Y-104999522D01*
D13*
X145571844Y-119255693D02*
X145745084Y-119082451D01*
X145849029Y-118978506D01*
D14*
X145571844Y-119255693D02*
X145745084Y-119082451D01*
X145849029Y-118978506D01*
D13*
X145603345Y-104268764D02*
X145880529Y-104545950D01*
D14*
X145603345Y-104268764D02*
X145880529Y-104545950D01*
D13*
X145603345Y-120748723D02*
X144841071Y-119986465D01*
D14*
X145603345Y-120748723D02*
X144841071Y-119986465D01*
D13*
X145768375Y-112076266D02*
X145409037Y-112076266D01*
D14*
X145768375Y-112076266D02*
X145409037Y-112076266D01*
D13*
X145768375Y-112450401D02*
X145768375Y-112076266D01*
D14*
X145768375Y-112450401D02*
X145768375Y-112076266D01*
D13*
X145768375Y-112805821D02*
X146510180Y-112805821D01*
D14*
X145768375Y-112805821D02*
X146510180Y-112805821D01*
D13*
X145768375Y-113176045D02*
X145768375Y-112805821D01*
D14*
X145768375Y-113176045D02*
X145768375Y-112805821D01*
D13*
X145849029Y-106038980D02*
X145571844Y-105761794D01*
D14*
X145849029Y-106038980D02*
X145571844Y-105761794D01*
D13*
X145849029Y-118978506D02*
X146611288Y-119740779D01*
D14*
X145849029Y-118978506D02*
X146611288Y-119740779D01*
D13*
X145880529Y-104545950D02*
X145118258Y-105308208D01*
D14*
X145880529Y-104545950D02*
X145118258Y-105308208D01*
D13*
X145880529Y-120471537D02*
X145603345Y-120748723D01*
D14*
X145880529Y-120471537D02*
X145603345Y-120748723D01*
D13*
X146160375Y-114301512D02*
X146160375Y-114656931D01*
D14*
X146160375Y-114301512D02*
X146160375Y-114656931D01*
D13*
X146160375Y-114656931D02*
X147260159Y-114656931D01*
D14*
X146160375Y-114656931D02*
X147260159Y-114656931D01*
D13*
X146302602Y-106492551D02*
X147064858Y-105730294D01*
D14*
X146302602Y-106492551D02*
X147064858Y-105730294D01*
D13*
X146302602Y-118524935D02*
X146579787Y-118247749D01*
D14*
X146302602Y-118524935D02*
X146579787Y-118247749D01*
D13*
X146334102Y-104999522D02*
X146611288Y-105276708D01*
D14*
X146334102Y-104999522D02*
X146611288Y-105276708D01*
D13*
X146334102Y-120017966D02*
X145571844Y-119255693D01*
D14*
X146334102Y-120017966D02*
X145571844Y-119255693D01*
D13*
X146510180Y-111092348D02*
X146510180Y-112450401D01*
D14*
X146510180Y-111092348D02*
X146510180Y-112450401D01*
D13*
X146510180Y-112450401D02*
X145768375Y-112450401D01*
D14*
X146510180Y-112450401D02*
X145768375Y-112450401D01*
D13*
X146510180Y-112805821D02*
X146510180Y-114301512D01*
D14*
X146510180Y-112805821D02*
X146510180Y-114301512D01*
D13*
X146510180Y-114301512D02*
X146160375Y-114301512D01*
D14*
X146510180Y-114301512D02*
X146160375Y-114301512D01*
D13*
X146579787Y-106769738D02*
X146453794Y-106643744D01*
X146302602Y-106492551D01*
D14*
X146579787Y-106769738D02*
X146453794Y-106643744D01*
X146302602Y-106492551D01*
D13*
X146579787Y-118247749D02*
X147342045Y-119010007D01*
D14*
X146579787Y-118247749D02*
X147342045Y-119010007D01*
D13*
X146611288Y-105276708D02*
X145849029Y-106038980D01*
D14*
X146611288Y-105276708D02*
X145849029Y-106038980D01*
D13*
X146611288Y-119740779D02*
X146334102Y-120017966D01*
D14*
X146611288Y-119740779D02*
X146334102Y-120017966D01*
D13*
X146933483Y-111092348D02*
X147260159Y-111092348D01*
D14*
X146933483Y-111092348D02*
X147260159Y-111092348D01*
D13*
X146933483Y-114301512D02*
X146933483Y-111092348D01*
D14*
X146933483Y-114301512D02*
X146933483Y-111092348D01*
D13*
X147033359Y-107223309D02*
X147795630Y-106461051D01*
D14*
X147033359Y-107223309D02*
X147795630Y-106461051D01*
D13*
X147033359Y-117794178D02*
X147310545Y-117516989D01*
D14*
X147033359Y-117794178D02*
X147310545Y-117516989D01*
D13*
X147064858Y-105730294D02*
X147064859Y-105730295D01*
X147342045Y-106007480D01*
D14*
X147064858Y-105730294D02*
X147064859Y-105730295D01*
X147342045Y-106007480D01*
D13*
X147064858Y-119287193D02*
X146302602Y-118524935D01*
D14*
X147064858Y-119287193D02*
X146302602Y-118524935D01*
D13*
X147260159Y-110736931D02*
X144810160Y-110736931D01*
D14*
X147260159Y-110736931D02*
X144810160Y-110736931D01*
D13*
X147260159Y-111092348D02*
X147260159Y-110736931D01*
D14*
X147260159Y-111092348D02*
X147260159Y-110736931D01*
D13*
X147260159Y-114301512D02*
X146933483Y-114301512D01*
D14*
X147260159Y-114301512D02*
X146933483Y-114301512D01*
D13*
X147260159Y-114656931D02*
X147260159Y-114301512D01*
D14*
X147260159Y-114656931D02*
X147260159Y-114301512D01*
D13*
X147310545Y-107500496D02*
X147033359Y-107223309D01*
D14*
X147310545Y-107500496D02*
X147033359Y-107223309D01*
D13*
X147310545Y-117516989D02*
X148072817Y-118279247D01*
D14*
X147310545Y-117516989D02*
X148072817Y-118279247D01*
D13*
X147342045Y-106007480D02*
X146579787Y-106769738D01*
D14*
X147342045Y-106007480D02*
X146579787Y-106769738D01*
D13*
X147342045Y-119010007D02*
X147120297Y-119231755D01*
X147064858Y-119287193D01*
D14*
X147342045Y-119010007D02*
X147120297Y-119231755D01*
X147064858Y-119287193D01*
D13*
X147764130Y-107954082D02*
X148526388Y-107191809D01*
D14*
X147764130Y-107954082D02*
X148526388Y-107191809D01*
D13*
X147764130Y-117063405D02*
X148041318Y-116786219D01*
D14*
X147764130Y-117063405D02*
X148041318Y-116786219D01*
D13*
X147795630Y-106461051D02*
X148072817Y-106738238D01*
D14*
X147795630Y-106461051D02*
X148072817Y-106738238D01*
D13*
X147795630Y-118556436D02*
X147033359Y-117794178D01*
D14*
X147795630Y-118556436D02*
X147033359Y-117794178D01*
D13*
X148041318Y-108231267D02*
X147764130Y-107954082D01*
D14*
X148041318Y-108231267D02*
X147764130Y-107954082D01*
D13*
X148041318Y-116786219D02*
X148803576Y-117548490D01*
D14*
X148041318Y-116786219D02*
X148803576Y-117548490D01*
D13*
X148072817Y-106738238D02*
X147310545Y-107500496D01*
D14*
X148072817Y-106738238D02*
X147310545Y-107500496D01*
D13*
X148072817Y-118279247D02*
X147795630Y-118556436D01*
D14*
X148072817Y-118279247D02*
X147795630Y-118556436D01*
D13*
X148494889Y-108684839D02*
X149257146Y-107922581D01*
D14*
X148494889Y-108684839D02*
X149257146Y-107922581D01*
D13*
X148494889Y-116332646D02*
X148772075Y-116055461D01*
D14*
X148494889Y-116332646D02*
X148772075Y-116055461D01*
D13*
X148526388Y-107191809D02*
X148803576Y-107468995D01*
D14*
X148526388Y-107191809D02*
X148803576Y-107468995D01*
D13*
X148526388Y-117825676D02*
X147764130Y-117063405D01*
D14*
X148526388Y-117825676D02*
X147764130Y-117063405D01*
D13*
X148772075Y-108962025D02*
X148587285Y-108777235D01*
X148494889Y-108684839D01*
D14*
X148772075Y-108962025D02*
X148587285Y-108777235D01*
X148494889Y-108684839D01*
D13*
X148772075Y-116055461D02*
X149534332Y-116817717D01*
D14*
X148772075Y-116055461D02*
X149534332Y-116817717D01*
D13*
X148803576Y-107468995D02*
X148651128Y-107621445D01*
X148041318Y-108231267D01*
D14*
X148803576Y-107468995D02*
X148651128Y-107621445D01*
X148041318Y-108231267D01*
D13*
X148803576Y-117548490D02*
X148748138Y-117603928D01*
X148526388Y-117825676D01*
D14*
X148803576Y-117548490D02*
X148748138Y-117603928D01*
X148526388Y-117825676D01*
D13*
X149225646Y-109415598D02*
X149987918Y-108653339D01*
D14*
X149225646Y-109415598D02*
X149987918Y-108653339D01*
D13*
X149225646Y-115601888D02*
X149502833Y-115324703D01*
D14*
X149225646Y-115601888D02*
X149502833Y-115324703D01*
D13*
X149257146Y-107922581D02*
X149534332Y-108199767D01*
D14*
X149257146Y-107922581D02*
X149534332Y-108199767D01*
D13*
X149257146Y-117094904D02*
X148494889Y-116332646D01*
D14*
X149257146Y-117094904D02*
X148494889Y-116332646D01*
D13*
X149502833Y-109692783D02*
X149225646Y-109415598D01*
D14*
X149502833Y-109692783D02*
X149225646Y-109415598D01*
D13*
X149502833Y-115324703D02*
X150265104Y-116086962D01*
D14*
X149502833Y-115324703D02*
X150265104Y-116086962D01*
D13*
X149534332Y-108199767D02*
X148772075Y-108962025D01*
D14*
X149534332Y-108199767D02*
X148772075Y-108962025D01*
D13*
X149534332Y-116817717D02*
X149257146Y-117094904D01*
D14*
X149534332Y-116817717D02*
X149257146Y-117094904D01*
D13*
X149956418Y-110146370D02*
X150718677Y-109384098D01*
D14*
X149956418Y-110146370D02*
X150718677Y-109384098D01*
D13*
X149956418Y-114871117D02*
X150233604Y-114593931D01*
D14*
X149956418Y-114871117D02*
X150233604Y-114593931D01*
D13*
X149987918Y-108653339D02*
X150265104Y-108930525D01*
D14*
X149987918Y-108653339D02*
X150265104Y-108930525D01*
D13*
X149987918Y-116364147D02*
X149225646Y-115601888D01*
D14*
X149987918Y-116364147D02*
X149225646Y-115601888D01*
D13*
X150233604Y-110423554D02*
X149956418Y-110146370D01*
D14*
X150233604Y-110423554D02*
X149956418Y-110146370D01*
D13*
X150233604Y-114593931D02*
X150995862Y-115356204D01*
D14*
X150233604Y-114593931D02*
X150995862Y-115356204D01*
D13*
X150265104Y-108930525D02*
X149502833Y-109692783D01*
D14*
X150265104Y-108930525D02*
X149502833Y-109692783D01*
D13*
X150265104Y-116086962D02*
X149987918Y-116364147D01*
D14*
X150265104Y-116086962D02*
X149987918Y-116364147D01*
D13*
X150517090Y-112508743D02*
X142755884Y-120269951D01*
D14*
X150517090Y-112508743D02*
X142755884Y-120269951D01*
D13*
X150687176Y-110877127D02*
X151449434Y-110114870D01*
D14*
X150687176Y-110877127D02*
X151449434Y-110114870D01*
D13*
X150687176Y-114140358D02*
X150964362Y-113863175D01*
D14*
X150687176Y-114140358D02*
X150964362Y-113863175D01*
D13*
X150718677Y-109384098D02*
X150995862Y-109661283D01*
D14*
X150718677Y-109384098D02*
X150995862Y-109661283D01*
D13*
X150718677Y-115633388D02*
X149956418Y-114871117D01*
D14*
X150718677Y-115633388D02*
X149956418Y-114871117D01*
D13*
X150964362Y-111154312D02*
X150687176Y-110877127D01*
D14*
X150964362Y-111154312D02*
X150687176Y-110877127D01*
D13*
X150964362Y-113863175D02*
X151726621Y-114625431D01*
D14*
X150964362Y-113863175D02*
X151726621Y-114625431D01*
D13*
X150995862Y-109661283D02*
X150233604Y-110423554D01*
D14*
X150995862Y-109661283D02*
X150233604Y-110423554D01*
D13*
X150995862Y-115356204D02*
X150718677Y-115633388D01*
D14*
X150995862Y-115356204D02*
X150718677Y-115633388D01*
D13*
X151348648Y-112508743D02*
X142755884Y-121101509D01*
D14*
X151348648Y-112508743D02*
X142755884Y-121101509D01*
D13*
X151417934Y-111607889D02*
X152180207Y-110845627D01*
D14*
X151417934Y-111607889D02*
X152180207Y-110845627D01*
D13*
X151417934Y-113409597D02*
X151695121Y-113132411D01*
D14*
X151417934Y-113409597D02*
X151695121Y-113132411D01*
D13*
X151449434Y-110114870D02*
X151726621Y-110392055D01*
D14*
X151449434Y-110114870D02*
X151726621Y-110392055D01*
D13*
X151449434Y-114902617D02*
X150687176Y-114140358D01*
D14*
X151449434Y-114902617D02*
X150687176Y-114140358D01*
D13*
X151695121Y-111885075D02*
X151417934Y-111607889D01*
D14*
X151695121Y-111885075D02*
X151417934Y-111607889D01*
D13*
X151695121Y-113132411D02*
X152457392Y-113894672D01*
D14*
X151695121Y-113132411D02*
X152457392Y-113894672D01*
D13*
X151726621Y-110392055D02*
X150964362Y-111154312D01*
D14*
X151726621Y-110392055D02*
X150964362Y-111154312D01*
D13*
X151726621Y-114625431D02*
X151449434Y-114902617D01*
D14*
X151726621Y-114625431D02*
X151449434Y-114902617D01*
D13*
X152180207Y-110845627D02*
X152457392Y-111122815D01*
D14*
X152180207Y-110845627D02*
X152457392Y-111122815D01*
D13*
X152180207Y-114171858D02*
X151417934Y-113409597D01*
D14*
X152180207Y-114171858D02*
X151417934Y-113409597D01*
D13*
X152457392Y-111122815D02*
X151695121Y-111885075D01*
D14*
X152457392Y-111122815D02*
X151695121Y-111885075D01*
D13*
X152457392Y-113894672D02*
X152180207Y-114171858D01*
D14*
X152457392Y-113894672D02*
X152180207Y-114171858D01*
X153011764Y-111400000D02*
X153011764Y-113617488D01*
D13*
X153011764Y-113617488D02*
X143864628Y-122764624D01*
D14*
X153011764Y-113617488D02*
X143864628Y-122764624D01*
D13*
X153011764Y-113617488D02*
X153011764Y-111400000D01*
D10*
G36*
X133545048Y-122696000D02*
G01*
X133657522Y-122696000D01*
X133964755Y-121837828D01*
X133869061Y-121837828D01*
X133699508Y-122306994D01*
X133602128Y-122593564D01*
X133595387Y-122593564D01*
X133498007Y-122306994D01*
X133326769Y-121837828D01*
X133234445Y-121837828D01*
X133545048Y-122696000D01*
G37*
G36*
X132283803Y-122696000D02*
G01*
X133049357Y-122696000D01*
X133049357Y-122607046D01*
X132706880Y-122607046D01*
X132706880Y-121597566D01*
X132715233Y-121597566D01*
X133037634Y-121884576D01*
X133096325Y-121819070D01*
X132765645Y-121523634D01*
X132606130Y-121523634D01*
X132606130Y-122607046D01*
X132283803Y-122607046D01*
X132283803Y-122696000D01*
G37*
G36*
X131975104Y-122715930D02*
G01*
X132011665Y-122710227D01*
X132035554Y-122694974D01*
X132050481Y-122671310D01*
X132055704Y-122640385D01*
X132055704Y-122621921D01*
X132050478Y-122591008D01*
X132035554Y-122567406D01*
X132011658Y-122552096D01*
X131975104Y-122546376D01*
X131937292Y-122552189D01*
X131913921Y-122567406D01*
X131899618Y-122590942D01*
X131894577Y-122621921D01*
X131894577Y-122640385D01*
X131899616Y-122671376D01*
X131913921Y-122694974D01*
X131937285Y-122710135D01*
X131975104Y-122715930D01*
G37*
G36*
X131339701Y-121511777D02*
G01*
X131412407Y-121534704D01*
X131474357Y-121571701D01*
X131526312Y-121622214D01*
X131570356Y-121688860D01*
X131606175Y-121774886D01*
X131629273Y-121866005D01*
X131644382Y-121976560D01*
X131649846Y-122109817D01*
X131644383Y-122243072D01*
X131629275Y-122353653D01*
X131606175Y-122444820D01*
X131570359Y-122530798D01*
X131526316Y-122597422D01*
X131474357Y-122647933D01*
X131412407Y-122684929D01*
X131339701Y-122707857D01*
X131253586Y-122715930D01*
X131166348Y-122707804D01*
X131093439Y-122684831D01*
X131032009Y-122647933D01*
X130980580Y-122597490D01*
X130936821Y-122530876D01*
X130901071Y-122444820D01*
X130877971Y-122353653D01*
X130862863Y-122243072D01*
X130857400Y-122109817D01*
X130860633Y-122030975D01*
X130963206Y-122030975D01*
X130963206Y-122188732D01*
X130967092Y-122279244D01*
X130978025Y-122357084D01*
X130995080Y-122423864D01*
X131020999Y-122487110D01*
X131052712Y-122537034D01*
X131089968Y-122575759D01*
X131134614Y-122604438D01*
X131188363Y-122622313D01*
X131253586Y-122628662D01*
X131317737Y-122622367D01*
X131371309Y-122604537D01*
X131416472Y-122575759D01*
X131454212Y-122536972D01*
X131486186Y-122487041D01*
X131512166Y-122423864D01*
X131529221Y-122357084D01*
X131540154Y-122279244D01*
X131544040Y-122188732D01*
X131544040Y-122030975D01*
X131540126Y-121939336D01*
X131529168Y-121861314D01*
X131512166Y-121795110D01*
X131486221Y-121732421D01*
X131454253Y-121682711D01*
X131416472Y-121643948D01*
X131371309Y-121615169D01*
X131317737Y-121597340D01*
X131253586Y-121591045D01*
X131188363Y-121597393D01*
X131134614Y-121615268D01*
X131089968Y-121643948D01*
X131052671Y-121682650D01*
X131020964Y-121732352D01*
X130995080Y-121795110D01*
X130978078Y-121861314D01*
X130967120Y-121939336D01*
X130963206Y-122030975D01*
X130860633Y-122030975D01*
X130862864Y-121976560D01*
X130877973Y-121866005D01*
X130901071Y-121774886D01*
X130936825Y-121688781D01*
X130980584Y-121622145D01*
X131032009Y-121571701D01*
X131093439Y-121534803D01*
X131166348Y-121511830D01*
X131253586Y-121503704D01*
X131339701Y-121511777D01*
G37*
G36*
X129851365Y-122212223D02*
G01*
X129786958Y-122212223D01*
X129786958Y-121883960D01*
X129588242Y-121883960D01*
X129409969Y-122212223D01*
X129336989Y-122212223D01*
X129521710Y-121879637D01*
X129470720Y-121866950D01*
X129430438Y-121845048D01*
X129398758Y-121813985D01*
X129375839Y-121775385D01*
X129361456Y-121728855D01*
X129356333Y-121672422D01*
X129358820Y-121647362D01*
X129426089Y-121647362D01*
X129426089Y-121699606D01*
X129429867Y-121736089D01*
X129440597Y-121766577D01*
X129458718Y-121792313D01*
X129484634Y-121812373D01*
X129516443Y-121824759D01*
X129557101Y-121829226D01*
X129786958Y-121829226D01*
X129786958Y-121518842D01*
X129557101Y-121518842D01*
X129516407Y-121523181D01*
X129484634Y-121535182D01*
X129458785Y-121554879D01*
X129440597Y-121580977D01*
X129429826Y-121611766D01*
X129426089Y-121647362D01*
X129358820Y-121647362D01*
X129362596Y-121609316D01*
X129380000Y-121558995D01*
X129409079Y-121517273D01*
X129448730Y-121486895D01*
X129496948Y-121468485D01*
X129557101Y-121461909D01*
X129851365Y-121461909D01*
X129851365Y-122212223D01*
G37*
G36*
X129042964Y-121654667D02*
G01*
X129084846Y-121666201D01*
X129122007Y-121684951D01*
X129154685Y-121710724D01*
X129182358Y-121743286D01*
X129205245Y-121783577D01*
X129226929Y-121851913D01*
X129234774Y-121937889D01*
X129226931Y-122023875D01*
X129205245Y-122092275D01*
X129182330Y-122132480D01*
X129154495Y-122165024D01*
X129121494Y-122190827D01*
X129084007Y-122209592D01*
X129041921Y-122221119D01*
X128994219Y-122225119D01*
X128943069Y-122220751D01*
X128898923Y-122208272D01*
X128860496Y-122188116D01*
X128812479Y-122145246D01*
X128779456Y-122091103D01*
X128824519Y-122061061D01*
X128852579Y-122109003D01*
X128889512Y-122143053D01*
X128935164Y-122164058D01*
X128990995Y-122171410D01*
X129045119Y-122164960D01*
X129088307Y-122146838D01*
X129123106Y-122117334D01*
X129148783Y-122078796D01*
X129164719Y-122032514D01*
X129170367Y-121976431D01*
X129170367Y-121949613D01*
X128763336Y-121949613D01*
X128763336Y-121920670D01*
X128765978Y-121893779D01*
X128829941Y-121893779D01*
X128829941Y-121902352D01*
X129170367Y-121902352D01*
X129170367Y-121897003D01*
X129164769Y-121841613D01*
X129148898Y-121795374D01*
X129122735Y-121756069D01*
X129088155Y-121726863D01*
X129046201Y-121708628D01*
X128995318Y-121702244D01*
X128948283Y-121708427D01*
X128908343Y-121726351D01*
X128875281Y-121754836D01*
X128850384Y-121793249D01*
X128835308Y-121838533D01*
X128829941Y-121893779D01*
X128765978Y-121893779D01*
X128770908Y-121843593D01*
X128792352Y-121779254D01*
X128827421Y-121724449D01*
X128872879Y-121684438D01*
X128908587Y-121665981D01*
X128949045Y-121654616D01*
X128995318Y-121650660D01*
X129042964Y-121654667D01*
G37*
G36*
X128421591Y-122212223D02*
G01*
X128493545Y-122212223D01*
X128690063Y-121663556D01*
X128628880Y-121663556D01*
X128520436Y-121963535D01*
X128458155Y-122146717D01*
X128453831Y-122146717D01*
X128391550Y-121963535D01*
X128282007Y-121663556D01*
X128222949Y-121663556D01*
X128421591Y-122212223D01*
G37*
G36*
X127681162Y-121454179D02*
G01*
X127727686Y-121468854D01*
X127767338Y-121492537D01*
X127800545Y-121524865D01*
X127828701Y-121567524D01*
X127851602Y-121622596D01*
X127871896Y-121714667D01*
X127879519Y-121837066D01*
X127871896Y-121959464D01*
X127851602Y-122051535D01*
X127828701Y-122106608D01*
X127800545Y-122149267D01*
X127767338Y-122181595D01*
X127727686Y-122205277D01*
X127681162Y-122219952D01*
X127626068Y-122225119D01*
X127570292Y-122219919D01*
X127523661Y-122205215D01*
X127484358Y-122181595D01*
X127451416Y-122149301D01*
X127423402Y-122106647D01*
X127400534Y-122051535D01*
X127380240Y-121959464D01*
X127372617Y-121837066D01*
X127375766Y-121786508D01*
X127440321Y-121786508D01*
X127440321Y-121887624D01*
X127445793Y-121971381D01*
X127460764Y-122038127D01*
X127487034Y-122095637D01*
X127521434Y-122135433D01*
X127549972Y-122153783D01*
X127584344Y-122165222D01*
X127626068Y-122169285D01*
X127667110Y-122165257D01*
X127701378Y-122153847D01*
X127730262Y-122135433D01*
X127765086Y-122095592D01*
X127791518Y-122038127D01*
X127806435Y-121971385D01*
X127811888Y-121887624D01*
X127811888Y-121786508D01*
X127806404Y-121701843D01*
X127791518Y-121635492D01*
X127765116Y-121578466D01*
X127730262Y-121538699D01*
X127701378Y-121520284D01*
X127667110Y-121508875D01*
X127626068Y-121504847D01*
X127584344Y-121508910D01*
X127549972Y-121520348D01*
X127521434Y-121538699D01*
X127487004Y-121578421D01*
X127460764Y-121635492D01*
X127445824Y-121701847D01*
X127440321Y-121786508D01*
X127375766Y-121786508D01*
X127380240Y-121714667D01*
X127400534Y-121622596D01*
X127423402Y-121567485D01*
X127451416Y-121524831D01*
X127484358Y-121492537D01*
X127523661Y-121468916D01*
X127570292Y-121454213D01*
X127626068Y-121449013D01*
X127681162Y-121454179D01*
G37*
G36*
X127036361Y-121454179D02*
G01*
X127082885Y-121468854D01*
X127122537Y-121492537D01*
X127155744Y-121524865D01*
X127183900Y-121567524D01*
X127206801Y-121622596D01*
X127227095Y-121714667D01*
X127234718Y-121837066D01*
X127227095Y-121959464D01*
X127206801Y-122051535D01*
X127183900Y-122106608D01*
X127155744Y-122149267D01*
X127122537Y-122181595D01*
X127082885Y-122205277D01*
X127036361Y-122219952D01*
X126981267Y-122225119D01*
X126925490Y-122219919D01*
X126878860Y-122205215D01*
X126839557Y-122181595D01*
X126806615Y-122149301D01*
X126778601Y-122106647D01*
X126755733Y-122051535D01*
X126735439Y-121959464D01*
X126727816Y-121837066D01*
X126730965Y-121786508D01*
X126795520Y-121786508D01*
X126795520Y-121887624D01*
X126800992Y-121971381D01*
X126815963Y-122038127D01*
X126842233Y-122095637D01*
X126876633Y-122135433D01*
X126905171Y-122153783D01*
X126939543Y-122165222D01*
X126981267Y-122169285D01*
X127022309Y-122165257D01*
X127056577Y-122153847D01*
X127085461Y-122135433D01*
X127120284Y-122095592D01*
X127146717Y-122038127D01*
X127161634Y-121971385D01*
X127167087Y-121887624D01*
X127167087Y-121786508D01*
X127161603Y-121701843D01*
X127146717Y-121635492D01*
X127120315Y-121578466D01*
X127085461Y-121538699D01*
X127056577Y-121520284D01*
X127022309Y-121508875D01*
X126981267Y-121504847D01*
X126939543Y-121508910D01*
X126905171Y-121520348D01*
X126876633Y-121538699D01*
X126842203Y-121578421D01*
X126815963Y-121635492D01*
X126801023Y-121701847D01*
X126795520Y-121786508D01*
X126730965Y-121786508D01*
X126735439Y-121714667D01*
X126755733Y-121622596D01*
X126778601Y-121567485D01*
X126806615Y-121524831D01*
X126839557Y-121492537D01*
X126878860Y-121468916D01*
X126925490Y-121454213D01*
X126981267Y-121449013D01*
X127036361Y-121454179D01*
G37*
G36*
X126072317Y-122212223D02*
G01*
X126562000Y-122212223D01*
X126562000Y-122155290D01*
X126342914Y-122155290D01*
X126342914Y-121509170D01*
X126348263Y-121509170D01*
X126554453Y-121691326D01*
X126592041Y-121649487D01*
X126380503Y-121461909D01*
X126278507Y-121461909D01*
X126278507Y-122155290D01*
X126072317Y-122155290D01*
X126072317Y-122212223D01*
G37*
D15*
G36*
X133832667Y-120090000D02*
G01*
X134084542Y-120090000D01*
X134084542Y-117159085D01*
X132409891Y-117159085D01*
X132409891Y-117381652D01*
X133832667Y-117381652D01*
X133832667Y-118495765D01*
X132506428Y-118495765D01*
X132506428Y-118718332D01*
X133832667Y-118718332D01*
X133832667Y-120090000D01*
G37*
G36*
X131494548Y-117909907D02*
G01*
X131651073Y-117952004D01*
X131778463Y-118017843D01*
X131891146Y-118108105D01*
X131980608Y-118210029D01*
X132049023Y-118324673D01*
X131897897Y-118449787D01*
X131794264Y-118300674D01*
X131665073Y-118192049D01*
X131564706Y-118142438D01*
X131447688Y-118111402D01*
X131310432Y-118100458D01*
X131133231Y-118117317D01*
X130999474Y-118163006D01*
X130899005Y-118233632D01*
X130825270Y-118331073D01*
X130777937Y-118460826D01*
X130760519Y-118632969D01*
X130760519Y-118882463D01*
X131255844Y-118882463D01*
X131462896Y-118892164D01*
X131627665Y-118918528D01*
X131757397Y-118958117D01*
X131877655Y-119018168D01*
X131969901Y-119089664D01*
X132038581Y-119172623D01*
X132087724Y-119268852D01*
X132118100Y-119378620D01*
X132128707Y-119504916D01*
X132116087Y-119652049D01*
X132080369Y-119776224D01*
X132023200Y-119881731D01*
X131944059Y-119971664D01*
X131847741Y-120041967D01*
X131731116Y-120094318D01*
X131590070Y-120127812D01*
X131419426Y-120139825D01*
X131254581Y-120126813D01*
X131117883Y-120090365D01*
X131004152Y-120032847D01*
X130904507Y-119953144D01*
X130826729Y-119859363D01*
X130768946Y-119749830D01*
X130752093Y-119749830D01*
X130752093Y-119770896D01*
X130744857Y-119863657D01*
X130724799Y-119938874D01*
X130688481Y-120002473D01*
X130634673Y-120050066D01*
X130565901Y-120079346D01*
X130475122Y-120090000D01*
X130231673Y-120090000D01*
X130231673Y-119880073D01*
X130521284Y-119880073D01*
X130521284Y-119462784D01*
X130760519Y-119462784D01*
X130781795Y-119597677D01*
X130844600Y-119713194D01*
X130941197Y-119806801D01*
X131069181Y-119877325D01*
X131215642Y-119919377D01*
X131385903Y-119934112D01*
X131528348Y-119922042D01*
X131644878Y-119888355D01*
X131740544Y-119835193D01*
X131815861Y-119760361D01*
X131861075Y-119667586D01*
X131877015Y-119551078D01*
X131877015Y-119450144D01*
X131860354Y-119337077D01*
X131812198Y-119244065D01*
X131730102Y-119166029D01*
X131626279Y-119113361D01*
X131476048Y-119076915D01*
X131264270Y-119062897D01*
X130760519Y-119062897D01*
X130760519Y-119462784D01*
X130521284Y-119462784D01*
X130521284Y-118610987D01*
X130535323Y-118443250D01*
X130574929Y-118302492D01*
X130638041Y-118183708D01*
X130724982Y-118083239D01*
X130831360Y-118004266D01*
X130959817Y-117945613D01*
X131114815Y-117908160D01*
X131302006Y-117894745D01*
X131494548Y-117909907D01*
G37*
G36*
X129619295Y-117327247D02*
G01*
X129695232Y-117315698D01*
X129743126Y-117285298D01*
X129772554Y-117238118D01*
X129782876Y-117176304D01*
X129782876Y-117134173D01*
X129772554Y-117072359D01*
X129743126Y-117025179D01*
X129695232Y-116994779D01*
X129619295Y-116983230D01*
X129539884Y-116995022D01*
X129493265Y-117025179D01*
X129465388Y-117072194D01*
X129455530Y-117134173D01*
X129455530Y-117176304D01*
X129465388Y-117238283D01*
X129493265Y-117285298D01*
X129539884Y-117315455D01*
X129619295Y-117327247D01*
G37*
G36*
X129736714Y-120090000D02*
G01*
X129736714Y-117944570D01*
X129497479Y-117944570D01*
X129497479Y-120090000D01*
X129736714Y-120090000D01*
G37*
G36*
X128145961Y-120090000D02*
G01*
X128452424Y-120090000D01*
X128570447Y-120070826D01*
X128649712Y-120018742D01*
X128699194Y-119937987D01*
X128716756Y-119829698D01*
X128716756Y-116983230D01*
X128477520Y-116983230D01*
X128477520Y-119880073D01*
X128145961Y-119880073D01*
X128145961Y-120090000D01*
G37*
G36*
X127583775Y-120090000D02*
G01*
X126651927Y-120090000D01*
X126407360Y-120070839D01*
X126195918Y-120016199D01*
X126011889Y-119928433D01*
X125851189Y-119804844D01*
X125716537Y-119643738D01*
X125606873Y-119439153D01*
X125533239Y-119216462D01*
X125485553Y-118947734D01*
X125468387Y-118624542D01*
X125478600Y-118431468D01*
X125736933Y-118431468D01*
X125736933Y-118817800D01*
X125749892Y-119034194D01*
X125786467Y-119219557D01*
X125844094Y-119378520D01*
X125927411Y-119524001D01*
X126030504Y-119643371D01*
X126154588Y-119739572D01*
X126295456Y-119809085D01*
X126458265Y-119852399D01*
X126647714Y-119867616D01*
X127331899Y-119867616D01*
X127331899Y-117381652D01*
X126647714Y-117381652D01*
X126458146Y-117396650D01*
X126295329Y-117439308D01*
X126154588Y-117507681D01*
X126030733Y-117602694D01*
X125927621Y-117721971D01*
X125844094Y-117868733D01*
X125786407Y-118029000D01*
X125749860Y-118215089D01*
X125736933Y-118431468D01*
X125478600Y-118431468D01*
X125485639Y-118298410D01*
X125533404Y-118029201D01*
X125606873Y-117807916D01*
X125716431Y-117604651D01*
X125851066Y-117444226D01*
X126011889Y-117320835D01*
X126195929Y-117232965D01*
X126407370Y-117178266D01*
X126651927Y-117159085D01*
X127583775Y-117159085D01*
X127583775Y-120090000D01*
G37*
G36*
X124235237Y-117910418D02*
G01*
X124398981Y-117955520D01*
X124544234Y-118028834D01*
X124671863Y-118129471D01*
X124780023Y-118256656D01*
X124869565Y-118414066D01*
X124931653Y-118585380D01*
X124971028Y-118784815D01*
X124984970Y-119017285D01*
X124971028Y-119249755D01*
X124931653Y-119449190D01*
X124869565Y-119620504D01*
X124779894Y-119777757D01*
X124671034Y-119905027D01*
X124542035Y-120005919D01*
X124395517Y-120079196D01*
X124231058Y-120124208D01*
X124044696Y-120139825D01*
X123844909Y-120122705D01*
X123672439Y-120073786D01*
X123522260Y-119994745D01*
X123390306Y-119887202D01*
X123285373Y-119760964D01*
X123205355Y-119613909D01*
X123381577Y-119496123D01*
X123450884Y-119628553D01*
X123535366Y-119734799D01*
X123635467Y-119818340D01*
X123750608Y-119879269D01*
X123881656Y-119916811D01*
X124032240Y-119929898D01*
X124195260Y-119915419D01*
X124332603Y-119874419D01*
X124449180Y-119808647D01*
X124548447Y-119717224D01*
X124627245Y-119606358D01*
X124684636Y-119479275D01*
X124720498Y-119332979D01*
X124733094Y-119163647D01*
X124733094Y-119058318D01*
X123142341Y-119058318D01*
X123142341Y-118945661D01*
X123149194Y-118840148D01*
X123402643Y-118840148D01*
X123402643Y-118873487D01*
X124733094Y-118873487D01*
X124733094Y-118852787D01*
X124723207Y-118704981D01*
X124694832Y-118574186D01*
X124649197Y-118457847D01*
X124584670Y-118351494D01*
X124505909Y-118263467D01*
X124411976Y-118191866D01*
X124306127Y-118139696D01*
X124186120Y-118107475D01*
X124048909Y-118096245D01*
X123922952Y-118107067D01*
X123810466Y-118138438D01*
X123708923Y-118189851D01*
X123619007Y-118259709D01*
X123543760Y-118345651D01*
X123482327Y-118449603D01*
X123423565Y-118625475D01*
X123402643Y-118840148D01*
X123149194Y-118840148D01*
X123155718Y-118739694D01*
X123194091Y-118557364D01*
X123255730Y-118395198D01*
X123342702Y-118246122D01*
X123447320Y-118124113D01*
X123570437Y-118026086D01*
X123710065Y-117954321D01*
X123868178Y-117910127D01*
X124048909Y-117894745D01*
X124235237Y-117910418D01*
G37*
G36*
X122074590Y-117909907D02*
G01*
X122231115Y-117952004D01*
X122358504Y-118017843D01*
X122471188Y-118108105D01*
X122560649Y-118210029D01*
X122629064Y-118324673D01*
X122477939Y-118449787D01*
X122374306Y-118300674D01*
X122245115Y-118192049D01*
X122144748Y-118142438D01*
X122027730Y-118111402D01*
X121890474Y-118100458D01*
X121713273Y-118117317D01*
X121579516Y-118163006D01*
X121479047Y-118233632D01*
X121405312Y-118331073D01*
X121357979Y-118460826D01*
X121340561Y-118632969D01*
X121340561Y-118882463D01*
X121835886Y-118882463D01*
X122042938Y-118892164D01*
X122207707Y-118918528D01*
X122337438Y-118958117D01*
X122457697Y-119018168D01*
X122549943Y-119089664D01*
X122618623Y-119172623D01*
X122667766Y-119268852D01*
X122698142Y-119378620D01*
X122708749Y-119504916D01*
X122696129Y-119652049D01*
X122660411Y-119776224D01*
X122603242Y-119881731D01*
X122524101Y-119971664D01*
X122427783Y-120041967D01*
X122311158Y-120094318D01*
X122170112Y-120127812D01*
X121999467Y-120139825D01*
X121834623Y-120126813D01*
X121697925Y-120090365D01*
X121584193Y-120032847D01*
X121484549Y-119953144D01*
X121406771Y-119859363D01*
X121348988Y-119749830D01*
X121332135Y-119749830D01*
X121332135Y-119770896D01*
X121324899Y-119863657D01*
X121304841Y-119938874D01*
X121268523Y-120002473D01*
X121214715Y-120050066D01*
X121145943Y-120079346D01*
X121055163Y-120090000D01*
X120811714Y-120090000D01*
X120811714Y-119880073D01*
X121101325Y-119880073D01*
X121101325Y-119462784D01*
X121340561Y-119462784D01*
X121361837Y-119597677D01*
X121424642Y-119713194D01*
X121521239Y-119806801D01*
X121649223Y-119877325D01*
X121795684Y-119919377D01*
X121965945Y-119934112D01*
X122108390Y-119922042D01*
X122224919Y-119888355D01*
X122320586Y-119835193D01*
X122395903Y-119760361D01*
X122441117Y-119667586D01*
X122457056Y-119551078D01*
X122457056Y-119450144D01*
X122440396Y-119337077D01*
X122392240Y-119244065D01*
X122310144Y-119166029D01*
X122206321Y-119113361D01*
X122056090Y-119076915D01*
X121844312Y-119062897D01*
X121340561Y-119062897D01*
X121340561Y-119462784D01*
X121101325Y-119462784D01*
X121101325Y-118610987D01*
X121115365Y-118443250D01*
X121154971Y-118302492D01*
X121218083Y-118183708D01*
X121305024Y-118083239D01*
X121411402Y-118004266D01*
X121539859Y-117945613D01*
X121694856Y-117908160D01*
X121882048Y-117894745D01*
X122074590Y-117909907D01*
G37*
G36*
X118927503Y-118288953D02*
G01*
X118940143Y-118288953D01*
X119003040Y-118176628D01*
X119084356Y-118081468D01*
X119185607Y-118001723D01*
X119300625Y-117943844D01*
X119435579Y-117907567D01*
X119594836Y-117894745D01*
X119772794Y-117910171D01*
X119928854Y-117954562D01*
X120067079Y-118026819D01*
X120187546Y-118125823D01*
X120289514Y-118252170D01*
X120373543Y-118410036D01*
X120430863Y-118580767D01*
X120467487Y-118781471D01*
X120480521Y-119017285D01*
X120467575Y-119250186D01*
X120431032Y-119450378D01*
X120373543Y-119622519D01*
X120289411Y-119781706D01*
X120187427Y-119908735D01*
X120067079Y-120007934D01*
X119928865Y-120080086D01*
X119772805Y-120124418D01*
X119594836Y-120139825D01*
X119435733Y-120126700D01*
X119302310Y-120089704D01*
X119189820Y-120030832D01*
X119090216Y-119950647D01*
X119007357Y-119856054D01*
X118940143Y-119745617D01*
X118927503Y-119745617D01*
X118927503Y-120090000D01*
X118688267Y-120090000D01*
X118688267Y-118586074D01*
X118927503Y-118586074D01*
X118927503Y-119435856D01*
X118948794Y-119574343D01*
X119011584Y-119693410D01*
X119107969Y-119790836D01*
X119233967Y-119865052D01*
X119377818Y-119910136D01*
X119540247Y-119925685D01*
X119696914Y-119911688D01*
X119829982Y-119871906D01*
X119943952Y-119807841D01*
X120041983Y-119718506D01*
X120119487Y-119610463D01*
X120176215Y-119485026D01*
X120211853Y-119338937D01*
X120224433Y-119168044D01*
X120224433Y-118866526D01*
X120211767Y-118693380D01*
X120175998Y-118546366D01*
X120119260Y-118421078D01*
X120041983Y-118314049D01*
X119944080Y-118225674D01*
X119830158Y-118162215D01*
X119697045Y-118122771D01*
X119540247Y-118108885D01*
X119377827Y-118124479D01*
X119233967Y-118169701D01*
X119107656Y-118242987D01*
X119011584Y-118337130D01*
X118948774Y-118451932D01*
X118927503Y-118586074D01*
X118688267Y-118586074D01*
X118688267Y-116983230D01*
X118927503Y-116983230D01*
X118927503Y-118288953D01*
G37*
G36*
X117336749Y-120090000D02*
G01*
X117643213Y-120090000D01*
X117761235Y-120070826D01*
X117840500Y-120018742D01*
X117889982Y-119937987D01*
X117907545Y-119829698D01*
X117907545Y-116983230D01*
X117668309Y-116983230D01*
X117668309Y-119880073D01*
X117336749Y-119880073D01*
X117336749Y-120090000D01*
G37*
G36*
X116037438Y-119355439D02*
G01*
X115529658Y-117944570D01*
X115290422Y-117944570D01*
X116301770Y-120698897D01*
X116335916Y-120781217D01*
X116373211Y-120839581D01*
X116421170Y-120884022D01*
X116482388Y-120913037D01*
X116554856Y-120928203D01*
X116658609Y-120934103D01*
X116902058Y-120934103D01*
X116902058Y-120724359D01*
X116541006Y-120724359D01*
X116335476Y-120157411D01*
X117141294Y-117944570D01*
X116897845Y-117944570D01*
X116394094Y-119355439D01*
X116230512Y-119846734D01*
X116213660Y-119846734D01*
X116037438Y-119355439D01*
G37*
D10*
X154464819Y-112066666D02*
X155179104Y-112066666D01*
X155179104Y-112066666D02*
X155321961Y-112019047D01*
X155321961Y-112019047D02*
X155417200Y-111923809D01*
X155417200Y-111923809D02*
X155464819Y-111780952D01*
X155464819Y-111780952D02*
X155464819Y-111685714D01*
X154798152Y-112971428D02*
X155464819Y-112971428D01*
X154417200Y-112733333D02*
X155131485Y-112495238D01*
X155131485Y-112495238D02*
X155131485Y-113114285D01*
%TO.C,J4*%
D16*
X156010000Y-109750000D02*
X156010000Y-115050000D01*
X156010000Y-109750000D02*
X156580000Y-109750000D01*
X156010000Y-115050000D02*
X156580000Y-115050000D01*
X156580000Y-108360000D02*
X156580000Y-109750000D01*
X158200000Y-109750000D02*
X159120000Y-109750000D01*
X158200000Y-115050000D02*
X159120000Y-115050000D01*
X160740000Y-109750000D02*
X161660000Y-109750000D01*
X160740000Y-115050000D02*
X161660000Y-115050000D01*
X163280000Y-109750000D02*
X164200000Y-109750000D01*
X163280000Y-115050000D02*
X164200000Y-115050000D01*
X165820000Y-109750000D02*
X166390000Y-109750000D01*
X165820000Y-115050000D02*
X166390000Y-115050000D01*
X166390000Y-109750000D02*
X166390000Y-115050000D01*
%TD*%
M02*
